<?xml version="1.0" standalone="no"?>
<!DOCTYPE svg PUBLIC "-//W3C//DTD SVG 1.1//EN" 
  "http://www.w3.org/Graphics/SVG/1.1/DTD/svg11.dtd">
<svg width="1024" height="1024" viewBox="0 0 1024 1024"
     xmlns="http://www.w3.org/2000/svg" version="1.1">
<desc>'haus.blend', Plane.025, (Blender 2.78 (sub 0))</desc>
<polygon stroke="black" stroke-width="1" fill="grey" fill-opacity="0.25" points="517.493,1013.059 517.493,975.596 517.493,975.596 517.493,1013.059 " />
<polygon stroke="black" stroke-width="1" fill="grey" fill-opacity="0.25" points="221.536,342.998 221.536,374.218 221.536,374.218 221.536,342.998 " />
<polygon stroke="black" stroke-width="1" fill="grey" fill-opacity="0.25" points="517.493,725.840 528.337,725.840 528.337,725.840 517.493,725.840 " />
<polygon stroke="black" stroke-width="1" fill="grey" fill-opacity="0.25" points="575.777,374.218 575.777,342.998 575.777,342.998 575.777,374.218 " />
<polygon stroke="black" stroke-width="1" fill="grey" fill-opacity="0.25" points="517.493,725.840 367.483,725.840 367.483,725.840 517.493,725.840 " />
<polygon stroke="black" stroke-width="1" fill="grey" fill-opacity="0.25" points="505.291,342.998 505.291,374.218 505.290,374.218 505.290,342.998 " />
<polygon stroke="black" stroke-width="1" fill="grey" fill-opacity="0.25" points="517.493,1013.059 367.483,1013.059 367.483,1013.059 517.493,1013.059 " />
<polygon stroke="black" stroke-width="1" fill="grey" fill-opacity="0.25" points="494.446,374.218 494.446,342.998 494.446,342.998 494.446,374.218 " />
<polygon stroke="black" stroke-width="1" fill="grey" fill-opacity="0.25" points="774.137,975.596 774.137,838.230 774.137,838.230 774.137,975.596 " />
<polygon stroke="black" stroke-width="1" fill="grey" fill-opacity="0.25" points="423.960,342.998 423.960,374.218 423.960,374.218 423.960,342.998 " />
<polygon stroke="black" stroke-width="1" fill="grey" fill-opacity="0.25" points="217.473,975.596 217.473,838.230 217.473,838.230 217.473,975.596 " />
<polygon stroke="black" stroke-width="1" fill="grey" fill-opacity="0.25" points="778.200,374.218 778.200,342.998 778.200,342.998 778.200,374.218 " />
<polygon stroke="black" stroke-width="1" fill="grey" fill-opacity="0.25" points="644.008,975.596 644.008,838.230 644.008,838.230 644.008,975.596 " />
<polygon stroke="black" stroke-width="1" fill="grey" fill-opacity="0.25" points="720.365,342.998 720.365,374.218 720.365,374.218 720.365,342.998 " />
<polygon stroke="black" stroke-width="1" fill="grey" fill-opacity="0.25" points="571.714,975.596 571.714,838.230 571.714,838.230 571.714,975.596 " />
<polygon stroke="black" stroke-width="1" fill="grey" fill-opacity="0.25" points="1013.156,661.437 1024.000,661.437 1024.000,661.437 1013.156,661.437 " />
<polygon stroke="black" stroke-width="1" fill="grey" fill-opacity="0.25" points="528.337,975.596 528.337,838.230 528.337,838.230 528.337,975.596 " />
<polygon stroke="black" stroke-width="1" fill="grey" fill-opacity="0.25" points="18.074,31.220 162.662,31.220 162.662,31.220 18.074,31.220 " />
<polygon stroke="black" stroke-width="1" fill="grey" fill-opacity="0.25" points="517.493,975.596 517.493,838.230 517.493,838.230 517.493,975.596 " />
<polygon stroke="black" stroke-width="1" fill="grey" fill-opacity="0.25" points="18.074,992.780 162.662,992.780 162.662,992.780 18.074,992.780 " />
<polygon stroke="black" stroke-width="1" fill="grey" fill-opacity="0.25" points="644.008,975.596 571.714,975.596 571.714,975.596 644.008,975.596 " />
<polygon stroke="black" stroke-width="1" fill="grey" fill-opacity="0.25" points="18.074,608.156 18.074,800.468 18.074,800.468 18.074,608.156 " />
<polygon stroke="black" stroke-width="1" fill="grey" fill-opacity="0.25" points="774.137,838.230 774.137,725.840 774.137,725.840 774.137,838.230 " />
<polygon stroke="black" stroke-width="1" fill="grey" fill-opacity="0.25" points="18.074,223.532 18.074,249.756 18.074,249.756 18.074,223.532 " />
<polygon stroke="black" stroke-width="1" fill="grey" fill-opacity="0.25" points="217.473,838.230 217.473,725.840 217.473,725.840 217.473,838.230 " />
<polygon stroke="black" stroke-width="1" fill="grey" fill-opacity="0.25" points="0.000,31.220 0.000,223.532 0.000,223.532 0.000,31.220 " />
<polygon stroke="black" stroke-width="1" fill="grey" fill-opacity="0.25" points="644.008,838.230 644.008,725.840 644.008,725.840 644.008,838.230 " />
<polygon stroke="black" stroke-width="1" fill="grey" fill-opacity="0.25" points="0.000,800.468 0.000,992.780 0.000,992.780 0.000,800.468 " />
<polygon stroke="black" stroke-width="1" fill="grey" fill-opacity="0.25" points="203.463,374.218 203.463,623.974 203.463,623.974 203.463,374.218 " />
<polygon stroke="black" stroke-width="1" fill="grey" fill-opacity="0.25" points="571.714,838.230 571.714,725.840 571.714,725.840 571.714,838.230 " />
<polygon stroke="black" stroke-width="1" fill="grey" fill-opacity="0.25" points="0.000,415.844 0.000,455.805 0.000,455.805 0.000,415.844 " />
<polygon stroke="black" stroke-width="1" fill="grey" fill-opacity="0.25" points="575.777,661.437 720.365,661.437 720.365,661.437 575.777,661.437 " />
<polygon stroke="black" stroke-width="1" fill="grey" fill-opacity="0.25" points="528.337,838.230 517.493,838.230 517.493,838.230 528.337,838.230 " />
<polygon stroke="black" stroke-width="1" fill="grey" fill-opacity="0.25" points="18.074,608.156 0.000,608.156 0.000,608.156 18.074,608.156 " />
<polygon stroke="black" stroke-width="1" fill="grey" fill-opacity="0.25" points="575.777,374.218 575.777,623.974 575.777,623.974 575.777,374.218 " />
<polygon stroke="black" stroke-width="1" fill="grey" fill-opacity="0.25" points="367.483,1013.059 217.473,1013.059 217.473,1013.059 367.483,1013.059 " />
<polygon stroke="black" stroke-width="1" fill="grey" fill-opacity="0.25" points="0.000,415.844 18.074,415.844 18.074,415.844 0.000,415.844 " />
<polygon stroke="black" stroke-width="1" fill="grey" fill-opacity="0.25" points="505.291,661.437 575.777,661.437 575.777,661.437 505.290,661.437 " />
<polygon stroke="black" stroke-width="1" fill="grey" fill-opacity="0.25" points="745.219,694.620 774.137,694.620 774.137,694.620 745.219,694.620 " />
<polygon stroke="black" stroke-width="1" fill="grey" fill-opacity="0.25" points="18.074,992.780 0.000,992.780 0.000,992.780 18.074,992.780 " />
<polygon stroke="black" stroke-width="1" fill="grey" fill-opacity="0.25" points="720.365,374.218 720.365,623.974 720.365,623.974 720.365,374.218 " />
<polygon stroke="black" stroke-width="1" fill="grey" fill-opacity="0.25" points="644.008,694.620 672.925,694.620 672.925,694.620 644.008,694.620 " />
<polygon stroke="black" stroke-width="1" fill="grey" fill-opacity="0.25" points="0.000,800.468 18.074,800.468 18.074,800.468 0.000,800.468 " />
<polygon stroke="black" stroke-width="1" fill="grey" fill-opacity="0.25" points="1024.000,623.974 1013.156,623.974 1013.156,623.974 1024.000,623.974 " />
<polygon stroke="black" stroke-width="1" fill="grey" fill-opacity="0.25" points="528.337,694.620 571.714,694.620 571.714,694.620 528.337,694.620 " />
<polygon stroke="black" stroke-width="1" fill="grey" fill-opacity="0.25" points="18.074,223.532 0.000,223.532 0.000,223.532 18.074,223.532 " />
<polygon stroke="black" stroke-width="1" fill="grey" fill-opacity="0.25" points="505.291,374.218 494.446,374.218 494.446,374.218 505.290,374.218 " />
<polygon stroke="black" stroke-width="1" fill="grey" fill-opacity="0.25" points="367.483,694.620 217.473,694.620 217.473,694.620 367.483,694.620 " />
<polygon stroke="black" stroke-width="1" fill="grey" fill-opacity="0.25" points="0.000,31.220 18.074,31.220 18.074,31.220 0.000,31.220 " />
<polygon stroke="black" stroke-width="1" fill="grey" fill-opacity="0.25" points="423.960,661.437 494.446,661.437 494.446,661.437 423.960,661.437 " />
<polygon stroke="black" stroke-width="1" fill="grey" fill-opacity="0.25" points="672.925,725.840 672.925,694.620 672.925,694.620 672.925,725.840 " />
<polygon stroke="black" stroke-width="1" fill="grey" fill-opacity="0.25" points="184.350,992.780 184.350,800.468 184.350,800.468 184.350,992.780 " />
<polygon stroke="black" stroke-width="1" fill="grey" fill-opacity="0.25" points="221.536,661.437 279.372,661.437 279.372,661.437 221.536,661.437 " />
<polygon stroke="black" stroke-width="1" fill="grey" fill-opacity="0.25" points="644.008,694.620 644.008,725.840 644.008,725.840 644.008,694.620 " />
<polygon stroke="black" stroke-width="1" fill="grey" fill-opacity="0.25" points="184.350,223.532 184.350,31.220 184.350,31.220 184.350,223.532 " />
<polygon stroke="black" stroke-width="1" fill="grey" fill-opacity="0.25" points="423.960,374.218 423.960,623.974 423.960,623.974 423.960,374.218 " />
<polygon stroke="black" stroke-width="1" fill="grey" fill-opacity="0.25" points="774.137,725.840 774.137,694.620 774.137,694.620 774.137,725.840 " />
<polygon stroke="black" stroke-width="1" fill="grey" fill-opacity="0.25" points="184.350,415.844 184.350,268.488 184.350,268.488 184.350,415.844 " />
<polygon stroke="black" stroke-width="1" fill="grey" fill-opacity="0.25" points="221.536,374.218 203.463,374.218 203.463,374.218 221.536,374.218 " />
<polygon stroke="black" stroke-width="1" fill="grey" fill-opacity="0.25" points="745.219,694.620 745.219,725.840 745.219,725.840 745.219,694.620 " />
<polygon stroke="black" stroke-width="1" fill="grey" fill-opacity="0.25" points="184.350,800.468 184.350,608.156 184.350,608.156 184.350,800.468 " />
<polygon stroke="black" stroke-width="1" fill="grey" fill-opacity="0.25" points="279.372,374.218 279.372,623.974 279.372,623.974 279.372,374.218 " />
<polygon stroke="black" stroke-width="1" fill="grey" fill-opacity="0.25" points="571.714,725.840 571.714,694.620 571.714,694.620 571.714,725.840 " />
<polygon stroke="black" stroke-width="1" fill="grey" fill-opacity="0.25" points="162.662,0.000 184.350,0.000 184.350,0.000 162.662,0.000 " />
<polygon stroke="black" stroke-width="1" fill="grey" fill-opacity="0.25" points="279.372,661.437 423.960,661.437 423.960,661.437 279.372,661.437 " />
<polygon stroke="black" stroke-width="1" fill="grey" fill-opacity="0.25" points="528.337,694.620 528.337,725.840 528.337,725.840 528.337,694.620 " />
<polygon stroke="black" stroke-width="1" fill="grey" fill-opacity="0.25" points="184.350,0.000 184.350,31.220 184.350,31.220 184.350,0.000 " />
<polygon stroke="black" stroke-width="1" fill="grey" fill-opacity="0.25" points="720.365,661.437 778.200,661.437 778.200,661.437 720.365,661.437 " />
<polygon stroke="black" stroke-width="1" fill="grey" fill-opacity="0.25" points="367.483,725.840 367.483,694.620 367.483,694.620 367.483,725.840 " />
<polygon stroke="black" stroke-width="1" fill="grey" fill-opacity="0.25" points="162.662,31.220 162.662,0.000 162.662,0.000 162.662,31.220 " />
<polygon stroke="black" stroke-width="1" fill="grey" fill-opacity="0.25" points="796.274,374.218 778.200,374.218 778.200,374.218 796.274,374.218 " />
<polygon stroke="black" stroke-width="1" fill="grey" fill-opacity="0.25" points="217.473,694.620 217.473,725.840 217.473,725.840 217.473,694.620 " />
<polygon stroke="black" stroke-width="1" fill="grey" fill-opacity="0.25" points="184.350,1024.000 162.662,1024.000 162.662,1024.000 184.350,1024.000 " />
<polygon stroke="black" stroke-width="1" fill="grey" fill-opacity="0.25" points="1024.000,623.974 1024.000,661.437 1024.000,661.437 1024.000,623.974 " />
<polygon stroke="black" stroke-width="1" fill="grey" fill-opacity="0.25" points="199.399,1013.059 199.399,975.596 199.399,975.596 199.399,1013.059 " />
<polygon stroke="black" stroke-width="1" fill="grey" fill-opacity="0.25" points="162.662,1024.000 162.662,992.780 162.662,992.780 162.662,1024.000 " />
<polygon stroke="black" stroke-width="1" fill="grey" fill-opacity="0.25" points="505.291,623.974 505.291,661.437 505.290,661.437 505.290,623.974 " />
<polygon stroke="black" stroke-width="1" fill="grey" fill-opacity="0.25" points="199.399,1013.059 217.473,1013.059 217.473,1013.059 199.399,1013.059 " />
<polygon stroke="black" stroke-width="1" fill="grey" fill-opacity="0.25" points="184.350,992.780 184.350,1024.000 184.350,1024.000 184.350,992.780 " />
<polygon stroke="black" stroke-width="1" fill="grey" fill-opacity="0.25" points="494.446,623.974 494.446,661.437 494.446,661.437 494.446,623.974 " />
<polygon stroke="black" stroke-width="1" fill="grey" fill-opacity="0.25" points="217.473,975.596 199.399,975.596 199.399,975.596 217.473,975.596 " />
<polygon stroke="black" stroke-width="1" fill="grey" fill-opacity="0.25" points="162.662,474.537 162.662,455.805 162.662,455.805 162.662,474.537 " />
<polygon stroke="black" stroke-width="1" fill="grey" fill-opacity="0.25" points="221.536,623.974 221.536,661.437 221.536,661.437 221.536,623.974 " />
<polygon stroke="black" stroke-width="1" fill="grey" fill-opacity="0.25" points="792.210,1013.059 792.210,975.596 792.210,975.596 792.210,1013.059 " />
<polygon stroke="black" stroke-width="1" fill="grey" fill-opacity="0.25" points="184.350,474.537 162.662,474.537 162.662,474.537 184.350,474.537 " />
<polygon stroke="black" stroke-width="1" fill="grey" fill-opacity="0.25" points="778.200,623.974 778.200,661.437 778.200,661.437 778.200,623.974 " />
<polygon stroke="black" stroke-width="1" fill="grey" fill-opacity="0.25" points="774.137,1013.059 792.210,1013.059 792.210,1013.059 774.137,1013.059 " />
<polygon stroke="black" stroke-width="1" fill="grey" fill-opacity="0.25" points="0.000,455.805 0.000,474.537 0.000,474.537 0.000,455.805 " />
<polygon stroke="black" stroke-width="1" fill="grey" fill-opacity="0.25" points="796.274,623.974 796.274,661.437 796.274,661.437 796.274,623.974 " />
<polygon stroke="black" stroke-width="1" fill="grey" fill-opacity="0.25" points="792.210,975.596 774.137,975.596 774.137,975.596 792.210,975.596 " />
<polygon stroke="black" stroke-width="1" fill="grey" fill-opacity="0.25" points="184.350,455.805 184.350,415.844 184.350,415.844 184.350,455.805 " />
<polygon stroke="black" stroke-width="1" fill="grey" fill-opacity="0.25" points="796.274,623.974 778.200,623.974 778.200,623.974 796.274,623.974 " />
<polygon stroke="black" stroke-width="1" fill="grey" fill-opacity="0.25" points="184.350,455.805 162.662,455.805 162.662,455.805 184.350,455.805 " />
<polygon stroke="black" stroke-width="1" fill="grey" fill-opacity="0.25" points="423.960,623.974 279.372,623.974 279.372,623.974 423.960,623.974 " />
<polygon stroke="black" stroke-width="1" fill="grey" fill-opacity="0.25" points="184.350,608.156 184.350,474.537 184.350,474.537 184.350,608.156 " />
<polygon stroke="black" stroke-width="1" fill="grey" fill-opacity="0.25" points="221.536,623.974 203.463,623.974 203.463,623.974 221.536,623.974 " />
<polygon stroke="black" stroke-width="1" fill="grey" fill-opacity="0.25" points="0.000,474.537 0.000,608.156 0.000,608.156 0.000,474.537 " />
<polygon stroke="black" stroke-width="1" fill="grey" fill-opacity="0.25" points="505.291,623.974 494.446,623.974 494.446,623.974 505.290,623.974 " />
<polygon stroke="black" stroke-width="1" fill="grey" fill-opacity="0.25" points="18.074,249.756 18.074,268.488 18.074,268.488 18.074,249.756 " />
<polygon stroke="black" stroke-width="1" fill="grey" fill-opacity="0.25" points="720.365,623.974 575.777,623.974 575.777,623.974 720.365,623.974 " />
<polygon stroke="black" stroke-width="1" fill="grey" fill-opacity="0.25" points="184.350,249.756 184.350,223.532 184.350,223.532 184.350,249.756 " />
<polygon stroke="black" stroke-width="1" fill="grey" fill-opacity="0.25" points="796.274,661.437 904.715,661.437 904.715,661.437 796.274,661.437 " />
<polygon stroke="black" stroke-width="1" fill="grey" fill-opacity="0.25" points="184.350,249.756 162.662,249.756 162.662,249.756 184.350,249.756 " />
<polygon stroke="black" stroke-width="1" fill="grey" fill-opacity="0.25" points="1013.156,374.218 1013.156,623.974 1013.156,623.974 1013.156,374.218 " />
<polygon stroke="black" stroke-width="1" fill="grey" fill-opacity="0.25" points="162.662,268.488 162.662,249.756 162.662,249.756 162.662,268.488 " />
<polygon stroke="black" stroke-width="1" fill="grey" fill-opacity="0.25" points="904.715,661.437 1013.156,661.437 1013.156,661.437 904.715,661.437 " />
<polygon stroke="black" stroke-width="1" fill="grey" fill-opacity="0.25" points="18.074,268.488 18.074,415.844 18.074,415.844 18.074,268.488 " />
<polygon stroke="black" stroke-width="1" fill="grey" fill-opacity="0.25" points="904.715,374.218 796.274,374.218 796.274,374.218 904.715,374.218 " />
<polygon stroke="black" stroke-width="1" fill="grey" fill-opacity="0.25" points="184.350,268.488 162.662,268.488 162.662,268.488 184.350,268.488 " />
<polygon stroke="black" stroke-width="1" fill="grey" fill-opacity="0.25" points="575.777,342.998 505.291,342.998 505.290,342.998 575.777,342.998 " />
<polygon stroke="black" stroke-width="1" fill="grey" fill-opacity="0.25" points="774.137,1013.059 745.219,1013.059 745.219,1013.059 774.137,1013.059 " />
<polygon stroke="black" stroke-width="1" fill="grey" fill-opacity="0.25" points="494.446,342.998 423.960,342.998 423.960,342.998 494.446,342.998 " />
<polygon stroke="black" stroke-width="1" fill="grey" fill-opacity="0.25" points="745.219,1013.059 672.925,1013.059 672.925,1013.059 745.219,1013.059 " />
<polygon stroke="black" stroke-width="1" fill="grey" fill-opacity="0.25" points="279.372,342.998 221.536,342.998 221.536,342.998 279.372,342.998 " />
<polygon stroke="black" stroke-width="1" fill="grey" fill-opacity="0.25" points="672.925,725.840 745.219,725.840 745.219,725.840 672.925,725.840 " />
<polygon stroke="black" stroke-width="1" fill="grey" fill-opacity="0.25" points="778.200,342.998 720.365,342.998 720.365,342.998 778.200,342.998 " />
<polygon stroke="black" stroke-width="1" fill="grey" fill-opacity="0.25" points="672.925,1013.059 644.008,1013.059 644.008,1013.059 672.925,1013.059 " />
<polygon stroke="black" stroke-width="1" fill="grey" fill-opacity="0.25" points="1013.156,342.998 904.715,342.998 904.715,342.998 1013.156,342.998 " />
<polygon stroke="black" stroke-width="1" fill="grey" fill-opacity="0.25" points="644.008,1013.059 571.714,1013.059 571.714,1013.059 644.008,1013.059 " />
<polygon stroke="black" stroke-width="1" fill="grey" fill-opacity="0.25" points="1013.156,374.218 1013.156,342.998 1013.156,342.998 1013.156,374.218 " />
<polygon stroke="black" stroke-width="1" fill="grey" fill-opacity="0.25" points="528.337,1013.059 528.337,975.596 528.337,975.596 528.337,1013.059 " />
<polygon stroke="black" stroke-width="1" fill="grey" fill-opacity="0.25" points="904.715,342.998 904.715,374.218 904.715,374.218 904.715,342.998 " />
<polygon stroke="black" stroke-width="1" fill="grey" fill-opacity="0.25" points="571.714,1013.059 528.337,1013.059 528.337,1013.059 571.714,1013.059 " />
<polygon stroke="black" stroke-width="1" fill="grey" fill-opacity="0.25" points="279.372,374.218 279.372,342.998 279.372,342.998 279.372,374.218 " />
<polygon stroke="black" stroke-width="1" fill="grey" fill-opacity="0.25" points="770.453,34.256 770.453,3.036 770.453,3.036 770.453,34.256 " />
<polygon stroke="black" stroke-width="1" fill="grey" fill-opacity="0.25" points="557.186,146.646 484.892,146.646 484.892,146.646 557.186,146.646 " />
<polygon stroke="black" stroke-width="1" fill="grey" fill-opacity="0.25" points="730.691,3.036 730.691,34.256 730.691,34.256 730.691,3.036 " />
<polygon stroke="black" stroke-width="1" fill="grey" fill-opacity="0.25" points="484.892,34.256 557.186,34.256 557.186,34.256 484.892,34.256 " />
<polygon stroke="black" stroke-width="1" fill="grey" fill-opacity="0.25" points="484.892,34.256 484.892,3.036 484.892,3.036 484.892,34.256 " />
<polygon stroke="black" stroke-width="1" fill="grey" fill-opacity="0.25" points="557.186,321.475 484.892,321.475 484.892,321.475 557.186,321.475 " />
<polygon stroke="black" stroke-width="1" fill="grey" fill-opacity="0.25" points="434.286,3.036 434.286,34.256 434.286,34.256 434.286,3.036 " />
<polygon stroke="black" stroke-width="1" fill="grey" fill-opacity="0.25" points="484.892,284.012 557.186,284.012 557.186,284.012 484.892,284.012 " />
<polygon stroke="black" stroke-width="1" fill="grey" fill-opacity="0.25" points="271.624,34.256 271.624,3.036 271.624,3.036 271.624,34.256 " />
<polygon stroke="black" stroke-width="1" fill="grey" fill-opacity="0.25" points="622.250,284.012 622.250,146.646 622.250,146.646 622.250,284.012 " />
<polygon stroke="black" stroke-width="1" fill="grey" fill-opacity="0.25" points="213.789,3.036 213.789,34.256 213.789,34.256 213.789,3.036 " />
<polygon stroke="black" stroke-width="1" fill="grey" fill-opacity="0.25" points="622.250,321.475 557.186,321.475 557.186,321.475 622.250,321.475 " />
<polygon stroke="black" stroke-width="1" fill="grey" fill-opacity="0.25" points="730.691,284.012 730.691,146.646 730.691,146.646 730.691,284.012 " />
<polygon stroke="black" stroke-width="1" fill="grey" fill-opacity="0.25" points="195.716,284.012 195.716,146.646 195.716,146.646 195.716,284.012 " />
<polygon stroke="black" stroke-width="1" fill="grey" fill-opacity="0.25" points="730.691,146.646 622.250,146.646 622.250,146.646 730.691,146.646 " />
<polygon stroke="black" stroke-width="1" fill="grey" fill-opacity="0.25" points="195.716,146.646 195.716,34.256 195.716,34.256 195.716,146.646 " />
<polygon stroke="black" stroke-width="1" fill="grey" fill-opacity="0.25" points="622.250,34.256 730.691,34.256 730.691,34.256 622.250,34.256 " />
<polygon stroke="black" stroke-width="1" fill="grey" fill-opacity="0.25" points="213.789,321.475 213.789,284.012 213.789,284.012 213.789,321.475 " />
<polygon stroke="black" stroke-width="1" fill="grey" fill-opacity="0.25" points="730.691,321.475 622.250,321.475 622.250,321.475 730.691,321.475 " />
<polygon stroke="black" stroke-width="1" fill="grey" fill-opacity="0.25" points="195.716,34.256 213.789,34.256 213.789,34.256 195.716,34.256 " />
<polygon stroke="black" stroke-width="1" fill="grey" fill-opacity="0.25" points="622.250,284.012 730.691,284.012 730.691,284.012 622.250,284.012 " />
<polygon stroke="black" stroke-width="1" fill="grey" fill-opacity="0.25" points="195.716,284.012 213.789,284.012 213.789,284.012 195.716,284.012 " />
<polygon stroke="black" stroke-width="1" fill="grey" fill-opacity="0.25" points="770.453,321.475 770.453,284.012 770.453,284.012 770.453,321.475 " />
<polygon stroke="black" stroke-width="1" fill="grey" fill-opacity="0.25" points="271.624,284.012 271.624,146.646 271.624,146.646 271.624,284.012 " />
<polygon stroke="black" stroke-width="1" fill="grey" fill-opacity="0.25" points="770.453,321.475 730.691,321.475 730.691,321.475 770.453,321.475 " />
<polygon stroke="black" stroke-width="1" fill="grey" fill-opacity="0.25" points="271.624,321.475 213.789,321.475 213.789,321.475 271.624,321.475 " />
<polygon stroke="black" stroke-width="1" fill="grey" fill-opacity="0.25" points="788.526,284.012 788.526,146.646 788.526,146.646 788.526,284.012 " />
<polygon stroke="black" stroke-width="1" fill="grey" fill-opacity="0.25" points="343.918,284.012 343.918,146.646 343.918,146.646 343.918,284.012 " />
<polygon stroke="black" stroke-width="1" fill="grey" fill-opacity="0.25" points="788.526,146.646 788.526,34.256 788.526,34.256 788.526,146.646 " />
<polygon stroke="black" stroke-width="1" fill="grey" fill-opacity="0.25" points="343.918,146.646 271.624,146.646 271.624,146.646 343.918,146.646 " />
<polygon stroke="black" stroke-width="1" fill="grey" fill-opacity="0.25" points="770.453,34.256 788.526,34.256 788.526,34.256 770.453,34.256 " />
<polygon stroke="black" stroke-width="1" fill="grey" fill-opacity="0.25" points="271.624,34.256 343.918,34.256 343.918,34.256 271.624,34.256 " />
<polygon stroke="black" stroke-width="1" fill="grey" fill-opacity="0.25" points="770.453,284.012 788.526,284.012 788.526,284.012 770.453,284.012 " />
<polygon stroke="black" stroke-width="1" fill="grey" fill-opacity="0.25" points="343.918,321.475 271.624,321.475 271.624,321.475 343.918,321.475 " />
<polygon stroke="black" stroke-width="1" fill="grey" fill-opacity="0.25" points="213.789,3.036 271.624,3.036 271.624,3.036 213.789,3.036 " />
<polygon stroke="black" stroke-width="1" fill="grey" fill-opacity="0.25" points="271.624,284.012 343.918,284.012 343.918,284.012 271.624,284.012 " />
<polygon stroke="black" stroke-width="1" fill="grey" fill-opacity="0.25" points="343.918,3.036 423.442,3.036 423.442,3.036 343.918,3.036 " />
<polygon stroke="black" stroke-width="1" fill="grey" fill-opacity="0.25" points="423.442,321.475 423.442,284.012 423.442,284.012 423.442,321.475 " />
<polygon stroke="black" stroke-width="1" fill="grey" fill-opacity="0.25" points="434.286,3.036 484.892,3.036 484.892,3.036 434.286,3.036 " />
<polygon stroke="black" stroke-width="1" fill="grey" fill-opacity="0.25" points="423.442,321.475 343.918,321.475 343.918,321.475 423.442,321.475 " />
<polygon stroke="black" stroke-width="1" fill="grey" fill-opacity="0.25" points="557.186,3.036 622.250,3.036 622.250,3.036 557.186,3.036 " />
<polygon stroke="black" stroke-width="1" fill="grey" fill-opacity="0.25" points="434.286,321.475 434.286,284.012 434.286,284.012 434.286,321.475 " />
<polygon stroke="black" stroke-width="1" fill="grey" fill-opacity="0.25" points="730.691,3.036 770.453,3.036 770.453,3.036 730.691,3.036 " />
<polygon stroke="black" stroke-width="1" fill="grey" fill-opacity="0.25" points="423.442,34.256 434.286,34.256 434.286,34.256 423.442,34.256 " />
<polygon stroke="black" stroke-width="1" fill="grey" fill-opacity="0.25" points="622.250,34.256 622.250,3.036 622.250,3.036 622.250,34.256 " />
<polygon stroke="black" stroke-width="1" fill="grey" fill-opacity="0.25" points="423.442,284.012 434.286,284.012 434.286,284.012 423.442,284.012 " />
<polygon stroke="black" stroke-width="1" fill="grey" fill-opacity="0.25" points="557.186,3.036 557.186,34.256 557.186,34.256 557.186,3.036 " />
<polygon stroke="black" stroke-width="1" fill="grey" fill-opacity="0.25" points="484.892,284.012 484.892,146.646 484.892,146.646 484.892,284.012 " />
<polygon stroke="black" stroke-width="1" fill="grey" fill-opacity="0.25" points="423.442,34.256 423.442,3.036 423.442,3.036 423.442,34.256 " />
<polygon stroke="black" stroke-width="1" fill="grey" fill-opacity="0.25" points="484.892,321.475 434.286,321.475 434.286,321.475 484.892,321.475 " />
<polygon stroke="black" stroke-width="1" fill="grey" fill-opacity="0.25" points="343.918,3.036 343.918,34.256 343.918,34.256 343.918,3.036 " />
<polygon stroke="black" stroke-width="1" fill="grey" fill-opacity="0.25" points="557.186,284.012 557.186,146.646 557.186,146.646 557.186,284.012 " />

</svg>
