  0
SECTION
  2
HEADER
  9
$ACADVER
  1
AC1009
  9
$EXTMIN
 10
0.0
 20
0.0
 30
0.0
  9
$EXTMAX
 10
1000.0
 20
1000.0
 30
0.0
  9
$FILLMODE
 70
 0
  9
$SPLFRAME
 70
 1
  0
ENDSEC
  0
SECTION
  2
TABLES
  0
TABLE
  2
LAYER
 70
1
  0
LAYER
  2
0
 70
     0
 62
     7
  6
CONTINUOUS
  0
ENDTAB
  0
ENDSEC
  0
SECTION
  2
ENTITIES
  0
POLYLINE
  8
0
 62
     0
 66
     1
 10
0
 20
0
 30
0.0
 70
     1
 40
0.282927
 41
0.282927
  0
VERTEX
  8
0
 10
3.67188
 20
11.127
 30
0.0
 40
0.00392954
 41
0.00392954
  0
VERTEX
  8
0
 10
3.32611
 20
11.127
 30
0.0
 40
0.00392954
 41
0.00392954
  0
VERTEX
  8
0
 10
3.67188
 20
11.127
 30
0.0
 40
0.00392954
 41
0.00392954
  0
SEQEND
 8
0
  0
POLYLINE
  8
0
 62
     0
 66
     1
 10
0
 20
0
 30
0.0
 70
     1
 40
0.282927
 41
0.282927
  0
VERTEX
  8
0
 10
4.38103
 20
10.2817
 30
0.0
 40
0.00392954
 41
0.00392954
  0
VERTEX
  8
0
 10
4.38103
 20
10.1899
 30
0.0
 40
0.00392954
 41
0.00392954
  0
VERTEX
  8
0
 10
4.38103
 20
10.2817
 30
0.0
 40
0.00392954
 41
0.00392954
  0
SEQEND
 8
0
  0
POLYLINE
  8
0
 62
     0
 66
     1
 10
0
 20
0
 30
0.0
 70
     1
 40
0.282927
 41
0.282927
  0
VERTEX
  8
0
 10
2.03863
 20
8.22797
 30
0.0
 40
0.00392954
 41
0.00392954
  0
VERTEX
  8
0
 10
2.77436
 20
8.22797
 30
0.0
 40
0.00392954
 41
0.00392954
  0
VERTEX
  8
0
 10
2.03863
 20
8.22797
 30
0.0
 40
0.00392954
 41
0.00392954
  0
SEQEND
 8
0
  0
POLYLINE
  8
0
 62
     0
 66
     1
 10
0
 20
0
 30
0.0
 70
     1
 40
0.282927
 41
0.282927
  0
VERTEX
  8
0
 10
2.03863
 20
8.22797
 30
0.0
 40
0.00392954
 41
0.00392954
  0
VERTEX
  8
0
 10
1.98546
 20
8.22797
 30
0.0
 40
0.00392954
 41
0.00392954
  0
VERTEX
  8
0
 10
2.03863
 20
8.22797
 30
0.0
 40
0.00392954
 41
0.00392954
  0
SEQEND
 8
0
  0
POLYLINE
  8
0
 62
     0
 66
     1
 10
0
 20
0
 30
0.0
 70
     1
 40
0.282927
 41
0.282927
  0
VERTEX
  8
0
 10
3.63704
 20
10.1199
 30
0.0
 40
0.00392954
 41
0.00392954
  0
VERTEX
  8
0
 10
3.63704
 20
10.0097
 30
0.0
 40
0.00392954
 41
0.00392954
  0
VERTEX
  8
0
 10
3.63704
 20
10.1199
 30
0.0
 40
0.00392954
 41
0.00392954
  0
SEQEND
 8
0
  0
POLYLINE
  8
0
 62
     0
 66
     1
 10
0
 20
0
 30
0.0
 70
     1
 40
0.282927
 41
0.282927
  0
VERTEX
  8
0
 10
1.54503
 20
10.0097
 30
0.0
 40
0.00392954
 41
0.00392954
  0
VERTEX
  8
0
 10
1.54503
 20
9.60542
 30
0.0
 40
0.00392954
 41
0.00392954
  0
VERTEX
  8
0
 10
1.54503
 20
10.0097
 30
0.0
 40
0.00392954
 41
0.00392954
  0
SEQEND
 8
0
  0
POLYLINE
  8
0
 62
     0
 66
     1
 10
0
 20
0
 30
0.0
 70
     1
 40
0.282927
 41
0.282927
  0
VERTEX
  8
0
 10
0.78201
 20
10.2817
 30
0.0
 40
0.00392954
 41
0.00392954
  0
VERTEX
  8
0
 10
0.78201
 20
10.1899
 30
0.0
 40
0.00392954
 41
0.00392954
  0
VERTEX
  8
0
 10
0.78201
 20
10.2817
 30
0.0
 40
0.00392954
 41
0.00392954
  0
SEQEND
 8
0
  0
POLYLINE
  8
0
 62
     0
 66
     1
 10
0
 20
0
 30
0.0
 70
     1
 40
0.282927
 41
0.282927
  0
VERTEX
  8
0
 10
2.77436
 20
8.22797
 30
0.0
 40
0.00392954
 41
0.00392954
  0
VERTEX
  8
0
 10
2.77436
 20
8.13607
 30
0.0
 40
0.00392954
 41
0.00392954
  0
VERTEX
  8
0
 10
2.77436
 20
8.22797
 30
0.0
 40
0.00392954
 41
0.00392954
  0
SEQEND
 8
0
  0
POLYLINE
  8
0
 62
     0
 66
     1
 10
0
 20
0
 30
0.0
 70
     1
 40
0.282927
 41
0.282927
  0
VERTEX
  8
0
 10
3.27294
 20
10.2817
 30
0.0
 40
0.00392954
 41
0.00392954
  0
VERTEX
  8
0
 10
3.32611
 20
10.2817
 30
0.0
 40
0.00392954
 41
0.00392954
  0
VERTEX
  8
0
 10
3.27294
 20
10.2817
 30
0.0
 40
0.00392954
 41
0.00392954
  0
SEQEND
 8
0
  0
POLYLINE
  8
0
 62
     0
 66
     1
 10
0
 20
0
 30
0.0
 70
     1
 40
0.282927
 41
0.282927
  0
VERTEX
  8
0
 10
1.86415
 20
10.1199
 30
0.0
 40
0.00392954
 41
0.00392954
  0
VERTEX
  8
0
 10
2.21869
 20
10.1199
 30
0.0
 40
0.00392954
 41
0.00392954
  0
VERTEX
  8
0
 10
1.86415
 20
10.1199
 30
0.0
 40
0.00392954
 41
0.00392954
  0
SEQEND
 8
0
  0
POLYLINE
  8
0
 62
     0
 66
     1
 10
0
 20
0
 30
0.0
 70
     1
 40
0.282927
 41
0.282927
  0
VERTEX
  8
0
 10
3.32611
 20
11.127
 30
0.0
 40
0.00392954
 41
0.00392954
  0
VERTEX
  8
0
 10
3.27294
 20
11.127
 30
0.0
 40
0.00392954
 41
0.00392954
  0
VERTEX
  8
0
 10
3.32611
 20
11.127
 30
0.0
 40
0.00392954
 41
0.00392954
  0
SEQEND
 8
0
  0
POLYLINE
  8
0
 62
     0
 66
     1
 10
0
 20
0
 30
0.0
 70
     1
 40
0.282927
 41
0.282927
  0
VERTEX
  8
0
 10
1.77268
 20
9.07314
 30
0.0
 40
0.00392954
 41
0.00392954
  0
VERTEX
  8
0
 10
1.98546
 20
9.07314
 30
0.0
 40
0.00392954
 41
0.00392954
  0
VERTEX
  8
0
 10
1.77268
 20
9.07314
 30
0.0
 40
0.00392954
 41
0.00392954
  0
SEQEND
 8
0
  0
POLYLINE
  8
0
 62
     0
 66
     1
 10
0
 20
0
 30
0.0
 70
     1
 40
0.282927
 41
0.282927
  0
VERTEX
  8
0
 10
1.9344
 20
10.1899
 30
0.0
 40
0.00392954
 41
0.00392954
  0
VERTEX
  8
0
 10
2.2181
 20
10.1899
 30
0.0
 40
0.00392954
 41
0.00392954
  0
VERTEX
  8
0
 10
1.9344
 20
10.1899
 30
0.0
 40
0.00392954
 41
0.00392954
  0
SEQEND
 8
0
  0
POLYLINE
  8
0
 62
     0
 66
     1
 10
0
 20
0
 30
0.0
 70
     1
 40
0.282927
 41
0.282927
  0
VERTEX
  8
0
 10
3.51014
 20
8.13607
 30
0.0
 40
0.00392954
 41
0.00392954
  0
VERTEX
  8
0
 10
3.51014
 20
8.22797
 30
0.0
 40
0.00392954
 41
0.00392954
  0
VERTEX
  8
0
 10
3.51014
 20
8.13607
 30
0.0
 40
0.00392954
 41
0.00392954
  0
SEQEND
 8
0
  0
POLYLINE
  8
0
 62
     0
 66
     1
 10
0
 20
0
 30
0.0
 70
     1
 40
0.282927
 41
0.282927
  0
VERTEX
  8
0
 10
2.21869
 20
10.0097
 30
0.0
 40
0.00392954
 41
0.00392954
  0
VERTEX
  8
0
 10
1.86415
 20
10.0097
 30
0.0
 40
0.00392954
 41
0.00392954
  0
VERTEX
  8
0
 10
2.21869
 20
10.0097
 30
0.0
 40
0.00392954
 41
0.00392954
  0
SEQEND
 8
0
  0
POLYLINE
  8
0
 62
     0
 66
     1
 10
0
 20
0
 30
0.0
 70
     1
 40
0.282927
 41
0.282927
  0
VERTEX
  8
0
 10
0.78201
 20
10.1899
 30
0.0
 40
0.00392954
 41
0.00392954
  0
VERTEX
  8
0
 10
1.31391
 20
10.1899
 30
0.0
 40
0.00392954
 41
0.00392954
  0
VERTEX
  8
0
 10
0.78201
 20
10.1899
 30
0.0
 40
0.00392954
 41
0.00392954
  0
SEQEND
 8
0
  0
POLYLINE
  8
0
 62
     0
 66
     1
 10
0
 20
0
 30
0.0
 70
     1
 40
0.282927
 41
0.282927
  0
VERTEX
  8
0
 10
1.98546
 20
8.13607
 30
0.0
 40
0.00392954
 41
0.00392954
  0
VERTEX
  8
0
 10
1.98546
 20
8.22797
 30
0.0
 40
0.00392954
 41
0.00392954
  0
VERTEX
  8
0
 10
1.98546
 20
8.13607
 30
0.0
 40
0.00392954
 41
0.00392954
  0
SEQEND
 8
0
  0
POLYLINE
  8
0
 62
     0
 66
     1
 10
0
 20
0
 30
0.0
 70
     1
 40
0.282927
 41
0.282927
  0
VERTEX
  8
0
 10
1.98546
 20
9.07314
 30
0.0
 40
0.00392954
 41
0.00392954
  0
VERTEX
  8
0
 10
1.98546
 20
8.96289
 30
0.0
 40
0.00392954
 41
0.00392954
  0
VERTEX
  8
0
 10
1.98546
 20
9.07314
 30
0.0
 40
0.00392954
 41
0.00392954
  0
SEQEND
 8
0
  0
POLYLINE
  8
0
 62
     0
 66
     1
 10
0
 20
0
 30
0.0
 70
     1
 40
0.282927
 41
0.282927
  0
VERTEX
  8
0
 10
3.63704
 20
10.0097
 30
0.0
 40
0.00392954
 41
0.00392954
  0
VERTEX
  8
0
 10
3.63704
 20
9.60542
 30
0.0
 40
0.00392954
 41
0.00392954
  0
VERTEX
  8
0
 10
3.63704
 20
10.0097
 30
0.0
 40
0.00392954
 41
0.00392954
  0
SEQEND
 8
0
  0
POLYLINE
  8
0
 62
     0
 66
     1
 10
0
 20
0
 30
0.0
 70
     1
 40
0.282927
 41
0.282927
  0
VERTEX
  8
0
 10
4.38103
 20
10.1899
 30
0.0
 40
0.00392954
 41
0.00392954
  0
VERTEX
  8
0
 10
4.66465
 20
10.1899
 30
0.0
 40
0.00392954
 41
0.00392954
  0
VERTEX
  8
0
 10
4.38103
 20
10.1899
 30
0.0
 40
0.00392954
 41
0.00392954
  0
SEQEND
 8
0
  0
POLYLINE
  8
0
 62
     0
 66
     1
 10
0
 20
0
 30
0.0
 70
     1
 40
0.282927
 41
0.282927
  0
VERTEX
  8
0
 10
2.21869
 20
9.27468
 30
0.0
 40
0.00392954
 41
0.00392954
  0
VERTEX
  8
0
 10
1.86415
 20
9.27468
 30
0.0
 40
0.00392954
 41
0.00392954
  0
VERTEX
  8
0
 10
2.21869
 20
9.27468
 30
0.0
 40
0.00392954
 41
0.00392954
  0
SEQEND
 8
0
  0
POLYLINE
  8
0
 62
     0
 66
     1
 10
0
 20
0
 30
0.0
 70
     1
 40
0.282927
 41
0.282927
  0
VERTEX
  8
0
 10
1.31391
 20
10.1899
 30
0.0
 40
0.00392954
 41
0.00392954
  0
VERTEX
  8
0
 10
1.31391
 20
10.2817
 30
0.0
 40
0.00392954
 41
0.00392954
  0
VERTEX
  8
0
 10
1.31391
 20
10.1899
 30
0.0
 40
0.00392954
 41
0.00392954
  0
SEQEND
 8
0
  0
POLYLINE
  8
0
 62
     0
 66
     1
 10
0
 20
0
 30
0.0
 70
     1
 40
0.282927
 41
0.282927
  0
VERTEX
  8
0
 10
2.03863
 20
9.07314
 30
0.0
 40
0.00392954
 41
0.00392954
  0
VERTEX
  8
0
 10
2.77436
 20
9.07314
 30
0.0
 40
0.00392954
 41
0.00392954
  0
VERTEX
  8
0
 10
2.03863
 20
9.07314
 30
0.0
 40
0.00392954
 41
0.00392954
  0
SEQEND
 8
0
  0
POLYLINE
  8
0
 62
     0
 66
     1
 10
0
 20
0
 30
0.0
 70
     1
 40
0.282927
 41
0.282927
  0
VERTEX
  8
0
 10
3.63704
 20
9.60542
 30
0.0
 40
0.00392954
 41
0.00392954
  0
VERTEX
  8
0
 10
3.63704
 20
9.27468
 30
0.0
 40
0.00392954
 41
0.00392954
  0
VERTEX
  8
0
 10
3.63704
 20
9.60542
 30
0.0
 40
0.00392954
 41
0.00392954
  0
SEQEND
 8
0
  0
POLYLINE
  8
0
 62
     0
 66
     1
 10
0
 20
0
 30
0.0
 70
     1
 40
0.282927
 41
0.282927
  0
VERTEX
  8
0
 10
2.03863
 20
9.07314
 30
0.0
 40
0.00392954
 41
0.00392954
  0
VERTEX
  8
0
 10
2.03863
 20
8.96289
 30
0.0
 40
0.00392954
 41
0.00392954
  0
VERTEX
  8
0
 10
2.03863
 20
9.07314
 30
0.0
 40
0.00392954
 41
0.00392954
  0
SEQEND
 8
0
  0
POLYLINE
  8
0
 62
     0
 66
     1
 10
0
 20
0
 30
0.0
 70
     1
 40
0.282927
 41
0.282927
  0
VERTEX
  8
0
 10
2.2181
 20
10.2817
 30
0.0
 40
0.00392954
 41
0.00392954
  0
VERTEX
  8
0
 10
2.2181
 20
11.0167
 30
0.0
 40
0.00392954
 41
0.00392954
  0
VERTEX
  8
0
 10
2.2181
 20
10.2817
 30
0.0
 40
0.00392954
 41
0.00392954
  0
SEQEND
 8
0
  0
POLYLINE
  8
0
 62
     0
 66
     1
 10
0
 20
0
 30
0.0
 70
     1
 40
0.282927
 41
0.282927
  0
VERTEX
  8
0
 10
1.86415
 20
9.60542
 30
0.0
 40
0.00392954
 41
0.00392954
  0
VERTEX
  8
0
 10
2.21869
 20
9.60542
 30
0.0
 40
0.00392954
 41
0.00392954
  0
VERTEX
  8
0
 10
1.86415
 20
9.60542
 30
0.0
 40
0.00392954
 41
0.00392954
  0
SEQEND
 8
0
  0
POLYLINE
  8
0
 62
     0
 66
     1
 10
0
 20
0
 30
0.0
 70
     1
 40
0.282927
 41
0.282927
  0
VERTEX
  8
0
 10
3.27294
 20
11.127
 30
0.0
 40
0.00392954
 41
0.00392954
  0
VERTEX
  8
0
 10
2.92725
 20
11.127
 30
0.0
 40
0.00392954
 41
0.00392954
  0
VERTEX
  8
0
 10
3.27294
 20
11.127
 30
0.0
 40
0.00392954
 41
0.00392954
  0
SEQEND
 8
0
  0
POLYLINE
  8
0
 62
     0
 66
     1
 10
0
 20
0
 30
0.0
 70
     1
 40
0.282927
 41
0.282927
  0
VERTEX
  8
0
 10
2.92725
 20
10.1899
 30
0.0
 40
0.00392954
 41
0.00392954
  0
VERTEX
  8
0
 10
3.27294
 20
10.1899
 30
0.0
 40
0.00392954
 41
0.00392954
  0
VERTEX
  8
0
 10
2.92725
 20
10.1899
 30
0.0
 40
0.00392954
 41
0.00392954
  0
SEQEND
 8
0
  0
POLYLINE
  8
0
 62
     0
 66
     1
 10
0
 20
0
 30
0.0
 70
     1
 40
0.282927
 41
0.282927
  0
VERTEX
  8
0
 10
0.921712
 20
8.13607
 30
0.0
 40
0.00392954
 41
0.00392954
  0
VERTEX
  8
0
 10
0.921712
 20
8.22797
 30
0.0
 40
0.00392954
 41
0.00392954
  0
VERTEX
  8
0
 10
0.921712
 20
8.13607
 30
0.0
 40
0.00392954
 41
0.00392954
  0
SEQEND
 8
0
  0
POLYLINE
  8
0
 62
     0
 66
     1
 10
0
 20
0
 30
0.0
 70
     1
 40
0.282927
 41
0.282927
  0
VERTEX
  8
0
 10
1.77268
 20
8.22797
 30
0.0
 40
0.00392954
 41
0.00392954
  0
VERTEX
  8
0
 10
1.77268
 20
8.13607
 30
0.0
 40
0.00392954
 41
0.00392954
  0
VERTEX
  8
0
 10
1.77268
 20
8.22797
 30
0.0
 40
0.00392954
 41
0.00392954
  0
SEQEND
 8
0
  0
POLYLINE
  8
0
 62
     0
 66
     1
 10
0
 20
0
 30
0.0
 70
     1
 40
0.282927
 41
0.282927
  0
VERTEX
  8
0
 10
1.41813
 20
9.07314
 30
0.0
 40
0.00392954
 41
0.00392954
  0
VERTEX
  8
0
 10
1.77268
 20
9.07314
 30
0.0
 40
0.00392954
 41
0.00392954
  0
VERTEX
  8
0
 10
1.41813
 20
9.07314
 30
0.0
 40
0.00392954
 41
0.00392954
  0
SEQEND
 8
0
  0
POLYLINE
  8
0
 62
     0
 66
     1
 10
0
 20
0
 30
0.0
 70
     1
 40
0.282927
 41
0.282927
  0
VERTEX
  8
0
 10
3.32611
 20
10.1899
 30
0.0
 40
0.00392954
 41
0.00392954
  0
VERTEX
  8
0
 10
3.67188
 20
10.1899
 30
0.0
 40
0.00392954
 41
0.00392954
  0
VERTEX
  8
0
 10
3.32611
 20
10.1899
 30
0.0
 40
0.00392954
 41
0.00392954
  0
SEQEND
 8
0
  0
POLYLINE
  8
0
 62
     0
 66
     1
 10
0
 20
0
 30
0.0
 70
     1
 40
0.282927
 41
0.282927
  0
VERTEX
  8
0
 10
1.27626
 20
9.07314
 30
0.0
 40
0.00392954
 41
0.00392954
  0
VERTEX
  8
0
 10
1.41813
 20
9.07314
 30
0.0
 40
0.00392954
 41
0.00392954
  0
VERTEX
  8
0
 10
1.27626
 20
9.07314
 30
0.0
 40
0.00392954
 41
0.00392954
  0
SEQEND
 8
0
  0
POLYLINE
  8
0
 62
     0
 66
     1
 10
0
 20
0
 30
0.0
 70
     1
 40
0.282927
 41
0.282927
  0
VERTEX
  8
0
 10
1.98546
 20
8.13607
 30
0.0
 40
0.00392954
 41
0.00392954
  0
VERTEX
  8
0
 10
1.77268
 20
8.13607
 30
0.0
 40
0.00392954
 41
0.00392954
  0
VERTEX
  8
0
 10
1.98546
 20
8.13607
 30
0.0
 40
0.00392954
 41
0.00392954
  0
SEQEND
 8
0
  0
POLYLINE
  8
0
 62
     0
 66
     1
 10
0
 20
0
 30
0.0
 70
     1
 40
0.282927
 41
0.282927
  0
VERTEX
  8
0
 10
1.27626
 20
8.22797
 30
0.0
 40
0.00392954
 41
0.00392954
  0
VERTEX
  8
0
 10
1.27626
 20
8.13607
 30
0.0
 40
0.00392954
 41
0.00392954
  0
VERTEX
  8
0
 10
1.27626
 20
8.22797
 30
0.0
 40
0.00392954
 41
0.00392954
  0
SEQEND
 8
0
  0
POLYLINE
  8
0
 62
     0
 66
     1
 10
0
 20
0
 30
0.0
 70
     1
 40
0.282927
 41
0.282927
  0
VERTEX
  8
0
 10
1.27626
 20
8.22797
 30
0.0
 40
0.00392954
 41
0.00392954
  0
VERTEX
  8
0
 10
0.921712
 20
8.22797
 30
0.0
 40
0.00392954
 41
0.00392954
  0
VERTEX
  8
0
 10
1.27626
 20
8.22797
 30
0.0
 40
0.00392954
 41
0.00392954
  0
SEQEND
 8
0
  0
POLYLINE
  8
0
 62
     0
 66
     1
 10
0
 20
0
 30
0.0
 70
     1
 40
0.282927
 41
0.282927
  0
VERTEX
  8
0
 10
2.4669
 20
9.18278
 30
0.0
 40
0.00392954
 41
0.00392954
  0
VERTEX
  8
0
 10
2.4669
 20
9.27468
 30
0.0
 40
0.00392954
 41
0.00392954
  0
VERTEX
  8
0
 10
2.4669
 20
9.18278
 30
0.0
 40
0.00392954
 41
0.00392954
  0
SEQEND
 8
0
  0
POLYLINE
  8
0
 62
     0
 66
     1
 10
0
 20
0
 30
0.0
 70
     1
 40
0.282927
 41
0.282927
  0
VERTEX
  8
0
 10
1.41813
 20
8.13607
 30
0.0
 40
0.00392954
 41
0.00392954
  0
VERTEX
  8
0
 10
1.27626
 20
8.13607
 30
0.0
 40
0.00392954
 41
0.00392954
  0
VERTEX
  8
0
 10
1.41813
 20
8.13607
 30
0.0
 40
0.00392954
 41
0.00392954
  0
SEQEND
 8
0
  0
POLYLINE
  8
0
 62
     0
 66
     1
 10
0
 20
0
 30
0.0
 70
     1
 40
0.282927
 41
0.282927
  0
VERTEX
  8
0
 10
2.77436
 20
8.13607
 30
0.0
 40
0.00392954
 41
0.00392954
  0
VERTEX
  8
0
 10
3.51014
 20
8.13607
 30
0.0
 40
0.00392954
 41
0.00392954
  0
VERTEX
  8
0
 10
2.77436
 20
8.13607
 30
0.0
 40
0.00392954
 41
0.00392954
  0
SEQEND
 8
0
  0
POLYLINE
  8
0
 62
     0
 66
     1
 10
0
 20
0
 30
0.0
 70
     1
 40
0.282927
 41
0.282927
  0
VERTEX
  8
0
 10
1.31391
 20
10.2817
 30
0.0
 40
0.00392954
 41
0.00392954
  0
VERTEX
  8
0
 10
1.84576
 20
10.2817
 30
0.0
 40
0.00392954
 41
0.00392954
  0
VERTEX
  8
0
 10
1.31391
 20
10.2817
 30
0.0
 40
0.00392954
 41
0.00392954
  0
SEQEND
 8
0
  0
POLYLINE
  8
0
 62
     0
 66
     1
 10
0
 20
0
 30
0.0
 70
     1
 40
0.282927
 41
0.282927
  0
VERTEX
  8
0
 10
1.41813
 20
8.13607
 30
0.0
 40
0.00392954
 41
0.00392954
  0
VERTEX
  8
0
 10
1.41813
 20
8.22797
 30
0.0
 40
0.00392954
 41
0.00392954
  0
VERTEX
  8
0
 10
1.41813
 20
8.13607
 30
0.0
 40
0.00392954
 41
0.00392954
  0
SEQEND
 8
0
  0
POLYLINE
  8
0
 62
     0
 66
     1
 10
0
 20
0
 30
0.0
 70
     1
 40
0.282927
 41
0.282927
  0
VERTEX
  8
0
 10
2.92725
 20
11.127
 30
0.0
 40
0.00392954
 41
0.00392954
  0
VERTEX
  8
0
 10
2.2181
 20
11.127
 30
0.0
 40
0.00392954
 41
0.00392954
  0
VERTEX
  8
0
 10
2.92725
 20
11.127
 30
0.0
 40
0.00392954
 41
0.00392954
  0
SEQEND
 8
0
  0
POLYLINE
  8
0
 62
     0
 66
     1
 10
0
 20
0
 30
0.0
 70
     1
 40
0.282927
 41
0.282927
  0
VERTEX
  8
0
 10
0.779839
 20
8.22797
 30
0.0
 40
0.00392954
 41
0.00392954
  0
VERTEX
  8
0
 10
0.779839
 20
8.13607
 30
0.0
 40
0.00392954
 41
0.00392954
  0
VERTEX
  8
0
 10
0.779839
 20
8.22797
 30
0.0
 40
0.00392954
 41
0.00392954
  0
SEQEND
 8
0
  0
POLYLINE
  8
0
 62
     0
 66
     1
 10
0
 20
0
 30
0.0
 70
     1
 40
0.282927
 41
0.282927
  0
VERTEX
  8
0
 10
2.92725
 20
10.2817
 30
0.0
 40
0.00392954
 41
0.00392954
  0
VERTEX
  8
0
 10
2.92725
 20
11.0167
 30
0.0
 40
0.00392954
 41
0.00392954
  0
VERTEX
  8
0
 10
2.92725
 20
10.2817
 30
0.0
 40
0.00392954
 41
0.00392954
  0
SEQEND
 8
0
  0
POLYLINE
  8
0
 62
     0
 66
     1
 10
0
 20
0
 30
0.0
 70
     1
 40
0.282927
 41
0.282927
  0
VERTEX
  8
0
 10
3.54839
 20
9.18278
 30
0.0
 40
0.00392954
 41
0.00392954
  0
VERTEX
  8
0
 10
3.54839
 20
9.27468
 30
0.0
 40
0.00392954
 41
0.00392954
  0
VERTEX
  8
0
 10
3.54839
 20
9.18278
 30
0.0
 40
0.00392954
 41
0.00392954
  0
SEQEND
 8
0
  0
POLYLINE
  8
0
 62
     0
 66
     1
 10
0
 20
0
 30
0.0
 70
     1
 40
0.282927
 41
0.282927
  0
VERTEX
  8
0
 10
1.31391
 20
11.127
 30
0.0
 40
0.00392954
 41
0.00392954
  0
VERTEX
  8
0
 10
0.78201
 20
11.127
 30
0.0
 40
0.00392954
 41
0.00392954
  0
VERTEX
  8
0
 10
1.31391
 20
11.127
 30
0.0
 40
0.00392954
 41
0.00392954
  0
SEQEND
 8
0
  0
POLYLINE
  8
0
 62
     0
 66
     1
 10
0
 20
0
 30
0.0
 70
     1
 40
0.282927
 41
0.282927
  0
VERTEX
  8
0
 10
0.921712
 20
9.07314
 30
0.0
 40
0.00392954
 41
0.00392954
  0
VERTEX
  8
0
 10
1.27626
 20
9.07314
 30
0.0
 40
0.00392954
 41
0.00392954
  0
VERTEX
  8
0
 10
0.921712
 20
9.07314
 30
0.0
 40
0.00392954
 41
0.00392954
  0
SEQEND
 8
0
  0
POLYLINE
  8
0
 62
     0
 66
     1
 10
0
 20
0
 30
0.0
 70
     1
 40
0.282927
 41
0.282927
  0
VERTEX
  8
0
 10
3.26471
 20
9.27468
 30
0.0
 40
0.00392954
 41
0.00392954
  0
VERTEX
  8
0
 10
3.26471
 20
9.18278
 30
0.0
 40
0.00392954
 41
0.00392954
  0
VERTEX
  8
0
 10
3.26471
 20
9.27468
 30
0.0
 40
0.00392954
 41
0.00392954
  0
SEQEND
 8
0
  0
POLYLINE
  8
0
 62
     0
 66
     1
 10
0
 20
0
 30
0.0
 70
     1
 40
0.282927
 41
0.282927
  0
VERTEX
  8
0
 10
0.779839
 20
9.07314
 30
0.0
 40
0.00392954
 41
0.00392954
  0
VERTEX
  8
0
 10
0.921712
 20
9.07314
 30
0.0
 40
0.00392954
 41
0.00392954
  0
VERTEX
  8
0
 10
0.779839
 20
9.07314
 30
0.0
 40
0.00392954
 41
0.00392954
  0
SEQEND
 8
0
  0
POLYLINE
  8
0
 62
     0
 66
     1
 10
0
 20
0
 30
0.0
 70
     1
 40
0.282927
 41
0.282927
  0
VERTEX
  8
0
 10
0.78201
 20
10.2817
 30
0.0
 40
0.00392954
 41
0.00392954
  0
VERTEX
  8
0
 10
0.78201
 20
11.0167
 30
0.0
 40
0.00392954
 41
0.00392954
  0
VERTEX
  8
0
 10
0.78201
 20
10.2817
 30
0.0
 40
0.00392954
 41
0.00392954
  0
SEQEND
 8
0
  0
POLYLINE
  8
0
 62
     0
 66
     1
 10
0
 20
0
 30
0.0
 70
     1
 40
0.282927
 41
0.282927
  0
VERTEX
  8
0
 10
0.921712
 20
8.13607
 30
0.0
 40
0.00392954
 41
0.00392954
  0
VERTEX
  8
0
 10
0.779839
 20
8.13607
 30
0.0
 40
0.00392954
 41
0.00392954
  0
VERTEX
  8
0
 10
0.921712
 20
8.13607
 30
0.0
 40
0.00392954
 41
0.00392954
  0
SEQEND
 8
0
  0
POLYLINE
  8
0
 62
     0
 66
     1
 10
0
 20
0
 30
0.0
 70
     1
 40
0.282927
 41
0.282927
  0
VERTEX
  8
0
 10
4.75331
 20
10.2817
 30
0.0
 40
0.00392954
 41
0.00392954
  0
VERTEX
  8
0
 10
4.75331
 20
11.0167
 30
0.0
 40
0.00392954
 41
0.00392954
  0
VERTEX
  8
0
 10
4.75331
 20
10.2817
 30
0.0
 40
0.00392954
 41
0.00392954
  0
SEQEND
 8
0
  0
POLYLINE
  8
0
 62
     0
 66
     1
 10
0
 20
0
 30
0.0
 70
     1
 40
0.282927
 41
0.282927
  0
VERTEX
  8
0
 10
1.86415
 20
10.0097
 30
0.0
 40
0.00392954
 41
0.00392954
  0
VERTEX
  8
0
 10
1.86415
 20
9.60542
 30
0.0
 40
0.00392954
 41
0.00392954
  0
VERTEX
  8
0
 10
1.86415
 20
10.0097
 30
0.0
 40
0.00392954
 41
0.00392954
  0
SEQEND
 8
0
  0
POLYLINE
  8
0
 62
     0
 66
     1
 10
0
 20
0
 30
0.0
 70
     1
 40
0.282927
 41
0.282927
  0
VERTEX
  8
0
 10
2.21869
 20
10.1199
 30
0.0
 40
0.00392954
 41
0.00392954
  0
VERTEX
  8
0
 10
2.4669
 20
10.1199
 30
0.0
 40
0.00392954
 41
0.00392954
  0
VERTEX
  8
0
 10
2.21869
 20
10.1199
 30
0.0
 40
0.00392954
 41
0.00392954
  0
SEQEND
 8
0
  0
POLYLINE
  8
0
 62
     0
 66
     1
 10
0
 20
0
 30
0.0
 70
     1
 40
0.282927
 41
0.282927
  0
VERTEX
  8
0
 10
2.21869
 20
9.27468
 30
0.0
 40
0.00392954
 41
0.00392954
  0
VERTEX
  8
0
 10
2.21869
 20
9.18278
 30
0.0
 40
0.00392954
 41
0.00392954
  0
VERTEX
  8
0
 10
2.21869
 20
9.27468
 30
0.0
 40
0.00392954
 41
0.00392954
  0
SEQEND
 8
0
  0
POLYLINE
  8
0
 62
     0
 66
     1
 10
0
 20
0
 30
0.0
 70
     1
 40
0.282927
 41
0.282927
  0
VERTEX
  8
0
 10
3.51014
 20
9.07314
 30
0.0
 40
0.00392954
 41
0.00392954
  0
VERTEX
  8
0
 10
3.51014
 20
8.96289
 30
0.0
 40
0.00392954
 41
0.00392954
  0
VERTEX
  8
0
 10
3.51014
 20
9.07314
 30
0.0
 40
0.00392954
 41
0.00392954
  0
SEQEND
 8
0
  0
POLYLINE
  8
0
 62
     0
 66
     1
 10
0
 20
0
 30
0.0
 70
     1
 40
0.282927
 41
0.282927
  0
VERTEX
  8
0
 10
0.818143
 20
9.27468
 30
0.0
 40
0.00392954
 41
0.00392954
  0
VERTEX
  8
0
 10
0.818143
 20
9.18278
 30
0.0
 40
0.00392954
 41
0.00392954
  0
VERTEX
  8
0
 10
0.818143
 20
9.27468
 30
0.0
 40
0.00392954
 41
0.00392954
  0
SEQEND
 8
0
  0
POLYLINE
  8
0
 62
     0
 66
     1
 10
0
 20
0
 30
0.0
 70
     1
 40
0.282927
 41
0.282927
  0
VERTEX
  8
0
 10
1.84576
 20
11.127
 30
0.0
 40
0.00392954
 41
0.00392954
  0
VERTEX
  8
0
 10
1.31391
 20
11.127
 30
0.0
 40
0.00392954
 41
0.00392954
  0
VERTEX
  8
0
 10
1.84576
 20
11.127
 30
0.0
 40
0.00392954
 41
0.00392954
  0
SEQEND
 8
0
  0
POLYLINE
  8
0
 62
     0
 66
     1
 10
0
 20
0
 30
0.0
 70
     1
 40
0.282927
 41
0.282927
  0
VERTEX
  8
0
 10
0.78201
 20
11.0167
 30
0.0
 40
0.00392954
 41
0.00392954
  0
VERTEX
  8
0
 10
0.78201
 20
11.127
 30
0.0
 40
0.00392954
 41
0.00392954
  0
VERTEX
  8
0
 10
0.78201
 20
11.0167
 30
0.0
 40
0.00392954
 41
0.00392954
  0
SEQEND
 8
0
  0
POLYLINE
  8
0
 62
     0
 66
     1
 10
0
 20
0
 30
0.0
 70
     1
 40
0.282927
 41
0.282927
  0
VERTEX
  8
0
 10
2.21869
 20
10.0097
 30
0.0
 40
0.00392954
 41
0.00392954
  0
VERTEX
  8
0
 10
2.21869
 20
9.60542
 30
0.0
 40
0.00392954
 41
0.00392954
  0
VERTEX
  8
0
 10
2.21869
 20
10.0097
 30
0.0
 40
0.00392954
 41
0.00392954
  0
SEQEND
 8
0
  0
POLYLINE
  8
0
 62
     0
 66
     1
 10
0
 20
0
 30
0.0
 70
     1
 40
0.282927
 41
0.282927
  0
VERTEX
  8
0
 10
1.01313
 20
9.18278
 30
0.0
 40
0.00392954
 41
0.00392954
  0
VERTEX
  8
0
 10
1.01313
 20
9.27468
 30
0.0
 40
0.00392954
 41
0.00392954
  0
VERTEX
  8
0
 10
1.01313
 20
9.18278
 30
0.0
 40
0.00392954
 41
0.00392954
  0
SEQEND
 8
0
  0
POLYLINE
  8
0
 62
     0
 66
     1
 10
0
 20
0
 30
0.0
 70
     1
 40
0.282927
 41
0.282927
  0
VERTEX
  8
0
 10
2.2181
 20
11.0167
 30
0.0
 40
0.00392954
 41
0.00392954
  0
VERTEX
  8
0
 10
2.92725
 20
11.0167
 30
0.0
 40
0.00392954
 41
0.00392954
  0
VERTEX
  8
0
 10
2.2181
 20
11.0167
 30
0.0
 40
0.00392954
 41
0.00392954
  0
SEQEND
 8
0
  0
POLYLINE
  8
0
 62
     0
 66
     1
 10
0
 20
0
 30
0.0
 70
     1
 40
0.282927
 41
0.282927
  0
VERTEX
  8
0
 10
2.91015
 20
9.18278
 30
0.0
 40
0.00392954
 41
0.00392954
  0
VERTEX
  8
0
 10
2.91015
 20
9.27468
 30
0.0
 40
0.00392954
 41
0.00392954
  0
VERTEX
  8
0
 10
2.91015
 20
9.18278
 30
0.0
 40
0.00392954
 41
0.00392954
  0
SEQEND
 8
0
  0
POLYLINE
  8
0
 62
     0
 66
     1
 10
0
 20
0
 30
0.0
 70
     1
 40
0.282927
 41
0.282927
  0
VERTEX
  8
0
 10
2.52013
 20
9.27468
 30
0.0
 40
0.00392954
 41
0.00392954
  0
VERTEX
  8
0
 10
2.52013
 20
9.18278
 30
0.0
 40
0.00392954
 41
0.00392954
  0
VERTEX
  8
0
 10
2.52013
 20
9.27468
 30
0.0
 40
0.00392954
 41
0.00392954
  0
SEQEND
 8
0
  0
POLYLINE
  8
0
 62
     0
 66
     1
 10
0
 20
0
 30
0.0
 70
     1
 40
0.282927
 41
0.282927
  0
VERTEX
  8
0
 10
0.779839
 20
9.07314
 30
0.0
 40
0.00392954
 41
0.00392954
  0
VERTEX
  8
0
 10
0.779839
 20
8.96289
 30
0.0
 40
0.00392954
 41
0.00392954
  0
VERTEX
  8
0
 10
0.779839
 20
9.07314
 30
0.0
 40
0.00392954
 41
0.00392954
  0
SEQEND
 8
0
  0
POLYLINE
  8
0
 62
     0
 66
     1
 10
0
 20
0
 30
0.0
 70
     1
 40
0.282927
 41
0.282927
  0
VERTEX
  8
0
 10
0.779839
 20
7.10314
 30
0.0
 40
0.00392954
 41
0.00392954
  0
VERTEX
  8
0
 10
0.779839
 20
7.19499
 30
0.0
 40
0.00392954
 41
0.00392954
  0
VERTEX
  8
0
 10
0.779839
 20
7.10314
 30
0.0
 40
0.00392954
 41
0.00392954
  0
SEQEND
 8
0
  0
POLYLINE
  8
0
 62
     0
 66
     1
 10
0
 20
0
 30
0.0
 70
     1
 40
0.282927
 41
0.282927
  0
VERTEX
  8
0
 10
1.3259
 20
7.19499
 30
0.0
 40
0.00392954
 41
0.00392954
  0
VERTEX
  8
0
 10
1.3259
 20
7.10314
 30
0.0
 40
0.00392954
 41
0.00392954
  0
VERTEX
  8
0
 10
1.3259
 20
7.19499
 30
0.0
 40
0.00392954
 41
0.00392954
  0
SEQEND
 8
0
  0
POLYLINE
  8
0
 62
     0
 66
     1
 10
0
 20
0
 30
0.0
 70
     1
 40
0.282927
 41
0.282927
  0
VERTEX
  8
0
 10
1.86415
 20
9.18278
 30
0.0
 40
0.00392954
 41
0.00392954
  0
VERTEX
  8
0
 10
1.86415
 20
9.27468
 30
0.0
 40
0.00392954
 41
0.00392954
  0
VERTEX
  8
0
 10
1.86415
 20
9.18278
 30
0.0
 40
0.00392954
 41
0.00392954
  0
SEQEND
 8
0
  0
POLYLINE
  8
0
 62
     0
 66
     1
 10
0
 20
0
 30
0.0
 70
     1
 40
0.282927
 41
0.282927
  0
VERTEX
  8
0
 10
2.52013
 20
9.27468
 30
0.0
 40
0.00392954
 41
0.00392954
  0
VERTEX
  8
0
 10
2.4669
 20
9.27468
 30
0.0
 40
0.00392954
 41
0.00392954
  0
VERTEX
  8
0
 10
2.52013
 20
9.27468
 30
0.0
 40
0.00392954
 41
0.00392954
  0
SEQEND
 8
0
  0
POLYLINE
  8
0
 62
     0
 66
     1
 10
0
 20
0
 30
0.0
 70
     1
 40
0.282927
 41
0.282927
  0
VERTEX
  8
0
 10
1.01313
 20
9.18278
 30
0.0
 40
0.00392954
 41
0.00392954
  0
VERTEX
  8
0
 10
0.818143
 20
9.18278
 30
0.0
 40
0.00392954
 41
0.00392954
  0
VERTEX
  8
0
 10
1.01313
 20
9.18278
 30
0.0
 40
0.00392954
 41
0.00392954
  0
SEQEND
 8
0
  0
POLYLINE
  8
0
 62
     0
 66
     1
 10
0
 20
0
 30
0.0
 70
     1
 40
0.282927
 41
0.282927
  0
VERTEX
  8
0
 10
2.96408
 20
7.10314
 30
0.0
 40
0.00392954
 41
0.00392954
  0
VERTEX
  8
0
 10
2.96408
 20
7.19499
 30
0.0
 40
0.00392954
 41
0.00392954
  0
VERTEX
  8
0
 10
2.96408
 20
7.10314
 30
0.0
 40
0.00392954
 41
0.00392954
  0
SEQEND
 8
0
  0
POLYLINE
  8
0
 62
     0
 66
     1
 10
0
 20
0
 30
0.0
 70
     1
 40
0.282927
 41
0.282927
  0
VERTEX
  8
0
 10
2.77436
 20
9.07314
 30
0.0
 40
0.00392954
 41
0.00392954
  0
VERTEX
  8
0
 10
3.51014
 20
9.07314
 30
0.0
 40
0.00392954
 41
0.00392954
  0
VERTEX
  8
0
 10
2.77436
 20
9.07314
 30
0.0
 40
0.00392954
 41
0.00392954
  0
SEQEND
 8
0
  0
POLYLINE
  8
0
 62
     0
 66
     1
 10
0
 20
0
 30
0.0
 70
     1
 40
0.282927
 41
0.282927
  0
VERTEX
  8
0
 10
1.86415
 20
9.18278
 30
0.0
 40
0.00392954
 41
0.00392954
  0
VERTEX
  8
0
 10
1.54503
 20
9.18278
 30
0.0
 40
0.00392954
 41
0.00392954
  0
VERTEX
  8
0
 10
1.86415
 20
9.18278
 30
0.0
 40
0.00392954
 41
0.00392954
  0
SEQEND
 8
0
  0
POLYLINE
  8
0
 62
     0
 66
     1
 10
0
 20
0
 30
0.0
 70
     1
 40
0.282927
 41
0.282927
  0
VERTEX
  8
0
 10
3.51014
 20
7.19499
 30
0.0
 40
0.00392954
 41
0.00392954
  0
VERTEX
  8
0
 10
3.51014
 20
7.10314
 30
0.0
 40
0.00392954
 41
0.00392954
  0
VERTEX
  8
0
 10
3.51014
 20
7.19499
 30
0.0
 40
0.00392954
 41
0.00392954
  0
SEQEND
 8
0
  0
POLYLINE
  8
0
 62
     0
 66
     1
 10
0
 20
0
 30
0.0
 70
     1
 40
0.282927
 41
0.282927
  0
VERTEX
  8
0
 10
0.921712
 20
8.55871
 30
0.0
 40
0.00392954
 41
0.00392954
  0
VERTEX
  8
0
 10
1.27626
 20
8.55871
 30
0.0
 40
0.00392954
 41
0.00392954
  0
VERTEX
  8
0
 10
0.921712
 20
8.55871
 30
0.0
 40
0.00392954
 41
0.00392954
  0
SEQEND
 8
0
  0
POLYLINE
  8
0
 62
     0
 66
     1
 10
0
 20
0
 30
0.0
 70
     1
 40
0.282927
 41
0.282927
  0
VERTEX
  8
0
 10
2.4669
 20
9.18278
 30
0.0
 40
0.00392954
 41
0.00392954
  0
VERTEX
  8
0
 10
2.21869
 20
9.18278
 30
0.0
 40
0.00392954
 41
0.00392954
  0
VERTEX
  8
0
 10
2.4669
 20
9.18278
 30
0.0
 40
0.00392954
 41
0.00392954
  0
SEQEND
 8
0
  0
POLYLINE
  8
0
 62
     0
 66
     1
 10
0
 20
0
 30
0.0
 70
     1
 40
0.282927
 41
0.282927
  0
VERTEX
  8
0
 10
2.91015
 20
9.18278
 30
0.0
 40
0.00392954
 41
0.00392954
  0
VERTEX
  8
0
 10
2.52013
 20
9.18278
 30
0.0
 40
0.00392954
 41
0.00392954
  0
VERTEX
  8
0
 10
2.91015
 20
9.18278
 30
0.0
 40
0.00392954
 41
0.00392954
  0
SEQEND
 8
0
  0
POLYLINE
  8
0
 62
     0
 66
     1
 10
0
 20
0
 30
0.0
 70
     1
 40
0.282927
 41
0.282927
  0
VERTEX
  8
0
 10
2.41803
 20
7.19499
 30
0.0
 40
0.00392954
 41
0.00392954
  0
VERTEX
  8
0
 10
2.41803
 20
7.10314
 30
0.0
 40
0.00392954
 41
0.00392954
  0
VERTEX
  8
0
 10
2.41803
 20
7.19499
 30
0.0
 40
0.00392954
 41
0.00392954
  0
SEQEND
 8
0
  0
POLYLINE
  8
0
 62
     0
 66
     1
 10
0
 20
0
 30
0.0
 70
     1
 40
0.282927
 41
0.282927
  0
VERTEX
  8
0
 10
3.67188
 20
11.0167
 30
0.0
 40
0.00392954
 41
0.00392954
  0
VERTEX
  8
0
 10
4.38103
 20
11.0167
 30
0.0
 40
0.00392954
 41
0.00392954
  0
VERTEX
  8
0
 10
3.67188
 20
11.0167
 30
0.0
 40
0.00392954
 41
0.00392954
  0
SEQEND
 8
0
  0
POLYLINE
  8
0
 62
     0
 66
     1
 10
0
 20
0
 30
0.0
 70
     1
 40
0.282927
 41
0.282927
  0
VERTEX
  8
0
 10
3.54839
 20
9.18278
 30
0.0
 40
0.00392954
 41
0.00392954
  0
VERTEX
  8
0
 10
3.26471
 20
9.18278
 30
0.0
 40
0.00392954
 41
0.00392954
  0
VERTEX
  8
0
 10
3.54839
 20
9.18278
 30
0.0
 40
0.00392954
 41
0.00392954
  0
SEQEND
 8
0
  0
POLYLINE
  8
0
 62
     0
 66
     1
 10
0
 20
0
 30
0.0
 70
     1
 40
0.282927
 41
0.282927
  0
VERTEX
  8
0
 10
1.87196
 20
7.10314
 30
0.0
 40
0.00392954
 41
0.00392954
  0
VERTEX
  8
0
 10
2.41803
 20
7.10314
 30
0.0
 40
0.00392954
 41
0.00392954
  0
VERTEX
  8
0
 10
1.87196
 20
7.10314
 30
0.0
 40
0.00392954
 41
0.00392954
  0
SEQEND
 8
0
  0
POLYLINE
  8
0
 62
     0
 66
     1
 10
0
 20
0
 30
0.0
 70
     1
 40
0.282927
 41
0.282927
  0
VERTEX
  8
0
 10
1.98546
 20
8.55871
 30
0.0
 40
0.00392954
 41
0.00392954
  0
VERTEX
  8
0
 10
2.03863
 20
8.55871
 30
0.0
 40
0.00392954
 41
0.00392954
  0
VERTEX
  8
0
 10
1.98546
 20
8.55871
 30
0.0
 40
0.00392954
 41
0.00392954
  0
SEQEND
 8
0
  0
POLYLINE
  8
0
 62
     0
 66
     1
 10
0
 20
0
 30
0.0
 70
     1
 40
0.282927
 41
0.282927
  0
VERTEX
  8
0
 10
0.729492
 20
10.1199
 30
0.0
 40
0.00392954
 41
0.00392954
  0
VERTEX
  8
0
 10
0.818143
 20
10.1199
 30
0.0
 40
0.00392954
 41
0.00392954
  0
VERTEX
  8
0
 10
0.729492
 20
10.1199
 30
0.0
 40
0.00392954
 41
0.00392954
  0
SEQEND
 8
0
  0
POLYLINE
  8
0
 62
     0
 66
     1
 10
0
 20
0
 30
0.0
 70
     1
 40
0.282927
 41
0.282927
  0
VERTEX
  8
0
 10
0.779839
 20
7.10314
 30
0.0
 40
0.00392954
 41
0.00392954
  0
VERTEX
  8
0
 10
1.3259
 20
7.10314
 30
0.0
 40
0.00392954
 41
0.00392954
  0
VERTEX
  8
0
 10
0.779839
 20
7.10314
 30
0.0
 40
0.00392954
 41
0.00392954
  0
SEQEND
 8
0
  0
POLYLINE
  8
0
 62
     0
 66
     1
 10
0
 20
0
 30
0.0
 70
     1
 40
0.282927
 41
0.282927
  0
VERTEX
  8
0
 10
2.96408
 20
7.10314
 30
0.0
 40
0.00392954
 41
0.00392954
  0
VERTEX
  8
0
 10
3.51014
 20
7.10314
 30
0.0
 40
0.00392954
 41
0.00392954
  0
VERTEX
  8
0
 10
2.96408
 20
7.10314
 30
0.0
 40
0.00392954
 41
0.00392954
  0
SEQEND
 8
0
  0
POLYLINE
  8
0
 62
     0
 66
     1
 10
0
 20
0
 30
0.0
 70
     1
 40
0.282927
 41
0.282927
  0
VERTEX
  8
0
 10
2.52013
 20
10.1199
 30
0.0
 40
0.00392954
 41
0.00392954
  0
VERTEX
  8
0
 10
2.91015
 20
10.1199
 30
0.0
 40
0.00392954
 41
0.00392954
  0
VERTEX
  8
0
 10
2.52013
 20
10.1199
 30
0.0
 40
0.00392954
 41
0.00392954
  0
SEQEND
 8
0
  0
POLYLINE
  8
0
 62
     0
 66
     1
 10
0
 20
0
 30
0.0
 70
     1
 40
0.282927
 41
0.282927
  0
VERTEX
  8
0
 10
1.54503
 20
9.27468
 30
0.0
 40
0.00392954
 41
0.00392954
  0
VERTEX
  8
0
 10
1.54503
 20
9.18278
 30
0.0
 40
0.00392954
 41
0.00392954
  0
VERTEX
  8
0
 10
1.54503
 20
9.27468
 30
0.0
 40
0.00392954
 41
0.00392954
  0
SEQEND
 8
0
  0
POLYLINE
  8
0
 62
     0
 66
     1
 10
0
 20
0
 30
0.0
 70
     1
 40
0.282927
 41
0.282927
  0
VERTEX
  8
0
 10
0.818143
 20
9.27468
 30
0.0
 40
0.00392954
 41
0.00392954
  0
VERTEX
  8
0
 10
0.729492
 20
9.27468
 30
0.0
 40
0.00392954
 41
0.00392954
  0
VERTEX
  8
0
 10
0.818143
 20
9.27468
 30
0.0
 40
0.00392954
 41
0.00392954
  0
SEQEND
 8
0
  0
POLYLINE
  8
0
 62
     0
 66
     1
 10
0
 20
0
 30
0.0
 70
     1
 40
0.282927
 41
0.282927
  0
VERTEX
  8
0
 10
1.87196
 20
7.10314
 30
0.0
 40
0.00392954
 41
0.00392954
  0
VERTEX
  8
0
 10
1.87196
 20
7.19499
 30
0.0
 40
0.00392954
 41
0.00392954
  0
VERTEX
  8
0
 10
1.87196
 20
7.10314
 30
0.0
 40
0.00392954
 41
0.00392954
  0
SEQEND
 8
0
  0
POLYLINE
  8
0
 62
     0
 66
     1
 10
0
 20
0
 30
0.0
 70
     1
 40
0.282927
 41
0.282927
  0
VERTEX
  8
0
 10
2.4669
 20
10.1199
 30
0.0
 40
0.00392954
 41
0.00392954
  0
VERTEX
  8
0
 10
2.52013
 20
10.1199
 30
0.0
 40
0.00392954
 41
0.00392954
  0
VERTEX
  8
0
 10
2.4669
 20
10.1199
 30
0.0
 40
0.00392954
 41
0.00392954
  0
SEQEND
 8
0
  0
POLYLINE
  8
0
 62
     0
 66
     1
 10
0
 20
0
 30
0.0
 70
     1
 40
0.282927
 41
0.282927
  0
VERTEX
  8
0
 10
4.66465
 20
10.1899
 30
0.0
 40
0.00392954
 41
0.00392954
  0
VERTEX
  8
0
 10
4.66465
 20
10.2817
 30
0.0
 40
0.00392954
 41
0.00392954
  0
VERTEX
  8
0
 10
4.66465
 20
10.1899
 30
0.0
 40
0.00392954
 41
0.00392954
  0
SEQEND
 8
0
  0
POLYLINE
  8
0
 62
     0
 66
     1
 10
0
 20
0
 30
0.0
 70
     1
 40
0.282927
 41
0.282927
  0
VERTEX
  8
0
 10
4.66465
 20
11.127
 30
0.0
 40
0.00392954
 41
0.00392954
  0
VERTEX
  8
0
 10
4.38103
 20
11.127
 30
0.0
 40
0.00392954
 41
0.00392954
  0
VERTEX
  8
0
 10
4.66465
 20
11.127
 30
0.0
 40
0.00392954
 41
0.00392954
  0
SEQEND
 8
0
  0
POLYLINE
  8
0
 62
     0
 66
     1
 10
0
 20
0
 30
0.0
 70
     1
 40
0.282927
 41
0.282927
  0
VERTEX
  8
0
 10
0.779839
 20
8.96289
 30
0.0
 40
0.00392954
 41
0.00392954
  0
VERTEX
  8
0
 10
0.779839
 20
8.55871
 30
0.0
 40
0.00392954
 41
0.00392954
  0
VERTEX
  8
0
 10
0.779839
 20
8.96289
 30
0.0
 40
0.00392954
 41
0.00392954
  0
SEQEND
 8
0
  0
POLYLINE
  8
0
 62
     0
 66
     1
 10
0
 20
0
 30
0.0
 70
     1
 40
0.282927
 41
0.282927
  0
VERTEX
  8
0
 10
2.92725
 20
10.2817
 30
0.0
 40
0.00392954
 41
0.00392954
  0
VERTEX
  8
0
 10
2.92725
 20
10.1899
 30
0.0
 40
0.00392954
 41
0.00392954
  0
VERTEX
  8
0
 10
2.92725
 20
10.2817
 30
0.0
 40
0.00392954
 41
0.00392954
  0
SEQEND
 8
0
  0
POLYLINE
  8
0
 62
     0
 66
     1
 10
0
 20
0
 30
0.0
 70
     1
 40
0.282927
 41
0.282927
  0
VERTEX
  8
0
 10
3.51014
 20
8.96289
 30
0.0
 40
0.00392954
 41
0.00392954
  0
VERTEX
  8
0
 10
3.51014
 20
8.55871
 30
0.0
 40
0.00392954
 41
0.00392954
  0
VERTEX
  8
0
 10
3.51014
 20
8.96289
 30
0.0
 40
0.00392954
 41
0.00392954
  0
SEQEND
 8
0
  0
POLYLINE
  8
0
 62
     0
 66
     1
 10
0
 20
0
 30
0.0
 70
     1
 40
0.282927
 41
0.282927
  0
VERTEX
  8
0
 10
1.54503
 20
10.1199
 30
0.0
 40
0.00392954
 41
0.00392954
  0
VERTEX
  8
0
 10
1.86415
 20
10.1199
 30
0.0
 40
0.00392954
 41
0.00392954
  0
VERTEX
  8
0
 10
1.54503
 20
10.1199
 30
0.0
 40
0.00392954
 41
0.00392954
  0
SEQEND
 8
0
  0
POLYLINE
  8
0
 62
     0
 66
     1
 10
0
 20
0
 30
0.0
 70
     1
 40
0.282927
 41
0.282927
  0
VERTEX
  8
0
 10
3.27294
 20
10.1899
 30
0.0
 40
0.00392954
 41
0.00392954
  0
VERTEX
  8
0
 10
3.27294
 20
10.2817
 30
0.0
 40
0.00392954
 41
0.00392954
  0
VERTEX
  8
0
 10
3.27294
 20
10.1899
 30
0.0
 40
0.00392954
 41
0.00392954
  0
SEQEND
 8
0
  0
POLYLINE
  8
0
 62
     0
 66
     1
 10
0
 20
0
 30
0.0
 70
     1
 40
0.282927
 41
0.282927
  0
VERTEX
  8
0
 10
3.67188
 20
10.2817
 30
0.0
 40
0.00392954
 41
0.00392954
  0
VERTEX
  8
0
 10
3.67188
 20
11.0167
 30
0.0
 40
0.00392954
 41
0.00392954
  0
VERTEX
  8
0
 10
3.67188
 20
10.2817
 30
0.0
 40
0.00392954
 41
0.00392954
  0
SEQEND
 8
0
  0
POLYLINE
  8
0
 62
     0
 66
     1
 10
0
 20
0
 30
0.0
 70
     1
 40
0.282927
 41
0.282927
  0
VERTEX
  8
0
 10
0.921712
 20
8.96289
 30
0.0
 40
0.00392954
 41
0.00392954
  0
VERTEX
  8
0
 10
0.921712
 20
8.55871
 30
0.0
 40
0.00392954
 41
0.00392954
  0
VERTEX
  8
0
 10
0.921712
 20
8.96289
 30
0.0
 40
0.00392954
 41
0.00392954
  0
SEQEND
 8
0
  0
POLYLINE
  8
0
 62
     0
 66
     1
 10
0
 20
0
 30
0.0
 70
     1
 40
0.282927
 41
0.282927
  0
VERTEX
  8
0
 10
3.32611
 20
10.2817
 30
0.0
 40
0.00392954
 41
0.00392954
  0
VERTEX
  8
0
 10
3.32611
 20
10.1899
 30
0.0
 40
0.00392954
 41
0.00392954
  0
VERTEX
  8
0
 10
3.32611
 20
10.2817
 30
0.0
 40
0.00392954
 41
0.00392954
  0
SEQEND
 8
0
  0
POLYLINE
  8
0
 62
     0
 66
     1
 10
0
 20
0
 30
0.0
 70
     1
 40
0.282927
 41
0.282927
  0
VERTEX
  8
0
 10
3.63704
 20
9.27468
 30
0.0
 40
0.00392954
 41
0.00392954
  0
VERTEX
  8
0
 10
3.54839
 20
9.27468
 30
0.0
 40
0.00392954
 41
0.00392954
  0
VERTEX
  8
0
 10
3.63704
 20
9.27468
 30
0.0
 40
0.00392954
 41
0.00392954
  0
SEQEND
 8
0
  0
POLYLINE
  8
0
 62
     0
 66
     1
 10
0
 20
0
 30
0.0
 70
     1
 40
0.282927
 41
0.282927
  0
VERTEX
  8
0
 10
4.75331
 20
11.127
 30
0.0
 40
0.00392954
 41
0.00392954
  0
VERTEX
  8
0
 10
4.66465
 20
11.127
 30
0.0
 40
0.00392954
 41
0.00392954
  0
VERTEX
  8
0
 10
4.75331
 20
11.127
 30
0.0
 40
0.00392954
 41
0.00392954
  0
SEQEND
 8
0
  0
POLYLINE
  8
0
 62
     0
 66
     1
 10
0
 20
0
 30
0.0
 70
     1
 40
0.282927
 41
0.282927
  0
VERTEX
  8
0
 10
1.27626
 20
8.96289
 30
0.0
 40
0.00392954
 41
0.00392954
  0
VERTEX
  8
0
 10
1.27626
 20
8.55871
 30
0.0
 40
0.00392954
 41
0.00392954
  0
VERTEX
  8
0
 10
1.27626
 20
8.96289
 30
0.0
 40
0.00392954
 41
0.00392954
  0
SEQEND
 8
0
  0
POLYLINE
  8
0
 62
     0
 66
     1
 10
0
 20
0
 30
0.0
 70
     1
 40
0.282927
 41
0.282927
  0
VERTEX
  8
0
 10
1.01313
 20
10.0097
 30
0.0
 40
0.00392954
 41
0.00392954
  0
VERTEX
  8
0
 10
1.01313
 20
9.60542
 30
0.0
 40
0.00392954
 41
0.00392954
  0
VERTEX
  8
0
 10
1.01313
 20
10.0097
 30
0.0
 40
0.00392954
 41
0.00392954
  0
SEQEND
 8
0
  0
POLYLINE
  8
0
 62
     0
 66
     1
 10
0
 20
0
 30
0.0
 70
     1
 40
0.282927
 41
0.282927
  0
VERTEX
  8
0
 10
3.67188
 20
10.1899
 30
0.0
 40
0.00392954
 41
0.00392954
  0
VERTEX
  8
0
 10
3.67188
 20
10.2817
 30
0.0
 40
0.00392954
 41
0.00392954
  0
VERTEX
  8
0
 10
3.67188
 20
10.1899
 30
0.0
 40
0.00392954
 41
0.00392954
  0
SEQEND
 8
0
  0
POLYLINE
  8
0
 62
     0
 66
     1
 10
0
 20
0
 30
0.0
 70
     1
 40
0.282927
 41
0.282927
  0
VERTEX
  8
0
 10
3.54839
 20
10.1199
 30
0.0
 40
0.00392954
 41
0.00392954
  0
VERTEX
  8
0
 10
3.63704
 20
10.1199
 30
0.0
 40
0.00392954
 41
0.00392954
  0
VERTEX
  8
0
 10
3.54839
 20
10.1199
 30
0.0
 40
0.00392954
 41
0.00392954
  0
SEQEND
 8
0
  0
POLYLINE
  8
0
 62
     0
 66
     1
 10
0
 20
0
 30
0.0
 70
     1
 40
0.282927
 41
0.282927
  0
VERTEX
  8
0
 10
4.66465
 20
10.2817
 30
0.0
 40
0.00392954
 41
0.00392954
  0
VERTEX
  8
0
 10
4.75331
 20
10.2817
 30
0.0
 40
0.00392954
 41
0.00392954
  0
VERTEX
  8
0
 10
4.66465
 20
10.2817
 30
0.0
 40
0.00392954
 41
0.00392954
  0
SEQEND
 8
0
  0
POLYLINE
  8
0
 62
     0
 66
     1
 10
0
 20
0
 30
0.0
 70
     1
 40
0.282927
 41
0.282927
  0
VERTEX
  8
0
 10
1.41813
 20
8.96289
 30
0.0
 40
0.00392954
 41
0.00392954
  0
VERTEX
  8
0
 10
1.41813
 20
8.55871
 30
0.0
 40
0.00392954
 41
0.00392954
  0
VERTEX
  8
0
 10
1.41813
 20
8.96289
 30
0.0
 40
0.00392954
 41
0.00392954
  0
SEQEND
 8
0
  0
POLYLINE
  8
0
 62
     0
 66
     1
 10
0
 20
0
 30
0.0
 70
     1
 40
0.282927
 41
0.282927
  0
VERTEX
  8
0
 10
1.9344
 20
10.2817
 30
0.0
 40
0.00392954
 41
0.00392954
  0
VERTEX
  8
0
 10
1.9344
 20
10.1899
 30
0.0
 40
0.00392954
 41
0.00392954
  0
VERTEX
  8
0
 10
1.9344
 20
10.2817
 30
0.0
 40
0.00392954
 41
0.00392954
  0
SEQEND
 8
0
  0
POLYLINE
  8
0
 62
     0
 66
     1
 10
0
 20
0
 30
0.0
 70
     1
 40
0.282927
 41
0.282927
  0
VERTEX
  8
0
 10
4.38103
 20
10.2817
 30
0.0
 40
0.00392954
 41
0.00392954
  0
VERTEX
  8
0
 10
4.38103
 20
11.0167
 30
0.0
 40
0.00392954
 41
0.00392954
  0
VERTEX
  8
0
 10
4.38103
 20
10.2817
 30
0.0
 40
0.00392954
 41
0.00392954
  0
SEQEND
 8
0
  0
POLYLINE
  8
0
 62
     0
 66
     1
 10
0
 20
0
 30
0.0
 70
     1
 40
0.282927
 41
0.282927
  0
VERTEX
  8
0
 10
1.77268
 20
8.96289
 30
0.0
 40
0.00392954
 41
0.00392954
  0
VERTEX
  8
0
 10
1.77268
 20
8.55871
 30
0.0
 40
0.00392954
 41
0.00392954
  0
VERTEX
  8
0
 10
1.77268
 20
8.96289
 30
0.0
 40
0.00392954
 41
0.00392954
  0
SEQEND
 8
0
  0
POLYLINE
  8
0
 62
     0
 66
     1
 10
0
 20
0
 30
0.0
 70
     1
 40
0.282927
 41
0.282927
  0
VERTEX
  8
0
 10
2.2181
 20
10.1899
 30
0.0
 40
0.00392954
 41
0.00392954
  0
VERTEX
  8
0
 10
2.2181
 20
10.2817
 30
0.0
 40
0.00392954
 41
0.00392954
  0
VERTEX
  8
0
 10
2.2181
 20
10.1899
 30
0.0
 40
0.00392954
 41
0.00392954
  0
SEQEND
 8
0
  0
POLYLINE
  8
0
 62
     0
 66
     1
 10
0
 20
0
 30
0.0
 70
     1
 40
0.282927
 41
0.282927
  0
VERTEX
  8
0
 10
3.26471
 20
10.0097
 30
0.0
 40
0.00392954
 41
0.00392954
  0
VERTEX
  8
0
 10
3.26471
 20
9.60542
 30
0.0
 40
0.00392954
 41
0.00392954
  0
VERTEX
  8
0
 10
3.26471
 20
10.0097
 30
0.0
 40
0.00392954
 41
0.00392954
  0
SEQEND
 8
0
  0
POLYLINE
  8
0
 62
     0
 66
     1
 10
0
 20
0
 30
0.0
 70
     1
 40
0.282927
 41
0.282927
  0
VERTEX
  8
0
 10
4.38103
 20
11.127
 30
0.0
 40
0.00392954
 41
0.00392954
  0
VERTEX
  8
0
 10
3.67188
 20
11.127
 30
0.0
 40
0.00392954
 41
0.00392954
  0
VERTEX
  8
0
 10
4.38103
 20
11.127
 30
0.0
 40
0.00392954
 41
0.00392954
  0
SEQEND
 8
0
  0
POLYLINE
  8
0
 62
     0
 66
     1
 10
0
 20
0
 30
0.0
 70
     1
 40
0.282927
 41
0.282927
  0
VERTEX
  8
0
 10
1.98546
 20
8.96289
 30
0.0
 40
0.00392954
 41
0.00392954
  0
VERTEX
  8
0
 10
1.98546
 20
8.55871
 30
0.0
 40
0.00392954
 41
0.00392954
  0
VERTEX
  8
0
 10
1.98546
 20
8.96289
 30
0.0
 40
0.00392954
 41
0.00392954
  0
SEQEND
 8
0
  0
POLYLINE
  8
0
 62
     0
 66
     1
 10
0
 20
0
 30
0.0
 70
     1
 40
0.282927
 41
0.282927
  0
VERTEX
  8
0
 10
1.01313
 20
9.60542
 30
0.0
 40
0.00392954
 41
0.00392954
  0
VERTEX
  8
0
 10
1.54503
 20
9.60542
 30
0.0
 40
0.00392954
 41
0.00392954
  0
VERTEX
  8
0
 10
1.01313
 20
9.60542
 30
0.0
 40
0.00392954
 41
0.00392954
  0
SEQEND
 8
0
  0
POLYLINE
  8
0
 62
     0
 66
     1
 10
0
 20
0
 30
0.0
 70
     1
 40
0.282927
 41
0.282927
  0
VERTEX
  8
0
 10
0.779839
 20
7.19499
 30
0.0
 40
0.00392954
 41
0.00392954
  0
VERTEX
  8
0
 10
0.779839
 20
8.04021
 30
0.0
 40
0.00392954
 41
0.00392954
  0
VERTEX
  8
0
 10
0.779839
 20
7.19499
 30
0.0
 40
0.00392954
 41
0.00392954
  0
SEQEND
 8
0
  0
POLYLINE
  8
0
 62
     0
 66
     1
 10
0
 20
0
 30
0.0
 70
     1
 40
0.282927
 41
0.282927
  0
VERTEX
  8
0
 10
2.03863
 20
8.96289
 30
0.0
 40
0.00392954
 41
0.00392954
  0
VERTEX
  8
0
 10
2.03863
 20
8.55871
 30
0.0
 40
0.00392954
 41
0.00392954
  0
VERTEX
  8
0
 10
2.03863
 20
8.96289
 30
0.0
 40
0.00392954
 41
0.00392954
  0
SEQEND
 8
0
  0
POLYLINE
  8
0
 62
     0
 66
     1
 10
0
 20
0
 30
0.0
 70
     1
 40
0.282927
 41
0.282927
  0
VERTEX
  8
0
 10
1.54503
 20
9.27468
 30
0.0
 40
0.00392954
 41
0.00392954
  0
VERTEX
  8
0
 10
1.01313
 20
9.27468
 30
0.0
 40
0.00392954
 41
0.00392954
  0
VERTEX
  8
0
 10
1.54503
 20
9.27468
 30
0.0
 40
0.00392954
 41
0.00392954
  0
SEQEND
 8
0
  0
POLYLINE
  8
0
 62
     0
 66
     1
 10
0
 20
0
 30
0.0
 70
     1
 40
0.282927
 41
0.282927
  0
VERTEX
  8
0
 10
3.51014
 20
7.19499
 30
0.0
 40
0.00392954
 41
0.00392954
  0
VERTEX
  8
0
 10
3.51014
 20
8.04021
 30
0.0
 40
0.00392954
 41
0.00392954
  0
VERTEX
  8
0
 10
3.51014
 20
7.19499
 30
0.0
 40
0.00392954
 41
0.00392954
  0
SEQEND
 8
0
  0
POLYLINE
  8
0
 62
     0
 66
     1
 10
0
 20
0
 30
0.0
 70
     1
 40
0.282927
 41
0.282927
  0
VERTEX
  8
0
 10
1.01313
 20
10.1199
 30
0.0
 40
0.00392954
 41
0.00392954
  0
VERTEX
  8
0
 10
1.54503
 20
10.1199
 30
0.0
 40
0.00392954
 41
0.00392954
  0
VERTEX
  8
0
 10
1.01313
 20
10.1199
 30
0.0
 40
0.00392954
 41
0.00392954
  0
SEQEND
 8
0
  0
POLYLINE
  8
0
 62
     0
 66
     1
 10
0
 20
0
 30
0.0
 70
     1
 40
0.282927
 41
0.282927
  0
VERTEX
  8
0
 10
1.54503
 20
10.0097
 30
0.0
 40
0.00392954
 41
0.00392954
  0
VERTEX
  8
0
 10
1.01313
 20
10.0097
 30
0.0
 40
0.00392954
 41
0.00392954
  0
VERTEX
  8
0
 10
1.54503
 20
10.0097
 30
0.0
 40
0.00392954
 41
0.00392954
  0
SEQEND
 8
0
  0
POLYLINE
  8
0
 62
     0
 66
     1
 10
0
 20
0
 30
0.0
 70
     1
 40
0.282927
 41
0.282927
  0
VERTEX
  8
0
 10
3.51014
 20
8.04021
 30
0.0
 40
0.00392954
 41
0.00392954
  0
VERTEX
  8
0
 10
2.96408
 20
8.04021
 30
0.0
 40
0.00392954
 41
0.00392954
  0
VERTEX
  8
0
 10
3.51014
 20
8.04021
 30
0.0
 40
0.00392954
 41
0.00392954
  0
SEQEND
 8
0
  0
POLYLINE
  8
0
 62
     0
 66
     1
 10
0
 20
0
 30
0.0
 70
     1
 40
0.282927
 41
0.282927
  0
VERTEX
  8
0
 10
2.2181
 20
11.127
 30
0.0
 40
0.00392954
 41
0.00392954
  0
VERTEX
  8
0
 10
1.9344
 20
11.127
 30
0.0
 40
0.00392954
 41
0.00392954
  0
VERTEX
  8
0
 10
2.2181
 20
11.127
 30
0.0
 40
0.00392954
 41
0.00392954
  0
SEQEND
 8
0
  0
POLYLINE
  8
0
 62
     0
 66
     1
 10
0
 20
0
 30
0.0
 70
     1
 40
0.282927
 41
0.282927
  0
VERTEX
  8
0
 10
1.41813
 20
8.96289
 30
0.0
 40
0.00392954
 41
0.00392954
  0
VERTEX
  8
0
 10
1.77268
 20
8.96289
 30
0.0
 40
0.00392954
 41
0.00392954
  0
VERTEX
  8
0
 10
1.41813
 20
8.96289
 30
0.0
 40
0.00392954
 41
0.00392954
  0
SEQEND
 8
0
  0
POLYLINE
  8
0
 62
     0
 66
     1
 10
0
 20
0
 30
0.0
 70
     1
 40
0.282927
 41
0.282927
  0
VERTEX
  8
0
 10
3.26471
 20
10.1199
 30
0.0
 40
0.00392954
 41
0.00392954
  0
VERTEX
  8
0
 10
3.54839
 20
10.1199
 30
0.0
 40
0.00392954
 41
0.00392954
  0
VERTEX
  8
0
 10
3.26471
 20
10.1199
 30
0.0
 40
0.00392954
 41
0.00392954
  0
SEQEND
 8
0
  0
POLYLINE
  8
0
 62
     0
 66
     1
 10
0
 20
0
 30
0.0
 70
     1
 40
0.282927
 41
0.282927
  0
VERTEX
  8
0
 10
2.41803
 20
7.19499
 30
0.0
 40
0.00392954
 41
0.00392954
  0
VERTEX
  8
0
 10
2.96408
 20
7.19499
 30
0.0
 40
0.00392954
 41
0.00392954
  0
VERTEX
  8
0
 10
2.41803
 20
7.19499
 30
0.0
 40
0.00392954
 41
0.00392954
  0
SEQEND
 8
0
  0
POLYLINE
  8
0
 62
     0
 66
     1
 10
0
 20
0
 30
0.0
 70
     1
 40
0.282927
 41
0.282927
  0
VERTEX
  8
0
 10
1.84576
 20
10.2817
 30
0.0
 40
0.00392954
 41
0.00392954
  0
VERTEX
  8
0
 10
1.9344
 20
10.2817
 30
0.0
 40
0.00392954
 41
0.00392954
  0
VERTEX
  8
0
 10
1.84576
 20
10.2817
 30
0.0
 40
0.00392954
 41
0.00392954
  0
SEQEND
 8
0
  0
POLYLINE
  8
0
 62
     0
 66
     1
 10
0
 20
0
 30
0.0
 70
     1
 40
0.282927
 41
0.282927
  0
VERTEX
  8
0
 10
0.921712
 20
8.96289
 30
0.0
 40
0.00392954
 41
0.00392954
  0
VERTEX
  8
0
 10
1.27626
 20
8.96289
 30
0.0
 40
0.00392954
 41
0.00392954
  0
VERTEX
  8
0
 10
0.921712
 20
8.96289
 30
0.0
 40
0.00392954
 41
0.00392954
  0
SEQEND
 8
0
  0
POLYLINE
  8
0
 62
     0
 66
     1
 10
0
 20
0
 30
0.0
 70
     1
 40
0.282927
 41
0.282927
  0
VERTEX
  8
0
 10
2.91015
 20
10.0097
 30
0.0
 40
0.00392954
 41
0.00392954
  0
VERTEX
  8
0
 10
2.91015
 20
9.60542
 30
0.0
 40
0.00392954
 41
0.00392954
  0
VERTEX
  8
0
 10
2.91015
 20
10.0097
 30
0.0
 40
0.00392954
 41
0.00392954
  0
SEQEND
 8
0
  0
POLYLINE
  8
0
 62
     0
 66
     1
 10
0
 20
0
 30
0.0
 70
     1
 40
0.282927
 41
0.282927
  0
VERTEX
  8
0
 10
1.9344
 20
11.127
 30
0.0
 40
0.00392954
 41
0.00392954
  0
VERTEX
  8
0
 10
1.84576
 20
11.127
 30
0.0
 40
0.00392954
 41
0.00392954
  0
VERTEX
  8
0
 10
1.9344
 20
11.127
 30
0.0
 40
0.00392954
 41
0.00392954
  0
SEQEND
 8
0
  0
POLYLINE
  8
0
 62
     0
 66
     1
 10
0
 20
0
 30
0.0
 70
     1
 40
0.282927
 41
0.282927
  0
VERTEX
  8
0
 10
1.3259
 20
7.19499
 30
0.0
 40
0.00392954
 41
0.00392954
  0
VERTEX
  8
0
 10
1.87196
 20
7.19499
 30
0.0
 40
0.00392954
 41
0.00392954
  0
VERTEX
  8
0
 10
1.3259
 20
7.19499
 30
0.0
 40
0.00392954
 41
0.00392954
  0
SEQEND
 8
0
  0
POLYLINE
  8
0
 62
     0
 66
     1
 10
0
 20
0
 30
0.0
 70
     1
 40
0.282927
 41
0.282927
  0
VERTEX
  8
0
 10
4.75331
 20
11.0167
 30
0.0
 40
0.00392954
 41
0.00392954
  0
VERTEX
  8
0
 10
4.75331
 20
11.127
 30
0.0
 40
0.00392954
 41
0.00392954
  0
VERTEX
  8
0
 10
4.75331
 20
11.0167
 30
0.0
 40
0.00392954
 41
0.00392954
  0
SEQEND
 8
0
  0
POLYLINE
  8
0
 62
     0
 66
     1
 10
0
 20
0
 30
0.0
 70
     1
 40
0.282927
 41
0.282927
  0
VERTEX
  8
0
 10
0.779839
 20
8.55871
 30
0.0
 40
0.00392954
 41
0.00392954
  0
VERTEX
  8
0
 10
0.779839
 20
8.22797
 30
0.0
 40
0.00392954
 41
0.00392954
  0
VERTEX
  8
0
 10
0.779839
 20
8.55871
 30
0.0
 40
0.00392954
 41
0.00392954
  0
SEQEND
 8
0
  0
POLYLINE
  8
0
 62
     0
 66
     1
 10
0
 20
0
 30
0.0
 70
     1
 40
0.282927
 41
0.282927
  0
VERTEX
  8
0
 10
1.3259
 20
8.04021
 30
0.0
 40
0.00392954
 41
0.00392954
  0
VERTEX
  8
0
 10
0.779839
 20
8.04021
 30
0.0
 40
0.00392954
 41
0.00392954
  0
VERTEX
  8
0
 10
1.3259
 20
8.04021
 30
0.0
 40
0.00392954
 41
0.00392954
  0
SEQEND
 8
0
  0
POLYLINE
  8
0
 62
     0
 66
     1
 10
0
 20
0
 30
0.0
 70
     1
 40
0.282927
 41
0.282927
  0
VERTEX
  8
0
 10
3.51014
 20
8.55871
 30
0.0
 40
0.00392954
 41
0.00392954
  0
VERTEX
  8
0
 10
3.51014
 20
8.22797
 30
0.0
 40
0.00392954
 41
0.00392954
  0
VERTEX
  8
0
 10
3.51014
 20
8.55871
 30
0.0
 40
0.00392954
 41
0.00392954
  0
SEQEND
 8
0
  0
POLYLINE
  8
0
 62
     0
 66
     1
 10
0
 20
0
 30
0.0
 70
     1
 40
0.282927
 41
0.282927
  0
VERTEX
  8
0
 10
0.818143
 20
10.1199
 30
0.0
 40
0.00392954
 41
0.00392954
  0
VERTEX
  8
0
 10
1.01313
 20
10.1199
 30
0.0
 40
0.00392954
 41
0.00392954
  0
VERTEX
  8
0
 10
0.818143
 20
10.1199
 30
0.0
 40
0.00392954
 41
0.00392954
  0
SEQEND
 8
0
  0
POLYLINE
  8
0
 62
     0
 66
     1
 10
0
 20
0
 30
0.0
 70
     1
 40
0.282927
 41
0.282927
  0
VERTEX
  8
0
 10
1.87196
 20
8.04021
 30
0.0
 40
0.00392954
 41
0.00392954
  0
VERTEX
  8
0
 10
1.3259
 20
8.04021
 30
0.0
 40
0.00392954
 41
0.00392954
  0
VERTEX
  8
0
 10
1.87196
 20
8.04021
 30
0.0
 40
0.00392954
 41
0.00392954
  0
SEQEND
 8
0
  0
POLYLINE
  8
0
 62
     0
 66
     1
 10
0
 20
0
 30
0.0
 70
     1
 40
0.282927
 41
0.282927
  0
VERTEX
  8
0
 10
2.91015
 20
9.60542
 30
0.0
 40
0.00392954
 41
0.00392954
  0
VERTEX
  8
0
 10
3.26471
 20
9.60542
 30
0.0
 40
0.00392954
 41
0.00392954
  0
VERTEX
  8
0
 10
2.91015
 20
9.60542
 30
0.0
 40
0.00392954
 41
0.00392954
  0
SEQEND
 8
0
  0
POLYLINE
  8
0
 62
     0
 66
     1
 10
0
 20
0
 30
0.0
 70
     1
 40
0.282927
 41
0.282927
  0
VERTEX
  8
0
 10
2.41803
 20
8.04021
 30
0.0
 40
0.00392954
 41
0.00392954
  0
VERTEX
  8
0
 10
1.87196
 20
8.04021
 30
0.0
 40
0.00392954
 41
0.00392954
  0
VERTEX
  8
0
 10
2.41803
 20
8.04021
 30
0.0
 40
0.00392954
 41
0.00392954
  0
SEQEND
 8
0
  0
POLYLINE
  8
0
 62
     0
 66
     1
 10
0
 20
0
 30
0.0
 70
     1
 40
0.282927
 41
0.282927
  0
VERTEX
  8
0
 10
3.26471
 20
9.27468
 30
0.0
 40
0.00392954
 41
0.00392954
  0
VERTEX
  8
0
 10
2.91015
 20
9.27468
 30
0.0
 40
0.00392954
 41
0.00392954
  0
VERTEX
  8
0
 10
3.26471
 20
9.27468
 30
0.0
 40
0.00392954
 41
0.00392954
  0
SEQEND
 8
0
  0
POLYLINE
  8
0
 62
     0
 66
     1
 10
0
 20
0
 30
0.0
 70
     1
 40
0.282927
 41
0.282927
  0
VERTEX
  8
0
 10
0.729492
 20
10.0097
 30
0.0
 40
0.00392954
 41
0.00392954
  0
VERTEX
  8
0
 10
0.729492
 20
9.60542
 30
0.0
 40
0.00392954
 41
0.00392954
  0
VERTEX
  8
0
 10
0.729492
 20
10.0097
 30
0.0
 40
0.00392954
 41
0.00392954
  0
SEQEND
 8
0
  0
POLYLINE
  8
0
 62
     0
 66
     1
 10
0
 20
0
 30
0.0
 70
     1
 40
0.282927
 41
0.282927
  0
VERTEX
  8
0
 10
2.96408
 20
8.04021
 30
0.0
 40
0.00392954
 41
0.00392954
  0
VERTEX
  8
0
 10
2.41803
 20
8.04021
 30
0.0
 40
0.00392954
 41
0.00392954
  0
VERTEX
  8
0
 10
2.96408
 20
8.04021
 30
0.0
 40
0.00392954
 41
0.00392954
  0
SEQEND
 8
0
  0
POLYLINE
  8
0
 62
     0
 66
     1
 10
0
 20
0
 30
0.0
 70
     1
 40
0.282927
 41
0.282927
  0
VERTEX
  8
0
 10
2.91015
 20
10.1199
 30
0.0
 40
0.00392954
 41
0.00392954
  0
VERTEX
  8
0
 10
3.26471
 20
10.1199
 30
0.0
 40
0.00392954
 41
0.00392954
  0
VERTEX
  8
0
 10
2.91015
 20
10.1199
 30
0.0
 40
0.00392954
 41
0.00392954
  0
SEQEND
 8
0
  0
POLYLINE
  8
0
 62
     0
 66
     1
 10
0
 20
0
 30
0.0
 70
     1
 40
0.282927
 41
0.282927
  0
VERTEX
  8
0
 10
1.41813
 20
8.55871
 30
0.0
 40
0.00392954
 41
0.00392954
  0
VERTEX
  8
0
 10
1.41813
 20
8.22797
 30
0.0
 40
0.00392954
 41
0.00392954
  0
VERTEX
  8
0
 10
1.41813
 20
8.55871
 30
0.0
 40
0.00392954
 41
0.00392954
  0
SEQEND
 8
0
  0
POLYLINE
  8
0
 62
     0
 66
     1
 10
0
 20
0
 30
0.0
 70
     1
 40
0.282927
 41
0.282927
  0
VERTEX
  8
0
 10
0.729492
 20
10.1199
 30
0.0
 40
0.00392954
 41
0.00392954
  0
VERTEX
  8
0
 10
0.729492
 20
10.0097
 30
0.0
 40
0.00392954
 41
0.00392954
  0
VERTEX
  8
0
 10
0.729492
 20
10.1199
 30
0.0
 40
0.00392954
 41
0.00392954
  0
SEQEND
 8
0
  0
POLYLINE
  8
0
 62
     0
 66
     1
 10
0
 20
0
 30
0.0
 70
     1
 40
0.282927
 41
0.282927
  0
VERTEX
  8
0
 10
3.26471
 20
10.0097
 30
0.0
 40
0.00392954
 41
0.00392954
  0
VERTEX
  8
0
 10
2.91015
 20
10.0097
 30
0.0
 40
0.00392954
 41
0.00392954
  0
VERTEX
  8
0
 10
3.26471
 20
10.0097
 30
0.0
 40
0.00392954
 41
0.00392954
  0
SEQEND
 8
0
  0
POLYLINE
  8
0
 62
     0
 66
     1
 10
0
 20
0
 30
0.0
 70
     1
 40
0.282927
 41
0.282927
  0
VERTEX
  8
0
 10
1.77268
 20
8.55871
 30
0.0
 40
0.00392954
 41
0.00392954
  0
VERTEX
  8
0
 10
1.77268
 20
8.22797
 30
0.0
 40
0.00392954
 41
0.00392954
  0
VERTEX
  8
0
 10
1.77268
 20
8.55871
 30
0.0
 40
0.00392954
 41
0.00392954
  0
SEQEND
 8
0
  0
POLYLINE
  8
0
 62
     0
 66
     1
 10
0
 20
0
 30
0.0
 70
     1
 40
0.282927
 41
0.282927
  0
VERTEX
  8
0
 10
0.729492
 20
9.60542
 30
0.0
 40
0.00392954
 41
0.00392954
  0
VERTEX
  8
0
 10
0.729492
 20
9.27468
 30
0.0
 40
0.00392954
 41
0.00392954
  0
VERTEX
  8
0
 10
0.729492
 20
9.60542
 30
0.0
 40
0.00392954
 41
0.00392954
  0
SEQEND
 8
0
  0
ENDSEC
  0
EOF
