<?xml version="1.0" standalone="no"?>
<!DOCTYPE svg PUBLIC "-//W3C//DTD SVG 1.1//EN" 
  "http://www.w3.org/Graphics/SVG/1.1/DTD/svg11.dtd">
<svg width="1024" height="1024" viewBox="0 0 1024 1024"
     xmlns="http://www.w3.org/2000/svg" version="1.1">
<desc>'haus.blend', Plane.025, (Blender 2.78 (sub 0))</desc>
<polygon stroke="black" stroke-width="1" fill="grey" fill-opacity="0.25" points="517.493,1013.301 517.493,976.667 517.493,976.667 517.493,1013.301 " />
<polygon stroke="black" stroke-width="1" fill="grey" fill-opacity="0.25" points="221.536,358.067 221.536,388.596 221.536,388.596 221.536,358.067 " />
<polygon stroke="black" stroke-width="1" fill="grey" fill-opacity="0.25" points="638.635,30.528 747.076,30.528 747.076,30.528 638.635,30.528 " />
<polygon stroke="black" stroke-width="1" fill="grey" fill-opacity="0.25" points="517.493,732.438 528.337,732.438 528.337,732.438 517.493,732.438 " />
<polygon stroke="black" stroke-width="1" fill="grey" fill-opacity="0.25" points="575.777,388.596 575.777,358.067 575.777,358.067 575.777,388.596 " />
<polygon stroke="black" stroke-width="1" fill="grey" fill-opacity="0.25" points="747.076,311.392 638.635,311.392 638.635,311.392 747.076,311.392 " />
<polygon stroke="black" stroke-width="1" fill="grey" fill-opacity="0.25" points="517.493,732.438 367.483,732.438 367.483,732.438 517.493,732.438 " />
<polygon stroke="black" stroke-width="1" fill="grey" fill-opacity="0.25" points="505.291,358.067 505.291,388.596 505.290,388.596 505.290,358.067 " />
<polygon stroke="black" stroke-width="1" fill="grey" fill-opacity="0.25" points="786.838,311.392 786.838,274.758 786.838,274.758 786.838,311.392 " />
<polygon stroke="black" stroke-width="1" fill="grey" fill-opacity="0.25" points="517.493,1013.301 367.483,1013.301 367.483,1013.301 517.493,1013.301 " />
<polygon stroke="black" stroke-width="1" fill="grey" fill-opacity="0.25" points="494.446,388.596 494.446,358.067 494.446,358.067 494.446,388.596 " />
<polygon stroke="black" stroke-width="1" fill="grey" fill-opacity="0.25" points="786.838,311.392 747.076,311.392 747.076,311.392 786.838,311.392 " />
<polygon stroke="black" stroke-width="1" fill="grey" fill-opacity="0.25" points="774.137,976.667 774.137,842.341 774.137,842.341 774.137,976.667 " />
<polygon stroke="black" stroke-width="1" fill="grey" fill-opacity="0.25" points="423.960,358.067 423.960,388.596 423.960,388.596 423.960,358.067 " />
<polygon stroke="black" stroke-width="1" fill="grey" fill-opacity="0.25" points="804.911,274.758 804.911,140.431 804.911,140.431 804.911,274.758 " />
<polygon stroke="black" stroke-width="1" fill="grey" fill-opacity="0.25" points="217.473,976.667 217.473,842.341 217.473,842.341 217.473,976.667 " />
<polygon stroke="black" stroke-width="1" fill="grey" fill-opacity="0.25" points="778.200,388.596 778.200,358.067 778.200,358.067 778.200,388.596 " />
<polygon stroke="black" stroke-width="1" fill="grey" fill-opacity="0.25" points="804.911,140.431 804.911,30.528 804.911,30.528 804.911,140.431 " />
<polygon stroke="black" stroke-width="1" fill="grey" fill-opacity="0.25" points="644.008,976.667 644.008,842.341 644.008,842.341 644.008,976.667 " />
<polygon stroke="black" stroke-width="1" fill="grey" fill-opacity="0.25" points="720.365,358.067 720.365,388.596 720.365,388.596 720.365,358.067 " />
<polygon stroke="black" stroke-width="1" fill="grey" fill-opacity="0.25" points="786.838,30.528 804.911,30.528 804.911,30.528 786.838,30.528 " />
<polygon stroke="black" stroke-width="1" fill="grey" fill-opacity="0.25" points="571.714,976.667 571.714,842.341 571.714,842.341 571.714,976.667 " />
<polygon stroke="black" stroke-width="1" fill="grey" fill-opacity="0.25" points="1013.156,669.460 1024.000,669.460 1024.000,669.460 1013.156,669.460 " />
<polygon stroke="black" stroke-width="1" fill="grey" fill-opacity="0.25" points="786.838,274.758 804.911,274.758 804.911,274.758 786.838,274.758 " />
<polygon stroke="black" stroke-width="1" fill="grey" fill-opacity="0.25" points="528.337,976.667 528.337,842.341 528.337,842.341 528.337,976.667 " />
<polygon stroke="black" stroke-width="1" fill="grey" fill-opacity="0.25" points="18.073,53.187 162.661,53.187 162.661,53.187 18.073,53.187 " />
<polygon stroke="black" stroke-width="1" fill="grey" fill-opacity="0.25" points="230.173,0.000 288.009,0.000 288.009,0.000 230.173,0.000 " />
<polygon stroke="black" stroke-width="1" fill="grey" fill-opacity="0.25" points="517.493,976.667 517.493,842.341 517.493,842.341 517.493,976.667 " />
<polygon stroke="black" stroke-width="1" fill="grey" fill-opacity="0.25" points="18.073,993.471 162.661,993.471 162.661,993.471 18.073,993.471 " />
<polygon stroke="black" stroke-width="1" fill="grey" fill-opacity="0.25" points="360.303,0.000 439.826,0.000 439.826,0.000 360.303,0.000 " />
<polygon stroke="black" stroke-width="1" fill="grey" fill-opacity="0.25" points="644.008,976.667 571.714,976.667 571.714,976.667 644.008,976.667 " />
<polygon stroke="black" stroke-width="1" fill="grey" fill-opacity="0.25" points="18.073,617.358 18.073,805.414 18.073,805.414 18.073,617.358 " />
<polygon stroke="black" stroke-width="1" fill="grey" fill-opacity="0.25" points="450.670,0.000 501.276,0.000 501.276,0.000 450.670,0.000 " />
<polygon stroke="black" stroke-width="1" fill="grey" fill-opacity="0.25" points="774.137,842.341 774.137,732.437 774.137,732.437 774.137,842.341 " />
<polygon stroke="black" stroke-width="1" fill="grey" fill-opacity="0.25" points="18.073,241.244 18.073,266.888 18.073,266.888 18.073,241.244 " />
<polygon stroke="black" stroke-width="1" fill="grey" fill-opacity="0.25" points="573.570,0.000 638.635,0.000 638.635,0.000 573.570,0.000 " />
<polygon stroke="black" stroke-width="1" fill="grey" fill-opacity="0.25" points="217.473,842.341 217.473,732.438 217.473,732.438 217.473,842.341 " />
<polygon stroke="black" stroke-width="1" fill="grey" fill-opacity="0.25" points="0.000,53.187 0.000,241.244 0.000,241.244 0.000,53.187 " />
<polygon stroke="black" stroke-width="1" fill="grey" fill-opacity="0.25" points="747.076,0.000 786.838,0.000 786.838,0.000 747.076,0.000 " />
<polygon stroke="black" stroke-width="1" fill="grey" fill-opacity="0.25" points="644.008,842.341 644.008,732.437 644.008,732.437 644.008,842.341 " />
<polygon stroke="black" stroke-width="1" fill="grey" fill-opacity="0.25" points="0.000,805.414 0.000,993.471 0.000,993.471 0.000,805.414 " />
<polygon stroke="black" stroke-width="1" fill="grey" fill-opacity="0.25" points="638.635,30.528 638.635,0.000 638.635,0.000 638.635,30.528 " />
<polygon stroke="black" stroke-width="1" fill="grey" fill-opacity="0.25" points="203.463,388.596 203.463,632.826 203.463,632.826 203.463,388.596 " />
<polygon stroke="black" stroke-width="1" fill="grey" fill-opacity="0.25" points="571.714,842.341 571.714,732.438 571.714,732.438 571.714,842.341 " />
<polygon stroke="black" stroke-width="1" fill="grey" fill-opacity="0.25" points="0.000,429.300 0.000,468.377 0.000,468.377 0.000,429.300 " />
<polygon stroke="black" stroke-width="1" fill="grey" fill-opacity="0.25" points="573.570,0.000 573.570,30.528 573.570,30.528 573.570,0.000 " />
<polygon stroke="black" stroke-width="1" fill="grey" fill-opacity="0.25" points="575.777,669.460 720.365,669.460 720.365,669.460 575.777,669.460 " />
<polygon stroke="black" stroke-width="1" fill="grey" fill-opacity="0.25" points="528.337,842.341 517.493,842.341 517.493,842.341 528.337,842.341 " />
<polygon stroke="black" stroke-width="1" fill="grey" fill-opacity="0.25" points="18.073,617.358 0.000,617.358 0.000,617.358 18.073,617.358 " />
<polygon stroke="black" stroke-width="1" fill="grey" fill-opacity="0.25" points="439.826,30.528 439.826,0.000 439.826,0.000 439.826,30.528 " />
<polygon stroke="black" stroke-width="1" fill="grey" fill-opacity="0.25" points="575.777,388.596 575.777,632.826 575.777,632.826 575.777,388.596 " />
<polygon stroke="black" stroke-width="1" fill="grey" fill-opacity="0.25" points="367.483,1013.301 217.473,1013.301 217.473,1013.301 367.483,1013.301 " />
<polygon stroke="black" stroke-width="1" fill="grey" fill-opacity="0.25" points="0.000,429.300 18.073,429.300 18.073,429.300 0.000,429.300 " />
<polygon stroke="black" stroke-width="1" fill="grey" fill-opacity="0.25" points="360.303,0.000 360.303,30.528 360.303,30.528 360.303,0.000 " />
<polygon stroke="black" stroke-width="1" fill="grey" fill-opacity="0.25" points="505.291,669.460 575.777,669.460 575.777,669.460 505.290,669.460 " />
<polygon stroke="black" stroke-width="1" fill="grey" fill-opacity="0.25" points="745.219,701.909 774.137,701.909 774.137,701.909 745.219,701.909 " />
<polygon stroke="black" stroke-width="1" fill="grey" fill-opacity="0.25" points="18.073,993.471 0.000,993.471 0.000,993.471 18.073,993.471 " />
<polygon stroke="black" stroke-width="1" fill="grey" fill-opacity="0.25" points="786.838,30.528 786.838,0.000 786.838,0.000 786.838,30.528 " />
<polygon stroke="black" stroke-width="1" fill="grey" fill-opacity="0.25" points="720.365,388.596 720.365,632.826 720.365,632.826 720.365,388.596 " />
<polygon stroke="black" stroke-width="1" fill="grey" fill-opacity="0.25" points="644.008,701.909 672.925,701.909 672.925,701.909 644.008,701.909 " />
<polygon stroke="black" stroke-width="1" fill="grey" fill-opacity="0.25" points="0.000,805.414 18.073,805.414 18.073,805.414 0.000,805.414 " />
<polygon stroke="black" stroke-width="1" fill="grey" fill-opacity="0.25" points="747.076,0.000 747.076,30.528 747.076,30.528 747.076,0.000 " />
<polygon stroke="black" stroke-width="1" fill="grey" fill-opacity="0.25" points="1024.000,632.826 1013.156,632.826 1013.156,632.826 1024.000,632.826 " />
<polygon stroke="black" stroke-width="1" fill="grey" fill-opacity="0.25" points="528.337,701.909 571.714,701.909 571.714,701.909 528.337,701.909 " />
<polygon stroke="black" stroke-width="1" fill="grey" fill-opacity="0.25" points="18.073,241.244 0.000,241.244 0.000,241.244 18.073,241.244 " />
<polygon stroke="black" stroke-width="1" fill="grey" fill-opacity="0.25" points="501.276,30.528 501.276,0.000 501.276,0.000 501.276,30.528 " />
<polygon stroke="black" stroke-width="1" fill="grey" fill-opacity="0.25" points="505.291,388.596 494.446,388.596 494.446,388.596 505.290,388.596 " />
<polygon stroke="black" stroke-width="1" fill="grey" fill-opacity="0.25" points="367.483,701.909 217.473,701.909 217.473,701.909 367.483,701.909 " />
<polygon stroke="black" stroke-width="1" fill="grey" fill-opacity="0.25" points="0.000,53.187 18.073,53.187 18.073,53.187 0.000,53.187 " />
<polygon stroke="black" stroke-width="1" fill="grey" fill-opacity="0.25" points="450.670,0.000 450.670,30.528 450.670,30.528 450.670,0.000 " />
<polygon stroke="black" stroke-width="1" fill="grey" fill-opacity="0.25" points="423.960,669.460 494.446,669.460 494.446,669.460 423.960,669.460 " />
<polygon stroke="black" stroke-width="1" fill="grey" fill-opacity="0.25" points="672.925,732.437 672.925,701.909 672.925,701.909 672.925,732.437 " />
<polygon stroke="black" stroke-width="1" fill="grey" fill-opacity="0.25" points="184.350,993.471 184.350,805.414 184.350,805.414 184.350,993.471 " />
<polygon stroke="black" stroke-width="1" fill="grey" fill-opacity="0.25" points="288.009,30.528 288.009,0.000 288.009,0.000 288.009,30.528 " />
<polygon stroke="black" stroke-width="1" fill="grey" fill-opacity="0.25" points="221.536,669.460 279.372,669.460 279.372,669.460 221.536,669.460 " />
<polygon stroke="black" stroke-width="1" fill="grey" fill-opacity="0.25" points="644.008,701.909 644.008,732.437 644.008,732.437 644.008,701.909 " />
<polygon stroke="black" stroke-width="1" fill="grey" fill-opacity="0.25" points="184.350,241.244 184.350,53.187 184.350,53.187 184.350,241.244 " />
<polygon stroke="black" stroke-width="1" fill="grey" fill-opacity="0.25" points="230.173,0.000 230.173,30.528 230.173,30.528 230.173,0.000 " />
<polygon stroke="black" stroke-width="1" fill="grey" fill-opacity="0.25" points="423.960,388.596 423.960,632.826 423.960,632.826 423.960,388.596 " />
<polygon stroke="black" stroke-width="1" fill="grey" fill-opacity="0.25" points="774.137,732.437 774.137,701.909 774.137,701.909 774.137,732.437 " />
<polygon stroke="black" stroke-width="1" fill="grey" fill-opacity="0.25" points="184.350,429.300 184.350,285.205 184.350,285.205 184.350,429.300 " />
<polygon stroke="black" stroke-width="1" fill="grey" fill-opacity="0.25" points="221.536,388.596 203.463,388.596 203.463,388.596 221.536,388.596 " />
<polygon stroke="black" stroke-width="1" fill="grey" fill-opacity="0.25" points="745.219,701.909 745.219,732.437 745.219,732.437 745.219,701.909 " />
<polygon stroke="black" stroke-width="1" fill="grey" fill-opacity="0.25" points="184.350,805.414 184.350,617.358 184.350,617.358 184.350,805.414 " />
<polygon stroke="black" stroke-width="1" fill="grey" fill-opacity="0.25" points="279.372,388.596 279.372,632.826 279.372,632.826 279.372,388.596 " />
<polygon stroke="black" stroke-width="1" fill="grey" fill-opacity="0.25" points="571.714,732.438 571.714,701.909 571.714,701.909 571.714,732.438 " />
<polygon stroke="black" stroke-width="1" fill="grey" fill-opacity="0.25" points="162.661,22.658 184.350,22.658 184.350,22.658 162.661,22.658 " />
<polygon stroke="black" stroke-width="1" fill="grey" fill-opacity="0.25" points="279.372,669.460 423.960,669.460 423.960,669.460 279.372,669.460 " />
<polygon stroke="black" stroke-width="1" fill="grey" fill-opacity="0.25" points="528.337,701.909 528.337,732.438 528.337,732.438 528.337,701.909 " />
<polygon stroke="black" stroke-width="1" fill="grey" fill-opacity="0.25" points="184.350,22.658 184.350,53.187 184.350,53.187 184.350,22.658 " />
<polygon stroke="black" stroke-width="1" fill="grey" fill-opacity="0.25" points="720.365,669.460 778.200,669.460 778.200,669.460 720.365,669.460 " />
<polygon stroke="black" stroke-width="1" fill="grey" fill-opacity="0.25" points="367.483,732.438 367.483,701.909 367.483,701.909 367.483,732.438 " />
<polygon stroke="black" stroke-width="1" fill="grey" fill-opacity="0.25" points="162.661,53.187 162.661,22.658 162.661,22.658 162.661,53.187 " />
<polygon stroke="black" stroke-width="1" fill="grey" fill-opacity="0.25" points="796.274,388.596 778.200,388.596 778.200,388.596 796.274,388.596 " />
<polygon stroke="black" stroke-width="1" fill="grey" fill-opacity="0.25" points="217.473,701.909 217.473,732.438 217.473,732.438 217.473,701.909 " />
<polygon stroke="black" stroke-width="1" fill="grey" fill-opacity="0.25" points="184.350,1024.000 162.661,1024.000 162.661,1024.000 184.350,1024.000 " />
<polygon stroke="black" stroke-width="1" fill="grey" fill-opacity="0.25" points="1024.000,632.826 1024.000,669.460 1024.000,669.460 1024.000,632.826 " />
<polygon stroke="black" stroke-width="1" fill="grey" fill-opacity="0.25" points="199.399,1013.301 199.399,976.667 199.399,976.667 199.399,1013.301 " />
<polygon stroke="black" stroke-width="1" fill="grey" fill-opacity="0.25" points="162.661,1024.000 162.661,993.471 162.661,993.471 162.661,1024.000 " />
<polygon stroke="black" stroke-width="1" fill="grey" fill-opacity="0.25" points="505.291,632.826 505.291,669.460 505.290,669.460 505.290,632.826 " />
<polygon stroke="black" stroke-width="1" fill="grey" fill-opacity="0.25" points="199.399,1013.301 217.473,1013.301 217.473,1013.301 199.399,1013.301 " />
<polygon stroke="black" stroke-width="1" fill="grey" fill-opacity="0.25" points="184.350,993.471 184.350,1024.000 184.350,1024.000 184.350,993.471 " />
<polygon stroke="black" stroke-width="1" fill="grey" fill-opacity="0.25" points="494.446,632.826 494.446,669.460 494.446,669.460 494.446,632.826 " />
<polygon stroke="black" stroke-width="1" fill="grey" fill-opacity="0.25" points="217.473,976.667 199.399,976.667 199.399,976.667 217.473,976.667 " />
<polygon stroke="black" stroke-width="1" fill="grey" fill-opacity="0.25" points="162.661,486.695 162.661,468.377 162.661,468.377 162.661,486.695 " />
<polygon stroke="black" stroke-width="1" fill="grey" fill-opacity="0.25" points="221.536,632.826 221.536,669.460 221.536,669.460 221.536,632.826 " />
<polygon stroke="black" stroke-width="1" fill="grey" fill-opacity="0.25" points="792.210,1013.301 792.210,976.667 792.210,976.667 792.210,1013.301 " />
<polygon stroke="black" stroke-width="1" fill="grey" fill-opacity="0.25" points="184.350,486.695 162.661,486.695 162.661,486.695 184.350,486.695 " />
<polygon stroke="black" stroke-width="1" fill="grey" fill-opacity="0.25" points="778.200,632.826 778.200,669.460 778.200,669.460 778.200,632.826 " />
<polygon stroke="black" stroke-width="1" fill="grey" fill-opacity="0.25" points="774.137,1013.301 792.210,1013.301 792.210,1013.301 774.137,1013.301 " />
<polygon stroke="black" stroke-width="1" fill="grey" fill-opacity="0.25" points="0.000,468.377 0.000,486.695 0.000,486.695 0.000,468.377 " />
<polygon stroke="black" stroke-width="1" fill="grey" fill-opacity="0.25" points="796.274,632.826 796.274,669.460 796.274,669.460 796.274,632.826 " />
<polygon stroke="black" stroke-width="1" fill="grey" fill-opacity="0.25" points="792.210,976.667 774.137,976.667 774.137,976.667 792.210,976.667 " />
<polygon stroke="black" stroke-width="1" fill="grey" fill-opacity="0.25" points="184.350,468.377 184.350,429.300 184.350,429.300 184.350,468.377 " />
<polygon stroke="black" stroke-width="1" fill="grey" fill-opacity="0.25" points="796.274,632.826 778.200,632.826 778.200,632.826 796.274,632.826 " />
<polygon stroke="black" stroke-width="1" fill="grey" fill-opacity="0.25" points="212.100,274.758 212.100,140.431 212.100,140.431 212.100,274.758 " />
<polygon stroke="black" stroke-width="1" fill="grey" fill-opacity="0.25" points="184.350,468.377 162.661,468.377 162.661,468.377 184.350,468.377 " />
<polygon stroke="black" stroke-width="1" fill="grey" fill-opacity="0.25" points="423.960,632.826 279.372,632.826 279.372,632.826 423.960,632.826 " />
<polygon stroke="black" stroke-width="1" fill="grey" fill-opacity="0.25" points="212.100,140.431 212.100,30.528 212.100,30.528 212.100,140.431 " />
<polygon stroke="black" stroke-width="1" fill="grey" fill-opacity="0.25" points="184.350,617.358 184.350,486.695 184.350,486.695 184.350,617.358 " />
<polygon stroke="black" stroke-width="1" fill="grey" fill-opacity="0.25" points="221.536,632.826 203.463,632.826 203.463,632.826 221.536,632.826 " />
<polygon stroke="black" stroke-width="1" fill="grey" fill-opacity="0.25" points="230.173,311.392 230.173,274.758 230.173,274.758 230.173,311.392 " />
<polygon stroke="black" stroke-width="1" fill="grey" fill-opacity="0.25" points="0.000,486.695 0.000,617.358 0.000,617.358 0.000,486.695 " />
<polygon stroke="black" stroke-width="1" fill="grey" fill-opacity="0.25" points="505.291,632.826 494.446,632.826 494.446,632.826 505.290,632.826 " />
<polygon stroke="black" stroke-width="1" fill="grey" fill-opacity="0.25" points="212.100,30.528 230.173,30.528 230.173,30.528 212.100,30.528 " />
<polygon stroke="black" stroke-width="1" fill="grey" fill-opacity="0.25" points="18.073,266.888 18.073,285.205 18.073,285.205 18.073,266.888 " />
<polygon stroke="black" stroke-width="1" fill="grey" fill-opacity="0.25" points="720.365,632.826 575.777,632.826 575.777,632.826 720.365,632.826 " />
<polygon stroke="black" stroke-width="1" fill="grey" fill-opacity="0.25" points="212.100,274.758 230.173,274.758 230.173,274.758 212.100,274.758 " />
<polygon stroke="black" stroke-width="1" fill="grey" fill-opacity="0.25" points="184.350,266.888 184.350,241.244 184.350,241.244 184.350,266.888 " />
<polygon stroke="black" stroke-width="1" fill="grey" fill-opacity="0.25" points="796.274,669.460 904.715,669.460 904.715,669.460 796.274,669.460 " />
<polygon stroke="black" stroke-width="1" fill="grey" fill-opacity="0.25" points="288.009,311.392 230.173,311.392 230.173,311.392 288.009,311.392 " />
<polygon stroke="black" stroke-width="1" fill="grey" fill-opacity="0.25" points="184.350,266.888 162.661,266.888 162.661,266.888 184.350,266.888 " />
<polygon stroke="black" stroke-width="1" fill="grey" fill-opacity="0.25" points="1013.156,388.596 1013.156,632.826 1013.156,632.826 1013.156,388.596 " />
<polygon stroke="black" stroke-width="1" fill="grey" fill-opacity="0.25" points="288.009,30.528 360.303,30.528 360.303,30.528 288.009,30.528 " />
<polygon stroke="black" stroke-width="1" fill="grey" fill-opacity="0.25" points="162.661,285.205 162.661,266.888 162.661,266.888 162.661,285.205 " />
<polygon stroke="black" stroke-width="1" fill="grey" fill-opacity="0.25" points="904.715,669.460 1013.156,669.460 1013.156,669.460 904.715,669.460 " />
<polygon stroke="black" stroke-width="1" fill="grey" fill-opacity="0.25" points="360.303,311.392 288.009,311.392 288.009,311.392 360.303,311.392 " />
<polygon stroke="black" stroke-width="1" fill="grey" fill-opacity="0.25" points="18.073,285.205 18.073,429.300 18.073,429.300 18.073,285.205 " />
<polygon stroke="black" stroke-width="1" fill="grey" fill-opacity="0.25" points="904.715,388.596 796.274,388.596 796.274,388.596 904.715,388.596 " />
<polygon stroke="black" stroke-width="1" fill="grey" fill-opacity="0.25" points="439.826,311.392 439.826,274.758 439.826,274.758 439.826,311.392 " />
<polygon stroke="black" stroke-width="1" fill="grey" fill-opacity="0.25" points="184.350,285.205 162.661,285.205 162.661,285.205 184.350,285.205 " />
<polygon stroke="black" stroke-width="1" fill="grey" fill-opacity="0.25" points="575.777,358.067 505.291,358.067 505.290,358.067 575.777,358.067 " />
<polygon stroke="black" stroke-width="1" fill="grey" fill-opacity="0.25" points="439.826,311.392 360.303,311.392 360.303,311.392 439.826,311.392 " />
<polygon stroke="black" stroke-width="1" fill="grey" fill-opacity="0.25" points="774.137,1013.301 745.219,1013.301 745.219,1013.301 774.137,1013.301 " />
<polygon stroke="black" stroke-width="1" fill="grey" fill-opacity="0.25" points="494.446,358.067 423.960,358.067 423.960,358.067 494.446,358.067 " />
<polygon stroke="black" stroke-width="1" fill="grey" fill-opacity="0.25" points="450.670,311.392 450.670,274.758 450.670,274.758 450.670,311.392 " />
<polygon stroke="black" stroke-width="1" fill="grey" fill-opacity="0.25" points="745.219,1013.301 672.925,1013.301 672.925,1013.301 745.219,1013.301 " />
<polygon stroke="black" stroke-width="1" fill="grey" fill-opacity="0.25" points="279.372,358.067 221.536,358.067 221.536,358.067 279.372,358.067 " />
<polygon stroke="black" stroke-width="1" fill="grey" fill-opacity="0.25" points="439.826,30.528 450.670,30.528 450.670,30.528 439.826,30.528 " />
<polygon stroke="black" stroke-width="1" fill="grey" fill-opacity="0.25" points="672.925,732.437 745.219,732.437 745.219,732.437 672.925,732.437 " />
<polygon stroke="black" stroke-width="1" fill="grey" fill-opacity="0.25" points="778.200,358.067 720.365,358.067 720.365,358.067 778.200,358.067 " />
<polygon stroke="black" stroke-width="1" fill="grey" fill-opacity="0.25" points="439.826,274.758 450.670,274.758 450.670,274.758 439.826,274.758 " />
<polygon stroke="black" stroke-width="1" fill="grey" fill-opacity="0.25" points="672.925,1013.301 644.008,1013.301 644.008,1013.301 672.925,1013.301 " />
<polygon stroke="black" stroke-width="1" fill="grey" fill-opacity="0.25" points="1013.156,358.067 904.715,358.067 904.715,358.067 1013.156,358.067 " />
<polygon stroke="black" stroke-width="1" fill="grey" fill-opacity="0.25" points="501.276,311.392 450.670,311.392 450.670,311.392 501.276,311.392 " />
<polygon stroke="black" stroke-width="1" fill="grey" fill-opacity="0.25" points="644.008,1013.301 571.714,1013.301 571.714,1013.301 644.008,1013.301 " />
<polygon stroke="black" stroke-width="1" fill="grey" fill-opacity="0.25" points="1013.156,388.596 1013.156,358.067 1013.156,358.067 1013.156,388.596 " />
<polygon stroke="black" stroke-width="1" fill="grey" fill-opacity="0.25" points="501.276,30.528 573.570,30.528 573.570,30.528 501.276,30.528 " />
<polygon stroke="black" stroke-width="1" fill="grey" fill-opacity="0.25" points="528.337,1013.301 528.337,976.667 528.337,976.667 528.337,1013.301 " />
<polygon stroke="black" stroke-width="1" fill="grey" fill-opacity="0.25" points="904.715,358.067 904.715,388.596 904.715,388.596 904.715,358.067 " />
<polygon stroke="black" stroke-width="1" fill="grey" fill-opacity="0.25" points="573.570,311.392 501.276,311.392 501.276,311.392 573.570,311.392 " />
<polygon stroke="black" stroke-width="1" fill="grey" fill-opacity="0.25" points="571.714,1013.301 528.337,1013.301 528.337,1013.301 571.714,1013.301 " />
<polygon stroke="black" stroke-width="1" fill="grey" fill-opacity="0.25" points="279.372,388.596 279.372,358.067 279.372,358.067 279.372,388.596 " />
<polygon stroke="black" stroke-width="1" fill="grey" fill-opacity="0.25" points="638.635,311.392 573.570,311.392 573.570,311.392 638.635,311.392 " />

</svg>
