  0
SECTION
  2
HEADER
  9
$ACADVER
  1
AC1009
  9
$EXTMIN
 10
0.0
 20
0.0
 30
0.0
  9
$EXTMAX
 10
1000.0
 20
1000.0
 30
0.0
  9
$FILLMODE
 70
 0
  9
$SPLFRAME
 70
 1
  0
ENDSEC
  0
SECTION
  2
TABLES
  0
TABLE
  2
LAYER
 70
1
  0
LAYER
  2
0
 70
     0
 62
     7
  6
CONTINUOUS
  0
ENDTAB
  0
ENDSEC
  0
SECTION
  2
ENTITIES
  0
POLYLINE
  8
0
 62
     7
 66
     1
 10
0
 20
0
 30
0.0
 70
     1
 40
0
 41
0
  0
VERTEX
  8
0
 10
-0.414606
 20
12.5548
 30
0.0
 40
0
 41
0
  0
VERTEX
  8
0
 10
0.807346
 20
12.5548
 30
0.0
 40
0
 41
0
  0
VERTEX
  8
0
 10
0.807346
 20
9.95708
 30
0.0
 40
0
 41
0
  0
VERTEX
  8
0
 10
-0.414606
 20
9.95708
 30
0.0
 40
0
 41
0
  0
VERTEX
  8
0
 10
-0.414606
 20
12.5548
 30
0.0
 40
0
 41
0
  0
SEQEND
 8
0
  0
POLYLINE
  8
0
 62
     7
 66
     1
 10
0
 20
0
 30
0.0
 70
     1
 40
0
 41
0
  0
VERTEX
  8
0
 10
0.807346
 20
12.5548
 30
0.0
 40
0
 41
0
  0
VERTEX
  8
0
 10
0.995335
 20
12.5548
 30
0.0
 40
0
 41
0
  0
VERTEX
  8
0
 10
0.995335
 20
9.95708
 30
0.0
 40
0
 41
0
  0
VERTEX
  8
0
 10
0.807346
 20
9.95708
 30
0.0
 40
0
 41
0
  0
VERTEX
  8
0
 10
0.807346
 20
12.5548
 30
0.0
 40
0
 41
0
  0
SEQEND
 8
0
  0
POLYLINE
  8
0
 62
     7
 66
     1
 10
0
 20
0
 30
0.0
 70
     1
 40
0
 41
0
  0
VERTEX
  8
0
 10
0.995335
 20
12.5548
 30
0.0
 40
0
 41
0
  0
VERTEX
  8
0
 10
2.21729
 20
12.5548
 30
0.0
 40
0
 41
0
  0
VERTEX
  8
0
 10
2.21729
 20
9.95708
 30
0.0
 40
0
 41
0
  0
VERTEX
  8
0
 10
0.995335
 20
9.95708
 30
0.0
 40
0
 41
0
  0
VERTEX
  8
0
 10
0.995335
 20
12.5548
 30
0.0
 40
0
 41
0
  0
SEQEND
 8
0
  0
POLYLINE
  8
0
 62
     7
 66
     1
 10
0
 20
0
 30
0.0
 70
     1
 40
0
 41
0
  0
VERTEX
  8
0
 10
4.72379
 20
12.5548
 30
0.0
 40
0
 41
0
  0
VERTEX
  8
0
 10
5.7264
 20
12.5548
 30
0.0
 40
0
 41
0
  0
VERTEX
  8
0
 10
5.7264
 20
9.95708
 30
0.0
 40
0
 41
0
  0
VERTEX
  8
0
 10
4.72379
 20
9.95708
 30
0.0
 40
0
 41
0
  0
VERTEX
  8
0
 10
4.72379
 20
12.5548
 30
0.0
 40
0
 41
0
  0
SEQEND
 8
0
  0
POLYLINE
  8
0
 62
     7
 66
     1
 10
0
 20
0
 30
0.0
 70
     1
 40
0
 41
0
  0
VERTEX
  8
0
 10
5.72635
 20
12.5548
 30
0.0
 40
0
 41
0
  0
VERTEX
  8
0
 10
6.03965
 20
12.5548
 30
0.0
 40
0
 41
0
  0
VERTEX
  8
0
 10
6.03965
 20
9.95708
 30
0.0
 40
0
 41
0
  0
VERTEX
  8
0
 10
5.72635
 20
9.95708
 30
0.0
 40
0
 41
0
  0
VERTEX
  8
0
 10
5.72635
 20
12.5548
 30
0.0
 40
0
 41
0
  0
SEQEND
 8
0
  0
POLYLINE
  8
0
 62
     7
 66
     1
 10
0
 20
0
 30
0.0
 70
     1
 40
0
 41
0
  0
VERTEX
  8
0
 10
4.72379
 20
9.95708
 30
0.0
 40
0
 41
0
  0
VERTEX
  8
0
 10
5.7264
 20
9.95708
 30
0.0
 40
0
 41
0
  0
VERTEX
  8
0
 10
5.7264
 20
9.63238
 30
0.0
 40
0
 41
0
  0
VERTEX
  8
0
 10
4.72379
 20
9.63238
 30
0.0
 40
0
 41
0
  0
VERTEX
  8
0
 10
4.72379
 20
9.95708
 30
0.0
 40
0
 41
0
  0
SEQEND
 8
0
  0
POLYLINE
  8
0
 62
     7
 66
     1
 10
0
 20
0
 30
0.0
 70
     1
 40
0
 41
0
  0
VERTEX
  8
0
 10
-0.414606
 20
9.95708
 30
0.0
 40
0
 41
0
  0
VERTEX
  8
0
 10
0.807346
 20
9.95708
 30
0.0
 40
0
 41
0
  0
VERTEX
  8
0
 10
0.807346
 20
9.63238
 30
0.0
 40
0
 41
0
  0
VERTEX
  8
0
 10
-0.414606
 20
9.63238
 30
0.0
 40
0
 41
0
  0
VERTEX
  8
0
 10
-0.414606
 20
9.95708
 30
0.0
 40
0
 41
0
  0
SEQEND
 8
0
  0
POLYLINE
  8
0
 62
     7
 66
     1
 10
0
 20
0
 30
0.0
 70
     1
 40
0
 41
0
  0
VERTEX
  8
0
 10
0.995335
 20
9.95708
 30
0.0
 40
0
 41
0
  0
VERTEX
  8
0
 10
2.21729
 20
9.95708
 30
0.0
 40
0
 41
0
  0
VERTEX
  8
0
 10
2.21729
 20
9.63238
 30
0.0
 40
0
 41
0
  0
VERTEX
  8
0
 10
0.995335
 20
9.63238
 30
0.0
 40
0
 41
0
  0
VERTEX
  8
0
 10
0.995335
 20
9.95708
 30
0.0
 40
0
 41
0
  0
SEQEND
 8
0
  0
POLYLINE
  8
0
 62
     7
 66
     1
 10
0
 20
0
 30
0.0
 70
     1
 40
0
 41
0
  0
VERTEX
  8
0
 10
-0.284343
 20
2.03435
 30
0.0
 40
0
 41
0
  0
VERTEX
  8
0
 10
1.64567
 20
2.03435
 30
0.0
 40
0
 41
0
  0
VERTEX
  8
0
 10
1.64567
 20
-0.953071
 30
0.0
 40
0
 41
0
  0
VERTEX
  8
0
 10
-0.284343
 20
-0.953071
 30
0.0
 40
0
 41
0
  0
VERTEX
  8
0
 10
-0.284343
 20
2.03435
 30
0.0
 40
0
 41
0
  0
SEQEND
 8
0
  0
POLYLINE
  8
0
 62
     7
 66
     1
 10
0
 20
0
 30
0.0
 70
     1
 40
0
 41
0
  0
VERTEX
  8
0
 10
-0.954861
 20
5.29563
 30
0.0
 40
0
 41
0
  0
VERTEX
  8
0
 10
1.64567
 20
5.29563
 30
0.0
 40
0
 41
0
  0
VERTEX
  8
0
 10
1.64567
 20
3.86692
 30
0.0
 40
0
 41
0
  0
VERTEX
  8
0
 10
-0.954861
 20
3.86692
 30
0.0
 40
0
 41
0
  0
VERTEX
  8
0
 10
-0.954861
 20
5.29563
 30
0.0
 40
0
 41
0
  0
SEQEND
 8
0
  0
POLYLINE
  8
0
 62
     7
 66
     1
 10
0
 20
0
 30
0.0
 70
     1
 40
0
 41
0
  0
VERTEX
  8
0
 10
-0.954861
 20
5.68533
 30
0.0
 40
0
 41
0
  0
VERTEX
  8
0
 10
1.64567
 20
5.68533
 30
0.0
 40
0
 41
0
  0
VERTEX
  8
0
 10
1.64567
 20
5.29563
 30
0.0
 40
0
 41
0
  0
VERTEX
  8
0
 10
-0.954861
 20
5.29563
 30
0.0
 40
0
 41
0
  0
VERTEX
  8
0
 10
-0.954861
 20
5.68533
 30
0.0
 40
0
 41
0
  0
SEQEND
 8
0
  0
POLYLINE
  8
0
 62
     7
 66
     1
 10
0
 20
0
 30
0.0
 70
     1
 40
0
 41
0
  0
VERTEX
  8
0
 10
-0.954861
 20
3.86686
 30
0.0
 40
0
 41
0
  0
VERTEX
  8
0
 10
1.64567
 20
3.86686
 30
0.0
 40
0
 41
0
  0
VERTEX
  8
0
 10
1.64567
 20
2.69792
 30
0.0
 40
0
 41
0
  0
VERTEX
  8
0
 10
-0.954861
 20
2.69792
 30
0.0
 40
0
 41
0
  0
VERTEX
  8
0
 10
-0.954861
 20
3.86686
 30
0.0
 40
0
 41
0
  0
SEQEND
 8
0
  0
POLYLINE
  8
0
 62
     7
 66
     1
 10
0
 20
0
 30
0.0
 70
     1
 40
0
 41
0
  0
VERTEX
  8
0
 10
-0.954861
 20
2.69792
 30
0.0
 40
0
 41
0
  0
VERTEX
  8
0
 10
1.64567
 20
2.69792
 30
0.0
 40
0
 41
0
  0
VERTEX
  8
0
 10
1.64567
 20
2.37321
 30
0.0
 40
0
 41
0
  0
VERTEX
  8
0
 10
-0.954861
 20
2.37321
 30
0.0
 40
0
 41
0
  0
VERTEX
  8
0
 10
-0.954861
 20
2.69792
 30
0.0
 40
0
 41
0
  0
SEQEND
 8
0
  0
POLYLINE
  8
0
 62
     7
 66
     1
 10
0
 20
0
 30
0.0
 70
     1
 40
0
 41
0
  0
VERTEX
  8
0
 10
1.78088
 20
7.56651
 30
0.0
 40
0
 41
0
  0
VERTEX
  8
0
 10
2.09418
 20
7.56651
 30
0.0
 40
0
 41
0
  0
VERTEX
  8
0
 10
2.09418
 20
6.39757
 30
0.0
 40
0
 41
0
  0
VERTEX
  8
0
 10
1.78088
 20
6.39757
 30
0.0
 40
0
 41
0
  0
VERTEX
  8
0
 10
1.78088
 20
7.56651
 30
0.0
 40
0
 41
0
  0
SEQEND
 8
0
  0
POLYLINE
  8
0
 62
     7
 66
     1
 10
0
 20
0
 30
0.0
 70
     1
 40
0
 41
0
  0
VERTEX
  8
0
 10
1.78088
 20
9.38493
 30
0.0
 40
0
 41
0
  0
VERTEX
  8
0
 10
2.09418
 20
9.38493
 30
0.0
 40
0
 41
0
  0
VERTEX
  8
0
 10
2.09418
 20
8.99528
 30
0.0
 40
0
 41
0
  0
VERTEX
  8
0
 10
1.78088
 20
8.99528
 30
0.0
 40
0
 41
0
  0
VERTEX
  8
0
 10
1.78088
 20
9.38493
 30
0.0
 40
0
 41
0
  0
SEQEND
 8
0
  0
POLYLINE
  8
0
 62
     7
 66
     1
 10
0
 20
0
 30
0.0
 70
     1
 40
0
 41
0
  0
VERTEX
  8
0
 10
1.78088
 20
8.99528
 30
0.0
 40
0
 41
0
  0
VERTEX
  8
0
 10
2.09418
 20
8.99528
 30
0.0
 40
0
 41
0
  0
VERTEX
  8
0
 10
2.09418
 20
7.56651
 30
0.0
 40
0
 41
0
  0
VERTEX
  8
0
 10
1.78088
 20
7.56651
 30
0.0
 40
0
 41
0
  0
VERTEX
  8
0
 10
1.78088
 20
8.99528
 30
0.0
 40
0
 41
0
  0
SEQEND
 8
0
  0
POLYLINE
  8
0
 62
     7
 66
     1
 10
0
 20
0
 30
0.0
 70
     1
 40
0
 41
0
  0
VERTEX
  8
0
 10
0.778267
 20
7.56651
 30
0.0
 40
0
 41
0
  0
VERTEX
  8
0
 10
1.78088
 20
7.56651
 30
0.0
 40
0
 41
0
  0
VERTEX
  8
0
 10
1.78088
 20
6.39757
 30
0.0
 40
0
 41
0
  0
VERTEX
  8
0
 10
0.778267
 20
6.39757
 30
0.0
 40
0
 41
0
  0
VERTEX
  8
0
 10
0.778267
 20
7.56651
 30
0.0
 40
0
 41
0
  0
SEQEND
 8
0
  0
POLYLINE
  8
0
 62
     7
 66
     1
 10
0
 20
0
 30
0.0
 70
     1
 40
0
 41
0
  0
VERTEX
  8
0
 10
0.778267
 20
9.38493
 30
0.0
 40
0
 41
0
  0
VERTEX
  8
0
 10
1.78088
 20
9.38493
 30
0.0
 40
0
 41
0
  0
VERTEX
  8
0
 10
1.78088
 20
8.99528
 30
0.0
 40
0
 41
0
  0
VERTEX
  8
0
 10
0.778267
 20
8.99528
 30
0.0
 40
0
 41
0
  0
VERTEX
  8
0
 10
0.778267
 20
9.38493
 30
0.0
 40
0
 41
0
  0
SEQEND
 8
0
  0
POLYLINE
  8
0
 62
     7
 66
     1
 10
0
 20
0
 30
0.0
 70
     1
 40
0
 41
0
  0
VERTEX
  8
0
 10
0.778267
 20
8.99528
 30
0.0
 40
0
 41
0
  0
VERTEX
  8
0
 10
1.78088
 20
8.99528
 30
0.0
 40
0
 41
0
  0
VERTEX
  8
0
 10
1.78088
 20
7.56651
 30
0.0
 40
0
 41
0
  0
VERTEX
  8
0
 10
0.778267
 20
7.56651
 30
0.0
 40
0
 41
0
  0
VERTEX
  8
0
 10
0.778267
 20
8.99528
 30
0.0
 40
0
 41
0
  0
SEQEND
 8
0
  0
POLYLINE
  8
0
 62
     7
 66
     1
 10
0
 20
0
 30
0.0
 70
     1
 40
0
 41
0
  0
VERTEX
  8
0
 10
-0.474989
 20
7.56651
 30
0.0
 40
0
 41
0
  0
VERTEX
  8
0
 10
0.778267
 20
7.56651
 30
0.0
 40
0
 41
0
  0
VERTEX
  8
0
 10
0.778267
 20
6.39757
 30
0.0
 40
0
 41
0
  0
VERTEX
  8
0
 10
-0.474989
 20
6.39757
 30
0.0
 40
0
 41
0
  0
VERTEX
  8
0
 10
-0.474989
 20
7.56651
 30
0.0
 40
0
 41
0
  0
SEQEND
 8
0
  0
POLYLINE
  8
0
 62
     7
 66
     1
 10
0
 20
0
 30
0.0
 70
     1
 40
0
 41
0
  0
VERTEX
  8
0
 10
-0.474989
 20
9.38493
 30
0.0
 40
0
 41
0
  0
VERTEX
  8
0
 10
0.778267
 20
9.38493
 30
0.0
 40
0
 41
0
  0
VERTEX
  8
0
 10
0.778267
 20
8.99528
 30
0.0
 40
0
 41
0
  0
VERTEX
  8
0
 10
-0.474989
 20
8.99528
 30
0.0
 40
0
 41
0
  0
VERTEX
  8
0
 10
-0.474989
 20
9.38493
 30
0.0
 40
0
 41
0
  0
SEQEND
 8
0
  0
POLYLINE
  8
0
 62
     7
 66
     1
 10
0
 20
0
 30
0.0
 70
     1
 40
0
 41
0
  0
VERTEX
  8
0
 10
0.778267
 20
6.39757
 30
0.0
 40
0
 41
0
  0
VERTEX
  8
0
 10
1.78088
 20
6.39757
 30
0.0
 40
0
 41
0
  0
VERTEX
  8
0
 10
1.78088
 20
6.07286
 30
0.0
 40
0
 41
0
  0
VERTEX
  8
0
 10
0.778267
 20
6.07286
 30
0.0
 40
0
 41
0
  0
VERTEX
  8
0
 10
0.778267
 20
6.39757
 30
0.0
 40
0
 41
0
  0
SEQEND
 8
0
  0
POLYLINE
  8
0
 62
     0
 66
     1
 10
0
 20
0
 30
0.0
 70
     1
 40
1
 41
1
  0
VERTEX
  8
0
 10
-0.414606
 20
12.5548
 30
0.0
 40
0.0138889
 41
0.0138889
  0
VERTEX
  8
0
 10
0.807346
 20
12.5548
 30
0.0
 40
0.0138889
 41
0.0138889
  0
VERTEX
  8
0
 10
0.807346
 20
9.95708
 30
0.0
 40
0.0138889
 41
0.0138889
  0
VERTEX
  8
0
 10
-0.414606
 20
9.95708
 30
0.0
 40
0.0138889
 41
0.0138889
  0
VERTEX
  8
0
 10
-0.414606
 20
12.5548
 30
0.0
 40
0.0138889
 41
0.0138889
  0
SEQEND
 8
0
  0
POLYLINE
  8
0
 62
     0
 66
     1
 10
0
 20
0
 30
0.0
 70
     1
 40
1
 41
1
  0
VERTEX
  8
0
 10
0.807346
 20
12.5548
 30
0.0
 40
0.0138889
 41
0.0138889
  0
VERTEX
  8
0
 10
0.995335
 20
12.5548
 30
0.0
 40
0.0138889
 41
0.0138889
  0
VERTEX
  8
0
 10
0.995335
 20
9.95708
 30
0.0
 40
0.0138889
 41
0.0138889
  0
VERTEX
  8
0
 10
0.807346
 20
9.95708
 30
0.0
 40
0.0138889
 41
0.0138889
  0
VERTEX
  8
0
 10
0.807346
 20
12.5548
 30
0.0
 40
0.0138889
 41
0.0138889
  0
SEQEND
 8
0
  0
POLYLINE
  8
0
 62
     0
 66
     1
 10
0
 20
0
 30
0.0
 70
     1
 40
1
 41
1
  0
VERTEX
  8
0
 10
0.995335
 20
12.5548
 30
0.0
 40
0.0138889
 41
0.0138889
  0
VERTEX
  8
0
 10
2.21729
 20
12.5548
 30
0.0
 40
0.0138889
 41
0.0138889
  0
VERTEX
  8
0
 10
2.21729
 20
9.95708
 30
0.0
 40
0.0138889
 41
0.0138889
  0
VERTEX
  8
0
 10
0.995335
 20
9.95708
 30
0.0
 40
0.0138889
 41
0.0138889
  0
VERTEX
  8
0
 10
0.995335
 20
12.5548
 30
0.0
 40
0.0138889
 41
0.0138889
  0
SEQEND
 8
0
  0
POLYLINE
  8
0
 62
     0
 66
     1
 10
0
 20
0
 30
0.0
 70
     1
 40
1
 41
1
  0
VERTEX
  8
0
 10
4.72379
 20
12.5548
 30
0.0
 40
0.0138889
 41
0.0138889
  0
VERTEX
  8
0
 10
5.7264
 20
12.5548
 30
0.0
 40
0.0138889
 41
0.0138889
  0
VERTEX
  8
0
 10
5.7264
 20
9.95708
 30
0.0
 40
0.0138889
 41
0.0138889
  0
VERTEX
  8
0
 10
4.72379
 20
9.95708
 30
0.0
 40
0.0138889
 41
0.0138889
  0
VERTEX
  8
0
 10
4.72379
 20
12.5548
 30
0.0
 40
0.0138889
 41
0.0138889
  0
SEQEND
 8
0
  0
POLYLINE
  8
0
 62
     0
 66
     1
 10
0
 20
0
 30
0.0
 70
     1
 40
1
 41
1
  0
VERTEX
  8
0
 10
5.72635
 20
12.5548
 30
0.0
 40
0.0138889
 41
0.0138889
  0
VERTEX
  8
0
 10
6.03965
 20
12.5548
 30
0.0
 40
0.0138889
 41
0.0138889
  0
VERTEX
  8
0
 10
6.03965
 20
9.95708
 30
0.0
 40
0.0138889
 41
0.0138889
  0
VERTEX
  8
0
 10
5.72635
 20
9.95708
 30
0.0
 40
0.0138889
 41
0.0138889
  0
VERTEX
  8
0
 10
5.72635
 20
12.5548
 30
0.0
 40
0.0138889
 41
0.0138889
  0
SEQEND
 8
0
  0
POLYLINE
  8
0
 62
     0
 66
     1
 10
0
 20
0
 30
0.0
 70
     1
 40
1
 41
1
  0
VERTEX
  8
0
 10
4.72379
 20
9.95708
 30
0.0
 40
0.0138889
 41
0.0138889
  0
VERTEX
  8
0
 10
5.7264
 20
9.95708
 30
0.0
 40
0.0138889
 41
0.0138889
  0
VERTEX
  8
0
 10
5.7264
 20
9.63238
 30
0.0
 40
0.0138889
 41
0.0138889
  0
VERTEX
  8
0
 10
4.72379
 20
9.63238
 30
0.0
 40
0.0138889
 41
0.0138889
  0
VERTEX
  8
0
 10
4.72379
 20
9.95708
 30
0.0
 40
0.0138889
 41
0.0138889
  0
SEQEND
 8
0
  0
POLYLINE
  8
0
 62
     0
 66
     1
 10
0
 20
0
 30
0.0
 70
     1
 40
1
 41
1
  0
VERTEX
  8
0
 10
-0.414606
 20
9.95708
 30
0.0
 40
0.0138889
 41
0.0138889
  0
VERTEX
  8
0
 10
0.807346
 20
9.95708
 30
0.0
 40
0.0138889
 41
0.0138889
  0
VERTEX
  8
0
 10
0.807346
 20
9.63238
 30
0.0
 40
0.0138889
 41
0.0138889
  0
VERTEX
  8
0
 10
-0.414606
 20
9.63238
 30
0.0
 40
0.0138889
 41
0.0138889
  0
VERTEX
  8
0
 10
-0.414606
 20
9.95708
 30
0.0
 40
0.0138889
 41
0.0138889
  0
SEQEND
 8
0
  0
POLYLINE
  8
0
 62
     0
 66
     1
 10
0
 20
0
 30
0.0
 70
     1
 40
1
 41
1
  0
VERTEX
  8
0
 10
0.995335
 20
9.95708
 30
0.0
 40
0.0138889
 41
0.0138889
  0
VERTEX
  8
0
 10
2.21729
 20
9.95708
 30
0.0
 40
0.0138889
 41
0.0138889
  0
VERTEX
  8
0
 10
2.21729
 20
9.63238
 30
0.0
 40
0.0138889
 41
0.0138889
  0
VERTEX
  8
0
 10
0.995335
 20
9.63238
 30
0.0
 40
0.0138889
 41
0.0138889
  0
VERTEX
  8
0
 10
0.995335
 20
9.95708
 30
0.0
 40
0.0138889
 41
0.0138889
  0
SEQEND
 8
0
  0
POLYLINE
  8
0
 62
     0
 66
     1
 10
0
 20
0
 30
0.0
 70
     1
 40
1
 41
1
  0
VERTEX
  8
0
 10
-0.284343
 20
2.03435
 30
0.0
 40
0.0138889
 41
0.0138889
  0
VERTEX
  8
0
 10
1.64567
 20
2.03435
 30
0.0
 40
0.0138889
 41
0.0138889
  0
VERTEX
  8
0
 10
1.64567
 20
-0.953071
 30
0.0
 40
0.0138889
 41
0.0138889
  0
VERTEX
  8
0
 10
-0.284343
 20
-0.953071
 30
0.0
 40
0.0138889
 41
0.0138889
  0
VERTEX
  8
0
 10
-0.284343
 20
2.03435
 30
0.0
 40
0.0138889
 41
0.0138889
  0
SEQEND
 8
0
  0
POLYLINE
  8
0
 62
     0
 66
     1
 10
0
 20
0
 30
0.0
 70
     1
 40
1
 41
1
  0
VERTEX
  8
0
 10
-0.954861
 20
5.29563
 30
0.0
 40
0.0138889
 41
0.0138889
  0
VERTEX
  8
0
 10
1.64567
 20
5.29563
 30
0.0
 40
0.0138889
 41
0.0138889
  0
VERTEX
  8
0
 10
1.64567
 20
3.86692
 30
0.0
 40
0.0138889
 41
0.0138889
  0
VERTEX
  8
0
 10
-0.954861
 20
3.86692
 30
0.0
 40
0.0138889
 41
0.0138889
  0
VERTEX
  8
0
 10
-0.954861
 20
5.29563
 30
0.0
 40
0.0138889
 41
0.0138889
  0
SEQEND
 8
0
  0
POLYLINE
  8
0
 62
     0
 66
     1
 10
0
 20
0
 30
0.0
 70
     1
 40
1
 41
1
  0
VERTEX
  8
0
 10
-0.954861
 20
5.68533
 30
0.0
 40
0.0138889
 41
0.0138889
  0
VERTEX
  8
0
 10
1.64567
 20
5.68533
 30
0.0
 40
0.0138889
 41
0.0138889
  0
VERTEX
  8
0
 10
1.64567
 20
5.29563
 30
0.0
 40
0.0138889
 41
0.0138889
  0
VERTEX
  8
0
 10
-0.954861
 20
5.29563
 30
0.0
 40
0.0138889
 41
0.0138889
  0
VERTEX
  8
0
 10
-0.954861
 20
5.68533
 30
0.0
 40
0.0138889
 41
0.0138889
  0
SEQEND
 8
0
  0
POLYLINE
  8
0
 62
     0
 66
     1
 10
0
 20
0
 30
0.0
 70
     1
 40
1
 41
1
  0
VERTEX
  8
0
 10
-0.954861
 20
3.86686
 30
0.0
 40
0.0138889
 41
0.0138889
  0
VERTEX
  8
0
 10
1.64567
 20
3.86686
 30
0.0
 40
0.0138889
 41
0.0138889
  0
VERTEX
  8
0
 10
1.64567
 20
2.69792
 30
0.0
 40
0.0138889
 41
0.0138889
  0
VERTEX
  8
0
 10
-0.954861
 20
2.69792
 30
0.0
 40
0.0138889
 41
0.0138889
  0
VERTEX
  8
0
 10
-0.954861
 20
3.86686
 30
0.0
 40
0.0138889
 41
0.0138889
  0
SEQEND
 8
0
  0
POLYLINE
  8
0
 62
     0
 66
     1
 10
0
 20
0
 30
0.0
 70
     1
 40
1
 41
1
  0
VERTEX
  8
0
 10
-0.954861
 20
2.69792
 30
0.0
 40
0.0138889
 41
0.0138889
  0
VERTEX
  8
0
 10
1.64567
 20
2.69792
 30
0.0
 40
0.0138889
 41
0.0138889
  0
VERTEX
  8
0
 10
1.64567
 20
2.37321
 30
0.0
 40
0.0138889
 41
0.0138889
  0
VERTEX
  8
0
 10
-0.954861
 20
2.37321
 30
0.0
 40
0.0138889
 41
0.0138889
  0
VERTEX
  8
0
 10
-0.954861
 20
2.69792
 30
0.0
 40
0.0138889
 41
0.0138889
  0
SEQEND
 8
0
  0
POLYLINE
  8
0
 62
     0
 66
     1
 10
0
 20
0
 30
0.0
 70
     1
 40
1
 41
1
  0
VERTEX
  8
0
 10
1.78088
 20
7.56651
 30
0.0
 40
0.0138889
 41
0.0138889
  0
VERTEX
  8
0
 10
2.09418
 20
7.56651
 30
0.0
 40
0.0138889
 41
0.0138889
  0
VERTEX
  8
0
 10
2.09418
 20
6.39757
 30
0.0
 40
0.0138889
 41
0.0138889
  0
VERTEX
  8
0
 10
1.78088
 20
6.39757
 30
0.0
 40
0.0138889
 41
0.0138889
  0
VERTEX
  8
0
 10
1.78088
 20
7.56651
 30
0.0
 40
0.0138889
 41
0.0138889
  0
SEQEND
 8
0
  0
POLYLINE
  8
0
 62
     0
 66
     1
 10
0
 20
0
 30
0.0
 70
     1
 40
1
 41
1
  0
VERTEX
  8
0
 10
1.78088
 20
9.38493
 30
0.0
 40
0.0138889
 41
0.0138889
  0
VERTEX
  8
0
 10
2.09418
 20
9.38493
 30
0.0
 40
0.0138889
 41
0.0138889
  0
VERTEX
  8
0
 10
2.09418
 20
8.99528
 30
0.0
 40
0.0138889
 41
0.0138889
  0
VERTEX
  8
0
 10
1.78088
 20
8.99528
 30
0.0
 40
0.0138889
 41
0.0138889
  0
VERTEX
  8
0
 10
1.78088
 20
9.38493
 30
0.0
 40
0.0138889
 41
0.0138889
  0
SEQEND
 8
0
  0
POLYLINE
  8
0
 62
     0
 66
     1
 10
0
 20
0
 30
0.0
 70
     1
 40
1
 41
1
  0
VERTEX
  8
0
 10
1.78088
 20
8.99528
 30
0.0
 40
0.0138889
 41
0.0138889
  0
VERTEX
  8
0
 10
2.09418
 20
8.99528
 30
0.0
 40
0.0138889
 41
0.0138889
  0
VERTEX
  8
0
 10
2.09418
 20
7.56651
 30
0.0
 40
0.0138889
 41
0.0138889
  0
VERTEX
  8
0
 10
1.78088
 20
7.56651
 30
0.0
 40
0.0138889
 41
0.0138889
  0
VERTEX
  8
0
 10
1.78088
 20
8.99528
 30
0.0
 40
0.0138889
 41
0.0138889
  0
SEQEND
 8
0
  0
POLYLINE
  8
0
 62
     0
 66
     1
 10
0
 20
0
 30
0.0
 70
     1
 40
1
 41
1
  0
VERTEX
  8
0
 10
0.778267
 20
7.56651
 30
0.0
 40
0.0138889
 41
0.0138889
  0
VERTEX
  8
0
 10
1.78088
 20
7.56651
 30
0.0
 40
0.0138889
 41
0.0138889
  0
VERTEX
  8
0
 10
1.78088
 20
6.39757
 30
0.0
 40
0.0138889
 41
0.0138889
  0
VERTEX
  8
0
 10
0.778267
 20
6.39757
 30
0.0
 40
0.0138889
 41
0.0138889
  0
VERTEX
  8
0
 10
0.778267
 20
7.56651
 30
0.0
 40
0.0138889
 41
0.0138889
  0
SEQEND
 8
0
  0
POLYLINE
  8
0
 62
     0
 66
     1
 10
0
 20
0
 30
0.0
 70
     1
 40
1
 41
1
  0
VERTEX
  8
0
 10
0.778267
 20
9.38493
 30
0.0
 40
0.0138889
 41
0.0138889
  0
VERTEX
  8
0
 10
1.78088
 20
9.38493
 30
0.0
 40
0.0138889
 41
0.0138889
  0
VERTEX
  8
0
 10
1.78088
 20
8.99528
 30
0.0
 40
0.0138889
 41
0.0138889
  0
VERTEX
  8
0
 10
0.778267
 20
8.99528
 30
0.0
 40
0.0138889
 41
0.0138889
  0
VERTEX
  8
0
 10
0.778267
 20
9.38493
 30
0.0
 40
0.0138889
 41
0.0138889
  0
SEQEND
 8
0
  0
POLYLINE
  8
0
 62
     0
 66
     1
 10
0
 20
0
 30
0.0
 70
     1
 40
1
 41
1
  0
VERTEX
  8
0
 10
0.778267
 20
8.99528
 30
0.0
 40
0.0138889
 41
0.0138889
  0
VERTEX
  8
0
 10
1.78088
 20
8.99528
 30
0.0
 40
0.0138889
 41
0.0138889
  0
VERTEX
  8
0
 10
1.78088
 20
7.56651
 30
0.0
 40
0.0138889
 41
0.0138889
  0
VERTEX
  8
0
 10
0.778267
 20
7.56651
 30
0.0
 40
0.0138889
 41
0.0138889
  0
VERTEX
  8
0
 10
0.778267
 20
8.99528
 30
0.0
 40
0.0138889
 41
0.0138889
  0
SEQEND
 8
0
  0
POLYLINE
  8
0
 62
     0
 66
     1
 10
0
 20
0
 30
0.0
 70
     1
 40
1
 41
1
  0
VERTEX
  8
0
 10
-0.474989
 20
7.56651
 30
0.0
 40
0.0138889
 41
0.0138889
  0
VERTEX
  8
0
 10
0.778267
 20
7.56651
 30
0.0
 40
0.0138889
 41
0.0138889
  0
VERTEX
  8
0
 10
0.778267
 20
6.39757
 30
0.0
 40
0.0138889
 41
0.0138889
  0
VERTEX
  8
0
 10
-0.474989
 20
6.39757
 30
0.0
 40
0.0138889
 41
0.0138889
  0
VERTEX
  8
0
 10
-0.474989
 20
7.56651
 30
0.0
 40
0.0138889
 41
0.0138889
  0
SEQEND
 8
0
  0
POLYLINE
  8
0
 62
     0
 66
     1
 10
0
 20
0
 30
0.0
 70
     1
 40
1
 41
1
  0
VERTEX
  8
0
 10
-0.474989
 20
9.38493
 30
0.0
 40
0.0138889
 41
0.0138889
  0
VERTEX
  8
0
 10
0.778267
 20
9.38493
 30
0.0
 40
0.0138889
 41
0.0138889
  0
VERTEX
  8
0
 10
0.778267
 20
8.99528
 30
0.0
 40
0.0138889
 41
0.0138889
  0
VERTEX
  8
0
 10
-0.474989
 20
8.99528
 30
0.0
 40
0.0138889
 41
0.0138889
  0
VERTEX
  8
0
 10
-0.474989
 20
9.38493
 30
0.0
 40
0.0138889
 41
0.0138889
  0
SEQEND
 8
0
  0
POLYLINE
  8
0
 62
     0
 66
     1
 10
0
 20
0
 30
0.0
 70
     1
 40
1
 41
1
  0
VERTEX
  8
0
 10
0.778267
 20
6.39757
 30
0.0
 40
0.0138889
 41
0.0138889
  0
VERTEX
  8
0
 10
1.78088
 20
6.39757
 30
0.0
 40
0.0138889
 41
0.0138889
  0
VERTEX
  8
0
 10
1.78088
 20
6.07286
 30
0.0
 40
0.0138889
 41
0.0138889
  0
VERTEX
  8
0
 10
0.778267
 20
6.07286
 30
0.0
 40
0.0138889
 41
0.0138889
  0
VERTEX
  8
0
 10
0.778267
 20
6.39757
 30
0.0
 40
0.0138889
 41
0.0138889
  0
SEQEND
 8
0
  0
ENDSEC
  0
EOF
