  0
SECTION
  2
HEADER
  9
$ACADVER
  1
AC1009
  9
$EXTMIN
 10
0.0
 20
0.0
 30
0.0
  9
$EXTMAX
 10
1000.0
 20
1000.0
 30
0.0
  9
$FILLMODE
 70
 0
  9
$SPLFRAME
 70
 1
  0
ENDSEC
  0
SECTION
  2
TABLES
  0
TABLE
  2
LAYER
 70
1
  0
LAYER
  2
0
 70
     0
 62
     7
  6
CONTINUOUS
  0
ENDTAB
  0
ENDSEC
  0
SECTION
  2
ENTITIES
  0
POLYLINE
  8
0
 62
     7
 66
     1
 10
0
 20
0
 30
0.0
 70
     1
 40
0
 41
0
  0
VERTEX
  8
0
 10
0.293674
 20
13.3333
 30
0.0
 40
0
 41
0
  0
VERTEX
  8
0
 10
1.23351
 20
13.3333
 30
0.0
 40
0
 41
0
  0
VERTEX
  8
0
 10
1.23351
 20
12.9268
 30
0.0
 40
0
 41
0
  0
VERTEX
  8
0
 10
0.293674
 20
12.9268
 30
0.0
 40
0
 41
0
  0
VERTEX
  8
0
 10
0.293674
 20
13.3333
 30
0.0
 40
0
 41
0
  0
SEQEND
 8
0
  0
POLYLINE
  8
0
 62
     7
 66
     1
 10
0
 20
0
 30
0.0
 70
     1
 40
0
 41
0
  0
VERTEX
  8
0
 10
2.40821
 20
13.3333
 30
0.0
 40
0
 41
0
  0
VERTEX
  8
0
 10
3.70047
 20
13.3333
 30
0.0
 40
0
 41
0
  0
VERTEX
  8
0
 10
3.70047
 20
12.9268
 30
0.0
 40
0
 41
0
  0
VERTEX
  8
0
 10
2.40821
 20
12.9268
 30
0.0
 40
0
 41
0
  0
VERTEX
  8
0
 10
2.40821
 20
13.3333
 30
0.0
 40
0
 41
0
  0
SEQEND
 8
0
  0
POLYLINE
  8
0
 62
     7
 66
     1
 10
0
 20
0
 30
0.0
 70
     1
 40
0
 41
0
  0
VERTEX
  8
0
 10
3.87663
 20
13.3333
 30
0.0
 40
0
 41
0
  0
VERTEX
  8
0
 10
4.699
 20
13.3333
 30
0.0
 40
0
 41
0
  0
VERTEX
  8
0
 10
4.699
 20
12.9268
 30
0.0
 40
0
 41
0
  0
VERTEX
  8
0
 10
3.87663
 20
12.9268
 30
0.0
 40
0
 41
0
  0
VERTEX
  8
0
 10
3.87663
 20
13.3333
 30
0.0
 40
0
 41
0
  0
SEQEND
 8
0
  0
POLYLINE
  8
0
 62
     7
 66
     1
 10
0
 20
0
 30
0.0
 70
     1
 40
0
 41
0
  0
VERTEX
  8
0
 10
5.87369
 20
13.3333
 30
0.0
 40
0
 41
0
  0
VERTEX
  8
0
 10
6.93099
 20
13.3333
 30
0.0
 40
0
 41
0
  0
VERTEX
  8
0
 10
6.93099
 20
12.9268
 30
0.0
 40
0
 41
0
  0
VERTEX
  8
0
 10
5.87369
 20
12.9268
 30
0.0
 40
0
 41
0
  0
VERTEX
  8
0
 10
5.87369
 20
13.3333
 30
0.0
 40
0
 41
0
  0
SEQEND
 8
0
  0
POLYLINE
  8
0
 62
     7
 66
     1
 10
0
 20
0
 30
0.0
 70
     1
 40
0
 41
0
  0
VERTEX
  8
0
 10
8.69308
 20
13.3333
 30
0.0
 40
0
 41
0
  0
VERTEX
  8
0
 10
9.33919
 20
13.3333
 30
0.0
 40
0
 41
0
  0
VERTEX
  8
0
 10
9.33919
 20
12.9268
 30
0.0
 40
0
 41
0
  0
VERTEX
  8
0
 10
8.69308
 20
12.9268
 30
0.0
 40
0
 41
0
  0
VERTEX
  8
0
 10
8.69308
 20
13.3333
 30
0.0
 40
0
 41
0
  0
SEQEND
 8
0
  0
POLYLINE
  8
0
 62
     7
 66
     1
 10
0
 20
0
 30
0.0
 70
     1
 40
0
 41
0
  0
VERTEX
  8
0
 10
4.90457
 20
0.406521
 30
0.0
 40
0
 41
0
  0
VERTEX
  8
0
 10
6.04992
 20
0.406521
 30
0.0
 40
0
 41
0
  0
VERTEX
  8
0
 10
6.04992
 20
0
 30
0.0
 40
0
 41
0
  0
VERTEX
  8
0
 10
4.90457
 20
0
 30
0.0
 40
0
 41
0
  0
VERTEX
  8
0
 10
4.90457
 20
0.406521
 30
0.0
 40
0
 41
0
  0
SEQEND
 8
0
  0
POLYLINE
  8
0
 62
     7
 66
     1
 10
0
 20
0
 30
0.0
 70
     1
 40
0
 41
0
  0
VERTEX
  8
0
 10
3.58296
 20
0.406521
 30
0.0
 40
0
 41
0
  0
VERTEX
  8
0
 10
4.72835
 20
0.406521
 30
0.0
 40
0
 41
0
  0
VERTEX
  8
0
 10
4.72835
 20
0
 30
0.0
 40
0
 41
0
  0
VERTEX
  8
0
 10
3.58296
 20
0
 30
0.0
 40
0
 41
0
  0
VERTEX
  8
0
 10
3.58296
 20
0.406521
 30
0.0
 40
0
 41
0
  0
SEQEND
 8
0
  0
POLYLINE
  8
0
 62
     7
 66
     1
 10
0
 20
0
 30
0.0
 70
     1
 40
0
 41
0
  0
VERTEX
  8
0
 10
0.293674
 20
0.406521
 30
0.0
 40
0
 41
0
  0
VERTEX
  8
0
 10
1.23351
 20
0.406521
 30
0.0
 40
0
 41
0
  0
VERTEX
  8
0
 10
1.23351
 20
0
 30
0.0
 40
0
 41
0
  0
VERTEX
  8
0
 10
0.293674
 20
0
 30
0.0
 40
0
 41
0
  0
VERTEX
  8
0
 10
0.293674
 20
0.406521
 30
0.0
 40
0
 41
0
  0
SEQEND
 8
0
  0
POLYLINE
  8
0
 62
     7
 66
     1
 10
0
 20
0
 30
0.0
 70
     1
 40
0
 41
0
  0
VERTEX
  8
0
 10
8.39942
 20
0.406521
 30
0.0
 40
0
 41
0
  0
VERTEX
  8
0
 10
9.33919
 20
0.406521
 30
0.0
 40
0
 41
0
  0
VERTEX
  8
0
 10
9.33919
 20
0
 30
0.0
 40
0
 41
0
  0
VERTEX
  8
0
 10
8.39942
 20
0
 30
0.0
 40
0
 41
0
  0
VERTEX
  8
0
 10
8.39942
 20
0.406521
 30
0.0
 40
0
 41
0
  0
SEQEND
 8
0
  0
POLYLINE
  8
0
 62
     7
 66
     1
 10
0
 20
0
 30
0.0
 70
     1
 40
0
 41
0
  0
VERTEX
  8
0
 10
11.395
 20
0.406521
 30
0.0
 40
0
 41
0
  0
VERTEX
  8
0
 10
13.1571
 20
0.406521
 30
0.0
 40
0
 41
0
  0
VERTEX
  8
0
 10
13.1571
 20
0
 30
0.0
 40
0
 41
0
  0
VERTEX
  8
0
 10
11.395
 20
0
 30
0.0
 40
0
 41
0
  0
VERTEX
  8
0
 10
11.395
 20
0.406521
 30
0.0
 40
0
 41
0
  0
SEQEND
 8
0
  0
POLYLINE
  8
0
 62
     7
 66
     1
 10
0
 20
0
 30
0.0
 70
     1
 40
0
 41
0
  0
VERTEX
  8
0
 10
0
 20
12.9268
 30
0.0
 40
0
 41
0
  0
VERTEX
  8
0
 10
0.293674
 20
12.9268
 30
0.0
 40
0
 41
0
  0
VERTEX
  8
0
 10
0.293674
 20
10.4227
 30
0.0
 40
0
 41
0
  0
VERTEX
  8
0
 10
0
 20
10.4227
 30
0.0
 40
0
 41
0
  0
VERTEX
  8
0
 10
0
 20
12.9268
 30
0.0
 40
0
 41
0
  0
SEQEND
 8
0
  0
POLYLINE
  8
0
 62
     7
 66
     1
 10
0
 20
0
 30
0.0
 70
     1
 40
0
 41
0
  0
VERTEX
  8
0
 10
0
 20
2.9106
 30
0.0
 40
0
 41
0
  0
VERTEX
  8
0
 10
0.293674
 20
2.9106
 30
0.0
 40
0
 41
0
  0
VERTEX
  8
0
 10
0.293674
 20
0.406521
 30
0.0
 40
0
 41
0
  0
VERTEX
  8
0
 10
0
 20
0.406521
 30
0.0
 40
0
 41
0
  0
VERTEX
  8
0
 10
0
 20
2.9106
 30
0.0
 40
0
 41
0
  0
SEQEND
 8
0
  0
POLYLINE
  8
0
 62
     7
 66
     1
 10
0
 20
0
 30
0.0
 70
     1
 40
0
 41
0
  0
VERTEX
  8
0
 10
0
 20
7.91872
 30
0.0
 40
0
 41
0
  0
VERTEX
  8
0
 10
0.293674
 20
7.91872
 30
0.0
 40
0
 41
0
  0
VERTEX
  8
0
 10
0.293674
 20
5.41465
 30
0.0
 40
0
 41
0
  0
VERTEX
  8
0
 10
0
 20
5.41465
 30
0.0
 40
0
 41
0
  0
VERTEX
  8
0
 10
0
 20
7.91872
 30
0.0
 40
0
 41
0
  0
SEQEND
 8
0
  0
POLYLINE
  8
0
 62
     7
 66
     1
 10
0
 20
0
 30
0.0
 70
     1
 40
0
 41
0
  0
VERTEX
  8
0
 10
9.33919
 20
12.9268
 30
0.0
 40
0
 41
0
  0
VERTEX
  8
0
 10
9.63286
 20
12.9268
 30
0.0
 40
0
 41
0
  0
VERTEX
  8
0
 10
9.63286
 20
12.2764
 30
0.0
 40
0
 41
0
  0
VERTEX
  8
0
 10
9.33919
 20
12.2764
 30
0.0
 40
0
 41
0
  0
VERTEX
  8
0
 10
9.33919
 20
12.9268
 30
0.0
 40
0
 41
0
  0
SEQEND
 8
0
  0
POLYLINE
  8
0
 62
     7
 66
     1
 10
0
 20
0
 30
0.0
 70
     1
 40
0
 41
0
  0
VERTEX
  8
0
 10
9.33919
 20
10.6504
 30
0.0
 40
0
 41
0
  0
VERTEX
  8
0
 10
9.63286
 20
10.6504
 30
0.0
 40
0
 41
0
  0
VERTEX
  8
0
 10
9.63286
 20
10
 30
0.0
 40
0
 41
0
  0
VERTEX
  8
0
 10
9.33919
 20
10
 30
0.0
 40
0
 41
0
  0
VERTEX
  8
0
 10
9.33919
 20
10.6504
 30
0.0
 40
0
 41
0
  0
SEQEND
 8
0
  0
POLYLINE
  8
0
 62
     7
 66
     1
 10
0
 20
0
 30
0.0
 70
     1
 40
0
 41
0
  0
VERTEX
  8
0
 10
9.33919
 20
8.37397
 30
0.0
 40
0
 41
0
  0
VERTEX
  8
0
 10
9.63286
 20
8.37397
 30
0.0
 40
0
 41
0
  0
VERTEX
  8
0
 10
9.63286
 20
7.39839
 30
0.0
 40
0
 41
0
  0
VERTEX
  8
0
 10
9.33919
 20
7.39839
 30
0.0
 40
0
 41
0
  0
VERTEX
  8
0
 10
9.33919
 20
8.37397
 30
0.0
 40
0
 41
0
  0
SEQEND
 8
0
  0
POLYLINE
  8
0
 62
     7
 66
     1
 10
0
 20
0
 30
0.0
 70
     1
 40
0
 41
0
  0
VERTEX
  8
0
 10
9.33919
 20
3.78049
 30
0.0
 40
0
 41
0
  0
VERTEX
  8
0
 10
9.63286
 20
3.78049
 30
0.0
 40
0
 41
0
  0
VERTEX
  8
0
 10
9.63286
 20
0.406521
 30
0.0
 40
0
 41
0
  0
VERTEX
  8
0
 10
9.33919
 20
0.406521
 30
0.0
 40
0
 41
0
  0
VERTEX
  8
0
 10
9.33919
 20
3.78049
 30
0.0
 40
0
 41
0
  0
SEQEND
 8
0
  0
POLYLINE
  8
0
 62
     7
 66
     1
 10
0
 20
0
 30
0.0
 70
     1
 40
0
 41
0
  0
VERTEX
  8
0
 10
4.72835
 20
7.15446
 30
0.0
 40
0
 41
0
  0
VERTEX
  8
0
 10
4.90457
 20
7.15446
 30
0.0
 40
0
 41
0
  0
VERTEX
  8
0
 10
4.90457
 20
4.90517
 30
0.0
 40
0
 41
0
  0
VERTEX
  8
0
 10
4.72835
 20
4.90517
 30
0.0
 40
0
 41
0
  0
VERTEX
  8
0
 10
4.72835
 20
7.15446
 30
0.0
 40
0
 41
0
  0
SEQEND
 8
0
  0
POLYLINE
  8
0
 62
     7
 66
     1
 10
0
 20
0
 30
0.0
 70
     1
 40
0
 41
0
  0
VERTEX
  8
0
 10
4.72835
 20
2.65582
 30
0.0
 40
0
 41
0
  0
VERTEX
  8
0
 10
4.90457
 20
2.65582
 30
0.0
 40
0
 41
0
  0
VERTEX
  8
0
 10
4.90457
 20
0.406521
 30
0.0
 40
0
 41
0
  0
VERTEX
  8
0
 10
4.72835
 20
0.406521
 30
0.0
 40
0
 41
0
  0
VERTEX
  8
0
 10
4.72835
 20
2.65582
 30
0.0
 40
0
 41
0
  0
SEQEND
 8
0
  0
POLYLINE
  8
0
 62
     7
 66
     1
 10
0
 20
0
 30
0.0
 70
     1
 40
0
 41
0
  0
VERTEX
  8
0
 10
4.90457
 20
7.39839
 30
0.0
 40
0
 41
0
  0
VERTEX
  8
0
 10
5.72689
 20
7.39839
 30
0.0
 40
0
 41
0
  0
VERTEX
  8
0
 10
5.72689
 20
7.15446
 30
0.0
 40
0
 41
0
  0
VERTEX
  8
0
 10
4.90457
 20
7.15446
 30
0.0
 40
0
 41
0
  0
VERTEX
  8
0
 10
4.90457
 20
7.39839
 30
0.0
 40
0
 41
0
  0
SEQEND
 8
0
  0
POLYLINE
  8
0
 62
     7
 66
     1
 10
0
 20
0
 30
0.0
 70
     1
 40
0
 41
0
  0
VERTEX
  8
0
 10
6.90164
 20
7.39839
 30
0.0
 40
0
 41
0
  0
VERTEX
  8
0
 10
9.33919
 20
7.39839
 30
0.0
 40
0
 41
0
  0
VERTEX
  8
0
 10
9.33919
 20
7.15446
 30
0.0
 40
0
 41
0
  0
VERTEX
  8
0
 10
6.90164
 20
7.15446
 30
0.0
 40
0
 41
0
  0
VERTEX
  8
0
 10
6.90164
 20
7.39839
 30
0.0
 40
0
 41
0
  0
SEQEND
 8
0
  0
POLYLINE
  8
0
 62
     7
 66
     1
 10
0
 20
0
 30
0.0
 70
     1
 40
0
 41
0
  0
VERTEX
  8
0
 10
1.91872
 20
7.39839
 30
0.0
 40
0
 41
0
  0
VERTEX
  8
0
 10
2.73128
 20
7.39839
 30
0.0
 40
0
 41
0
  0
VERTEX
  8
0
 10
2.73128
 20
7.15446
 30
0.0
 40
0
 41
0
  0
VERTEX
  8
0
 10
1.91872
 20
7.15446
 30
0.0
 40
0
 41
0
  0
VERTEX
  8
0
 10
1.91872
 20
7.39839
 30
0.0
 40
0
 41
0
  0
SEQEND
 8
0
  0
POLYLINE
  8
0
 62
     7
 66
     1
 10
0
 20
0
 30
0.0
 70
     1
 40
0
 41
0
  0
VERTEX
  8
0
 10
3.90603
 20
7.39839
 30
0.0
 40
0
 41
0
  0
VERTEX
  8
0
 10
4.72835
 20
7.39839
 30
0.0
 40
0
 41
0
  0
VERTEX
  8
0
 10
4.72835
 20
7.15446
 30
0.0
 40
0
 41
0
  0
VERTEX
  8
0
 10
3.90603
 20
7.15446
 30
0.0
 40
0
 41
0
  0
VERTEX
  8
0
 10
3.90603
 20
7.39839
 30
0.0
 40
0
 41
0
  0
SEQEND
 8
0
  0
POLYLINE
  8
0
 62
     7
 66
     1
 10
0
 20
0
 30
0.0
 70
     1
 40
0
 41
0
  0
VERTEX
  8
0
 10
9.63286
 20
7.39839
 30
0.0
 40
0
 41
0
  0
VERTEX
  8
0
 10
10.8076
 20
7.39839
 30
0.0
 40
0
 41
0
  0
VERTEX
  8
0
 10
10.8076
 20
7.15446
 30
0.0
 40
0
 41
0
  0
VERTEX
  8
0
 10
9.63286
 20
7.15446
 30
0.0
 40
0
 41
0
  0
VERTEX
  8
0
 10
9.63286
 20
7.39839
 30
0.0
 40
0
 41
0
  0
SEQEND
 8
0
  0
POLYLINE
  8
0
 62
     7
 66
     1
 10
0
 20
0
 30
0.0
 70
     1
 40
0
 41
0
  0
VERTEX
  8
0
 10
11.9824
 20
7.39839
 30
0.0
 40
0
 41
0
  0
VERTEX
  8
0
 10
13.1571
 20
7.39839
 30
0.0
 40
0
 41
0
  0
VERTEX
  8
0
 10
13.1571
 20
7.15446
 30
0.0
 40
0
 41
0
  0
VERTEX
  8
0
 10
11.9824
 20
7.15446
 30
0.0
 40
0
 41
0
  0
VERTEX
  8
0
 10
11.9824
 20
7.39839
 30
0.0
 40
0
 41
0
  0
SEQEND
 8
0
  0
POLYLINE
  8
0
 62
     7
 66
     1
 10
0
 20
0
 30
0.0
 70
     1
 40
0
 41
0
  0
VERTEX
  8
0
 10
0.293674
 20
7.39839
 30
0.0
 40
0
 41
0
  0
VERTEX
  8
0
 10
1.10623
 20
7.39839
 30
0.0
 40
0
 41
0
  0
VERTEX
  8
0
 10
1.10623
 20
7.15446
 30
0.0
 40
0
 41
0
  0
VERTEX
  8
0
 10
0.293674
 20
7.15446
 30
0.0
 40
0
 41
0
  0
VERTEX
  8
0
 10
0.293674
 20
7.39839
 30
0.0
 40
0
 41
0
  0
SEQEND
 8
0
  0
POLYLINE
  8
0
 62
     7
 66
     1
 10
0
 20
0
 30
0.0
 70
     1
 40
0
 41
0
  0
VERTEX
  8
0
 10
3.70047
 20
10.4878
 30
0.0
 40
0
 41
0
  0
VERTEX
  8
0
 10
3.87668
 20
10.4878
 30
0.0
 40
0
 41
0
  0
VERTEX
  8
0
 10
3.87668
 20
9.26828
 30
0.0
 40
0
 41
0
  0
VERTEX
  8
0
 10
3.70047
 20
9.26828
 30
0.0
 40
0
 41
0
  0
VERTEX
  8
0
 10
3.70047
 20
10.4878
 30
0.0
 40
0
 41
0
  0
SEQEND
 8
0
  0
POLYLINE
  8
0
 62
     7
 66
     1
 10
0
 20
0
 30
0.0
 70
     1
 40
0
 41
0
  0
VERTEX
  8
0
 10
3.70047
 20
12.9268
 30
0.0
 40
0
 41
0
  0
VERTEX
  8
0
 10
3.87668
 20
12.9268
 30
0.0
 40
0
 41
0
  0
VERTEX
  8
0
 10
3.87668
 20
11.7073
 30
0.0
 40
0
 41
0
  0
VERTEX
  8
0
 10
3.70047
 20
11.7073
 30
0.0
 40
0
 41
0
  0
VERTEX
  8
0
 10
3.70047
 20
12.9268
 30
0.0
 40
0
 41
0
  0
SEQEND
 8
0
  0
POLYLINE
  8
0
 62
     7
 66
     1
 10
0
 20
0
 30
0.0
 70
     1
 40
0
 41
0
  0
VERTEX
  8
0
 10
3.58296
 20
9.26828
 30
0.0
 40
0
 41
0
  0
VERTEX
  8
0
 10
3.70047
 20
9.26828
 30
0.0
 40
0
 41
0
  0
VERTEX
  8
0
 10
3.70047
 20
9.02442
 30
0.0
 40
0
 41
0
  0
VERTEX
  8
0
 10
3.58296
 20
9.02442
 30
0.0
 40
0
 41
0
  0
VERTEX
  8
0
 10
3.58296
 20
9.26828
 30
0.0
 40
0
 41
0
  0
SEQEND
 8
0
  0
POLYLINE
  8
0
 62
     7
 66
     1
 10
0
 20
0
 30
0.0
 70
     1
 40
0
 41
0
  0
VERTEX
  8
0
 10
2.29075
 20
9.26828
 30
0.0
 40
0
 41
0
  0
VERTEX
  8
0
 10
2.40821
 20
9.26828
 30
0.0
 40
0
 41
0
  0
VERTEX
  8
0
 10
2.40821
 20
9.02442
 30
0.0
 40
0
 41
0
  0
VERTEX
  8
0
 10
2.29075
 20
9.02442
 30
0.0
 40
0
 41
0
  0
VERTEX
  8
0
 10
2.29075
 20
9.26828
 30
0.0
 40
0
 41
0
  0
SEQEND
 8
0
  0
POLYLINE
  8
0
 62
     7
 66
     1
 10
0
 20
0
 30
0.0
 70
     1
 40
0
 41
0
  0
VERTEX
  8
0
 10
2.11453
 20
10.0813
 30
0.0
 40
0
 41
0
  0
VERTEX
  8
0
 10
2.29075
 20
10.0813
 30
0.0
 40
0
 41
0
  0
VERTEX
  8
0
 10
2.29075
 20
9.67481
 30
0.0
 40
0
 41
0
  0
VERTEX
  8
0
 10
2.11453
 20
9.67481
 30
0.0
 40
0
 41
0
  0
VERTEX
  8
0
 10
2.11453
 20
10.0813
 30
0.0
 40
0
 41
0
  0
SEQEND
 8
0
  0
POLYLINE
  8
0
 62
     7
 66
     1
 10
0
 20
0
 30
0.0
 70
     1
 40
0
 41
0
  0
VERTEX
  8
0
 10
2.11453
 20
9.26828
 30
0.0
 40
0
 41
0
  0
VERTEX
  8
0
 10
2.29075
 20
9.26828
 30
0.0
 40
0
 41
0
  0
VERTEX
  8
0
 10
2.29075
 20
9.02442
 30
0.0
 40
0
 41
0
  0
VERTEX
  8
0
 10
2.11453
 20
9.02442
 30
0.0
 40
0
 41
0
  0
VERTEX
  8
0
 10
2.11453
 20
9.26828
 30
0.0
 40
0
 41
0
  0
SEQEND
 8
0
  0
POLYLINE
  8
0
 62
     7
 66
     1
 10
0
 20
0
 30
0.0
 70
     1
 40
0
 41
0
  0
VERTEX
  8
0
 10
0.293674
 20
10.0813
 30
0.0
 40
0
 41
0
  0
VERTEX
  8
0
 10
0.900663
 20
10.0813
 30
0.0
 40
0
 41
0
  0
VERTEX
  8
0
 10
0.900663
 20
9.8374
 30
0.0
 40
0
 41
0
  0
VERTEX
  8
0
 10
0.293674
 20
9.8374
 30
0.0
 40
0
 41
0
  0
VERTEX
  8
0
 10
0.293674
 20
10.0813
 30
0.0
 40
0
 41
0
  0
SEQEND
 8
0
  0
POLYLINE
  8
0
 62
     7
 66
     1
 10
0
 20
0
 30
0.0
 70
     1
 40
0
 41
0
  0
VERTEX
  8
0
 10
1.5076
 20
10.0813
 30
0.0
 40
0
 41
0
  0
VERTEX
  8
0
 10
2.11453
 20
10.0813
 30
0.0
 40
0
 41
0
  0
VERTEX
  8
0
 10
2.11453
 20
9.8374
 30
0.0
 40
0
 41
0
  0
VERTEX
  8
0
 10
1.5076
 20
9.8374
 30
0.0
 40
0
 41
0
  0
VERTEX
  8
0
 10
1.5076
 20
10.0813
 30
0.0
 40
0
 41
0
  0
SEQEND
 8
0
  0
POLYLINE
  8
0
 62
     7
 66
     1
 10
0
 20
0
 30
0.0
 70
     1
 40
0
 41
0
  0
VERTEX
  8
0
 10
13.1572
 20
7.39839
 30
0.0
 40
0
 41
0
  0
VERTEX
  8
0
 10
13.3334
 20
7.39839
 30
0.0
 40
0
 41
0
  0
VERTEX
  8
0
 10
13.3334
 20
4.93224
 30
0.0
 40
0
 41
0
  0
VERTEX
  8
0
 10
13.1572
 20
4.93224
 30
0.0
 40
0
 41
0
  0
VERTEX
  8
0
 10
13.1572
 20
7.39839
 30
0.0
 40
0
 41
0
  0
SEQEND
 8
0
  0
POLYLINE
  8
0
 62
     7
 66
     1
 10
0
 20
0
 30
0.0
 70
     1
 40
0
 41
0
  0
VERTEX
  8
0
 10
13.1572
 20
2.46615
 30
0.0
 40
0
 41
0
  0
VERTEX
  8
0
 10
13.3334
 20
2.46615
 30
0.0
 40
0
 41
0
  0
VERTEX
  8
0
 10
13.3334
 20
0
 30
0.0
 40
0
 41
0
  0
VERTEX
  8
0
 10
13.1572
 20
0
 30
0.0
 40
0
 41
0
  0
VERTEX
  8
0
 10
13.1572
 20
2.46615
 30
0.0
 40
0
 41
0
  0
SEQEND
 8
0
  0
POLYLINE
  8
0
 62
     0
 66
     1
 10
0
 20
0
 30
0.0
 70
     1
 40
0.9375
 41
0.9375
  0
VERTEX
  8
0
 10
0.293674
 20
13.3333
 30
0.0
 40
0.0130208
 41
0.0130208
  0
VERTEX
  8
0
 10
1.23351
 20
13.3333
 30
0.0
 40
0.0130208
 41
0.0130208
  0
VERTEX
  8
0
 10
1.23351
 20
12.9268
 30
0.0
 40
0.0130208
 41
0.0130208
  0
VERTEX
  8
0
 10
0.293674
 20
12.9268
 30
0.0
 40
0.0130208
 41
0.0130208
  0
VERTEX
  8
0
 10
0.293674
 20
13.3333
 30
0.0
 40
0.0130208
 41
0.0130208
  0
SEQEND
 8
0
  0
POLYLINE
  8
0
 62
     0
 66
     1
 10
0
 20
0
 30
0.0
 70
     1
 40
0.9375
 41
0.9375
  0
VERTEX
  8
0
 10
2.40821
 20
13.3333
 30
0.0
 40
0.0130208
 41
0.0130208
  0
VERTEX
  8
0
 10
3.70047
 20
13.3333
 30
0.0
 40
0.0130208
 41
0.0130208
  0
VERTEX
  8
0
 10
3.70047
 20
12.9268
 30
0.0
 40
0.0130208
 41
0.0130208
  0
VERTEX
  8
0
 10
2.40821
 20
12.9268
 30
0.0
 40
0.0130208
 41
0.0130208
  0
VERTEX
  8
0
 10
2.40821
 20
13.3333
 30
0.0
 40
0.0130208
 41
0.0130208
  0
SEQEND
 8
0
  0
POLYLINE
  8
0
 62
     0
 66
     1
 10
0
 20
0
 30
0.0
 70
     1
 40
0.9375
 41
0.9375
  0
VERTEX
  8
0
 10
3.87663
 20
13.3333
 30
0.0
 40
0.0130208
 41
0.0130208
  0
VERTEX
  8
0
 10
4.699
 20
13.3333
 30
0.0
 40
0.0130208
 41
0.0130208
  0
VERTEX
  8
0
 10
4.699
 20
12.9268
 30
0.0
 40
0.0130208
 41
0.0130208
  0
VERTEX
  8
0
 10
3.87663
 20
12.9268
 30
0.0
 40
0.0130208
 41
0.0130208
  0
VERTEX
  8
0
 10
3.87663
 20
13.3333
 30
0.0
 40
0.0130208
 41
0.0130208
  0
SEQEND
 8
0
  0
POLYLINE
  8
0
 62
     0
 66
     1
 10
0
 20
0
 30
0.0
 70
     1
 40
0.9375
 41
0.9375
  0
VERTEX
  8
0
 10
5.87369
 20
13.3333
 30
0.0
 40
0.0130208
 41
0.0130208
  0
VERTEX
  8
0
 10
6.93099
 20
13.3333
 30
0.0
 40
0.0130208
 41
0.0130208
  0
VERTEX
  8
0
 10
6.93099
 20
12.9268
 30
0.0
 40
0.0130208
 41
0.0130208
  0
VERTEX
  8
0
 10
5.87369
 20
12.9268
 30
0.0
 40
0.0130208
 41
0.0130208
  0
VERTEX
  8
0
 10
5.87369
 20
13.3333
 30
0.0
 40
0.0130208
 41
0.0130208
  0
SEQEND
 8
0
  0
POLYLINE
  8
0
 62
     0
 66
     1
 10
0
 20
0
 30
0.0
 70
     1
 40
0.9375
 41
0.9375
  0
VERTEX
  8
0
 10
8.69308
 20
13.3333
 30
0.0
 40
0.0130208
 41
0.0130208
  0
VERTEX
  8
0
 10
9.33919
 20
13.3333
 30
0.0
 40
0.0130208
 41
0.0130208
  0
VERTEX
  8
0
 10
9.33919
 20
12.9268
 30
0.0
 40
0.0130208
 41
0.0130208
  0
VERTEX
  8
0
 10
8.69308
 20
12.9268
 30
0.0
 40
0.0130208
 41
0.0130208
  0
VERTEX
  8
0
 10
8.69308
 20
13.3333
 30
0.0
 40
0.0130208
 41
0.0130208
  0
SEQEND
 8
0
  0
POLYLINE
  8
0
 62
     0
 66
     1
 10
0
 20
0
 30
0.0
 70
     1
 40
0.9375
 41
0.9375
  0
VERTEX
  8
0
 10
4.90457
 20
0.406521
 30
0.0
 40
0.0130208
 41
0.0130208
  0
VERTEX
  8
0
 10
6.04992
 20
0.406521
 30
0.0
 40
0.0130208
 41
0.0130208
  0
VERTEX
  8
0
 10
6.04992
 20
0
 30
0.0
 40
0.0130208
 41
0.0130208
  0
VERTEX
  8
0
 10
4.90457
 20
0
 30
0.0
 40
0.0130208
 41
0.0130208
  0
VERTEX
  8
0
 10
4.90457
 20
0.406521
 30
0.0
 40
0.0130208
 41
0.0130208
  0
SEQEND
 8
0
  0
POLYLINE
  8
0
 62
     0
 66
     1
 10
0
 20
0
 30
0.0
 70
     1
 40
0.9375
 41
0.9375
  0
VERTEX
  8
0
 10
3.58296
 20
0.406521
 30
0.0
 40
0.0130208
 41
0.0130208
  0
VERTEX
  8
0
 10
4.72835
 20
0.406521
 30
0.0
 40
0.0130208
 41
0.0130208
  0
VERTEX
  8
0
 10
4.72835
 20
0
 30
0.0
 40
0.0130208
 41
0.0130208
  0
VERTEX
  8
0
 10
3.58296
 20
0
 30
0.0
 40
0.0130208
 41
0.0130208
  0
VERTEX
  8
0
 10
3.58296
 20
0.406521
 30
0.0
 40
0.0130208
 41
0.0130208
  0
SEQEND
 8
0
  0
POLYLINE
  8
0
 62
     0
 66
     1
 10
0
 20
0
 30
0.0
 70
     1
 40
0.9375
 41
0.9375
  0
VERTEX
  8
0
 10
0.293674
 20
0.406521
 30
0.0
 40
0.0130208
 41
0.0130208
  0
VERTEX
  8
0
 10
1.23351
 20
0.406521
 30
0.0
 40
0.0130208
 41
0.0130208
  0
VERTEX
  8
0
 10
1.23351
 20
0
 30
0.0
 40
0.0130208
 41
0.0130208
  0
VERTEX
  8
0
 10
0.293674
 20
0
 30
0.0
 40
0.0130208
 41
0.0130208
  0
VERTEX
  8
0
 10
0.293674
 20
0.406521
 30
0.0
 40
0.0130208
 41
0.0130208
  0
SEQEND
 8
0
  0
POLYLINE
  8
0
 62
     0
 66
     1
 10
0
 20
0
 30
0.0
 70
     1
 40
0.9375
 41
0.9375
  0
VERTEX
  8
0
 10
8.39942
 20
0.406521
 30
0.0
 40
0.0130208
 41
0.0130208
  0
VERTEX
  8
0
 10
9.33919
 20
0.406521
 30
0.0
 40
0.0130208
 41
0.0130208
  0
VERTEX
  8
0
 10
9.33919
 20
0
 30
0.0
 40
0.0130208
 41
0.0130208
  0
VERTEX
  8
0
 10
8.39942
 20
0
 30
0.0
 40
0.0130208
 41
0.0130208
  0
VERTEX
  8
0
 10
8.39942
 20
0.406521
 30
0.0
 40
0.0130208
 41
0.0130208
  0
SEQEND
 8
0
  0
POLYLINE
  8
0
 62
     0
 66
     1
 10
0
 20
0
 30
0.0
 70
     1
 40
0.9375
 41
0.9375
  0
VERTEX
  8
0
 10
11.395
 20
0.406521
 30
0.0
 40
0.0130208
 41
0.0130208
  0
VERTEX
  8
0
 10
13.1571
 20
0.406521
 30
0.0
 40
0.0130208
 41
0.0130208
  0
VERTEX
  8
0
 10
13.1571
 20
0
 30
0.0
 40
0.0130208
 41
0.0130208
  0
VERTEX
  8
0
 10
11.395
 20
0
 30
0.0
 40
0.0130208
 41
0.0130208
  0
VERTEX
  8
0
 10
11.395
 20
0.406521
 30
0.0
 40
0.0130208
 41
0.0130208
  0
SEQEND
 8
0
  0
POLYLINE
  8
0
 62
     0
 66
     1
 10
0
 20
0
 30
0.0
 70
     1
 40
0.9375
 41
0.9375
  0
VERTEX
  8
0
 10
0
 20
12.9268
 30
0.0
 40
0.0130208
 41
0.0130208
  0
VERTEX
  8
0
 10
0.293674
 20
12.9268
 30
0.0
 40
0.0130208
 41
0.0130208
  0
VERTEX
  8
0
 10
0.293674
 20
10.4227
 30
0.0
 40
0.0130208
 41
0.0130208
  0
VERTEX
  8
0
 10
0
 20
10.4227
 30
0.0
 40
0.0130208
 41
0.0130208
  0
VERTEX
  8
0
 10
0
 20
12.9268
 30
0.0
 40
0.0130208
 41
0.0130208
  0
SEQEND
 8
0
  0
POLYLINE
  8
0
 62
     0
 66
     1
 10
0
 20
0
 30
0.0
 70
     1
 40
0.9375
 41
0.9375
  0
VERTEX
  8
0
 10
0
 20
2.9106
 30
0.0
 40
0.0130208
 41
0.0130208
  0
VERTEX
  8
0
 10
0.293674
 20
2.9106
 30
0.0
 40
0.0130208
 41
0.0130208
  0
VERTEX
  8
0
 10
0.293674
 20
0.406521
 30
0.0
 40
0.0130208
 41
0.0130208
  0
VERTEX
  8
0
 10
0
 20
0.406521
 30
0.0
 40
0.0130208
 41
0.0130208
  0
VERTEX
  8
0
 10
0
 20
2.9106
 30
0.0
 40
0.0130208
 41
0.0130208
  0
SEQEND
 8
0
  0
POLYLINE
  8
0
 62
     0
 66
     1
 10
0
 20
0
 30
0.0
 70
     1
 40
0.9375
 41
0.9375
  0
VERTEX
  8
0
 10
0
 20
7.91872
 30
0.0
 40
0.0130208
 41
0.0130208
  0
VERTEX
  8
0
 10
0.293674
 20
7.91872
 30
0.0
 40
0.0130208
 41
0.0130208
  0
VERTEX
  8
0
 10
0.293674
 20
5.41465
 30
0.0
 40
0.0130208
 41
0.0130208
  0
VERTEX
  8
0
 10
0
 20
5.41465
 30
0.0
 40
0.0130208
 41
0.0130208
  0
VERTEX
  8
0
 10
0
 20
7.91872
 30
0.0
 40
0.0130208
 41
0.0130208
  0
SEQEND
 8
0
  0
POLYLINE
  8
0
 62
     0
 66
     1
 10
0
 20
0
 30
0.0
 70
     1
 40
0.9375
 41
0.9375
  0
VERTEX
  8
0
 10
9.33919
 20
12.9268
 30
0.0
 40
0.0130208
 41
0.0130208
  0
VERTEX
  8
0
 10
9.63286
 20
12.9268
 30
0.0
 40
0.0130208
 41
0.0130208
  0
VERTEX
  8
0
 10
9.63286
 20
12.2764
 30
0.0
 40
0.0130208
 41
0.0130208
  0
VERTEX
  8
0
 10
9.33919
 20
12.2764
 30
0.0
 40
0.0130208
 41
0.0130208
  0
VERTEX
  8
0
 10
9.33919
 20
12.9268
 30
0.0
 40
0.0130208
 41
0.0130208
  0
SEQEND
 8
0
  0
POLYLINE
  8
0
 62
     0
 66
     1
 10
0
 20
0
 30
0.0
 70
     1
 40
0.9375
 41
0.9375
  0
VERTEX
  8
0
 10
9.33919
 20
10.6504
 30
0.0
 40
0.0130208
 41
0.0130208
  0
VERTEX
  8
0
 10
9.63286
 20
10.6504
 30
0.0
 40
0.0130208
 41
0.0130208
  0
VERTEX
  8
0
 10
9.63286
 20
10
 30
0.0
 40
0.0130208
 41
0.0130208
  0
VERTEX
  8
0
 10
9.33919
 20
10
 30
0.0
 40
0.0130208
 41
0.0130208
  0
VERTEX
  8
0
 10
9.33919
 20
10.6504
 30
0.0
 40
0.0130208
 41
0.0130208
  0
SEQEND
 8
0
  0
POLYLINE
  8
0
 62
     0
 66
     1
 10
0
 20
0
 30
0.0
 70
     1
 40
0.9375
 41
0.9375
  0
VERTEX
  8
0
 10
9.33919
 20
8.37397
 30
0.0
 40
0.0130208
 41
0.0130208
  0
VERTEX
  8
0
 10
9.63286
 20
8.37397
 30
0.0
 40
0.0130208
 41
0.0130208
  0
VERTEX
  8
0
 10
9.63286
 20
7.39839
 30
0.0
 40
0.0130208
 41
0.0130208
  0
VERTEX
  8
0
 10
9.33919
 20
7.39839
 30
0.0
 40
0.0130208
 41
0.0130208
  0
VERTEX
  8
0
 10
9.33919
 20
8.37397
 30
0.0
 40
0.0130208
 41
0.0130208
  0
SEQEND
 8
0
  0
POLYLINE
  8
0
 62
     0
 66
     1
 10
0
 20
0
 30
0.0
 70
     1
 40
0.9375
 41
0.9375
  0
VERTEX
  8
0
 10
9.33919
 20
3.78049
 30
0.0
 40
0.0130208
 41
0.0130208
  0
VERTEX
  8
0
 10
9.63286
 20
3.78049
 30
0.0
 40
0.0130208
 41
0.0130208
  0
VERTEX
  8
0
 10
9.63286
 20
0.406521
 30
0.0
 40
0.0130208
 41
0.0130208
  0
VERTEX
  8
0
 10
9.33919
 20
0.406521
 30
0.0
 40
0.0130208
 41
0.0130208
  0
VERTEX
  8
0
 10
9.33919
 20
3.78049
 30
0.0
 40
0.0130208
 41
0.0130208
  0
SEQEND
 8
0
  0
POLYLINE
  8
0
 62
     0
 66
     1
 10
0
 20
0
 30
0.0
 70
     1
 40
0.9375
 41
0.9375
  0
VERTEX
  8
0
 10
4.72835
 20
7.15446
 30
0.0
 40
0.0130208
 41
0.0130208
  0
VERTEX
  8
0
 10
4.90457
 20
7.15446
 30
0.0
 40
0.0130208
 41
0.0130208
  0
VERTEX
  8
0
 10
4.90457
 20
4.90517
 30
0.0
 40
0.0130208
 41
0.0130208
  0
VERTEX
  8
0
 10
4.72835
 20
4.90517
 30
0.0
 40
0.0130208
 41
0.0130208
  0
VERTEX
  8
0
 10
4.72835
 20
7.15446
 30
0.0
 40
0.0130208
 41
0.0130208
  0
SEQEND
 8
0
  0
POLYLINE
  8
0
 62
     0
 66
     1
 10
0
 20
0
 30
0.0
 70
     1
 40
0.9375
 41
0.9375
  0
VERTEX
  8
0
 10
4.72835
 20
2.65582
 30
0.0
 40
0.0130208
 41
0.0130208
  0
VERTEX
  8
0
 10
4.90457
 20
2.65582
 30
0.0
 40
0.0130208
 41
0.0130208
  0
VERTEX
  8
0
 10
4.90457
 20
0.406521
 30
0.0
 40
0.0130208
 41
0.0130208
  0
VERTEX
  8
0
 10
4.72835
 20
0.406521
 30
0.0
 40
0.0130208
 41
0.0130208
  0
VERTEX
  8
0
 10
4.72835
 20
2.65582
 30
0.0
 40
0.0130208
 41
0.0130208
  0
SEQEND
 8
0
  0
POLYLINE
  8
0
 62
     0
 66
     1
 10
0
 20
0
 30
0.0
 70
     1
 40
0.9375
 41
0.9375
  0
VERTEX
  8
0
 10
4.90457
 20
7.39839
 30
0.0
 40
0.0130208
 41
0.0130208
  0
VERTEX
  8
0
 10
5.72689
 20
7.39839
 30
0.0
 40
0.0130208
 41
0.0130208
  0
VERTEX
  8
0
 10
5.72689
 20
7.15446
 30
0.0
 40
0.0130208
 41
0.0130208
  0
VERTEX
  8
0
 10
4.90457
 20
7.15446
 30
0.0
 40
0.0130208
 41
0.0130208
  0
VERTEX
  8
0
 10
4.90457
 20
7.39839
 30
0.0
 40
0.0130208
 41
0.0130208
  0
SEQEND
 8
0
  0
POLYLINE
  8
0
 62
     0
 66
     1
 10
0
 20
0
 30
0.0
 70
     1
 40
0.9375
 41
0.9375
  0
VERTEX
  8
0
 10
6.90164
 20
7.39839
 30
0.0
 40
0.0130208
 41
0.0130208
  0
VERTEX
  8
0
 10
9.33919
 20
7.39839
 30
0.0
 40
0.0130208
 41
0.0130208
  0
VERTEX
  8
0
 10
9.33919
 20
7.15446
 30
0.0
 40
0.0130208
 41
0.0130208
  0
VERTEX
  8
0
 10
6.90164
 20
7.15446
 30
0.0
 40
0.0130208
 41
0.0130208
  0
VERTEX
  8
0
 10
6.90164
 20
7.39839
 30
0.0
 40
0.0130208
 41
0.0130208
  0
SEQEND
 8
0
  0
POLYLINE
  8
0
 62
     0
 66
     1
 10
0
 20
0
 30
0.0
 70
     1
 40
0.9375
 41
0.9375
  0
VERTEX
  8
0
 10
1.91872
 20
7.39839
 30
0.0
 40
0.0130208
 41
0.0130208
  0
VERTEX
  8
0
 10
2.73128
 20
7.39839
 30
0.0
 40
0.0130208
 41
0.0130208
  0
VERTEX
  8
0
 10
2.73128
 20
7.15446
 30
0.0
 40
0.0130208
 41
0.0130208
  0
VERTEX
  8
0
 10
1.91872
 20
7.15446
 30
0.0
 40
0.0130208
 41
0.0130208
  0
VERTEX
  8
0
 10
1.91872
 20
7.39839
 30
0.0
 40
0.0130208
 41
0.0130208
  0
SEQEND
 8
0
  0
POLYLINE
  8
0
 62
     0
 66
     1
 10
0
 20
0
 30
0.0
 70
     1
 40
0.9375
 41
0.9375
  0
VERTEX
  8
0
 10
3.90603
 20
7.39839
 30
0.0
 40
0.0130208
 41
0.0130208
  0
VERTEX
  8
0
 10
4.72835
 20
7.39839
 30
0.0
 40
0.0130208
 41
0.0130208
  0
VERTEX
  8
0
 10
4.72835
 20
7.15446
 30
0.0
 40
0.0130208
 41
0.0130208
  0
VERTEX
  8
0
 10
3.90603
 20
7.15446
 30
0.0
 40
0.0130208
 41
0.0130208
  0
VERTEX
  8
0
 10
3.90603
 20
7.39839
 30
0.0
 40
0.0130208
 41
0.0130208
  0
SEQEND
 8
0
  0
POLYLINE
  8
0
 62
     0
 66
     1
 10
0
 20
0
 30
0.0
 70
     1
 40
0.9375
 41
0.9375
  0
VERTEX
  8
0
 10
9.63286
 20
7.39839
 30
0.0
 40
0.0130208
 41
0.0130208
  0
VERTEX
  8
0
 10
10.8076
 20
7.39839
 30
0.0
 40
0.0130208
 41
0.0130208
  0
VERTEX
  8
0
 10
10.8076
 20
7.15446
 30
0.0
 40
0.0130208
 41
0.0130208
  0
VERTEX
  8
0
 10
9.63286
 20
7.15446
 30
0.0
 40
0.0130208
 41
0.0130208
  0
VERTEX
  8
0
 10
9.63286
 20
7.39839
 30
0.0
 40
0.0130208
 41
0.0130208
  0
SEQEND
 8
0
  0
POLYLINE
  8
0
 62
     0
 66
     1
 10
0
 20
0
 30
0.0
 70
     1
 40
0.9375
 41
0.9375
  0
VERTEX
  8
0
 10
11.9824
 20
7.39839
 30
0.0
 40
0.0130208
 41
0.0130208
  0
VERTEX
  8
0
 10
13.1571
 20
7.39839
 30
0.0
 40
0.0130208
 41
0.0130208
  0
VERTEX
  8
0
 10
13.1571
 20
7.15446
 30
0.0
 40
0.0130208
 41
0.0130208
  0
VERTEX
  8
0
 10
11.9824
 20
7.15446
 30
0.0
 40
0.0130208
 41
0.0130208
  0
VERTEX
  8
0
 10
11.9824
 20
7.39839
 30
0.0
 40
0.0130208
 41
0.0130208
  0
SEQEND
 8
0
  0
POLYLINE
  8
0
 62
     0
 66
     1
 10
0
 20
0
 30
0.0
 70
     1
 40
0.9375
 41
0.9375
  0
VERTEX
  8
0
 10
0.293674
 20
7.39839
 30
0.0
 40
0.0130208
 41
0.0130208
  0
VERTEX
  8
0
 10
1.10623
 20
7.39839
 30
0.0
 40
0.0130208
 41
0.0130208
  0
VERTEX
  8
0
 10
1.10623
 20
7.15446
 30
0.0
 40
0.0130208
 41
0.0130208
  0
VERTEX
  8
0
 10
0.293674
 20
7.15446
 30
0.0
 40
0.0130208
 41
0.0130208
  0
VERTEX
  8
0
 10
0.293674
 20
7.39839
 30
0.0
 40
0.0130208
 41
0.0130208
  0
SEQEND
 8
0
  0
POLYLINE
  8
0
 62
     0
 66
     1
 10
0
 20
0
 30
0.0
 70
     1
 40
0.9375
 41
0.9375
  0
VERTEX
  8
0
 10
3.70047
 20
10.4878
 30
0.0
 40
0.0130208
 41
0.0130208
  0
VERTEX
  8
0
 10
3.87668
 20
10.4878
 30
0.0
 40
0.0130208
 41
0.0130208
  0
VERTEX
  8
0
 10
3.87668
 20
9.26828
 30
0.0
 40
0.0130208
 41
0.0130208
  0
VERTEX
  8
0
 10
3.70047
 20
9.26828
 30
0.0
 40
0.0130208
 41
0.0130208
  0
VERTEX
  8
0
 10
3.70047
 20
10.4878
 30
0.0
 40
0.0130208
 41
0.0130208
  0
SEQEND
 8
0
  0
POLYLINE
  8
0
 62
     0
 66
     1
 10
0
 20
0
 30
0.0
 70
     1
 40
0.9375
 41
0.9375
  0
VERTEX
  8
0
 10
3.70047
 20
12.9268
 30
0.0
 40
0.0130208
 41
0.0130208
  0
VERTEX
  8
0
 10
3.87668
 20
12.9268
 30
0.0
 40
0.0130208
 41
0.0130208
  0
VERTEX
  8
0
 10
3.87668
 20
11.7073
 30
0.0
 40
0.0130208
 41
0.0130208
  0
VERTEX
  8
0
 10
3.70047
 20
11.7073
 30
0.0
 40
0.0130208
 41
0.0130208
  0
VERTEX
  8
0
 10
3.70047
 20
12.9268
 30
0.0
 40
0.0130208
 41
0.0130208
  0
SEQEND
 8
0
  0
POLYLINE
  8
0
 62
     0
 66
     1
 10
0
 20
0
 30
0.0
 70
     1
 40
0.9375
 41
0.9375
  0
VERTEX
  8
0
 10
3.58296
 20
9.26828
 30
0.0
 40
0.0130208
 41
0.0130208
  0
VERTEX
  8
0
 10
3.70047
 20
9.26828
 30
0.0
 40
0.0130208
 41
0.0130208
  0
VERTEX
  8
0
 10
3.70047
 20
9.02442
 30
0.0
 40
0.0130208
 41
0.0130208
  0
VERTEX
  8
0
 10
3.58296
 20
9.02442
 30
0.0
 40
0.0130208
 41
0.0130208
  0
VERTEX
  8
0
 10
3.58296
 20
9.26828
 30
0.0
 40
0.0130208
 41
0.0130208
  0
SEQEND
 8
0
  0
POLYLINE
  8
0
 62
     0
 66
     1
 10
0
 20
0
 30
0.0
 70
     1
 40
0.9375
 41
0.9375
  0
VERTEX
  8
0
 10
2.29075
 20
9.26828
 30
0.0
 40
0.0130208
 41
0.0130208
  0
VERTEX
  8
0
 10
2.40821
 20
9.26828
 30
0.0
 40
0.0130208
 41
0.0130208
  0
VERTEX
  8
0
 10
2.40821
 20
9.02442
 30
0.0
 40
0.0130208
 41
0.0130208
  0
VERTEX
  8
0
 10
2.29075
 20
9.02442
 30
0.0
 40
0.0130208
 41
0.0130208
  0
VERTEX
  8
0
 10
2.29075
 20
9.26828
 30
0.0
 40
0.0130208
 41
0.0130208
  0
SEQEND
 8
0
  0
POLYLINE
  8
0
 62
     0
 66
     1
 10
0
 20
0
 30
0.0
 70
     1
 40
0.9375
 41
0.9375
  0
VERTEX
  8
0
 10
2.11453
 20
10.0813
 30
0.0
 40
0.0130208
 41
0.0130208
  0
VERTEX
  8
0
 10
2.29075
 20
10.0813
 30
0.0
 40
0.0130208
 41
0.0130208
  0
VERTEX
  8
0
 10
2.29075
 20
9.67481
 30
0.0
 40
0.0130208
 41
0.0130208
  0
VERTEX
  8
0
 10
2.11453
 20
9.67481
 30
0.0
 40
0.0130208
 41
0.0130208
  0
VERTEX
  8
0
 10
2.11453
 20
10.0813
 30
0.0
 40
0.0130208
 41
0.0130208
  0
SEQEND
 8
0
  0
POLYLINE
  8
0
 62
     0
 66
     1
 10
0
 20
0
 30
0.0
 70
     1
 40
0.9375
 41
0.9375
  0
VERTEX
  8
0
 10
2.11453
 20
9.26828
 30
0.0
 40
0.0130208
 41
0.0130208
  0
VERTEX
  8
0
 10
2.29075
 20
9.26828
 30
0.0
 40
0.0130208
 41
0.0130208
  0
VERTEX
  8
0
 10
2.29075
 20
9.02442
 30
0.0
 40
0.0130208
 41
0.0130208
  0
VERTEX
  8
0
 10
2.11453
 20
9.02442
 30
0.0
 40
0.0130208
 41
0.0130208
  0
VERTEX
  8
0
 10
2.11453
 20
9.26828
 30
0.0
 40
0.0130208
 41
0.0130208
  0
SEQEND
 8
0
  0
POLYLINE
  8
0
 62
     0
 66
     1
 10
0
 20
0
 30
0.0
 70
     1
 40
0.9375
 41
0.9375
  0
VERTEX
  8
0
 10
0.293674
 20
10.0813
 30
0.0
 40
0.0130208
 41
0.0130208
  0
VERTEX
  8
0
 10
0.900663
 20
10.0813
 30
0.0
 40
0.0130208
 41
0.0130208
  0
VERTEX
  8
0
 10
0.900663
 20
9.8374
 30
0.0
 40
0.0130208
 41
0.0130208
  0
VERTEX
  8
0
 10
0.293674
 20
9.8374
 30
0.0
 40
0.0130208
 41
0.0130208
  0
VERTEX
  8
0
 10
0.293674
 20
10.0813
 30
0.0
 40
0.0130208
 41
0.0130208
  0
SEQEND
 8
0
  0
POLYLINE
  8
0
 62
     0
 66
     1
 10
0
 20
0
 30
0.0
 70
     1
 40
0.9375
 41
0.9375
  0
VERTEX
  8
0
 10
1.5076
 20
10.0813
 30
0.0
 40
0.0130208
 41
0.0130208
  0
VERTEX
  8
0
 10
2.11453
 20
10.0813
 30
0.0
 40
0.0130208
 41
0.0130208
  0
VERTEX
  8
0
 10
2.11453
 20
9.8374
 30
0.0
 40
0.0130208
 41
0.0130208
  0
VERTEX
  8
0
 10
1.5076
 20
9.8374
 30
0.0
 40
0.0130208
 41
0.0130208
  0
VERTEX
  8
0
 10
1.5076
 20
10.0813
 30
0.0
 40
0.0130208
 41
0.0130208
  0
SEQEND
 8
0
  0
POLYLINE
  8
0
 62
     0
 66
     1
 10
0
 20
0
 30
0.0
 70
     1
 40
0.9375
 41
0.9375
  0
VERTEX
  8
0
 10
13.1572
 20
7.39839
 30
0.0
 40
0.0130208
 41
0.0130208
  0
VERTEX
  8
0
 10
13.3334
 20
7.39839
 30
0.0
 40
0.0130208
 41
0.0130208
  0
VERTEX
  8
0
 10
13.3334
 20
4.93224
 30
0.0
 40
0.0130208
 41
0.0130208
  0
VERTEX
  8
0
 10
13.1572
 20
4.93224
 30
0.0
 40
0.0130208
 41
0.0130208
  0
VERTEX
  8
0
 10
13.1572
 20
7.39839
 30
0.0
 40
0.0130208
 41
0.0130208
  0
SEQEND
 8
0
  0
POLYLINE
  8
0
 62
     0
 66
     1
 10
0
 20
0
 30
0.0
 70
     1
 40
0.9375
 41
0.9375
  0
VERTEX
  8
0
 10
13.1572
 20
2.46615
 30
0.0
 40
0.0130208
 41
0.0130208
  0
VERTEX
  8
0
 10
13.3334
 20
2.46615
 30
0.0
 40
0.0130208
 41
0.0130208
  0
VERTEX
  8
0
 10
13.3334
 20
0
 30
0.0
 40
0.0130208
 41
0.0130208
  0
VERTEX
  8
0
 10
13.1572
 20
0
 30
0.0
 40
0.0130208
 41
0.0130208
  0
VERTEX
  8
0
 10
13.1572
 20
2.46615
 30
0.0
 40
0.0130208
 41
0.0130208
  0
SEQEND
 8
0
  0
ENDSEC
  0
EOF
