<?xml version="1.0" encoding="UTF-8" standalone="no"?>
<!-- Created with Inkscape (http://www.inkscape.org/) -->

<svg
   xmlns:dc="http://purl.org/dc/elements/1.1/"
   xmlns:cc="http://creativecommons.org/ns#"
   xmlns:rdf="http://www.w3.org/1999/02/22-rdf-syntax-ns#"
   xmlns:svg="http://www.w3.org/2000/svg"
   xmlns="http://www.w3.org/2000/svg"
   xmlns:sodipodi="http://sodipodi.sourceforge.net/DTD/sodipodi-0.dtd"
   xmlns:inkscape="http://www.inkscape.org/namespaces/inkscape"
   id="svg4248"
   version="1.1"
   inkscape:version="0.91 r13725"
   xml:space="preserve"
   width="1280"
   height="1280"
   viewBox="0 0 1280 1280"
   sodipodi:docname="bodenplatte.svg"><metadata
     id="metadata4254"><rdf:RDF><cc:Work
         rdf:about=""><dc:format>image/svg+xml</dc:format><dc:type
           rdf:resource="http://purl.org/dc/dcmitype/StillImage" /><dc:title></dc:title></cc:Work></rdf:RDF></metadata><defs
     id="defs4252" /><sodipodi:namedview
     pagecolor="#ffffff"
     bordercolor="#666666"
     borderopacity="1"
     objecttolerance="10"
     gridtolerance="10"
     guidetolerance="10"
     inkscape:pageopacity="0"
     inkscape:pageshadow="2"
     inkscape:window-width="1436"
     inkscape:window-height="861"
     id="namedview4250"
     showgrid="false"
     inkscape:zoom="0.50859375"
     inkscape:cx="640"
     inkscape:cy="640"
     inkscape:window-x="0"
     inkscape:window-y="18"
     inkscape:window-maximized="0"
     inkscape:current-layer="g4256" /><g
     id="g4256"
     inkscape:groupmode="layer"
     inkscape:label="ink_ext_XXXXXX"
     transform="matrix(1.25,0,0,-1.25,0,1280)"><g
       id="g4258"
       transform="scale(0.1,0.1)"><path
         d="m 225.551,9927.8 721.762,0 0,312.195 -721.762,0 0,-312.195 z"
         style="fill:#ffffff;fill-opacity:1;fill-rule:nonzero;stroke:none"
         id="path4260"
         inkscape:connector-curvature="0" /><path
         d="m 1849.52,9927.8 992.422,0 0,312.195 -992.422,0 0,-312.195 z"
         style="fill:#ffffff;fill-opacity:1;fill-rule:nonzero;stroke:none"
         id="path4262"
         inkscape:connector-curvature="0" /><path
         d="m 2977.27,9927.8 631.543,0 0,312.195 -631.543,0 0,-312.195 z"
         style="fill:#ffffff;fill-opacity:1;fill-rule:nonzero;stroke:none"
         id="path4264"
         inkscape:connector-curvature="0" /><path
         d="m 4511.01,9927.8 811.984,0 0,312.195 -811.984,0 0,-312.195 z"
         style="fill:#ffffff;fill-opacity:1;fill-rule:nonzero;stroke:none"
         id="path4266"
         inkscape:connector-curvature="0" /><path
         d="m 6676.3,9927.8 496.211,0 0,312.195 -496.211,0 0,-312.195 z"
         style="fill:#ffffff;fill-opacity:1;fill-rule:nonzero;stroke:none"
         id="path4268"
         inkscape:connector-curvature="0" /><path
         d="m 3766.7,0 879.648,0 0,312.195 -879.648,0 0,-312.195 z"
         style="fill:#ffffff;fill-opacity:1;fill-rule:nonzero;stroke:none"
         id="path4270"
         inkscape:connector-curvature="0" /><path
         d="m 2751.72,0 879.645,0 0,312.195 -879.645,0 0,-312.195 z"
         style="fill:#ffffff;fill-opacity:1;fill-rule:nonzero;stroke:none"
         id="path4272"
         inkscape:connector-curvature="0" /><path
         d="m 225.551,0 721.762,0 0,312.195 -721.762,0 0,-312.195 z"
         style="fill:#ffffff;fill-opacity:1;fill-rule:nonzero;stroke:none"
         id="path4274"
         inkscape:connector-curvature="0" /><path
         d="m 6450.75,0 721.762,0 0,312.195 -721.762,0 0,-312.195 z"
         style="fill:#ffffff;fill-opacity:1;fill-rule:nonzero;stroke:none"
         id="path4276"
         inkscape:connector-curvature="0" /><path
         d="m 8751.37,0 1353.3,0 0,312.195 -1353.3,0 0,-312.195 z"
         style="fill:#ffffff;fill-opacity:1;fill-rule:nonzero;stroke:none"
         id="path4278"
         inkscape:connector-curvature="0" /><path
         d="m 0,8004.68 225.551,0 0,1923.12 L 0,9927.8 0,8004.68 Z"
         style="fill:#ffffff;fill-opacity:1;fill-rule:nonzero;stroke:none"
         id="path4280"
         inkscape:connector-curvature="0" /><path
         d="m 0,312.195 225.551,0 0,1923.12 -225.551,0 0,-1923.12 z"
         style="fill:#ffffff;fill-opacity:1;fill-rule:nonzero;stroke:none"
         id="path4282"
         inkscape:connector-curvature="0" /><path
         d="m 0,4158.44 225.551,0 0,1923.13 -225.551,0 0,-1923.13 z"
         style="fill:#ffffff;fill-opacity:1;fill-rule:nonzero;stroke:none"
         id="path4284"
         inkscape:connector-curvature="0" /><path
         d="m 7172.51,9428.29 225.551,0 0,499.512 -225.551,0 0,-499.512 z"
         style="fill:#ffffff;fill-opacity:1;fill-rule:nonzero;stroke:none"
         id="path4286"
         inkscape:connector-curvature="0" /><path
         d="m 7172.51,7680 225.551,0 0,499.512 -225.551,0 0,-499.512 z"
         style="fill:#ffffff;fill-opacity:1;fill-rule:nonzero;stroke:none"
         id="path4288"
         inkscape:connector-curvature="0" /><path
         d="m 7172.51,5681.95 225.551,0 0,749.266 -225.551,0 0,-749.266 z"
         style="fill:#ffffff;fill-opacity:1;fill-rule:nonzero;stroke:none"
         id="path4290"
         inkscape:connector-curvature="0" /><path
         d="m 7172.51,312.195 225.551,0 0,2591.22 -225.551,0 0,-2591.22 z"
         style="fill:#ffffff;fill-opacity:1;fill-rule:nonzero;stroke:none"
         id="path4292"
         inkscape:connector-curvature="0" /><path
         d="m 3631.36,3767.16 135.332,0 0,1727.48 -135.332,0 0,-1727.48 z"
         style="fill:#ffffff;fill-opacity:1;fill-rule:nonzero;stroke:none"
         id="path4294"
         inkscape:connector-curvature="0" /><path
         d="m 3631.36,312.195 135.332,0 0,1727.48 -135.332,0 0,-1727.48 z"
         style="fill:#ffffff;fill-opacity:1;fill-rule:nonzero;stroke:none"
         id="path4296"
         inkscape:connector-curvature="0" /><path
         d="m 3766.7,5494.64 631.543,0 0,187.316 -631.543,0 0,-187.316 z"
         style="fill:#ffffff;fill-opacity:1;fill-rule:nonzero;stroke:none"
         id="path4298"
         inkscape:connector-curvature="0" /><path
         d="m 7172.51,5494.63 -1872.07,0.01 0,187.31 1872.07,0 0,-187.32 z"
         style="fill:#ffffff;fill-opacity:1;fill-rule:nonzero;stroke:none"
         id="path4300"
         inkscape:connector-curvature="0" /><path
         d="m 2097.62,5494.64 -624.02,-0.01 0,187.32 624.02,0 0,-187.31 z"
         style="fill:#ffffff;fill-opacity:1;fill-rule:nonzero;stroke:none"
         id="path4302"
         inkscape:connector-curvature="0" /><path
         d="m 2999.82,5494.64 631.539,0 0,187.316 -631.539,0 0,-187.316 z"
         style="fill:#ffffff;fill-opacity:1;fill-rule:nonzero;stroke:none"
         id="path4304"
         inkscape:connector-curvature="0" /><path
         d="m 7398.06,5494.63 902.203,0 0,187.316 -902.203,0 0,-187.316 z"
         style="fill:#ffffff;fill-opacity:1;fill-rule:nonzero;stroke:none"
         id="path4306"
         inkscape:connector-curvature="0" /><path
         d="m 9202.47,5494.63 902.203,0 0,187.316 -902.203,0 0,-187.316 z"
         style="fill:#ffffff;fill-opacity:1;fill-rule:nonzero;stroke:none"
         id="path4308"
         inkscape:connector-curvature="0" /><path
         d="m 849.574,5494.63 -624.023,0 0,187.32 624.023,0 0,-187.32 z"
         style="fill:#ffffff;fill-opacity:1;fill-rule:nonzero;stroke:none"
         id="path4310"
         inkscape:connector-curvature="0" /><path
         d="m 2841.94,7118.05 135.332,0 0,936.582 -135.332,0 0,-936.582 z"
         style="fill:#ffffff;fill-opacity:1;fill-rule:nonzero;stroke:none"
         id="path4312"
         inkscape:connector-curvature="0" /><path
         d="m 2841.94,8991.22 135.332,0 0,936.586 -135.332,0 0,-936.586 z"
         style="fill:#ffffff;fill-opacity:1;fill-rule:nonzero;stroke:none"
         id="path4314"
         inkscape:connector-curvature="0" /><path
         d="m 2751.72,6930.73 90.2188,0 0,187.32 -90.2188,0 0,-187.32 z"
         style="fill:#ffffff;fill-opacity:1;fill-rule:nonzero;stroke:none"
         id="path4316"
         inkscape:connector-curvature="0" /><path
         d="m 1759.29,6930.73 90.2227,0 0,187.32 -90.2227,0 0,-187.32 z"
         style="fill:#ffffff;fill-opacity:1;fill-rule:nonzero;stroke:none"
         id="path4318"
         inkscape:connector-curvature="0" /><path
         d="m 1623.96,7430.24 135.328,0 0,312.195 -135.328,0 0,-312.195 z"
         style="fill:#ffffff;fill-opacity:1;fill-rule:nonzero;stroke:none"
         id="path4320"
         inkscape:connector-curvature="0" /><path
         d="m 1623.96,6930.73 135.328,0 0,187.32 -135.328,0 0,-187.32 z"
         style="fill:#ffffff;fill-opacity:1;fill-rule:nonzero;stroke:none"
         id="path4322"
         inkscape:connector-curvature="0" /><path
         d="m 225.551,7555.12 466.137,0 0,187.316 -466.137,0 0,-187.316 z"
         style="fill:#ffffff;fill-opacity:1;fill-rule:nonzero;stroke:none"
         id="path4324"
         inkscape:connector-curvature="0" /><path
         d="m 1157.83,7555.12 466.137,0 0,187.316 -466.137,0 0,-187.316 z"
         style="fill:#ffffff;fill-opacity:1;fill-rule:nonzero;stroke:none"
         id="path4326"
         inkscape:connector-curvature="0" /><path
         d="m 10104.7,3787.97 135.328,0 0,1893.98 -135.328,0 0,-1893.98 z"
         style="fill:#ffffff;fill-opacity:1;fill-rule:nonzero;stroke:none"
         id="path4328"
         inkscape:connector-curvature="0" /><path
         d="m 10104.7,0 135.328,0 0,1893.98 -135.328,0 0,-1893.98 z"
         style="fill:#ffffff;fill-opacity:1;fill-rule:nonzero;stroke:none"
         id="path4330"
         inkscape:connector-curvature="0" /><path
         d="m 225.551,9927.8 721.762,0 0,312.195 -721.762,0 0,-312.195 z"
         style="fill:none;stroke:#000000;stroke-width:10;stroke-linecap:round;stroke-linejoin:round;stroke-miterlimit:10;stroke-dasharray:none;stroke-opacity:1"
         id="path4332"
         inkscape:connector-curvature="0" /><path
         d="m 1849.52,9927.8 992.422,0 0,312.195 -992.422,0 0,-312.195 z"
         style="fill:none;stroke:#000000;stroke-width:10;stroke-linecap:round;stroke-linejoin:round;stroke-miterlimit:10;stroke-dasharray:none;stroke-opacity:1"
         id="path4334"
         inkscape:connector-curvature="0" /><path
         d="m 2977.27,9927.8 631.543,0 0,312.195 -631.543,0 0,-312.195 z"
         style="fill:none;stroke:#000000;stroke-width:10;stroke-linecap:round;stroke-linejoin:round;stroke-miterlimit:10;stroke-dasharray:none;stroke-opacity:1"
         id="path4336"
         inkscape:connector-curvature="0" /><path
         d="m 4511.01,9927.8 811.984,0 0,312.195 -811.984,0 0,-312.195 z"
         style="fill:none;stroke:#000000;stroke-width:10;stroke-linecap:round;stroke-linejoin:round;stroke-miterlimit:10;stroke-dasharray:none;stroke-opacity:1"
         id="path4338"
         inkscape:connector-curvature="0" /><path
         d="m 6676.3,9927.8 496.211,0 0,312.195 -496.211,0 0,-312.195 z"
         style="fill:none;stroke:#000000;stroke-width:10;stroke-linecap:round;stroke-linejoin:round;stroke-miterlimit:10;stroke-dasharray:none;stroke-opacity:1"
         id="path4340"
         inkscape:connector-curvature="0" /><path
         d="m 3766.7,0 879.648,0 0,312.195 -879.648,0 0,-312.195 z"
         style="fill:none;stroke:#000000;stroke-width:10;stroke-linecap:round;stroke-linejoin:round;stroke-miterlimit:10;stroke-dasharray:none;stroke-opacity:1"
         id="path4342"
         inkscape:connector-curvature="0" /><path
         d="m 2751.72,0 879.645,0 0,312.195 -879.645,0 0,-312.195 z"
         style="fill:none;stroke:#000000;stroke-width:10;stroke-linecap:round;stroke-linejoin:round;stroke-miterlimit:10;stroke-dasharray:none;stroke-opacity:1"
         id="path4344"
         inkscape:connector-curvature="0" /><path
         d="m 225.551,0 721.762,0 0,312.195 -721.762,0 0,-312.195 z"
         style="fill:none;stroke:#000000;stroke-width:10;stroke-linecap:round;stroke-linejoin:round;stroke-miterlimit:10;stroke-dasharray:none;stroke-opacity:1"
         id="path4346"
         inkscape:connector-curvature="0" /><path
         d="m 6450.75,0 721.762,0 0,312.195 -721.762,0 0,-312.195 z"
         style="fill:none;stroke:#000000;stroke-width:10;stroke-linecap:round;stroke-linejoin:round;stroke-miterlimit:10;stroke-dasharray:none;stroke-opacity:1"
         id="path4348"
         inkscape:connector-curvature="0" /><path
         d="m 8751.37,0 1353.3,0 0,312.195 -1353.3,0 0,-312.195 z"
         style="fill:none;stroke:#000000;stroke-width:10;stroke-linecap:round;stroke-linejoin:round;stroke-miterlimit:10;stroke-dasharray:none;stroke-opacity:1"
         id="path4350"
         inkscape:connector-curvature="0" /><path
         d="m 0,8004.68 225.551,0 0,1923.12 L 0,9927.8 0,8004.68 Z"
         style="fill:none;stroke:#000000;stroke-width:10;stroke-linecap:round;stroke-linejoin:round;stroke-miterlimit:10;stroke-dasharray:none;stroke-opacity:1"
         id="path4352"
         inkscape:connector-curvature="0" /><path
         d="m 0,312.195 225.551,0 0,1923.12 -225.551,0 0,-1923.12 z"
         style="fill:none;stroke:#000000;stroke-width:10;stroke-linecap:round;stroke-linejoin:round;stroke-miterlimit:10;stroke-dasharray:none;stroke-opacity:1"
         id="path4354"
         inkscape:connector-curvature="0" /><path
         d="m 0,4158.44 225.551,0 0,1923.13 -225.551,0 0,-1923.13 z"
         style="fill:none;stroke:#000000;stroke-width:10;stroke-linecap:round;stroke-linejoin:round;stroke-miterlimit:10;stroke-dasharray:none;stroke-opacity:1"
         id="path4356"
         inkscape:connector-curvature="0" /><path
         d="m 7172.51,9428.29 225.551,0 0,499.512 -225.551,0 0,-499.512 z"
         style="fill:none;stroke:#000000;stroke-width:10;stroke-linecap:round;stroke-linejoin:round;stroke-miterlimit:10;stroke-dasharray:none;stroke-opacity:1"
         id="path4358"
         inkscape:connector-curvature="0" /><path
         d="m 7172.51,7680 225.551,0 0,499.512 -225.551,0 0,-499.512 z"
         style="fill:none;stroke:#000000;stroke-width:10;stroke-linecap:round;stroke-linejoin:round;stroke-miterlimit:10;stroke-dasharray:none;stroke-opacity:1"
         id="path4360"
         inkscape:connector-curvature="0" /><path
         d="m 7172.51,5681.95 225.551,0 0,749.266 -225.551,0 0,-749.266 z"
         style="fill:none;stroke:#000000;stroke-width:10;stroke-linecap:round;stroke-linejoin:round;stroke-miterlimit:10;stroke-dasharray:none;stroke-opacity:1"
         id="path4362"
         inkscape:connector-curvature="0" /><path
         d="m 7172.51,312.195 225.551,0 0,2591.22 -225.551,0 0,-2591.22 z"
         style="fill:none;stroke:#000000;stroke-width:10;stroke-linecap:round;stroke-linejoin:round;stroke-miterlimit:10;stroke-dasharray:none;stroke-opacity:1"
         id="path4364"
         inkscape:connector-curvature="0" /><path
         d="m 3631.36,3767.16 135.332,0 0,1727.48 -135.332,0 0,-1727.48 z"
         style="fill:none;stroke:#000000;stroke-width:10;stroke-linecap:round;stroke-linejoin:round;stroke-miterlimit:10;stroke-dasharray:none;stroke-opacity:1"
         id="path4366"
         inkscape:connector-curvature="0" /><path
         d="m 3631.36,312.195 135.332,0 0,1727.48 -135.332,0 0,-1727.48 z"
         style="fill:none;stroke:#000000;stroke-width:10;stroke-linecap:round;stroke-linejoin:round;stroke-miterlimit:10;stroke-dasharray:none;stroke-opacity:1"
         id="path4368"
         inkscape:connector-curvature="0" /><path
         d="m 3766.7,5494.64 631.543,0 0,187.316 -631.543,0 0,-187.316 z"
         style="fill:none;stroke:#000000;stroke-width:10;stroke-linecap:round;stroke-linejoin:round;stroke-miterlimit:10;stroke-dasharray:none;stroke-opacity:1"
         id="path4370"
         inkscape:connector-curvature="0" /><path
         d="m 7172.51,5494.63 -1872.07,0.01 0,187.31 1872.07,0 0,-187.32 z"
         style="fill:none;stroke:#000000;stroke-width:10;stroke-linecap:round;stroke-linejoin:round;stroke-miterlimit:10;stroke-dasharray:none;stroke-opacity:1"
         id="path4372"
         inkscape:connector-curvature="0" /><path
         d="m 2097.62,5494.64 -624.02,-0.01 0,187.32 624.02,0 0,-187.31 z"
         style="fill:none;stroke:#000000;stroke-width:10;stroke-linecap:round;stroke-linejoin:round;stroke-miterlimit:10;stroke-dasharray:none;stroke-opacity:1"
         id="path4374"
         inkscape:connector-curvature="0" /><path
         d="m 2999.82,5494.64 631.539,0 0,187.316 -631.539,0 0,-187.316 z"
         style="fill:none;stroke:#000000;stroke-width:10;stroke-linecap:round;stroke-linejoin:round;stroke-miterlimit:10;stroke-dasharray:none;stroke-opacity:1"
         id="path4376"
         inkscape:connector-curvature="0" /><path
         d="m 7398.06,5494.63 902.203,0 0,187.316 -902.203,0 0,-187.316 z"
         style="fill:none;stroke:#000000;stroke-width:10;stroke-linecap:round;stroke-linejoin:round;stroke-miterlimit:10;stroke-dasharray:none;stroke-opacity:1"
         id="path4378"
         inkscape:connector-curvature="0" /><path
         d="m 9202.47,5494.63 902.203,0 0,187.316 -902.203,0 0,-187.316 z"
         style="fill:none;stroke:#000000;stroke-width:10;stroke-linecap:round;stroke-linejoin:round;stroke-miterlimit:10;stroke-dasharray:none;stroke-opacity:1"
         id="path4380"
         inkscape:connector-curvature="0" /><path
         d="m 849.574,5494.63 -624.023,0 0,187.32 624.023,0 0,-187.32 z"
         style="fill:none;stroke:#000000;stroke-width:10;stroke-linecap:round;stroke-linejoin:round;stroke-miterlimit:10;stroke-dasharray:none;stroke-opacity:1"
         id="path4382"
         inkscape:connector-curvature="0" /><path
         d="m 2841.94,7118.05 135.332,0 0,936.582 -135.332,0 0,-936.582 z"
         style="fill:none;stroke:#000000;stroke-width:10;stroke-linecap:round;stroke-linejoin:round;stroke-miterlimit:10;stroke-dasharray:none;stroke-opacity:1"
         id="path4384"
         inkscape:connector-curvature="0" /><path
         d="m 2841.94,8991.22 135.332,0 0,936.586 -135.332,0 0,-936.586 z"
         style="fill:none;stroke:#000000;stroke-width:10;stroke-linecap:round;stroke-linejoin:round;stroke-miterlimit:10;stroke-dasharray:none;stroke-opacity:1"
         id="path4386"
         inkscape:connector-curvature="0" /><path
         d="m 2751.72,6930.73 90.2188,0 0,187.32 -90.2188,0 0,-187.32 z"
         style="fill:none;stroke:#000000;stroke-width:10;stroke-linecap:round;stroke-linejoin:round;stroke-miterlimit:10;stroke-dasharray:none;stroke-opacity:1"
         id="path4388"
         inkscape:connector-curvature="0" /><path
         d="m 1759.29,6930.73 90.2227,0 0,187.32 -90.2227,0 0,-187.32 z"
         style="fill:none;stroke:#000000;stroke-width:10;stroke-linecap:round;stroke-linejoin:round;stroke-miterlimit:10;stroke-dasharray:none;stroke-opacity:1"
         id="path4390"
         inkscape:connector-curvature="0" /><path
         d="m 1623.96,7430.24 135.328,0 0,312.195 -135.328,0 0,-312.195 z"
         style="fill:none;stroke:#000000;stroke-width:10;stroke-linecap:round;stroke-linejoin:round;stroke-miterlimit:10;stroke-dasharray:none;stroke-opacity:1"
         id="path4392"
         inkscape:connector-curvature="0" /><path
         d="m 1623.96,6930.73 135.328,0 0,187.32 -135.328,0 0,-187.32 z"
         style="fill:none;stroke:#000000;stroke-width:10;stroke-linecap:round;stroke-linejoin:round;stroke-miterlimit:10;stroke-dasharray:none;stroke-opacity:1"
         id="path4394"
         inkscape:connector-curvature="0" /><path
         d="m 225.551,7555.12 466.137,0 0,187.316 -466.137,0 0,-187.316 z"
         style="fill:none;stroke:#000000;stroke-width:10;stroke-linecap:round;stroke-linejoin:round;stroke-miterlimit:10;stroke-dasharray:none;stroke-opacity:1"
         id="path4396"
         inkscape:connector-curvature="0" /><path
         d="m 1157.83,7555.12 466.137,0 0,187.316 -466.137,0 0,-187.316 z"
         style="fill:none;stroke:#000000;stroke-width:10;stroke-linecap:round;stroke-linejoin:round;stroke-miterlimit:10;stroke-dasharray:none;stroke-opacity:1"
         id="path4398"
         inkscape:connector-curvature="0" /><path
         d="m 10104.7,3787.97 135.328,0 0,1893.98 -135.328,0 0,-1893.98 z"
         style="fill:none;stroke:#000000;stroke-width:10;stroke-linecap:round;stroke-linejoin:round;stroke-miterlimit:10;stroke-dasharray:none;stroke-opacity:1"
         id="path4400"
         inkscape:connector-curvature="0" /><path
         d="m 10104.7,0 135.328,0 0,1893.98 -135.328,0 0,-1893.98 z"
         style="fill:none;stroke:#000000;stroke-width:10;stroke-linecap:round;stroke-linejoin:round;stroke-miterlimit:10;stroke-dasharray:none;stroke-opacity:1"
         id="path4402"
         inkscape:connector-curvature="0" /></g></g></svg>