solid Exported from Blender-2.78 (sub 0)
facet normal 0.000000 0.000000 1.000000
outer loop
vertex 21.995817 -10.388799 0.000000
vertex 21.995817 9.611201 0.000000
vertex 21.854580 9.462029 0.000000
endloop
endfacet
facet normal 0.000000 0.000000 1.000000
outer loop
vertex 21.854580 9.462029 0.000000
vertex 21.854580 -10.239626 0.000000
vertex 21.995817 -10.388799 0.000000
endloop
endfacet
facet normal 0.000000 0.000000 1.000000
outer loop
vertex 21.995817 9.611201 0.000000
vertex -13.004183 9.611201 0.000000
vertex -12.862946 9.462029 0.000000
endloop
endfacet
facet normal 0.000000 0.000000 1.000000
outer loop
vertex -12.862946 9.462029 0.000000
vertex 21.854580 9.462029 0.000000
vertex 21.995817 9.611201 0.000000
endloop
endfacet
facet normal 0.000000 0.000000 1.000000
outer loop
vertex -13.004183 -10.388799 0.000000
vertex 21.995817 -10.388799 0.000000
vertex 21.854580 -10.239626 0.000000
endloop
endfacet
facet normal 0.000000 0.000000 1.000000
outer loop
vertex 21.854580 -10.239626 0.000000
vertex -12.862946 -10.239626 0.000000
vertex -13.004183 -10.388799 0.000000
endloop
endfacet
facet normal 0.000000 0.000000 1.000000
outer loop
vertex -13.004183 9.611201 0.000000
vertex -13.004183 -10.388799 0.000000
vertex -12.862946 -10.239626 0.000000
endloop
endfacet
facet normal 0.000000 0.000000 1.000000
outer loop
vertex -12.862946 -10.239626 0.000000
vertex -12.862946 9.462029 0.000000
vertex -13.004183 9.611201 0.000000
endloop
endfacet
facet normal 0.000000 0.000000 1.000000
outer loop
vertex 0.050000 -0.500000 -0.250024
vertex -1.000000 -0.500000 -0.250024
vertex -1.000000 -0.750000 -0.250024
endloop
endfacet
facet normal 0.000000 0.000000 1.000000
outer loop
vertex -1.000000 -0.750000 -0.250024
vertex 0.050000 -0.750000 -0.250024
vertex 0.050000 -0.500000 -0.250024
endloop
endfacet
facet normal 0.000000 0.000000 1.000000
outer loop
vertex 2.150000 -0.500000 -0.250024
vertex 1.050000 -0.500000 -0.250024
vertex 1.050000 -0.750000 -0.250024
endloop
endfacet
facet normal 0.000000 0.000000 1.000000
outer loop
vertex 1.050000 -0.750000 -0.250024
vertex 2.150000 -0.750000 -0.250024
vertex 2.150000 -0.500000 -0.250024
endloop
endfacet
facet normal 0.000000 0.000000 1.000000
outer loop
vertex 3.000000 -0.500000 -0.250024
vertex 2.300000 -0.500000 -0.250024
vertex 2.300000 -0.750000 -0.250024
endloop
endfacet
facet normal 0.000000 0.000000 1.000000
outer loop
vertex 2.300000 -0.750000 -0.250024
vertex 3.000000 -0.750000 -0.250024
vertex 3.000000 -0.500000 -0.250024
endloop
endfacet
facet normal 0.000000 0.000000 1.000000
outer loop
vertex 4.900000 -0.500000 -0.250024
vertex 4.000000 -0.500000 -0.250024
vertex 4.000000 -0.750000 -0.250024
endloop
endfacet
facet normal 0.000000 0.000000 1.000000
outer loop
vertex 4.000000 -0.750000 -0.250024
vertex 4.900000 -0.750000 -0.250024
vertex 4.900000 -0.500000 -0.250024
endloop
endfacet
facet normal 0.000000 0.000000 1.000000
outer loop
vertex 7.200000 -0.500000 -0.250024
vertex 6.400000 -0.500000 -0.250024
vertex 6.400000 -0.750000 -0.250024
endloop
endfacet
facet normal 0.000000 0.000000 1.000000
outer loop
vertex 6.400000 -0.750000 -0.250024
vertex 7.200000 -0.750000 -0.250024
vertex 7.200000 -0.500000 -0.250024
endloop
endfacet
facet normal 0.000000 0.000000 1.000000
outer loop
vertex 4.150000 7.449998 -0.250024
vertex 3.175000 7.449998 -0.250024
vertex 3.175000 7.199999 -0.250024
endloop
endfacet
facet normal 0.000000 0.000000 1.000000
outer loop
vertex 3.175000 7.199999 -0.250024
vertex 4.150000 7.199999 -0.250024
vertex 4.150000 7.449998 -0.250024
endloop
endfacet
facet normal 0.000000 0.000000 1.000000
outer loop
vertex 3.025000 7.449998 -0.250024
vertex 2.050000 7.449998 -0.250024
vertex 2.050000 7.199999 -0.250024
endloop
endfacet
facet normal 0.000000 0.000000 1.000000
outer loop
vertex 2.050000 7.199999 -0.250024
vertex 3.025000 7.199999 -0.250024
vertex 3.025000 7.449998 -0.250024
endloop
endfacet
facet normal 0.000000 0.000000 1.000000
outer loop
vertex 0.050000 7.449998 -0.250024
vertex -0.750000 7.449998 -0.250024
vertex -0.750000 7.199999 -0.250024
endloop
endfacet
facet normal 0.000000 0.000000 1.000000
outer loop
vertex -0.750000 7.199999 -0.250024
vertex 0.050000 7.199999 -0.250024
vertex 0.050000 7.449998 -0.250024
endloop
endfacet
facet normal 0.000000 0.000000 1.000000
outer loop
vertex 7.200000 7.449998 -0.250024
vertex 6.150000 7.449998 -0.250024
vertex 6.150000 7.199999 -0.250024
endloop
endfacet
facet normal 0.000000 0.000000 1.000000
outer loop
vertex 6.150000 7.199999 -0.250024
vertex 7.200000 7.199999 -0.250024
vertex 7.200000 7.449998 -0.250024
endloop
endfacet
facet normal 0.000000 0.000000 1.000000
outer loop
vertex 10.200001 7.449998 -0.250024
vertex 8.700001 7.449998 -0.250024
vertex 8.700001 7.199999 -0.250024
endloop
endfacet
facet normal 0.000000 0.000000 1.000000
outer loop
vertex 8.700001 7.199999 -0.250024
vertex 10.200001 7.199999 -0.250024
vertex 10.200001 7.449998 -0.250024
endloop
endfacet
facet normal 0.000000 0.000000 1.000000
outer loop
vertex -1.000000 1.040000 -0.250024
vertex -1.000000 -0.500000 -0.250024
vertex -0.750000 -0.500000 -0.250024
endloop
endfacet
facet normal 0.000000 0.000000 1.000000
outer loop
vertex -0.750000 -0.500000 -0.250024
vertex -0.750000 1.040000 -0.250024
vertex -1.000000 1.040000 -0.250024
endloop
endfacet
facet normal 0.000000 0.000000 1.000000
outer loop
vertex -1.000000 7.450000 -0.250024
vertex -1.000000 5.659999 -0.250024
vertex -0.750000 5.659999 -0.250024
endloop
endfacet
facet normal 0.000000 0.000000 1.000000
outer loop
vertex -0.750000 5.659999 -0.250024
vertex -0.750000 7.450000 -0.250024
vertex -1.000000 7.450000 -0.250024
endloop
endfacet
facet normal 0.000000 0.000000 1.000000
outer loop
vertex -1.000000 4.120000 -0.250024
vertex -1.000000 2.579999 -0.250024
vertex -0.750000 2.579999 -0.250024
endloop
endfacet
facet normal 0.000000 0.000000 1.000000
outer loop
vertex -0.750000 2.579999 -0.250024
vertex -0.750000 4.120000 -0.250024
vertex -1.000000 4.120000 -0.250024
endloop
endfacet
facet normal 0.000000 0.000000 1.000000
outer loop
vertex 7.200000 -0.500000 -0.250024
vertex 7.200000 -0.100000 -0.250024
vertex 6.950000 -0.100000 -0.250024
endloop
endfacet
facet normal 0.000000 0.000000 1.000000
outer loop
vertex 6.950000 -0.100000 -0.250024
vertex 6.950000 -0.500000 -0.250024
vertex 7.200000 -0.500000 -0.250024
endloop
endfacet
facet normal 0.000000 0.000000 1.000000
outer loop
vertex 7.200000 0.900000 -0.250024
vertex 7.200000 1.300000 -0.250024
vertex 6.950000 1.300000 -0.250024
endloop
endfacet
facet normal 0.000000 0.000000 1.000000
outer loop
vertex 6.950000 1.300000 -0.250024
vertex 6.950000 0.900000 -0.250024
vertex 7.200000 0.900000 -0.250024
endloop
endfacet
facet normal 0.000000 0.000000 1.000000
outer loop
vertex 7.200000 2.300000 -0.250024
vertex 7.200000 2.900000 -0.250024
vertex 6.950000 2.900000 -0.250024
endloop
endfacet
facet normal 0.000000 0.000000 1.000000
outer loop
vertex 6.950000 2.900000 -0.250024
vertex 6.950000 2.300000 -0.250024
vertex 7.200000 2.300000 -0.250024
endloop
endfacet
facet normal 0.000000 0.000000 1.000000
outer loop
vertex 7.200000 5.124999 -0.250024
vertex 7.200000 7.200000 -0.250024
vertex 6.950000 7.200000 -0.250024
endloop
endfacet
facet normal 0.000000 0.000000 1.000000
outer loop
vertex 6.950000 7.200000 -0.250024
vertex 6.950000 5.124999 -0.250024
vertex 7.200000 5.124999 -0.250024
endloop
endfacet
facet normal 0.000000 0.000000 1.000000
outer loop
vertex 3.175000 3.049999 -0.250024
vertex 3.175000 4.433332 -0.250024
vertex 3.025000 4.433332 -0.250024
endloop
endfacet
facet normal 0.000000 0.000000 1.000000
outer loop
vertex 3.025000 4.433332 -0.250024
vertex 3.025000 3.049999 -0.250024
vertex 3.175000 3.049999 -0.250024
endloop
endfacet
facet normal 0.000000 0.000000 1.000000
outer loop
vertex 3.175000 5.816667 -0.250024
vertex 3.175000 7.200000 -0.250024
vertex 3.025000 7.200000 -0.250024
endloop
endfacet
facet normal 0.000000 0.000000 1.000000
outer loop
vertex 3.025000 7.200000 -0.250024
vertex 3.025000 5.816667 -0.250024
vertex 3.175000 5.816667 -0.250024
endloop
endfacet
facet normal 0.000000 0.000000 1.000000
outer loop
vertex 3.875000 3.049999 -0.250000
vertex 3.175000 3.049999 -0.250000
vertex 3.175000 2.899999 -0.250000
endloop
endfacet
facet normal 0.000000 0.000000 1.000000
outer loop
vertex 3.175000 2.899999 -0.250000
vertex 3.875000 2.899999 -0.250000
vertex 3.875000 3.049999 -0.250000
endloop
endfacet
facet normal 0.000000 0.000000 1.000000
outer loop
vertex 6.950000 3.050000 -0.250000
vertex 4.875000 3.049999 -0.250000
vertex 4.875000 2.899999 -0.250000
endloop
endfacet
facet normal 0.000000 0.000000 1.000000
outer loop
vertex 4.875000 2.899999 -0.250000
vertex 6.950000 2.900001 -0.250000
vertex 6.950000 3.050000 -0.250000
endloop
endfacet
facet normal 0.000000 0.000000 1.000000
outer loop
vertex 1.325000 3.049999 -0.250000
vertex 0.633334 3.050000 -0.250000
vertex 0.633334 2.900000 -0.250000
endloop
endfacet
facet normal 0.000000 0.000000 1.000000
outer loop
vertex 0.633334 2.900000 -0.250000
vertex 1.325000 2.899999 -0.250000
vertex 1.325000 3.049999 -0.250000
endloop
endfacet
facet normal 0.000000 0.000000 1.000000
outer loop
vertex 3.025000 3.049999 -0.250000
vertex 2.325000 3.049999 -0.250000
vertex 2.325000 2.899999 -0.250000
endloop
endfacet
facet normal 0.000000 0.000000 1.000000
outer loop
vertex 2.325000 2.899999 -0.250000
vertex 3.025000 2.899999 -0.250000
vertex 3.025000 3.049999 -0.250000
endloop
endfacet
facet normal 0.000000 0.000000 1.000000
outer loop
vertex 8.200000 3.050000 -0.250000
vertex 7.200000 3.050000 -0.250000
vertex 7.200000 2.900001 -0.250000
endloop
endfacet
facet normal 0.000000 0.000000 1.000000
outer loop
vertex 7.200000 2.900001 -0.250000
vertex 8.200000 2.900001 -0.250000
vertex 8.200000 3.050000 -0.250000
endloop
endfacet
facet normal 0.000000 0.000000 1.000000
outer loop
vertex 10.200000 3.050000 -0.250000
vertex 9.200000 3.050000 -0.250000
vertex 9.200000 2.900001 -0.250000
endloop
endfacet
facet normal 0.000000 0.000000 1.000000
outer loop
vertex 9.200000 2.900001 -0.250000
vertex 10.200000 2.900001 -0.250000
vertex 10.200000 3.050000 -0.250000
endloop
endfacet
facet normal 0.000000 0.000000 1.000000
outer loop
vertex -0.058333 3.050000 -0.250000
vertex -0.750000 3.050000 -0.250000
vertex -0.750000 2.900001 -0.250000
endloop
endfacet
facet normal 0.000000 0.000000 1.000000
outer loop
vertex -0.750000 2.900001 -0.250000
vertex -0.058333 2.900000 -0.250000
vertex -0.058333 3.050000 -0.250000
endloop
endfacet
facet normal 0.000000 0.000000 1.000000
outer loop
vertex 2.150000 1.749999 -0.250024
vertex 2.150000 0.999999 -0.250024
vertex 2.300000 0.999999 -0.250024
endloop
endfacet
facet normal 0.000000 0.000000 1.000000
outer loop
vertex 2.300000 0.999999 -0.250024
vertex 2.300000 1.749999 -0.250024
vertex 2.150000 1.749999 -0.250024
endloop
endfacet
facet normal 0.000000 0.000000 1.000000
outer loop
vertex 2.150000 0.249999 -0.250024
vertex 2.150000 -0.500000 -0.250024
vertex 2.300000 -0.500000 -0.250024
endloop
endfacet
facet normal 0.000000 0.000000 1.000000
outer loop
vertex 2.300000 -0.500000 -0.250024
vertex 2.300000 0.249999 -0.250024
vertex 2.150000 0.249999 -0.250024
endloop
endfacet
facet normal 0.000000 0.000000 1.000000
outer loop
vertex 2.300000 1.900000 -0.250024
vertex 2.050000 1.900000 -0.250024
vertex 2.050000 1.749999 -0.250024
endloop
endfacet
facet normal 0.000000 0.000000 1.000000
outer loop
vertex 2.050000 1.749999 -0.250024
vertex 2.300000 1.749999 -0.250024
vertex 2.300000 1.900000 -0.250024
endloop
endfacet
facet normal 0.000000 0.000000 1.000000
outer loop
vertex 1.050000 1.900000 -0.250024
vertex 0.950000 1.900000 -0.250024
vertex 0.950000 1.749999 -0.250024
endloop
endfacet
facet normal 0.000000 0.000000 1.000000
outer loop
vertex 0.950000 1.749999 -0.250024
vertex 1.050000 1.749999 -0.250024
vertex 1.050000 1.900000 -0.250024
endloop
endfacet
facet normal 0.000000 0.000000 1.000000
outer loop
vertex 0.950000 1.249999 -0.250024
vertex 0.950000 1.499999 -0.250024
vertex 0.800000 1.499999 -0.250024
endloop
endfacet
facet normal 0.000000 0.000000 1.000000
outer loop
vertex 0.800000 1.499999 -0.250024
vertex 0.800000 1.249999 -0.250024
vertex 0.950000 1.249999 -0.250024
endloop
endfacet
facet normal 0.000000 0.000000 1.000000
outer loop
vertex 0.950000 1.749999 -0.250024
vertex 0.950000 1.900000 -0.250024
vertex 0.800000 1.900000 -0.250024
endloop
endfacet
facet normal 0.000000 0.000000 1.000000
outer loop
vertex 0.800000 1.900000 -0.250024
vertex 0.800000 1.749999 -0.250024
vertex 0.950000 1.749999 -0.250024
endloop
endfacet
facet normal 0.000000 0.000000 1.000000
outer loop
vertex -0.750000 1.249999 -0.250024
vertex -0.233333 1.249999 -0.250024
vertex -0.233333 1.400000 -0.250024
endloop
endfacet
facet normal 0.000000 0.000000 1.000000
outer loop
vertex -0.233333 1.400000 -0.250024
vertex -0.750000 1.400000 -0.250024
vertex -0.750000 1.249999 -0.250024
endloop
endfacet
facet normal 0.000000 0.000000 1.000000
outer loop
vertex 0.283334 1.249999 -0.250024
vertex 0.800000 1.249999 -0.250024
vertex 0.800000 1.400000 -0.250024
endloop
endfacet
facet normal 0.000000 0.000000 1.000000
outer loop
vertex 0.800000 1.400000 -0.250024
vertex 0.283334 1.400000 -0.250024
vertex 0.283334 1.249999 -0.250024
endloop
endfacet
facet normal 0.000000 0.000000 1.000000
outer loop
vertex 10.200001 4.416666 -0.250024
vertex 10.200001 2.899999 -0.250024
vertex 10.350000 2.899999 -0.250024
endloop
endfacet
facet normal 0.000000 0.000000 1.000000
outer loop
vertex 10.350000 2.899999 -0.250024
vertex 10.350000 4.416666 -0.250024
vertex 10.200001 4.416666 -0.250024
endloop
endfacet
facet normal 0.000000 0.000000 1.000000
outer loop
vertex 10.200001 7.450000 -0.250024
vertex 10.200001 5.933332 -0.250024
vertex 10.350000 5.933332 -0.250024
endloop
endfacet
facet normal 0.000000 0.000000 1.000000
outer loop
vertex 10.350000 5.933332 -0.250024
vertex 10.350000 7.450000 -0.250024
vertex 10.200001 7.450000 -0.250024
endloop
endfacet
facet normal 0.000000 0.000000 1.000000
outer loop
vertex 4.900000 -0.750000 -0.250024
vertex 6.400000 -0.750000 -0.250024
vertex 6.400000 -0.500000 -0.250024
endloop
endfacet
facet normal 0.000000 0.000000 1.000000
outer loop
vertex 6.400000 -0.500000 -0.250024
vertex 4.900000 -0.500000 -0.250024
vertex 4.900000 -0.750000 -0.250024
endloop
endfacet
facet normal 0.000000 0.000000 1.000000
outer loop
vertex 3.000000 -0.750000 -0.250024
vertex 4.000000 -0.750000 -0.250024
vertex 4.000000 -0.500000 -0.250024
endloop
endfacet
facet normal 0.000000 0.000000 1.000000
outer loop
vertex 4.000000 -0.500000 -0.250024
vertex 3.000000 -0.500000 -0.250024
vertex 3.000000 -0.750000 -0.250024
endloop
endfacet
facet normal 0.000000 0.000000 1.000000
outer loop
vertex 2.150000 -0.750000 -0.250024
vertex 2.300000 -0.750000 -0.250024
vertex 2.300000 -0.500000 -0.250024
endloop
endfacet
facet normal 0.000000 0.000000 1.000000
outer loop
vertex 2.300000 -0.500000 -0.250024
vertex 2.150000 -0.500000 -0.250024
vertex 2.150000 -0.750000 -0.250024
endloop
endfacet
facet normal 0.000000 0.000000 1.000000
outer loop
vertex 0.050000 -0.750000 -0.250024
vertex 1.050000 -0.750000 -0.250024
vertex 1.050000 -0.500000 -0.250024
endloop
endfacet
facet normal 0.000000 0.000000 1.000000
outer loop
vertex 1.050000 -0.500000 -0.250024
vertex 0.050000 -0.500000 -0.250024
vertex 0.050000 -0.750000 -0.250024
endloop
endfacet
facet normal 0.000000 0.000000 1.000000
outer loop
vertex -0.750000 2.579999 -0.250024
vertex -1.000000 2.579999 -0.250024
vertex -1.000000 1.040000 -0.250024
endloop
endfacet
facet normal 0.000000 0.000000 1.000000
outer loop
vertex -1.000000 1.040000 -0.250024
vertex -0.750000 1.040000 -0.250024
vertex -0.750000 2.579999 -0.250024
endloop
endfacet
facet normal 0.000000 0.000000 1.000000
outer loop
vertex -0.750000 5.659999 -0.250024
vertex -1.000000 5.659999 -0.250024
vertex -1.000000 4.120000 -0.250024
endloop
endfacet
facet normal 0.000000 0.000000 1.000000
outer loop
vertex -1.000000 4.120000 -0.250024
vertex -0.750000 4.120000 -0.250024
vertex -0.750000 5.659999 -0.250024
endloop
endfacet
facet normal 0.000000 0.000000 1.000000
outer loop
vertex 3.175000 7.199999 -0.250024
vertex 3.175000 7.449998 -0.250024
vertex 3.025000 7.449998 -0.250024
endloop
endfacet
facet normal 0.000000 0.000000 1.000000
outer loop
vertex 3.025000 7.449998 -0.250024
vertex 3.025000 7.199999 -0.250024
vertex 3.175000 7.199999 -0.250024
endloop
endfacet
facet normal 0.000000 0.000000 1.000000
outer loop
vertex 7.200000 7.199999 -0.250024
vertex 8.700001 7.199999 -0.250024
vertex 8.700001 7.449998 -0.250024
endloop
endfacet
facet normal 0.000000 0.000000 1.000000
outer loop
vertex 8.700001 7.449998 -0.250024
vertex 7.200000 7.449998 -0.250024
vertex 7.200000 7.199999 -0.250024
endloop
endfacet
facet normal 0.000000 0.000000 1.000000
outer loop
vertex 10.350000 5.933332 -0.250024
vertex 10.200001 5.933332 -0.250024
vertex 10.200001 4.416666 -0.250024
endloop
endfacet
facet normal 0.000000 0.000000 1.000000
outer loop
vertex 10.200001 4.416666 -0.250024
vertex 10.350000 4.416666 -0.250024
vertex 10.350000 5.933332 -0.250024
endloop
endfacet
facet normal 0.000000 0.000000 1.000000
outer loop
vertex 6.950000 2.900000 -0.250024
vertex 7.200000 2.900000 -0.250024
vertex 7.200000 5.124999 -0.250024
endloop
endfacet
facet normal 0.000000 0.000000 1.000000
outer loop
vertex 7.200000 5.124999 -0.250024
vertex 6.950000 5.124999 -0.250024
vertex 6.950000 2.900000 -0.250024
endloop
endfacet
facet normal 0.000000 0.000000 1.000000
outer loop
vertex 3.175000 2.899999 -0.250000
vertex 3.175000 3.049999 -0.250000
vertex 3.025000 3.049999 -0.250000
endloop
endfacet
facet normal 0.000000 0.000000 1.000000
outer loop
vertex 3.025000 3.049999 -0.250000
vertex 3.025000 2.899999 -0.250000
vertex 3.175000 2.899999 -0.250000
endloop
endfacet
facet normal 0.000000 0.000000 1.000000
outer loop
vertex 3.025000 5.816667 -0.250024
vertex 3.025000 4.433332 -0.250024
vertex 3.175000 4.433332 -0.250024
endloop
endfacet
facet normal 0.000000 0.000000 1.000000
outer loop
vertex 3.175000 4.433332 -0.250024
vertex 3.175000 5.816667 -0.250024
vertex 3.025000 5.816667 -0.250024
endloop
endfacet
facet normal 0.000000 0.000000 1.000000
outer loop
vertex -0.058333 2.900000 -0.250000
vertex 0.633334 2.900000 -0.250000
vertex 0.633334 3.050000 -0.250000
endloop
endfacet
facet normal 0.000000 0.000000 1.000000
outer loop
vertex 0.633334 3.050000 -0.250000
vertex -0.058333 3.050000 -0.250000
vertex -0.058333 2.900000 -0.250000
endloop
endfacet
facet normal 0.000000 0.000000 1.000000
outer loop
vertex 0.283334 1.400000 -0.250024
vertex -0.233333 1.400000 -0.250024
vertex -0.233333 1.249999 -0.250024
endloop
endfacet
facet normal 0.000000 0.000000 1.000000
outer loop
vertex -0.233333 1.249999 -0.250024
vertex 0.283334 1.249999 -0.250024
vertex 0.283334 1.400000 -0.250024
endloop
endfacet
facet normal 0.000000 0.000000 1.000000
outer loop
vertex 0.800000 1.749999 -0.250024
vertex 0.800000 1.499999 -0.250024
vertex 0.950000 1.499999 -0.250024
endloop
endfacet
facet normal 0.000000 0.000000 1.000000
outer loop
vertex 0.950000 1.499999 -0.250024
vertex 0.950000 1.749999 -0.250024
vertex 0.800000 1.749999 -0.250024
endloop
endfacet
facet normal 0.000000 0.000000 1.000000
outer loop
vertex 2.300000 0.249999 -0.250024
vertex 2.300000 0.999999 -0.250024
vertex 2.150000 0.999999 -0.250024
endloop
endfacet
facet normal 0.000000 0.000000 1.000000
outer loop
vertex 2.150000 0.999999 -0.250024
vertex 2.150000 0.249999 -0.250024
vertex 2.300000 0.249999 -0.250024
endloop
endfacet
facet normal 0.000000 0.000000 1.000000
outer loop
vertex -2.050000 -0.500000 -0.250024
vertex -2.050000 -0.750000 -0.250024
vertex -1.000000 -0.750000 -0.250024
endloop
endfacet
facet normal 0.000000 0.000000 1.000000
outer loop
vertex -1.000000 -0.750000 -0.250024
vertex -1.000000 -0.500000 -0.250024
vertex -2.050000 -0.500000 -0.250024
endloop
endfacet
facet normal 0.000000 0.000000 1.000000
outer loop
vertex -4.150000 -0.500000 -0.250024
vertex -4.150000 -0.750000 -0.250024
vertex -3.050000 -0.750000 -0.250024
endloop
endfacet
facet normal 0.000000 0.000000 1.000000
outer loop
vertex -3.050000 -0.750000 -0.250024
vertex -3.050000 -0.500000 -0.250024
vertex -4.150000 -0.500000 -0.250024
endloop
endfacet
facet normal 0.000000 0.000000 1.000000
outer loop
vertex -5.000000 -0.500000 -0.250024
vertex -5.000000 -0.750000 -0.250024
vertex -4.300000 -0.750000 -0.250024
endloop
endfacet
facet normal 0.000000 0.000000 1.000000
outer loop
vertex -4.300000 -0.750000 -0.250024
vertex -4.300000 -0.500000 -0.250024
vertex -5.000000 -0.500000 -0.250024
endloop
endfacet
facet normal 0.000000 0.000000 1.000000
outer loop
vertex -6.900000 -0.500000 -0.250024
vertex -6.900000 -0.750000 -0.250024
vertex -6.000000 -0.750000 -0.250024
endloop
endfacet
facet normal 0.000000 0.000000 1.000000
outer loop
vertex -6.000000 -0.750000 -0.250024
vertex -6.000000 -0.500000 -0.250024
vertex -6.900000 -0.500000 -0.250024
endloop
endfacet
facet normal 0.000000 0.000000 1.000000
outer loop
vertex -9.200001 -0.500000 -0.250024
vertex -9.200001 -0.750000 -0.250024
vertex -8.400000 -0.750000 -0.250024
endloop
endfacet
facet normal 0.000000 0.000000 1.000000
outer loop
vertex -8.400000 -0.750000 -0.250024
vertex -8.400000 -0.500000 -0.250024
vertex -9.200001 -0.500000 -0.250024
endloop
endfacet
facet normal 0.000000 0.000000 1.000000
outer loop
vertex -6.150000 7.449998 -0.250024
vertex -6.150000 7.199999 -0.250024
vertex -5.175000 7.199999 -0.250024
endloop
endfacet
facet normal 0.000000 0.000000 1.000000
outer loop
vertex -5.175000 7.199999 -0.250024
vertex -5.175000 7.449998 -0.250024
vertex -6.150000 7.449998 -0.250024
endloop
endfacet
facet normal 0.000000 0.000000 1.000000
outer loop
vertex -5.025000 7.449998 -0.250024
vertex -5.025000 7.199999 -0.250024
vertex -4.050000 7.199999 -0.250024
endloop
endfacet
facet normal 0.000000 0.000000 1.000000
outer loop
vertex -4.050000 7.199999 -0.250024
vertex -4.050000 7.449998 -0.250024
vertex -5.025000 7.449998 -0.250024
endloop
endfacet
facet normal 0.000000 0.000000 1.000000
outer loop
vertex -2.050000 7.449998 -0.250024
vertex -2.050000 7.199999 -0.250024
vertex -1.250000 7.199999 -0.250024
endloop
endfacet
facet normal 0.000000 0.000000 1.000000
outer loop
vertex -1.250000 7.199999 -0.250024
vertex -1.250000 7.449998 -0.250024
vertex -2.050000 7.449998 -0.250024
endloop
endfacet
facet normal 0.000000 0.000000 1.000000
outer loop
vertex -9.200001 7.449998 -0.250024
vertex -9.200001 7.199999 -0.250024
vertex -8.150000 7.199999 -0.250024
endloop
endfacet
facet normal 0.000000 0.000000 1.000000
outer loop
vertex -8.150000 7.199999 -0.250024
vertex -8.150000 7.449998 -0.250024
vertex -9.200001 7.449998 -0.250024
endloop
endfacet
facet normal 0.000000 0.000000 1.000000
outer loop
vertex -12.200001 7.449998 -0.250024
vertex -12.200001 7.199999 -0.250024
vertex -10.700001 7.199999 -0.250024
endloop
endfacet
facet normal 0.000000 0.000000 1.000000
outer loop
vertex -10.700001 7.199999 -0.250024
vertex -10.700001 7.449998 -0.250024
vertex -12.200001 7.449998 -0.250024
endloop
endfacet
facet normal 0.000000 0.000000 1.000000
outer loop
vertex -1.000000 1.040000 -0.250024
vertex -1.250000 1.040000 -0.250024
vertex -1.250000 -0.500000 -0.250024
endloop
endfacet
facet normal 0.000000 0.000000 1.000000
outer loop
vertex -1.250000 -0.500000 -0.250024
vertex -1.000000 -0.500000 -0.250024
vertex -1.000000 1.040000 -0.250024
endloop
endfacet
facet normal 0.000000 0.000000 1.000000
outer loop
vertex -1.000000 7.450000 -0.250024
vertex -1.250000 7.450000 -0.250024
vertex -1.250000 5.659999 -0.250024
endloop
endfacet
facet normal 0.000000 0.000000 1.000000
outer loop
vertex -1.250000 5.659999 -0.250024
vertex -1.000000 5.659999 -0.250024
vertex -1.000000 7.450000 -0.250024
endloop
endfacet
facet normal 0.000000 0.000000 1.000000
outer loop
vertex -1.000000 4.120000 -0.250024
vertex -1.250000 4.120000 -0.250024
vertex -1.250000 2.579999 -0.250024
endloop
endfacet
facet normal 0.000000 0.000000 1.000000
outer loop
vertex -1.250000 2.579999 -0.250024
vertex -1.000000 2.579999 -0.250024
vertex -1.000000 4.120000 -0.250024
endloop
endfacet
facet normal 0.000000 0.000000 1.000000
outer loop
vertex -9.200000 -0.500000 -0.250024
vertex -8.950000 -0.500000 -0.250024
vertex -8.950000 -0.100000 -0.250024
endloop
endfacet
facet normal 0.000000 0.000000 1.000000
outer loop
vertex -8.950000 -0.100000 -0.250024
vertex -9.200000 -0.100000 -0.250024
vertex -9.200000 -0.500000 -0.250024
endloop
endfacet
facet normal 0.000000 0.000000 1.000000
outer loop
vertex -9.200000 0.900000 -0.250024
vertex -8.950000 0.900000 -0.250024
vertex -8.950000 1.300000 -0.250024
endloop
endfacet
facet normal 0.000000 0.000000 1.000000
outer loop
vertex -8.950000 1.300000 -0.250024
vertex -9.200000 1.300000 -0.250024
vertex -9.200000 0.900000 -0.250024
endloop
endfacet
facet normal 0.000000 0.000000 1.000000
outer loop
vertex -9.200000 2.300000 -0.250024
vertex -8.950000 2.300000 -0.250024
vertex -8.950000 2.900000 -0.250024
endloop
endfacet
facet normal 0.000000 0.000000 1.000000
outer loop
vertex -8.950000 2.900000 -0.250024
vertex -9.200000 2.900000 -0.250024
vertex -9.200000 2.300000 -0.250024
endloop
endfacet
facet normal 0.000000 0.000000 1.000000
outer loop
vertex -9.200000 5.124999 -0.250024
vertex -8.950000 5.124999 -0.250024
vertex -8.950000 7.200000 -0.250024
endloop
endfacet
facet normal 0.000000 0.000000 1.000000
outer loop
vertex -8.950000 7.200000 -0.250024
vertex -9.200000 7.200000 -0.250024
vertex -9.200000 5.124999 -0.250024
endloop
endfacet
facet normal 0.000000 0.000000 1.000000
outer loop
vertex -5.175000 3.049999 -0.250024
vertex -5.025000 3.049999 -0.250024
vertex -5.025000 4.433332 -0.250024
endloop
endfacet
facet normal 0.000000 0.000000 1.000000
outer loop
vertex -5.025000 4.433332 -0.250024
vertex -5.175000 4.433332 -0.250024
vertex -5.175000 3.049999 -0.250024
endloop
endfacet
facet normal 0.000000 0.000000 1.000000
outer loop
vertex -5.175000 5.816667 -0.250024
vertex -5.025000 5.816667 -0.250024
vertex -5.025000 7.200000 -0.250024
endloop
endfacet
facet normal 0.000000 0.000000 1.000000
outer loop
vertex -5.025000 7.200000 -0.250024
vertex -5.175000 7.200000 -0.250024
vertex -5.175000 5.816667 -0.250024
endloop
endfacet
facet normal 0.000000 0.000000 1.000000
outer loop
vertex -5.875000 3.049999 -0.250000
vertex -5.875000 2.899999 -0.250000
vertex -5.175000 2.899999 -0.250000
endloop
endfacet
facet normal 0.000000 0.000000 1.000000
outer loop
vertex -5.175000 2.899999 -0.250000
vertex -5.175000 3.049999 -0.250000
vertex -5.875000 3.049999 -0.250000
endloop
endfacet
facet normal 0.000000 0.000000 1.000000
outer loop
vertex -8.950000 3.050000 -0.250000
vertex -8.950000 2.900001 -0.250000
vertex -6.875000 2.899999 -0.250000
endloop
endfacet
facet normal 0.000000 0.000000 1.000000
outer loop
vertex -6.875000 2.899999 -0.250000
vertex -6.875000 3.049999 -0.250000
vertex -8.950000 3.050000 -0.250000
endloop
endfacet
facet normal 0.000000 0.000000 1.000000
outer loop
vertex -3.325000 3.049999 -0.250000
vertex -3.325000 2.899999 -0.250000
vertex -2.633334 2.900000 -0.250000
endloop
endfacet
facet normal 0.000000 0.000000 1.000000
outer loop
vertex -2.633334 2.900000 -0.250000
vertex -2.633334 3.050000 -0.250000
vertex -3.325000 3.049999 -0.250000
endloop
endfacet
facet normal 0.000000 0.000000 1.000000
outer loop
vertex -5.025000 3.049999 -0.250000
vertex -5.025000 2.899999 -0.250000
vertex -4.325000 2.899999 -0.250000
endloop
endfacet
facet normal 0.000000 0.000000 1.000000
outer loop
vertex -4.325000 2.899999 -0.250000
vertex -4.325000 3.049999 -0.250000
vertex -5.025000 3.049999 -0.250000
endloop
endfacet
facet normal 0.000000 0.000000 1.000000
outer loop
vertex -10.200000 3.050000 -0.250000
vertex -10.200000 2.900001 -0.250000
vertex -9.200000 2.900001 -0.250000
endloop
endfacet
facet normal 0.000000 0.000000 1.000000
outer loop
vertex -9.200000 2.900001 -0.250000
vertex -9.200000 3.050000 -0.250000
vertex -10.200000 3.050000 -0.250000
endloop
endfacet
facet normal 0.000000 0.000000 1.000000
outer loop
vertex -12.200000 3.050000 -0.250000
vertex -12.200000 2.900001 -0.250000
vertex -11.200000 2.900001 -0.250000
endloop
endfacet
facet normal 0.000000 0.000000 1.000000
outer loop
vertex -11.200000 2.900001 -0.250000
vertex -11.200000 3.050000 -0.250000
vertex -12.200000 3.050000 -0.250000
endloop
endfacet
facet normal 0.000000 0.000000 1.000000
outer loop
vertex -1.941667 3.050000 -0.250000
vertex -1.941667 2.900000 -0.250000
vertex -1.250000 2.900001 -0.250000
endloop
endfacet
facet normal 0.000000 0.000000 1.000000
outer loop
vertex -1.250000 2.900001 -0.250000
vertex -1.250000 3.050000 -0.250000
vertex -1.941667 3.050000 -0.250000
endloop
endfacet
facet normal 0.000000 0.000000 1.000000
outer loop
vertex -4.150000 1.749999 -0.250024
vertex -4.300000 1.749999 -0.250024
vertex -4.300000 0.999999 -0.250024
endloop
endfacet
facet normal 0.000000 0.000000 1.000000
outer loop
vertex -4.300000 0.999999 -0.250024
vertex -4.150000 0.999999 -0.250024
vertex -4.150000 1.749999 -0.250024
endloop
endfacet
facet normal 0.000000 0.000000 1.000000
outer loop
vertex -4.150000 0.249999 -0.250024
vertex -4.300000 0.249999 -0.250024
vertex -4.300000 -0.500000 -0.250024
endloop
endfacet
facet normal 0.000000 0.000000 1.000000
outer loop
vertex -4.300000 -0.500000 -0.250024
vertex -4.150000 -0.500000 -0.250024
vertex -4.150000 0.249999 -0.250024
endloop
endfacet
facet normal 0.000000 0.000000 1.000000
outer loop
vertex -4.300000 1.900000 -0.250024
vertex -4.300000 1.749999 -0.250024
vertex -4.050000 1.749999 -0.250024
endloop
endfacet
facet normal 0.000000 0.000000 1.000000
outer loop
vertex -4.050000 1.749999 -0.250024
vertex -4.050000 1.900000 -0.250024
vertex -4.300000 1.900000 -0.250024
endloop
endfacet
facet normal 0.000000 0.000000 1.000000
outer loop
vertex -3.050000 1.900000 -0.250024
vertex -3.050000 1.749999 -0.250024
vertex -2.950000 1.749999 -0.250024
endloop
endfacet
facet normal 0.000000 0.000000 1.000000
outer loop
vertex -2.950000 1.749999 -0.250024
vertex -2.950000 1.900000 -0.250024
vertex -3.050000 1.900000 -0.250024
endloop
endfacet
facet normal 0.000000 0.000000 1.000000
outer loop
vertex -2.950000 1.249999 -0.250024
vertex -2.800000 1.249999 -0.250024
vertex -2.800000 1.499999 -0.250024
endloop
endfacet
facet normal 0.000000 0.000000 1.000000
outer loop
vertex -2.800000 1.499999 -0.250024
vertex -2.950000 1.499999 -0.250024
vertex -2.950000 1.249999 -0.250024
endloop
endfacet
facet normal 0.000000 0.000000 1.000000
outer loop
vertex -2.950000 1.749999 -0.250024
vertex -2.800000 1.749999 -0.250024
vertex -2.800000 1.900000 -0.250024
endloop
endfacet
facet normal 0.000000 0.000000 1.000000
outer loop
vertex -2.800000 1.900000 -0.250024
vertex -2.950000 1.900000 -0.250024
vertex -2.950000 1.749999 -0.250024
endloop
endfacet
facet normal 0.000000 0.000000 1.000000
outer loop
vertex -1.250000 1.249999 -0.250024
vertex -1.250000 1.400000 -0.250024
vertex -1.766667 1.400000 -0.250024
endloop
endfacet
facet normal 0.000000 0.000000 1.000000
outer loop
vertex -1.766667 1.400000 -0.250024
vertex -1.766667 1.249999 -0.250024
vertex -1.250000 1.249999 -0.250024
endloop
endfacet
facet normal 0.000000 0.000000 1.000000
outer loop
vertex -2.283334 1.249999 -0.250024
vertex -2.283334 1.400000 -0.250024
vertex -2.800000 1.400000 -0.250024
endloop
endfacet
facet normal 0.000000 0.000000 1.000000
outer loop
vertex -2.800000 1.400000 -0.250024
vertex -2.800000 1.249999 -0.250024
vertex -2.283334 1.249999 -0.250024
endloop
endfacet
facet normal 0.000000 0.000000 1.000000
outer loop
vertex -12.200001 4.416666 -0.250024
vertex -12.350000 4.416666 -0.250024
vertex -12.350000 2.899999 -0.250024
endloop
endfacet
facet normal 0.000000 0.000000 1.000000
outer loop
vertex -12.350000 2.899999 -0.250024
vertex -12.200001 2.899999 -0.250024
vertex -12.200001 4.416666 -0.250024
endloop
endfacet
facet normal 0.000000 0.000000 1.000000
outer loop
vertex -12.200001 7.450000 -0.250024
vertex -12.350000 7.450000 -0.250024
vertex -12.350000 5.933332 -0.250024
endloop
endfacet
facet normal 0.000000 0.000000 1.000000
outer loop
vertex -12.350000 5.933332 -0.250024
vertex -12.200001 5.933332 -0.250024
vertex -12.200001 7.450000 -0.250024
endloop
endfacet
facet normal 0.000000 0.000000 1.000000
outer loop
vertex -6.900000 -0.750000 -0.250024
vertex -6.900000 -0.500000 -0.250024
vertex -8.400000 -0.500000 -0.250024
endloop
endfacet
facet normal 0.000000 0.000000 1.000000
outer loop
vertex -8.400000 -0.500000 -0.250024
vertex -8.400000 -0.750000 -0.250024
vertex -6.900000 -0.750000 -0.250024
endloop
endfacet
facet normal 0.000000 0.000000 1.000000
outer loop
vertex -5.000000 -0.750000 -0.250024
vertex -5.000000 -0.500000 -0.250024
vertex -6.000000 -0.500000 -0.250024
endloop
endfacet
facet normal 0.000000 0.000000 1.000000
outer loop
vertex -6.000000 -0.500000 -0.250024
vertex -6.000000 -0.750000 -0.250024
vertex -5.000000 -0.750000 -0.250024
endloop
endfacet
facet normal 0.000000 0.000000 1.000000
outer loop
vertex -4.150000 -0.750000 -0.250024
vertex -4.150000 -0.500000 -0.250024
vertex -4.300000 -0.500000 -0.250024
endloop
endfacet
facet normal 0.000000 0.000000 1.000000
outer loop
vertex -4.300000 -0.500000 -0.250024
vertex -4.300000 -0.750000 -0.250024
vertex -4.150000 -0.750000 -0.250024
endloop
endfacet
facet normal 0.000000 0.000000 1.000000
outer loop
vertex -2.050000 -0.750000 -0.250024
vertex -2.050000 -0.500000 -0.250024
vertex -3.050000 -0.500000 -0.250024
endloop
endfacet
facet normal 0.000000 0.000000 1.000000
outer loop
vertex -3.050000 -0.500000 -0.250024
vertex -3.050000 -0.750000 -0.250024
vertex -2.050000 -0.750000 -0.250024
endloop
endfacet
facet normal 0.000000 0.000000 1.000000
outer loop
vertex -1.250000 2.579999 -0.250024
vertex -1.250000 1.040000 -0.250024
vertex -1.000000 1.040000 -0.250024
endloop
endfacet
facet normal 0.000000 0.000000 1.000000
outer loop
vertex -1.000000 1.040000 -0.250024
vertex -1.000000 2.579999 -0.250024
vertex -1.250000 2.579999 -0.250024
endloop
endfacet
facet normal 0.000000 0.000000 1.000000
outer loop
vertex -1.250000 5.659999 -0.250024
vertex -1.250000 4.120000 -0.250024
vertex -1.000000 4.120000 -0.250024
endloop
endfacet
facet normal 0.000000 0.000000 1.000000
outer loop
vertex -1.000000 4.120000 -0.250024
vertex -1.000000 5.659999 -0.250024
vertex -1.250000 5.659999 -0.250024
endloop
endfacet
facet normal 0.000000 0.000000 1.000000
outer loop
vertex -5.175000 7.199999 -0.250024
vertex -5.025000 7.199999 -0.250024
vertex -5.025000 7.449998 -0.250024
endloop
endfacet
facet normal 0.000000 0.000000 1.000000
outer loop
vertex -5.025000 7.449998 -0.250024
vertex -5.175000 7.449998 -0.250024
vertex -5.175000 7.199999 -0.250024
endloop
endfacet
facet normal 0.000000 0.000000 1.000000
outer loop
vertex -9.200001 7.199999 -0.250024
vertex -9.200001 7.449998 -0.250024
vertex -10.700001 7.449998 -0.250024
endloop
endfacet
facet normal 0.000000 0.000000 1.000000
outer loop
vertex -10.700001 7.449998 -0.250024
vertex -10.700001 7.199999 -0.250024
vertex -9.200001 7.199999 -0.250024
endloop
endfacet
facet normal 0.000000 0.000000 1.000000
outer loop
vertex -12.350000 5.933332 -0.250024
vertex -12.350000 4.416666 -0.250024
vertex -12.200001 4.416666 -0.250024
endloop
endfacet
facet normal 0.000000 0.000000 1.000000
outer loop
vertex -12.200001 4.416666 -0.250024
vertex -12.200001 5.933332 -0.250024
vertex -12.350000 5.933332 -0.250024
endloop
endfacet
facet normal 0.000000 0.000000 1.000000
outer loop
vertex -8.950000 2.900000 -0.250024
vertex -8.950000 5.124999 -0.250024
vertex -9.200000 5.124999 -0.250024
endloop
endfacet
facet normal 0.000000 0.000000 1.000000
outer loop
vertex -9.200000 5.124999 -0.250024
vertex -9.200000 2.900000 -0.250024
vertex -8.950000 2.900000 -0.250024
endloop
endfacet
facet normal 0.000000 0.000000 1.000000
outer loop
vertex -5.175000 2.899999 -0.250000
vertex -5.025000 2.899999 -0.250000
vertex -5.025000 3.049999 -0.250000
endloop
endfacet
facet normal 0.000000 0.000000 1.000000
outer loop
vertex -5.025000 3.049999 -0.250000
vertex -5.175000 3.049999 -0.250000
vertex -5.175000 2.899999 -0.250000
endloop
endfacet
facet normal 0.000000 0.000000 1.000000
outer loop
vertex -5.025000 5.816667 -0.250024
vertex -5.175000 5.816667 -0.250024
vertex -5.175000 4.433332 -0.250024
endloop
endfacet
facet normal 0.000000 0.000000 1.000000
outer loop
vertex -5.175000 4.433332 -0.250024
vertex -5.025000 4.433332 -0.250024
vertex -5.025000 5.816667 -0.250024
endloop
endfacet
facet normal 0.000000 0.000000 1.000000
outer loop
vertex -1.941667 2.900000 -0.250000
vertex -1.941667 3.050000 -0.250000
vertex -2.633334 3.050000 -0.250000
endloop
endfacet
facet normal 0.000000 0.000000 1.000000
outer loop
vertex -2.633334 3.050000 -0.250000
vertex -2.633334 2.900000 -0.250000
vertex -1.941667 2.900000 -0.250000
endloop
endfacet
facet normal 0.000000 0.000000 1.000000
outer loop
vertex -2.283334 1.400000 -0.250024
vertex -2.283334 1.249999 -0.250024
vertex -1.766667 1.249999 -0.250024
endloop
endfacet
facet normal 0.000000 0.000000 1.000000
outer loop
vertex -1.766667 1.249999 -0.250024
vertex -1.766667 1.400000 -0.250024
vertex -2.283334 1.400000 -0.250024
endloop
endfacet
facet normal 0.000000 0.000000 1.000000
outer loop
vertex -2.800000 1.749999 -0.250024
vertex -2.950000 1.749999 -0.250024
vertex -2.950000 1.499999 -0.250024
endloop
endfacet
facet normal 0.000000 0.000000 1.000000
outer loop
vertex -2.950000 1.499999 -0.250024
vertex -2.800000 1.499999 -0.250024
vertex -2.800000 1.749999 -0.250024
endloop
endfacet
facet normal 0.000000 0.000000 1.000000
outer loop
vertex -4.300000 0.249999 -0.250024
vertex -4.150000 0.249999 -0.250024
vertex -4.150000 0.999999 -0.250024
endloop
endfacet
facet normal 0.000000 0.000000 1.000000
outer loop
vertex -4.150000 0.999999 -0.250024
vertex -4.300000 0.999999 -0.250024
vertex -4.300000 0.249999 -0.250024
endloop
endfacet
facet normal 0.000000 0.000000 1.000000
outer loop
vertex -2.050000 -1.000000 -0.250024
vertex -1.000000 -1.000000 -0.250024
vertex -1.000000 -0.750000 -0.250024
endloop
endfacet
facet normal 0.000000 0.000000 1.000000
outer loop
vertex -1.000000 -0.750000 -0.250024
vertex -2.050000 -0.750000 -0.250024
vertex -2.050000 -1.000000 -0.250024
endloop
endfacet
facet normal 0.000000 0.000000 1.000000
outer loop
vertex -4.150000 -1.000000 -0.250024
vertex -3.050000 -1.000000 -0.250024
vertex -3.050000 -0.750000 -0.250024
endloop
endfacet
facet normal 0.000000 0.000000 1.000000
outer loop
vertex -3.050000 -0.750000 -0.250024
vertex -4.150000 -0.750000 -0.250024
vertex -4.150000 -1.000000 -0.250024
endloop
endfacet
facet normal 0.000000 0.000000 1.000000
outer loop
vertex -5.000000 -1.000000 -0.250024
vertex -4.300000 -1.000000 -0.250024
vertex -4.300000 -0.750000 -0.250024
endloop
endfacet
facet normal 0.000000 0.000000 1.000000
outer loop
vertex -4.300000 -0.750000 -0.250024
vertex -5.000000 -0.750000 -0.250024
vertex -5.000000 -1.000000 -0.250024
endloop
endfacet
facet normal 0.000000 0.000000 1.000000
outer loop
vertex -6.900000 -1.000000 -0.250024
vertex -6.000000 -1.000000 -0.250024
vertex -6.000000 -0.750000 -0.250024
endloop
endfacet
facet normal 0.000000 0.000000 1.000000
outer loop
vertex -6.000000 -0.750000 -0.250024
vertex -6.900000 -0.750000 -0.250024
vertex -6.900000 -1.000000 -0.250024
endloop
endfacet
facet normal 0.000000 0.000000 1.000000
outer loop
vertex -9.200001 -1.000000 -0.250024
vertex -8.400000 -1.000000 -0.250024
vertex -8.400000 -0.750000 -0.250024
endloop
endfacet
facet normal 0.000000 0.000000 1.000000
outer loop
vertex -8.400000 -0.750000 -0.250024
vertex -9.200001 -0.750000 -0.250024
vertex -9.200001 -1.000000 -0.250024
endloop
endfacet
facet normal 0.000000 0.000000 1.000000
outer loop
vertex -6.150000 -8.950000 -0.250024
vertex -5.175000 -8.950000 -0.250024
vertex -5.175000 -8.700000 -0.250024
endloop
endfacet
facet normal 0.000000 0.000000 1.000000
outer loop
vertex -5.175000 -8.700000 -0.250024
vertex -6.150000 -8.700000 -0.250024
vertex -6.150000 -8.950000 -0.250024
endloop
endfacet
facet normal 0.000000 0.000000 1.000000
outer loop
vertex -5.025000 -8.950000 -0.250024
vertex -4.050000 -8.950000 -0.250024
vertex -4.050000 -8.700000 -0.250024
endloop
endfacet
facet normal 0.000000 0.000000 1.000000
outer loop
vertex -4.050000 -8.700000 -0.250024
vertex -5.025000 -8.700000 -0.250024
vertex -5.025000 -8.950000 -0.250024
endloop
endfacet
facet normal 0.000000 0.000000 1.000000
outer loop
vertex -2.050000 -8.950000 -0.250024
vertex -1.250000 -8.950000 -0.250024
vertex -1.250000 -8.700000 -0.250024
endloop
endfacet
facet normal 0.000000 0.000000 1.000000
outer loop
vertex -1.250000 -8.700000 -0.250024
vertex -2.050000 -8.700000 -0.250024
vertex -2.050000 -8.950000 -0.250024
endloop
endfacet
facet normal 0.000000 0.000000 1.000000
outer loop
vertex -9.200001 -8.950000 -0.250024
vertex -8.150000 -8.950000 -0.250024
vertex -8.150000 -8.700000 -0.250024
endloop
endfacet
facet normal 0.000000 0.000000 1.000000
outer loop
vertex -8.150000 -8.700000 -0.250024
vertex -9.200001 -8.700000 -0.250024
vertex -9.200001 -8.950000 -0.250024
endloop
endfacet
facet normal 0.000000 0.000000 1.000000
outer loop
vertex -12.200001 -8.950000 -0.250024
vertex -10.700001 -8.950000 -0.250024
vertex -10.700001 -8.700000 -0.250024
endloop
endfacet
facet normal 0.000000 0.000000 1.000000
outer loop
vertex -10.700001 -8.700000 -0.250024
vertex -12.200001 -8.700000 -0.250024
vertex -12.200001 -8.950000 -0.250024
endloop
endfacet
facet normal 0.000000 0.000000 1.000000
outer loop
vertex -1.000000 -2.540001 -0.250024
vertex -1.000000 -1.000000 -0.250024
vertex -1.250000 -1.000000 -0.250024
endloop
endfacet
facet normal 0.000000 0.000000 1.000000
outer loop
vertex -1.250000 -1.000000 -0.250024
vertex -1.250000 -2.540001 -0.250024
vertex -1.000000 -2.540001 -0.250024
endloop
endfacet
facet normal 0.000000 0.000000 1.000000
outer loop
vertex -1.000000 -8.950002 -0.250024
vertex -1.000000 -7.160000 -0.250024
vertex -1.250000 -7.160000 -0.250024
endloop
endfacet
facet normal 0.000000 0.000000 1.000000
outer loop
vertex -1.250000 -7.160000 -0.250024
vertex -1.250000 -8.950002 -0.250024
vertex -1.000000 -8.950002 -0.250024
endloop
endfacet
facet normal 0.000000 0.000000 1.000000
outer loop
vertex -1.000000 -5.620001 -0.250024
vertex -1.000000 -4.080000 -0.250024
vertex -1.250000 -4.080000 -0.250024
endloop
endfacet
facet normal 0.000000 0.000000 1.000000
outer loop
vertex -1.250000 -4.080000 -0.250024
vertex -1.250000 -5.620001 -0.250024
vertex -1.000000 -5.620001 -0.250024
endloop
endfacet
facet normal 0.000000 0.000000 1.000000
outer loop
vertex -9.200000 -1.000000 -0.250024
vertex -9.200000 -1.400001 -0.250024
vertex -8.950000 -1.400001 -0.250024
endloop
endfacet
facet normal 0.000000 0.000000 1.000000
outer loop
vertex -8.950000 -1.400001 -0.250024
vertex -8.950000 -1.000000 -0.250024
vertex -9.200000 -1.000000 -0.250024
endloop
endfacet
facet normal 0.000000 0.000000 1.000000
outer loop
vertex -9.200000 -2.400001 -0.250024
vertex -9.200000 -2.800001 -0.250024
vertex -8.950000 -2.800001 -0.250024
endloop
endfacet
facet normal 0.000000 0.000000 1.000000
outer loop
vertex -8.950000 -2.800001 -0.250024
vertex -8.950000 -2.400001 -0.250024
vertex -9.200000 -2.400001 -0.250024
endloop
endfacet
facet normal 0.000000 0.000000 1.000000
outer loop
vertex -9.200000 -3.800001 -0.250024
vertex -9.200000 -4.400001 -0.250024
vertex -8.950000 -4.400001 -0.250024
endloop
endfacet
facet normal 0.000000 0.000000 1.000000
outer loop
vertex -8.950000 -4.400001 -0.250024
vertex -8.950000 -3.800001 -0.250024
vertex -9.200000 -3.800001 -0.250024
endloop
endfacet
facet normal 0.000000 0.000000 1.000000
outer loop
vertex -9.200000 -6.625000 -0.250024
vertex -9.200000 -8.700001 -0.250024
vertex -8.950000 -8.700001 -0.250024
endloop
endfacet
facet normal 0.000000 0.000000 1.000000
outer loop
vertex -8.950000 -8.700001 -0.250024
vertex -8.950000 -6.625000 -0.250024
vertex -9.200000 -6.625000 -0.250024
endloop
endfacet
facet normal 0.000000 0.000000 1.000000
outer loop
vertex -5.175000 -4.550000 -0.250024
vertex -5.175000 -5.933333 -0.250024
vertex -5.025000 -5.933333 -0.250024
endloop
endfacet
facet normal 0.000000 0.000000 1.000000
outer loop
vertex -5.025000 -5.933333 -0.250024
vertex -5.025000 -4.550000 -0.250024
vertex -5.175000 -4.550000 -0.250024
endloop
endfacet
facet normal 0.000000 0.000000 1.000000
outer loop
vertex -5.175000 -7.316668 -0.250024
vertex -5.175000 -8.700001 -0.250024
vertex -5.025000 -8.700001 -0.250024
endloop
endfacet
facet normal 0.000000 0.000000 1.000000
outer loop
vertex -5.025000 -8.700001 -0.250024
vertex -5.025000 -7.316668 -0.250024
vertex -5.175000 -7.316668 -0.250024
endloop
endfacet
facet normal 0.000000 0.000000 1.000000
outer loop
vertex -5.875000 -4.550000 -0.250000
vertex -5.175000 -4.550000 -0.250000
vertex -5.175000 -4.400000 -0.250000
endloop
endfacet
facet normal 0.000000 0.000000 1.000000
outer loop
vertex -5.175000 -4.400000 -0.250000
vertex -5.875000 -4.400000 -0.250000
vertex -5.875000 -4.550000 -0.250000
endloop
endfacet
facet normal 0.000000 0.000000 1.000000
outer loop
vertex -8.950000 -4.550001 -0.250000
vertex -6.875000 -4.550000 -0.250000
vertex -6.875000 -4.400000 -0.250000
endloop
endfacet
facet normal 0.000000 0.000000 1.000000
outer loop
vertex -6.875000 -4.400000 -0.250000
vertex -8.950000 -4.400002 -0.250000
vertex -8.950000 -4.550001 -0.250000
endloop
endfacet
facet normal 0.000000 0.000000 1.000000
outer loop
vertex -3.325000 -4.550000 -0.250000
vertex -2.633334 -4.550001 -0.250000
vertex -2.633334 -4.400001 -0.250000
endloop
endfacet
facet normal 0.000000 0.000000 1.000000
outer loop
vertex -2.633334 -4.400001 -0.250000
vertex -3.325000 -4.400000 -0.250000
vertex -3.325000 -4.550000 -0.250000
endloop
endfacet
facet normal 0.000000 0.000000 1.000000
outer loop
vertex -5.025000 -4.550000 -0.250000
vertex -4.325000 -4.550000 -0.250000
vertex -4.325000 -4.400000 -0.250000
endloop
endfacet
facet normal 0.000000 0.000000 1.000000
outer loop
vertex -4.325000 -4.400000 -0.250000
vertex -5.025000 -4.400000 -0.250000
vertex -5.025000 -4.550000 -0.250000
endloop
endfacet
facet normal 0.000000 0.000000 1.000000
outer loop
vertex -10.200000 -4.550001 -0.250000
vertex -9.200000 -4.550001 -0.250000
vertex -9.200000 -4.400002 -0.250000
endloop
endfacet
facet normal 0.000000 0.000000 1.000000
outer loop
vertex -9.200000 -4.400002 -0.250000
vertex -10.200000 -4.400002 -0.250000
vertex -10.200000 -4.550001 -0.250000
endloop
endfacet
facet normal 0.000000 0.000000 1.000000
outer loop
vertex -12.200000 -4.550001 -0.250000
vertex -11.200000 -4.550001 -0.250000
vertex -11.200000 -4.400002 -0.250000
endloop
endfacet
facet normal 0.000000 0.000000 1.000000
outer loop
vertex -11.200000 -4.400002 -0.250000
vertex -12.200000 -4.400002 -0.250000
vertex -12.200000 -4.550001 -0.250000
endloop
endfacet
facet normal 0.000000 0.000000 1.000000
outer loop
vertex -1.941667 -4.550001 -0.250000
vertex -1.250000 -4.550001 -0.250000
vertex -1.250000 -4.400002 -0.250000
endloop
endfacet
facet normal 0.000000 0.000000 1.000000
outer loop
vertex -1.250000 -4.400002 -0.250000
vertex -1.941667 -4.400001 -0.250000
vertex -1.941667 -4.550001 -0.250000
endloop
endfacet
facet normal 0.000000 0.000000 1.000000
outer loop
vertex -4.150000 -3.250000 -0.250024
vertex -4.150000 -2.500000 -0.250024
vertex -4.300000 -2.500000 -0.250024
endloop
endfacet
facet normal 0.000000 0.000000 1.000000
outer loop
vertex -4.300000 -2.500000 -0.250024
vertex -4.300000 -3.250000 -0.250024
vertex -4.150000 -3.250000 -0.250024
endloop
endfacet
facet normal 0.000000 0.000000 1.000000
outer loop
vertex -4.150000 -1.750000 -0.250024
vertex -4.150000 -1.000000 -0.250024
vertex -4.300000 -1.000000 -0.250024
endloop
endfacet
facet normal 0.000000 0.000000 1.000000
outer loop
vertex -4.300000 -1.000000 -0.250024
vertex -4.300000 -1.750000 -0.250024
vertex -4.150000 -1.750000 -0.250024
endloop
endfacet
facet normal 0.000000 0.000000 1.000000
outer loop
vertex -4.300000 -3.400001 -0.250024
vertex -4.050000 -3.400001 -0.250024
vertex -4.050000 -3.250000 -0.250024
endloop
endfacet
facet normal 0.000000 0.000000 1.000000
outer loop
vertex -4.050000 -3.250000 -0.250024
vertex -4.300000 -3.250000 -0.250024
vertex -4.300000 -3.400001 -0.250024
endloop
endfacet
facet normal 0.000000 0.000000 1.000000
outer loop
vertex -3.050000 -3.400001 -0.250024
vertex -2.950000 -3.400001 -0.250024
vertex -2.950000 -3.250000 -0.250024
endloop
endfacet
facet normal 0.000000 0.000000 1.000000
outer loop
vertex -2.950000 -3.250000 -0.250024
vertex -3.050000 -3.250000 -0.250024
vertex -3.050000 -3.400001 -0.250024
endloop
endfacet
facet normal 0.000000 0.000000 1.000000
outer loop
vertex -2.950000 -2.750000 -0.250024
vertex -2.950000 -3.000000 -0.250024
vertex -2.800000 -3.000000 -0.250024
endloop
endfacet
facet normal 0.000000 0.000000 1.000000
outer loop
vertex -2.800000 -3.000000 -0.250024
vertex -2.800000 -2.750000 -0.250024
vertex -2.950000 -2.750000 -0.250024
endloop
endfacet
facet normal 0.000000 0.000000 1.000000
outer loop
vertex -2.950000 -3.250000 -0.250024
vertex -2.950000 -3.400001 -0.250024
vertex -2.800000 -3.400001 -0.250024
endloop
endfacet
facet normal 0.000000 0.000000 1.000000
outer loop
vertex -2.800000 -3.400001 -0.250024
vertex -2.800000 -3.250000 -0.250024
vertex -2.950000 -3.250000 -0.250024
endloop
endfacet
facet normal 0.000000 0.000000 1.000000
outer loop
vertex -1.250000 -2.750000 -0.250024
vertex -1.766667 -2.750000 -0.250024
vertex -1.766667 -2.900001 -0.250024
endloop
endfacet
facet normal 0.000000 0.000000 1.000000
outer loop
vertex -1.766667 -2.900001 -0.250024
vertex -1.250000 -2.900001 -0.250024
vertex -1.250000 -2.750000 -0.250024
endloop
endfacet
facet normal 0.000000 0.000000 1.000000
outer loop
vertex -2.283334 -2.750000 -0.250024
vertex -2.800000 -2.750000 -0.250024
vertex -2.800000 -2.900001 -0.250024
endloop
endfacet
facet normal 0.000000 0.000000 1.000000
outer loop
vertex -2.800000 -2.900001 -0.250024
vertex -2.283334 -2.900001 -0.250024
vertex -2.283334 -2.750000 -0.250024
endloop
endfacet
facet normal 0.000000 0.000000 1.000000
outer loop
vertex -12.200001 -5.916667 -0.250024
vertex -12.200001 -4.400000 -0.250024
vertex -12.350000 -4.400000 -0.250024
endloop
endfacet
facet normal 0.000000 0.000000 1.000000
outer loop
vertex -12.350000 -4.400000 -0.250024
vertex -12.350000 -5.916667 -0.250024
vertex -12.200001 -5.916667 -0.250024
endloop
endfacet
facet normal 0.000000 0.000000 1.000000
outer loop
vertex -12.200001 -8.950002 -0.250024
vertex -12.200001 -7.433333 -0.250024
vertex -12.350000 -7.433333 -0.250024
endloop
endfacet
facet normal 0.000000 0.000000 1.000000
outer loop
vertex -12.350000 -7.433333 -0.250024
vertex -12.350000 -8.950002 -0.250024
vertex -12.200001 -8.950002 -0.250024
endloop
endfacet
facet normal 0.000000 0.000000 1.000000
outer loop
vertex -6.900000 -0.750000 -0.250024
vertex -8.400000 -0.750000 -0.250024
vertex -8.400000 -1.000000 -0.250024
endloop
endfacet
facet normal 0.000000 0.000000 1.000000
outer loop
vertex -8.400000 -1.000000 -0.250024
vertex -6.900000 -1.000000 -0.250024
vertex -6.900000 -0.750000 -0.250024
endloop
endfacet
facet normal 0.000000 0.000000 1.000000
outer loop
vertex -5.000000 -0.750000 -0.250024
vertex -6.000000 -0.750000 -0.250024
vertex -6.000000 -1.000000 -0.250024
endloop
endfacet
facet normal 0.000000 0.000000 1.000000
outer loop
vertex -6.000000 -1.000000 -0.250024
vertex -5.000000 -1.000000 -0.250024
vertex -5.000000 -0.750000 -0.250024
endloop
endfacet
facet normal 0.000000 0.000000 1.000000
outer loop
vertex -4.150000 -0.750000 -0.250024
vertex -4.300000 -0.750000 -0.250024
vertex -4.300000 -1.000000 -0.250024
endloop
endfacet
facet normal 0.000000 0.000000 1.000000
outer loop
vertex -4.300000 -1.000000 -0.250024
vertex -4.150000 -1.000000 -0.250024
vertex -4.150000 -0.750000 -0.250024
endloop
endfacet
facet normal 0.000000 0.000000 1.000000
outer loop
vertex -2.050000 -0.750000 -0.250024
vertex -3.050000 -0.750000 -0.250024
vertex -3.050000 -1.000000 -0.250024
endloop
endfacet
facet normal 0.000000 0.000000 1.000000
outer loop
vertex -3.050000 -1.000000 -0.250024
vertex -2.050000 -1.000000 -0.250024
vertex -2.050000 -0.750000 -0.250024
endloop
endfacet
facet normal 0.000000 0.000000 1.000000
outer loop
vertex -1.250000 -4.080000 -0.250024
vertex -1.000000 -4.080000 -0.250024
vertex -1.000000 -2.540001 -0.250024
endloop
endfacet
facet normal 0.000000 0.000000 1.000000
outer loop
vertex -1.000000 -2.540001 -0.250024
vertex -1.250000 -2.540001 -0.250024
vertex -1.250000 -4.080000 -0.250024
endloop
endfacet
facet normal 0.000000 0.000000 1.000000
outer loop
vertex -1.250000 -7.160000 -0.250024
vertex -1.000000 -7.160000 -0.250024
vertex -1.000000 -5.620001 -0.250024
endloop
endfacet
facet normal 0.000000 0.000000 1.000000
outer loop
vertex -1.000000 -5.620001 -0.250024
vertex -1.250000 -5.620001 -0.250024
vertex -1.250000 -7.160000 -0.250024
endloop
endfacet
facet normal 0.000000 0.000000 1.000000
outer loop
vertex -5.175000 -8.700000 -0.250024
vertex -5.175000 -8.950000 -0.250024
vertex -5.025000 -8.950000 -0.250024
endloop
endfacet
facet normal 0.000000 0.000000 1.000000
outer loop
vertex -5.025000 -8.950000 -0.250024
vertex -5.025000 -8.700000 -0.250024
vertex -5.175000 -8.700000 -0.250024
endloop
endfacet
facet normal 0.000000 0.000000 1.000000
outer loop
vertex -9.200001 -8.700000 -0.250024
vertex -10.700001 -8.700000 -0.250024
vertex -10.700001 -8.950000 -0.250024
endloop
endfacet
facet normal 0.000000 0.000000 1.000000
outer loop
vertex -10.700001 -8.950000 -0.250024
vertex -9.200001 -8.950000 -0.250024
vertex -9.200001 -8.700000 -0.250024
endloop
endfacet
facet normal 0.000000 0.000000 1.000000
outer loop
vertex -12.350000 -7.433333 -0.250024
vertex -12.200001 -7.433333 -0.250024
vertex -12.200001 -5.916667 -0.250024
endloop
endfacet
facet normal 0.000000 0.000000 1.000000
outer loop
vertex -12.200001 -5.916667 -0.250024
vertex -12.350000 -5.916667 -0.250024
vertex -12.350000 -7.433333 -0.250024
endloop
endfacet
facet normal 0.000000 0.000000 1.000000
outer loop
vertex -8.950000 -4.400001 -0.250024
vertex -9.200000 -4.400001 -0.250024
vertex -9.200000 -6.625000 -0.250024
endloop
endfacet
facet normal 0.000000 0.000000 1.000000
outer loop
vertex -9.200000 -6.625000 -0.250024
vertex -8.950000 -6.625000 -0.250024
vertex -8.950000 -4.400001 -0.250024
endloop
endfacet
facet normal 0.000000 0.000000 1.000000
outer loop
vertex -5.175000 -4.400000 -0.250000
vertex -5.175000 -4.550000 -0.250000
vertex -5.025000 -4.550000 -0.250000
endloop
endfacet
facet normal 0.000000 0.000000 1.000000
outer loop
vertex -5.025000 -4.550000 -0.250000
vertex -5.025000 -4.400000 -0.250000
vertex -5.175000 -4.400000 -0.250000
endloop
endfacet
facet normal 0.000000 0.000000 1.000000
outer loop
vertex -5.025000 -7.316668 -0.250024
vertex -5.025000 -5.933333 -0.250024
vertex -5.175000 -5.933333 -0.250024
endloop
endfacet
facet normal 0.000000 0.000000 1.000000
outer loop
vertex -5.175000 -5.933333 -0.250024
vertex -5.175000 -7.316668 -0.250024
vertex -5.025000 -7.316668 -0.250024
endloop
endfacet
facet normal 0.000000 0.000000 1.000000
outer loop
vertex -1.941667 -4.400001 -0.250000
vertex -2.633334 -4.400001 -0.250000
vertex -2.633334 -4.550001 -0.250000
endloop
endfacet
facet normal 0.000000 0.000000 1.000000
outer loop
vertex -2.633334 -4.550001 -0.250000
vertex -1.941667 -4.550001 -0.250000
vertex -1.941667 -4.400001 -0.250000
endloop
endfacet
facet normal 0.000000 0.000000 1.000000
outer loop
vertex -2.283334 -2.900001 -0.250024
vertex -1.766667 -2.900001 -0.250024
vertex -1.766667 -2.750000 -0.250024
endloop
endfacet
facet normal 0.000000 0.000000 1.000000
outer loop
vertex -1.766667 -2.750000 -0.250024
vertex -2.283334 -2.750000 -0.250024
vertex -2.283334 -2.900001 -0.250024
endloop
endfacet
facet normal 0.000000 0.000000 1.000000
outer loop
vertex -2.800000 -3.250000 -0.250024
vertex -2.800000 -3.000000 -0.250024
vertex -2.950000 -3.000000 -0.250024
endloop
endfacet
facet normal 0.000000 0.000000 1.000000
outer loop
vertex -2.950000 -3.000000 -0.250024
vertex -2.950000 -3.250000 -0.250024
vertex -2.800000 -3.250000 -0.250024
endloop
endfacet
facet normal 0.000000 0.000000 1.000000
outer loop
vertex -4.300000 -1.750000 -0.250024
vertex -4.300000 -2.500000 -0.250024
vertex -4.150000 -2.500000 -0.250024
endloop
endfacet
facet normal 0.000000 0.000000 1.000000
outer loop
vertex -4.150000 -2.500000 -0.250024
vertex -4.150000 -1.750000 -0.250024
vertex -4.300000 -1.750000 -0.250024
endloop
endfacet
endsolid Exported from Blender-2.78 (sub 0)
