solid Exported from Blender-2.78 (sub 0)
facet normal 0.000000 0.000000 1.000000
outer loop
vertex 21.995817 -10.388799 0.000000
vertex 21.995817 9.611201 0.000000
vertex 21.854580 9.462029 0.000000
endloop
endfacet
facet normal 0.000000 0.000000 1.000000
outer loop
vertex 21.854580 9.462029 0.000000
vertex 21.854580 -10.239626 0.000000
vertex 21.995817 -10.388799 0.000000
endloop
endfacet
facet normal 0.000000 0.000000 1.000000
outer loop
vertex 21.995817 9.611201 0.000000
vertex -13.004183 9.611201 0.000000
vertex -12.862946 9.462029 0.000000
endloop
endfacet
facet normal 0.000000 0.000000 1.000000
outer loop
vertex -12.862946 9.462029 0.000000
vertex 21.854580 9.462029 0.000000
vertex 21.995817 9.611201 0.000000
endloop
endfacet
facet normal 0.000000 0.000000 1.000000
outer loop
vertex -13.004183 -10.388799 0.000000
vertex 21.995817 -10.388799 0.000000
vertex 21.854580 -10.239626 0.000000
endloop
endfacet
facet normal 0.000000 0.000000 1.000000
outer loop
vertex 21.854580 -10.239626 0.000000
vertex -12.862946 -10.239626 0.000000
vertex -13.004183 -10.388799 0.000000
endloop
endfacet
facet normal 0.000000 0.000000 1.000000
outer loop
vertex -13.004183 9.611201 0.000000
vertex -13.004183 -10.388799 0.000000
vertex -12.862946 -10.239626 0.000000
endloop
endfacet
facet normal 0.000000 0.000000 1.000000
outer loop
vertex -12.862946 -10.239626 0.000000
vertex -12.862946 9.462029 0.000000
vertex -13.004183 9.611201 0.000000
endloop
endfacet
facet normal 0.000000 0.000000 1.000000
outer loop
vertex -0.750000 -0.750000 -0.250024
vertex -0.750000 -1.000000 -0.250024
vertex 0.050000 -1.000000 -0.250024
endloop
endfacet
facet normal 0.000000 0.000000 1.000000
outer loop
vertex 0.050000 -1.000000 -0.250024
vertex 0.050000 -0.750000 -0.250024
vertex -0.750000 -0.750000 -0.250024
endloop
endfacet
facet normal 0.000000 0.000000 1.000000
outer loop
vertex 2.150000 -1.000000 -0.250024
vertex 2.150000 -0.750000 -0.250024
vertex 1.050000 -0.750000 -0.250024
endloop
endfacet
facet normal 0.000000 0.000000 1.000000
outer loop
vertex 1.050000 -0.750000 -0.250024
vertex 1.050000 -1.000000 -0.250024
vertex 2.150000 -1.000000 -0.250024
endloop
endfacet
facet normal 0.000000 0.000000 1.000000
outer loop
vertex 3.000000 -1.000000 -0.250024
vertex 3.000000 -0.750000 -0.250024
vertex 2.300000 -0.750000 -0.250024
endloop
endfacet
facet normal 0.000000 0.000000 1.000000
outer loop
vertex 2.300000 -0.750000 -0.250024
vertex 2.300000 -1.000000 -0.250024
vertex 3.000000 -1.000000 -0.250024
endloop
endfacet
facet normal 0.000000 0.000000 1.000000
outer loop
vertex 4.900000 -1.000000 -0.250024
vertex 4.900000 -0.750000 -0.250024
vertex 4.000000 -0.750000 -0.250024
endloop
endfacet
facet normal 0.000000 0.000000 1.000000
outer loop
vertex 4.000000 -0.750000 -0.250024
vertex 4.000000 -1.000000 -0.250024
vertex 4.900000 -1.000000 -0.250024
endloop
endfacet
facet normal 0.000000 0.000000 1.000000
outer loop
vertex 6.950000 -1.000000 -0.250024
vertex 6.950000 -0.750000 -0.250024
vertex 6.400000 -0.750000 -0.250024
endloop
endfacet
facet normal 0.000000 0.000000 1.000000
outer loop
vertex 6.400000 -0.750000 -0.250024
vertex 6.400000 -1.000000 -0.250024
vertex 6.950000 -1.000000 -0.250024
endloop
endfacet
facet normal 0.000000 0.000000 1.000000
outer loop
vertex 4.150000 -8.950000 -0.250024
vertex 4.150000 -8.700000 -0.250024
vertex 3.175000 -8.700000 -0.250024
endloop
endfacet
facet normal 0.000000 0.000000 1.000000
outer loop
vertex 3.175000 -8.700000 -0.250024
vertex 3.175000 -8.950000 -0.250024
vertex 4.150000 -8.950000 -0.250024
endloop
endfacet
facet normal 0.000000 0.000000 1.000000
outer loop
vertex 3.025000 -8.950000 -0.250024
vertex 3.025000 -8.700000 -0.250024
vertex 2.050000 -8.700000 -0.250024
endloop
endfacet
facet normal 0.000000 0.000000 1.000000
outer loop
vertex 2.050000 -8.700000 -0.250024
vertex 2.050000 -8.950000 -0.250024
vertex 3.025000 -8.950000 -0.250024
endloop
endfacet
facet normal 0.000000 0.000000 1.000000
outer loop
vertex 0.050000 -8.950000 -0.250024
vertex 0.050000 -8.700000 -0.250024
vertex -0.750000 -8.700000 -0.250024
endloop
endfacet
facet normal 0.000000 0.000000 1.000000
outer loop
vertex -0.750000 -8.700000 -0.250024
vertex -0.750000 -8.950000 -0.250024
vertex 0.050000 -8.950000 -0.250024
endloop
endfacet
facet normal 0.000000 0.000000 1.000000
outer loop
vertex 6.950000 -8.950000 -0.250024
vertex 6.950000 -8.700000 -0.250024
vertex 6.150000 -8.700000 -0.250024
endloop
endfacet
facet normal 0.000000 0.000000 1.000000
outer loop
vertex 6.150000 -8.700000 -0.250024
vertex 6.150000 -8.950000 -0.250024
vertex 6.950000 -8.950000 -0.250024
endloop
endfacet
facet normal 0.000000 0.000000 1.000000
outer loop
vertex 10.200001 -8.950000 -0.250024
vertex 10.200001 -8.700000 -0.250024
vertex 8.700001 -8.700000 -0.250024
endloop
endfacet
facet normal 0.000000 0.000000 1.000000
outer loop
vertex 8.700001 -8.700000 -0.250024
vertex 8.700001 -8.950000 -0.250024
vertex 10.200001 -8.950000 -0.250024
endloop
endfacet
facet normal 0.000000 0.000000 1.000000
outer loop
vertex -1.000000 -2.540000 -0.250024
vertex -0.750000 -2.540000 -0.250024
vertex -0.750000 -1.000000 -0.250024
endloop
endfacet
facet normal 0.000000 0.000000 1.000000
outer loop
vertex -0.750000 -1.000000 -0.250024
vertex -1.000000 -1.000000 -0.250024
vertex -1.000000 -2.540000 -0.250024
endloop
endfacet
facet normal 0.000000 0.000000 1.000000
outer loop
vertex -1.000000 -8.700001 -0.250024
vertex -0.750000 -8.700001 -0.250024
vertex -0.750000 -7.160000 -0.250024
endloop
endfacet
facet normal 0.000000 0.000000 1.000000
outer loop
vertex -0.750000 -7.160000 -0.250024
vertex -1.000000 -7.160000 -0.250024
vertex -1.000000 -8.700001 -0.250024
endloop
endfacet
facet normal 0.000000 0.000000 1.000000
outer loop
vertex -1.000000 -5.620000 -0.250024
vertex -0.750000 -5.620000 -0.250024
vertex -0.750000 -4.080000 -0.250024
endloop
endfacet
facet normal 0.000000 0.000000 1.000000
outer loop
vertex -0.750000 -4.080000 -0.250024
vertex -1.000000 -4.080000 -0.250024
vertex -1.000000 -5.620000 -0.250024
endloop
endfacet
facet normal 0.000000 0.000000 1.000000
outer loop
vertex 7.200000 -1.000000 -0.250024
vertex 6.950000 -1.000000 -0.250024
vertex 6.950000 -1.400001 -0.250024
endloop
endfacet
facet normal 0.000000 0.000000 1.000000
outer loop
vertex 6.950000 -1.400001 -0.250024
vertex 7.200000 -1.400001 -0.250024
vertex 7.200000 -1.000000 -0.250024
endloop
endfacet
facet normal 0.000000 0.000000 1.000000
outer loop
vertex 7.200000 -2.400001 -0.250024
vertex 6.950000 -2.400001 -0.250024
vertex 6.950000 -2.800001 -0.250024
endloop
endfacet
facet normal 0.000000 0.000000 1.000000
outer loop
vertex 6.950000 -2.800001 -0.250024
vertex 7.200000 -2.800001 -0.250024
vertex 7.200000 -2.400001 -0.250024
endloop
endfacet
facet normal 0.000000 0.000000 1.000000
outer loop
vertex 7.200000 -3.800001 -0.250024
vertex 6.950000 -3.800001 -0.250024
vertex 6.950000 -4.400001 -0.250024
endloop
endfacet
facet normal 0.000000 0.000000 1.000000
outer loop
vertex 6.950000 -4.400001 -0.250024
vertex 7.200000 -4.400001 -0.250024
vertex 7.200000 -3.800001 -0.250024
endloop
endfacet
facet normal 0.000000 0.000000 1.000000
outer loop
vertex 7.200000 -6.625000 -0.250024
vertex 6.950000 -6.625000 -0.250024
vertex 6.950000 -8.700001 -0.250024
endloop
endfacet
facet normal 0.000000 0.000000 1.000000
outer loop
vertex 6.950000 -8.700001 -0.250024
vertex 7.200000 -8.700001 -0.250024
vertex 7.200000 -6.625000 -0.250024
endloop
endfacet
facet normal 0.000000 0.000000 1.000000
outer loop
vertex 3.175000 -4.550000 -0.250024
vertex 3.025000 -4.550000 -0.250024
vertex 3.025000 -5.933333 -0.250024
endloop
endfacet
facet normal 0.000000 0.000000 1.000000
outer loop
vertex 3.025000 -5.933333 -0.250024
vertex 3.175000 -5.933333 -0.250024
vertex 3.175000 -4.550000 -0.250024
endloop
endfacet
facet normal 0.000000 0.000000 1.000000
outer loop
vertex 3.175000 -7.316667 -0.250024
vertex 3.025000 -7.316667 -0.250024
vertex 3.025000 -8.700001 -0.250024
endloop
endfacet
facet normal 0.000000 0.000000 1.000000
outer loop
vertex 3.025000 -8.700001 -0.250024
vertex 3.175000 -8.700001 -0.250024
vertex 3.175000 -7.316667 -0.250024
endloop
endfacet
facet normal 0.000000 0.000000 1.000000
outer loop
vertex 3.875000 -4.550000 -0.250000
vertex 3.875000 -4.400000 -0.250000
vertex 3.175000 -4.400000 -0.250000
endloop
endfacet
facet normal 0.000000 0.000000 1.000000
outer loop
vertex 3.175000 -4.400000 -0.250000
vertex 3.175000 -4.550000 -0.250000
vertex 3.875000 -4.550000 -0.250000
endloop
endfacet
facet normal 0.000000 0.000000 1.000000
outer loop
vertex 6.950000 -4.550001 -0.250000
vertex 6.950000 -4.400001 -0.250000
vertex 4.875000 -4.400000 -0.250000
endloop
endfacet
facet normal 0.000000 0.000000 1.000000
outer loop
vertex 4.875000 -4.400000 -0.250000
vertex 4.875000 -4.550000 -0.250000
vertex 6.950000 -4.550001 -0.250000
endloop
endfacet
facet normal 0.000000 0.000000 1.000000
outer loop
vertex 1.325000 -4.550000 -0.250000
vertex 1.325000 -4.400000 -0.250000
vertex 0.633334 -4.400001 -0.250000
endloop
endfacet
facet normal 0.000000 0.000000 1.000000
outer loop
vertex 0.633334 -4.400001 -0.250000
vertex 0.633334 -4.550001 -0.250000
vertex 1.325000 -4.550000 -0.250000
endloop
endfacet
facet normal 0.000000 0.000000 1.000000
outer loop
vertex 3.025000 -4.550000 -0.250000
vertex 3.025000 -4.400000 -0.250000
vertex 2.325000 -4.400000 -0.250000
endloop
endfacet
facet normal 0.000000 0.000000 1.000000
outer loop
vertex 2.325000 -4.400000 -0.250000
vertex 2.325000 -4.550000 -0.250000
vertex 3.025000 -4.550000 -0.250000
endloop
endfacet
facet normal 0.000000 0.000000 1.000000
outer loop
vertex 8.200000 -4.550001 -0.250000
vertex 8.200000 -4.400001 -0.250000
vertex 7.200000 -4.400001 -0.250000
endloop
endfacet
facet normal 0.000000 0.000000 1.000000
outer loop
vertex 7.200000 -4.400001 -0.250000
vertex 7.200000 -4.550001 -0.250000
vertex 8.200000 -4.550001 -0.250000
endloop
endfacet
facet normal 0.000000 0.000000 1.000000
outer loop
vertex 10.200000 -4.550001 -0.250000
vertex 10.200000 -4.400001 -0.250000
vertex 9.200000 -4.400001 -0.250000
endloop
endfacet
facet normal 0.000000 0.000000 1.000000
outer loop
vertex 9.200000 -4.400001 -0.250000
vertex 9.200000 -4.550001 -0.250000
vertex 10.200000 -4.550001 -0.250000
endloop
endfacet
facet normal 0.000000 0.000000 1.000000
outer loop
vertex -0.058333 -4.550001 -0.250000
vertex -0.058333 -4.400001 -0.250000
vertex -0.750000 -4.400001 -0.250000
endloop
endfacet
facet normal 0.000000 0.000000 1.000000
outer loop
vertex -0.750000 -4.400001 -0.250000
vertex -0.750000 -4.550001 -0.250000
vertex -0.058333 -4.550001 -0.250000
endloop
endfacet
facet normal 0.000000 0.000000 1.000000
outer loop
vertex 2.150000 -3.250000 -0.250024
vertex 2.300000 -3.250000 -0.250024
vertex 2.300000 -2.500000 -0.250024
endloop
endfacet
facet normal 0.000000 0.000000 1.000000
outer loop
vertex 2.300000 -2.500000 -0.250024
vertex 2.150000 -2.500000 -0.250024
vertex 2.150000 -3.250000 -0.250024
endloop
endfacet
facet normal 0.000000 0.000000 1.000000
outer loop
vertex 2.150000 -1.750000 -0.250024
vertex 2.300000 -1.750000 -0.250024
vertex 2.300000 -1.000000 -0.250024
endloop
endfacet
facet normal 0.000000 0.000000 1.000000
outer loop
vertex 2.300000 -1.000000 -0.250024
vertex 2.150000 -1.000000 -0.250024
vertex 2.150000 -1.750000 -0.250024
endloop
endfacet
facet normal 0.000000 0.000000 1.000000
outer loop
vertex 2.150000 -3.400001 -0.250024
vertex 2.150000 -3.250000 -0.250024
vertex 2.050000 -3.250000 -0.250024
endloop
endfacet
facet normal 0.000000 0.000000 1.000000
outer loop
vertex 2.050000 -3.250000 -0.250024
vertex 2.050000 -3.400001 -0.250024
vertex 2.150000 -3.400001 -0.250024
endloop
endfacet
facet normal 0.000000 0.000000 1.000000
outer loop
vertex 1.050000 -3.400001 -0.250024
vertex 1.050000 -3.250000 -0.250024
vertex 0.950000 -3.250000 -0.250024
endloop
endfacet
facet normal 0.000000 0.000000 1.000000
outer loop
vertex 0.950000 -3.250000 -0.250024
vertex 0.950000 -3.400001 -0.250024
vertex 1.050000 -3.400001 -0.250024
endloop
endfacet
facet normal 0.000000 0.000000 1.000000
outer loop
vertex 0.950000 -2.750000 -0.250024
vertex 0.800000 -2.750000 -0.250024
vertex 0.800000 -3.000000 -0.250024
endloop
endfacet
facet normal 0.000000 0.000000 1.000000
outer loop
vertex 0.800000 -3.000000 -0.250024
vertex 0.950000 -3.000000 -0.250024
vertex 0.950000 -2.750000 -0.250024
endloop
endfacet
facet normal 0.000000 0.000000 1.000000
outer loop
vertex 0.950000 -3.250000 -0.250024
vertex 0.800000 -3.250000 -0.250024
vertex 0.800000 -3.400001 -0.250024
endloop
endfacet
facet normal 0.000000 0.000000 1.000000
outer loop
vertex 0.800000 -3.400001 -0.250024
vertex 0.950000 -3.400001 -0.250024
vertex 0.950000 -3.250000 -0.250024
endloop
endfacet
facet normal 0.000000 0.000000 1.000000
outer loop
vertex -0.750000 -2.750000 -0.250024
vertex -0.750000 -2.900001 -0.250024
vertex -0.233333 -2.900001 -0.250024
endloop
endfacet
facet normal 0.000000 0.000000 1.000000
outer loop
vertex -0.233333 -2.900001 -0.250024
vertex -0.233333 -2.750000 -0.250024
vertex -0.750000 -2.750000 -0.250024
endloop
endfacet
facet normal 0.000000 0.000000 1.000000
outer loop
vertex 0.283334 -2.750000 -0.250024
vertex 0.283334 -2.900001 -0.250024
vertex 0.800000 -2.900001 -0.250024
endloop
endfacet
facet normal 0.000000 0.000000 1.000000
outer loop
vertex 0.800000 -2.900001 -0.250024
vertex 0.800000 -2.750000 -0.250024
vertex 0.283334 -2.750000 -0.250024
endloop
endfacet
facet normal 0.000000 0.000000 1.000000
outer loop
vertex 10.200001 -5.916667 -0.250024
vertex 10.350000 -5.916667 -0.250024
vertex 10.350000 -4.400000 -0.250024
endloop
endfacet
facet normal 0.000000 0.000000 1.000000
outer loop
vertex 10.350000 -4.400000 -0.250024
vertex 10.200001 -4.400000 -0.250024
vertex 10.200001 -5.916667 -0.250024
endloop
endfacet
facet normal 0.000000 0.000000 1.000000
outer loop
vertex 10.200001 -8.950001 -0.250024
vertex 10.350000 -8.950001 -0.250024
vertex 10.350000 -7.433333 -0.250024
endloop
endfacet
facet normal 0.000000 0.000000 1.000000
outer loop
vertex 10.350000 -7.433333 -0.250024
vertex 10.200001 -7.433333 -0.250024
vertex 10.200001 -8.950001 -0.250024
endloop
endfacet
facet normal 0.000000 0.000000 1.000000
outer loop
vertex 20.650002 -1.000000 -0.250024
vertex 21.450001 -1.000000 -0.250024
vertex 21.450001 -0.750000 -0.250024
endloop
endfacet
facet normal 0.000000 0.000000 1.000000
outer loop
vertex 21.450001 -0.750000 -0.250024
vertex 20.650002 -0.750000 -0.250024
vertex 20.650002 -1.000000 -0.250024
endloop
endfacet
facet normal 0.000000 0.000000 1.000000
outer loop
vertex 18.550001 -1.000000 -0.250024
vertex 19.650002 -1.000000 -0.250024
vertex 19.650002 -0.750000 -0.250024
endloop
endfacet
facet normal 0.000000 0.000000 1.000000
outer loop
vertex 19.650002 -0.750000 -0.250024
vertex 18.550001 -0.750000 -0.250024
vertex 18.550001 -1.000000 -0.250024
endloop
endfacet
facet normal 0.000000 0.000000 1.000000
outer loop
vertex 17.700001 -1.000000 -0.250024
vertex 18.400002 -1.000000 -0.250024
vertex 18.400002 -0.750000 -0.250024
endloop
endfacet
facet normal 0.000000 0.000000 1.000000
outer loop
vertex 18.400002 -0.750000 -0.250024
vertex 17.700001 -0.750000 -0.250024
vertex 17.700001 -1.000000 -0.250024
endloop
endfacet
facet normal 0.000000 0.000000 1.000000
outer loop
vertex 15.800001 -1.000000 -0.250024
vertex 16.700001 -1.000000 -0.250024
vertex 16.700001 -0.750000 -0.250024
endloop
endfacet
facet normal 0.000000 0.000000 1.000000
outer loop
vertex 16.700001 -0.750000 -0.250024
vertex 15.800001 -0.750000 -0.250024
vertex 15.800001 -1.000000 -0.250024
endloop
endfacet
facet normal 0.000000 0.000000 1.000000
outer loop
vertex 13.750000 -1.000000 -0.250024
vertex 14.300001 -1.000000 -0.250024
vertex 14.300001 -0.750000 -0.250024
endloop
endfacet
facet normal 0.000000 0.000000 1.000000
outer loop
vertex 14.300001 -0.750000 -0.250024
vertex 13.750000 -0.750000 -0.250024
vertex 13.750000 -1.000000 -0.250024
endloop
endfacet
facet normal 0.000000 0.000000 1.000000
outer loop
vertex 16.550001 -8.950000 -0.250024
vertex 17.525002 -8.950000 -0.250024
vertex 17.525002 -8.700000 -0.250024
endloop
endfacet
facet normal 0.000000 0.000000 1.000000
outer loop
vertex 17.525002 -8.700000 -0.250024
vertex 16.550001 -8.700000 -0.250024
vertex 16.550001 -8.950000 -0.250024
endloop
endfacet
facet normal 0.000000 0.000000 1.000000
outer loop
vertex 17.675001 -8.950000 -0.250024
vertex 18.650002 -8.950000 -0.250024
vertex 18.650002 -8.700000 -0.250024
endloop
endfacet
facet normal 0.000000 0.000000 1.000000
outer loop
vertex 18.650002 -8.700000 -0.250024
vertex 17.675001 -8.700000 -0.250024
vertex 17.675001 -8.950000 -0.250024
endloop
endfacet
facet normal 0.000000 0.000000 1.000000
outer loop
vertex 20.650002 -8.950000 -0.250024
vertex 21.450001 -8.950000 -0.250024
vertex 21.450001 -8.700000 -0.250024
endloop
endfacet
facet normal 0.000000 0.000000 1.000000
outer loop
vertex 21.450001 -8.700000 -0.250024
vertex 20.650002 -8.700000 -0.250024
vertex 20.650002 -8.950000 -0.250024
endloop
endfacet
facet normal 0.000000 0.000000 1.000000
outer loop
vertex 13.750000 -8.950000 -0.250024
vertex 14.550001 -8.950000 -0.250024
vertex 14.550001 -8.700000 -0.250024
endloop
endfacet
facet normal 0.000000 0.000000 1.000000
outer loop
vertex 14.550001 -8.700000 -0.250024
vertex 13.750000 -8.700000 -0.250024
vertex 13.750000 -8.950000 -0.250024
endloop
endfacet
facet normal 0.000000 0.000000 1.000000
outer loop
vertex 10.500000 -8.950000 -0.250024
vertex 12.000000 -8.950000 -0.250024
vertex 12.000000 -8.700000 -0.250024
endloop
endfacet
facet normal 0.000000 0.000000 1.000000
outer loop
vertex 12.000000 -8.700000 -0.250024
vertex 10.500000 -8.700000 -0.250024
vertex 10.500000 -8.950000 -0.250024
endloop
endfacet
facet normal 0.000000 0.000000 1.000000
outer loop
vertex 21.700001 -2.540000 -0.250024
vertex 21.700001 -1.000000 -0.250024
vertex 21.450001 -1.000000 -0.250024
endloop
endfacet
facet normal 0.000000 0.000000 1.000000
outer loop
vertex 21.450001 -1.000000 -0.250024
vertex 21.450001 -2.540000 -0.250024
vertex 21.700001 -2.540000 -0.250024
endloop
endfacet
facet normal 0.000000 0.000000 1.000000
outer loop
vertex 21.700001 -8.700001 -0.250024
vertex 21.700001 -7.160000 -0.250024
vertex 21.450001 -7.160000 -0.250024
endloop
endfacet
facet normal 0.000000 0.000000 1.000000
outer loop
vertex 21.450001 -7.160000 -0.250024
vertex 21.450001 -8.700001 -0.250024
vertex 21.700001 -8.700001 -0.250024
endloop
endfacet
facet normal 0.000000 0.000000 1.000000
outer loop
vertex 21.700001 -5.620000 -0.250024
vertex 21.700001 -4.080000 -0.250024
vertex 21.450001 -4.080000 -0.250024
endloop
endfacet
facet normal 0.000000 0.000000 1.000000
outer loop
vertex 21.450001 -4.080000 -0.250024
vertex 21.450001 -5.620000 -0.250024
vertex 21.700001 -5.620000 -0.250024
endloop
endfacet
facet normal 0.000000 0.000000 1.000000
outer loop
vertex 13.500001 -1.000000 -0.250024
vertex 13.500001 -1.400001 -0.250024
vertex 13.750001 -1.400001 -0.250024
endloop
endfacet
facet normal 0.000000 0.000000 1.000000
outer loop
vertex 13.750001 -1.400001 -0.250024
vertex 13.750001 -1.000000 -0.250024
vertex 13.500001 -1.000000 -0.250024
endloop
endfacet
facet normal 0.000000 0.000000 1.000000
outer loop
vertex 13.500001 -2.400001 -0.250024
vertex 13.500001 -2.800001 -0.250024
vertex 13.750001 -2.800001 -0.250024
endloop
endfacet
facet normal 0.000000 0.000000 1.000000
outer loop
vertex 13.750001 -2.800001 -0.250024
vertex 13.750001 -2.400001 -0.250024
vertex 13.500001 -2.400001 -0.250024
endloop
endfacet
facet normal 0.000000 0.000000 1.000000
outer loop
vertex 13.500001 -3.800001 -0.250024
vertex 13.500001 -4.400001 -0.250024
vertex 13.750001 -4.400001 -0.250024
endloop
endfacet
facet normal 0.000000 0.000000 1.000000
outer loop
vertex 13.750001 -4.400001 -0.250024
vertex 13.750001 -3.800001 -0.250024
vertex 13.500001 -3.800001 -0.250024
endloop
endfacet
facet normal 0.000000 0.000000 1.000000
outer loop
vertex 13.500001 -6.625000 -0.250024
vertex 13.500001 -8.700001 -0.250024
vertex 13.750001 -8.700001 -0.250024
endloop
endfacet
facet normal 0.000000 0.000000 1.000000
outer loop
vertex 13.750001 -8.700001 -0.250024
vertex 13.750001 -6.625000 -0.250024
vertex 13.500001 -6.625000 -0.250024
endloop
endfacet
facet normal 0.000000 0.000000 1.000000
outer loop
vertex 17.525002 -4.550000 -0.250024
vertex 17.525002 -5.933333 -0.250024
vertex 17.675001 -5.933333 -0.250024
endloop
endfacet
facet normal 0.000000 0.000000 1.000000
outer loop
vertex 17.675001 -5.933333 -0.250024
vertex 17.675001 -4.550000 -0.250024
vertex 17.525002 -4.550000 -0.250024
endloop
endfacet
facet normal 0.000000 0.000000 1.000000
outer loop
vertex 17.525002 -7.316667 -0.250024
vertex 17.525002 -8.700001 -0.250024
vertex 17.675001 -8.700001 -0.250024
endloop
endfacet
facet normal 0.000000 0.000000 1.000000
outer loop
vertex 17.675001 -8.700001 -0.250024
vertex 17.675001 -7.316667 -0.250024
vertex 17.525002 -7.316667 -0.250024
endloop
endfacet
facet normal 0.000000 0.000000 1.000000
outer loop
vertex 16.825001 -4.550000 -0.250000
vertex 17.525002 -4.550000 -0.250000
vertex 17.525002 -4.400000 -0.250000
endloop
endfacet
facet normal 0.000000 0.000000 1.000000
outer loop
vertex 17.525002 -4.400000 -0.250000
vertex 16.825001 -4.400000 -0.250000
vertex 16.825001 -4.550000 -0.250000
endloop
endfacet
facet normal 0.000000 0.000000 1.000000
outer loop
vertex 13.750001 -4.550001 -0.250000
vertex 15.825001 -4.550000 -0.250000
vertex 15.825001 -4.400000 -0.250000
endloop
endfacet
facet normal 0.000000 0.000000 1.000000
outer loop
vertex 15.825001 -4.400000 -0.250000
vertex 13.750001 -4.400001 -0.250000
vertex 13.750001 -4.550001 -0.250000
endloop
endfacet
facet normal 0.000000 0.000000 1.000000
outer loop
vertex 19.375000 -4.550000 -0.250000
vertex 20.066668 -4.550001 -0.250000
vertex 20.066668 -4.400001 -0.250000
endloop
endfacet
facet normal 0.000000 0.000000 1.000000
outer loop
vertex 20.066668 -4.400001 -0.250000
vertex 19.375000 -4.400000 -0.250000
vertex 19.375000 -4.550000 -0.250000
endloop
endfacet
facet normal 0.000000 0.000000 1.000000
outer loop
vertex 17.675001 -4.550000 -0.250000
vertex 18.375000 -4.550000 -0.250000
vertex 18.375000 -4.400000 -0.250000
endloop
endfacet
facet normal 0.000000 0.000000 1.000000
outer loop
vertex 18.375000 -4.400000 -0.250000
vertex 17.675001 -4.400000 -0.250000
vertex 17.675001 -4.550000 -0.250000
endloop
endfacet
facet normal 0.000000 0.000000 1.000000
outer loop
vertex 12.500001 -4.550001 -0.250000
vertex 13.500001 -4.550001 -0.250000
vertex 13.500001 -4.400001 -0.250000
endloop
endfacet
facet normal 0.000000 0.000000 1.000000
outer loop
vertex 13.500001 -4.400001 -0.250000
vertex 12.500001 -4.400001 -0.250000
vertex 12.500001 -4.550001 -0.250000
endloop
endfacet
facet normal 0.000000 0.000000 1.000000
outer loop
vertex 10.500001 -4.550001 -0.250000
vertex 11.500001 -4.550001 -0.250000
vertex 11.500001 -4.400001 -0.250000
endloop
endfacet
facet normal 0.000000 0.000000 1.000000
outer loop
vertex 11.500001 -4.400001 -0.250000
vertex 10.500001 -4.400001 -0.250000
vertex 10.500001 -4.550001 -0.250000
endloop
endfacet
facet normal 0.000000 0.000000 1.000000
outer loop
vertex 20.758333 -4.550001 -0.250000
vertex 21.450001 -4.550001 -0.250000
vertex 21.450001 -4.400001 -0.250000
endloop
endfacet
facet normal 0.000000 0.000000 1.000000
outer loop
vertex 21.450001 -4.400001 -0.250000
vertex 20.758333 -4.400001 -0.250000
vertex 20.758333 -4.550001 -0.250000
endloop
endfacet
facet normal 0.000000 0.000000 1.000000
outer loop
vertex 18.550001 -3.250000 -0.250024
vertex 18.550001 -2.500000 -0.250024
vertex 18.400002 -2.500000 -0.250024
endloop
endfacet
facet normal 0.000000 0.000000 1.000000
outer loop
vertex 18.400002 -2.500000 -0.250024
vertex 18.400002 -3.250000 -0.250024
vertex 18.550001 -3.250000 -0.250024
endloop
endfacet
facet normal 0.000000 0.000000 1.000000
outer loop
vertex 18.550001 -1.750000 -0.250024
vertex 18.550001 -1.000000 -0.250024
vertex 18.400002 -1.000000 -0.250024
endloop
endfacet
facet normal 0.000000 0.000000 1.000000
outer loop
vertex 18.400002 -1.000000 -0.250024
vertex 18.400002 -1.750000 -0.250024
vertex 18.550001 -1.750000 -0.250024
endloop
endfacet
facet normal 0.000000 0.000000 1.000000
outer loop
vertex 18.550001 -3.400001 -0.250024
vertex 18.650002 -3.400001 -0.250024
vertex 18.650002 -3.250000 -0.250024
endloop
endfacet
facet normal 0.000000 0.000000 1.000000
outer loop
vertex 18.650002 -3.250000 -0.250024
vertex 18.550001 -3.250000 -0.250024
vertex 18.550001 -3.400001 -0.250024
endloop
endfacet
facet normal 0.000000 0.000000 1.000000
outer loop
vertex 19.650002 -3.400001 -0.250024
vertex 19.750000 -3.400001 -0.250024
vertex 19.750000 -3.250000 -0.250024
endloop
endfacet
facet normal 0.000000 0.000000 1.000000
outer loop
vertex 19.750000 -3.250000 -0.250024
vertex 19.650002 -3.250000 -0.250024
vertex 19.650002 -3.400001 -0.250024
endloop
endfacet
facet normal 0.000000 0.000000 1.000000
outer loop
vertex 19.750000 -2.750000 -0.250024
vertex 19.750000 -3.000000 -0.250024
vertex 19.900002 -3.000000 -0.250024
endloop
endfacet
facet normal 0.000000 0.000000 1.000000
outer loop
vertex 19.900002 -3.000000 -0.250024
vertex 19.900002 -2.750000 -0.250024
vertex 19.750000 -2.750000 -0.250024
endloop
endfacet
facet normal 0.000000 0.000000 1.000000
outer loop
vertex 19.750000 -3.250000 -0.250024
vertex 19.750000 -3.400001 -0.250024
vertex 19.900002 -3.400001 -0.250024
endloop
endfacet
facet normal 0.000000 0.000000 1.000000
outer loop
vertex 19.900002 -3.400001 -0.250024
vertex 19.900002 -3.250000 -0.250024
vertex 19.750000 -3.250000 -0.250024
endloop
endfacet
facet normal 0.000000 0.000000 1.000000
outer loop
vertex 21.450001 -2.750000 -0.250024
vertex 20.933334 -2.750000 -0.250024
vertex 20.933334 -2.900001 -0.250024
endloop
endfacet
facet normal 0.000000 0.000000 1.000000
outer loop
vertex 20.933334 -2.900001 -0.250024
vertex 21.450001 -2.900001 -0.250024
vertex 21.450001 -2.750000 -0.250024
endloop
endfacet
facet normal 0.000000 0.000000 1.000000
outer loop
vertex 20.416668 -2.750000 -0.250024
vertex 19.900002 -2.750000 -0.250024
vertex 19.900002 -2.900001 -0.250024
endloop
endfacet
facet normal 0.000000 0.000000 1.000000
outer loop
vertex 19.900002 -2.900001 -0.250024
vertex 20.416668 -2.900001 -0.250024
vertex 20.416668 -2.750000 -0.250024
endloop
endfacet
facet normal 0.000000 0.000000 1.000000
outer loop
vertex 10.500000 -5.916667 -0.250024
vertex 10.500000 -4.400000 -0.250024
vertex 10.350000 -4.400000 -0.250024
endloop
endfacet
facet normal 0.000000 0.000000 1.000000
outer loop
vertex 10.350000 -4.400000 -0.250024
vertex 10.350000 -5.916667 -0.250024
vertex 10.500000 -5.916667 -0.250024
endloop
endfacet
facet normal 0.000000 0.000000 1.000000
outer loop
vertex 10.500000 -8.950001 -0.250024
vertex 10.500000 -7.433333 -0.250024
vertex 10.350000 -7.433333 -0.250024
endloop
endfacet
facet normal 0.000000 0.000000 1.000000
outer loop
vertex 10.350000 -7.433333 -0.250024
vertex 10.350000 -8.950001 -0.250024
vertex 10.500000 -8.950001 -0.250024
endloop
endfacet
endsolid Exported from Blender-2.78 (sub 0)
