  0
SECTION
  2
HEADER
  9
$ACADVER
  1
AC1009
  9
$EXTMIN
 10
0.0
 20
0.0
 30
0.0
  9
$EXTMAX
 10
1000.0
 20
1000.0
 30
0.0
  9
$FILLMODE
 70
 0
  9
$SPLFRAME
 70
 1
  0
ENDSEC
  0
SECTION
  2
TABLES
  0
TABLE
  2
LAYER
 70
1
  0
LAYER
  2
0
 70
     0
 62
     7
  6
CONTINUOUS
  0
ENDTAB
  0
ENDSEC
  0
SECTION
  2
ENTITIES
  0
POLYLINE
  8
0
 62
     7
 66
     1
 10
0
 20
0
 30
0.0
 70
     1
 40
0
 41
0
  0
VERTEX
  8
0
 10
1.5976
 20
10.0018
 30
0.0
 40
0
 41
0
  0
VERTEX
  8
0
 10
7.07021
 20
10.0018
 30
0.0
 40
0
 41
0
  0
VERTEX
  8
0
 10
7.07021
 20
7.28028
 30
0.0
 40
0
 41
0
  0
VERTEX
  8
0
 10
1.5976
 20
7.28028
 30
0.0
 40
0
 41
0
  0
VERTEX
  8
0
 10
1.5976
 20
10.0018
 30
0.0
 40
0
 41
0
  0
SEQEND
 8
0
  0
POLYLINE
  8
0
 62
     7
 66
     1
 10
0
 20
0
 30
0.0
 70
     1
 40
0
 41
0
  0
VERTEX
  8
0
 10
0.573079
 20
7.24735
 30
0.0
 40
0
 41
0
  0
VERTEX
  8
0
 10
1.50635
 20
7.24735
 30
0.0
 40
0
 41
0
  0
VERTEX
  8
0
 10
1.50635
 20
3.48036
 30
0.0
 40
0
 41
0
  0
VERTEX
  8
0
 10
0.573079
 20
3.48036
 30
0.0
 40
0
 41
0
  0
VERTEX
  8
0
 10
0.573079
 20
7.24735
 30
0.0
 40
0
 41
0
  0
SEQEND
 8
0
  0
POLYLINE
  8
0
 62
     7
 66
     1
 10
0
 20
0
 30
0.0
 70
     1
 40
0
 41
0
  0
VERTEX
  8
0
 10
0.592503
 20
7.27094
 30
0.0
 40
0
 41
0
  0
VERTEX
  8
0
 10
1.50857
 20
9.94271
 30
0.0
 40
0
 41
0
  0
VERTEX
  8
0
 10
1.50863
 20
7.27094
 30
0.0
 40
0
 41
0
  0
SEQEND
 8
0
  0
POLYLINE
  8
0
 62
     7
 66
     1
 10
0
 20
0
 30
0.0
 70
     1
 40
0
 41
0
  0
VERTEX
  8
0
 10
1.46496
 20
9.94054
 30
0.0
 40
0
 41
0
  0
VERTEX
  8
0
 10
0.548828
 20
7.26882
 30
0.0
 40
0
 41
0
  0
VERTEX
  8
0
 10
0.548828
 20
9.94054
 30
0.0
 40
0
 41
0
  0
SEQEND
 8
0
  0
POLYLINE
  8
0
 62
     7
 66
     1
 10
0
 20
0
 30
0.0
 70
     1
 40
0
 41
0
  0
VERTEX
  8
0
 10
1.57167
 20
7.21528
 30
0.0
 40
0
 41
0
  0
VERTEX
  8
0
 10
7.04428
 20
7.21528
 30
0.0
 40
0
 41
0
  0
VERTEX
  8
0
 10
7.04428
 20
4.19874
 30
0.0
 40
0
 41
0
  0
VERTEX
  8
0
 10
1.57167
 20
4.19874
 30
0.0
 40
0
 41
0
  0
VERTEX
  8
0
 10
1.57167
 20
7.21528
 30
0.0
 40
0
 41
0
  0
SEQEND
 8
0
  0
POLYLINE
  8
0
 62
     0
 66
     1
 10
0
 20
0
 30
0.0
 70
     1
 40
0.458537
 41
0.458537
  0
VERTEX
  8
0
 10
1.5976
 20
10.0018
 30
0.0
 40
0.00636857
 41
0.00636857
  0
VERTEX
  8
0
 10
7.07021
 20
10.0018
 30
0.0
 40
0.00636857
 41
0.00636857
  0
VERTEX
  8
0
 10
7.07021
 20
7.28028
 30
0.0
 40
0.00636857
 41
0.00636857
  0
VERTEX
  8
0
 10
1.5976
 20
7.28028
 30
0.0
 40
0.00636857
 41
0.00636857
  0
VERTEX
  8
0
 10
1.5976
 20
10.0018
 30
0.0
 40
0.00636857
 41
0.00636857
  0
SEQEND
 8
0
  0
POLYLINE
  8
0
 62
     0
 66
     1
 10
0
 20
0
 30
0.0
 70
     1
 40
0.458537
 41
0.458537
  0
VERTEX
  8
0
 10
0.573079
 20
7.24735
 30
0.0
 40
0.00636857
 41
0.00636857
  0
VERTEX
  8
0
 10
1.50635
 20
7.24735
 30
0.0
 40
0.00636857
 41
0.00636857
  0
VERTEX
  8
0
 10
1.50635
 20
3.48036
 30
0.0
 40
0.00636857
 41
0.00636857
  0
VERTEX
  8
0
 10
0.573079
 20
3.48036
 30
0.0
 40
0.00636857
 41
0.00636857
  0
VERTEX
  8
0
 10
0.573079
 20
7.24735
 30
0.0
 40
0.00636857
 41
0.00636857
  0
SEQEND
 8
0
  0
POLYLINE
  8
0
 62
     0
 66
     1
 10
0
 20
0
 30
0.0
 70
     1
 40
0.458537
 41
0.458537
  0
VERTEX
  8
0
 10
0.592503
 20
7.27094
 30
0.0
 40
0.00636857
 41
0.00636857
  0
VERTEX
  8
0
 10
1.50857
 20
9.94271
 30
0.0
 40
0.00636857
 41
0.00636857
  0
VERTEX
  8
0
 10
1.50863
 20
7.27094
 30
0.0
 40
0.00636857
 41
0.00636857
  0
VERTEX
  8
0
 10
0.592503
 20
7.27094
 30
0.0
 40
0.00636857
 41
0.00636857
  0
SEQEND
 8
0
  0
POLYLINE
  8
0
 62
     0
 66
     1
 10
0
 20
0
 30
0.0
 70
     1
 40
0.458537
 41
0.458537
  0
VERTEX
  8
0
 10
1.46496
 20
9.94054
 30
0.0
 40
0.00636857
 41
0.00636857
  0
VERTEX
  8
0
 10
0.548828
 20
7.26882
 30
0.0
 40
0.00636857
 41
0.00636857
  0
VERTEX
  8
0
 10
0.548828
 20
9.94054
 30
0.0
 40
0.00636857
 41
0.00636857
  0
VERTEX
  8
0
 10
1.46496
 20
9.94054
 30
0.0
 40
0.00636857
 41
0.00636857
  0
SEQEND
 8
0
  0
POLYLINE
  8
0
 62
     0
 66
     1
 10
0
 20
0
 30
0.0
 70
     1
 40
0.458537
 41
0.458537
  0
VERTEX
  8
0
 10
1.57167
 20
7.21528
 30
0.0
 40
0.00636857
 41
0.00636857
  0
VERTEX
  8
0
 10
7.04428
 20
7.21528
 30
0.0
 40
0.00636857
 41
0.00636857
  0
VERTEX
  8
0
 10
7.04428
 20
4.19874
 30
0.0
 40
0.00636857
 41
0.00636857
  0
VERTEX
  8
0
 10
1.57167
 20
4.19874
 30
0.0
 40
0.00636857
 41
0.00636857
  0
VERTEX
  8
0
 10
1.57167
 20
7.21528
 30
0.0
 40
0.00636857
 41
0.00636857
  0
SEQEND
 8
0
  0
ENDSEC
  0
EOF
