<?xml version="1.0" standalone="no"?>
<!DOCTYPE svg PUBLIC "-//W3C//DTD SVG 1.1//EN" 
  "http://www.w3.org/Graphics/SVG/1.1/DTD/svg11.dtd">
<svg width="1024" height="1024" viewBox="0 0 1024 1024"
     xmlns="http://www.w3.org/2000/svg" version="1.1">
<desc>'haus.blend', Plane.017, (Blender 2.78 (sub 0))</desc>
<polygon stroke="black" stroke-width="1" fill="grey" fill-opacity="0.25" points="317.192,376.670 286.095,376.670 286.095,376.670 317.192,376.670 " />
<polygon stroke="black" stroke-width="1" fill="grey" fill-opacity="0.25" points="37.317,376.670 0.000,376.670 0.000,376.670 37.317,376.670 " />
<polygon stroke="black" stroke-width="1" fill="grey" fill-opacity="0.25" points="706.808,284.764 706.808,298.297 706.808,298.297 706.808,284.764 " />
<polygon stroke="black" stroke-width="1" fill="grey" fill-opacity="0.25" points="0.000,1024.000 37.317,1024.000 37.317,1024.000 0.000,1024.000 " />
<polygon stroke="black" stroke-width="1" fill="grey" fill-opacity="0.25" points="37.317,363.137 0.000,363.137 0.000,363.137 37.317,363.137 " />
<polygon stroke="black" stroke-width="1" fill="grey" fill-opacity="0.25" points="706.808,329.874 706.808,343.407 706.808,343.407 706.808,329.874 " />
<polygon stroke="black" stroke-width="1" fill="grey" fill-opacity="0.25" points="37.317,1024.000 37.317,1010.467 37.317,1010.467 37.317,1024.000 " />
<polygon stroke="black" stroke-width="1" fill="grey" fill-opacity="0.25" points="37.317,363.137 37.317,376.670 37.317,376.670 37.317,363.137 " />
<polygon stroke="black" stroke-width="1" fill="grey" fill-opacity="0.25" points="737.905,329.874 706.808,329.874 706.808,329.874 737.905,329.874 " />
<polygon stroke="black" stroke-width="1" fill="grey" fill-opacity="0.25" points="0.000,1010.467 0.000,1024.000 0.000,1024.000 0.000,1010.467 " />
<polygon stroke="black" stroke-width="1" fill="grey" fill-opacity="0.25" points="286.095,363.137 286.095,376.670 286.095,376.670 286.095,363.137 " />
<polygon stroke="black" stroke-width="1" fill="grey" fill-opacity="0.25" points="706.808,343.407 737.905,343.407 737.905,343.407 706.808,343.407 " />
<polygon stroke="black" stroke-width="1" fill="grey" fill-opacity="0.25" points="0.000,0.000 37.317,0.000 37.317,0.000 0.000,0.000 " />
<polygon stroke="black" stroke-width="1" fill="grey" fill-opacity="0.25" points="286.095,439.824 37.317,439.824 37.317,439.824 286.095,439.824 " />
<polygon stroke="black" stroke-width="1" fill="grey" fill-opacity="0.25" points="737.905,284.764 706.808,284.764 706.808,284.764 737.905,284.764 " />
<polygon stroke="black" stroke-width="1" fill="grey" fill-opacity="0.25" points="0.000,0.000 0.000,22.555 0.000,22.555 0.000,0.000 " />
<polygon stroke="black" stroke-width="1" fill="grey" fill-opacity="0.25" points="0.000,376.670 0.000,439.824 0.000,439.824 0.000,376.670 " />
<polygon stroke="black" stroke-width="1" fill="grey" fill-opacity="0.25" points="706.808,307.319 737.905,307.319 737.905,307.319 706.808,307.319 " />
<polygon stroke="black" stroke-width="1" fill="grey" fill-opacity="0.25" points="37.317,22.555 37.317,0.000 37.317,0.000 37.317,22.555 " />
<polygon stroke="black" stroke-width="1" fill="grey" fill-opacity="0.25" points="286.095,530.044 37.317,530.044 37.317,530.044 286.095,530.044 " />
<polygon stroke="black" stroke-width="1" fill="grey" fill-opacity="0.25" points="986.683,298.297 986.683,284.764 986.683,284.764 986.683,298.297 " />
<polygon stroke="black" stroke-width="1" fill="grey" fill-opacity="0.25" points="720.308,57.321 969.086,57.321 969.086,57.321 720.308,57.321 " />
<polygon stroke="black" stroke-width="1" fill="grey" fill-opacity="0.25" points="37.317,530.044 37.317,439.824 37.317,439.824 37.317,530.044 " />
<polygon stroke="black" stroke-width="1" fill="grey" fill-opacity="0.25" points="706.808,298.297 706.808,307.319 706.808,307.319 706.808,298.297 " />
<polygon stroke="black" stroke-width="1" fill="grey" fill-opacity="0.25" points="1006.403,57.321 1006.403,124.986 1006.403,124.986 1006.403,57.321 " />
<polygon stroke="black" stroke-width="1" fill="grey" fill-opacity="0.25" points="0.000,439.824 0.000,530.044 0.000,530.044 0.000,439.824 " />
<polygon stroke="black" stroke-width="1" fill="grey" fill-opacity="0.25" points="1024.000,298.297 986.683,298.297 986.683,298.297 1024.000,298.297 " />
<polygon stroke="black" stroke-width="1" fill="grey" fill-opacity="0.25" points="1006.403,260.317 969.086,260.317 969.086,260.317 1006.403,260.317 " />
<polygon stroke="black" stroke-width="1" fill="grey" fill-opacity="0.25" points="0.000,530.044 0.000,717.251 0.000,717.251 0.000,530.044 " />
<polygon stroke="black" stroke-width="1" fill="grey" fill-opacity="0.25" points="636.139,66.988 636.139,247.428 636.139,247.428 636.139,66.988 " />
<polygon stroke="black" stroke-width="1" fill="grey" fill-opacity="0.25" points="720.308,273.850 969.086,273.850 969.086,273.850 720.308,273.850 " />
<polygon stroke="black" stroke-width="1" fill="grey" fill-opacity="0.25" points="174.145,717.251 286.095,717.251 286.095,717.251 174.145,717.251 " />
<polygon stroke="black" stroke-width="1" fill="grey" fill-opacity="0.25" points="443.336,66.988 443.336,247.428 443.336,247.428 443.336,66.988 " />
<polygon stroke="black" stroke-width="1" fill="grey" fill-opacity="0.25" points="969.086,260.317 969.086,273.850 969.086,273.850 969.086,260.317 " />
<polygon stroke="black" stroke-width="1" fill="grey" fill-opacity="0.25" points="37.317,209.762 37.317,299.982 37.317,299.982 37.317,209.762 " />
<polygon stroke="black" stroke-width="1" fill="grey" fill-opacity="0.25" points="507.604,66.988 571.872,66.988 571.872,66.988 507.604,66.988 " />
<polygon stroke="black" stroke-width="1" fill="grey" fill-opacity="0.25" points="720.308,273.850 720.308,260.317 720.308,260.317 720.308,273.850 " />
<polygon stroke="black" stroke-width="1" fill="grey" fill-opacity="0.25" points="286.095,299.982 37.317,299.982 37.317,299.982 286.095,299.982 " />
<polygon stroke="black" stroke-width="1" fill="grey" fill-opacity="0.25" points="443.336,44.433 507.604,44.433 507.604,44.433 443.336,44.433 " />
<polygon stroke="black" stroke-width="1" fill="grey" fill-opacity="0.25" points="720.308,192.652 720.308,124.986 720.308,124.986 720.308,192.652 " />
<polygon stroke="black" stroke-width="1" fill="grey" fill-opacity="0.25" points="286.095,209.762 37.317,209.762 37.317,209.762 286.095,209.762 " />
<polygon stroke="black" stroke-width="1" fill="grey" fill-opacity="0.25" points="571.872,44.433 636.139,44.433 636.139,44.433 571.872,44.433 " />
<polygon stroke="black" stroke-width="1" fill="grey" fill-opacity="0.25" points="1006.403,192.652 1006.403,260.317 1006.403,260.317 1006.403,192.652 " />
<polygon stroke="black" stroke-width="1" fill="grey" fill-opacity="0.25" points="0.000,299.982 0.000,209.762 0.000,209.762 0.000,299.982 " />
<polygon stroke="black" stroke-width="1" fill="grey" fill-opacity="0.25" points="571.872,66.988 571.872,44.433 571.872,44.433 571.872,66.988 " />
<polygon stroke="black" stroke-width="1" fill="grey" fill-opacity="0.25" points="1006.403,124.986 1006.403,192.652 1006.403,192.652 1006.403,124.986 " />
<polygon stroke="black" stroke-width="1" fill="grey" fill-opacity="0.25" points="37.317,22.555 286.095,22.555 286.095,22.555 37.317,22.555 " />
<polygon stroke="black" stroke-width="1" fill="grey" fill-opacity="0.25" points="636.139,44.433 636.139,66.988 636.139,66.988 636.139,44.433 " />
<polygon stroke="black" stroke-width="1" fill="grey" fill-opacity="0.25" points="689.210,260.317 689.210,192.652 689.210,192.652 689.210,260.317 " />
<polygon stroke="black" stroke-width="1" fill="grey" fill-opacity="0.25" points="0.000,209.762 0.000,147.360 0.000,147.360 0.000,209.762 " />
<polygon stroke="black" stroke-width="1" fill="grey" fill-opacity="0.25" points="443.336,66.988 443.336,44.433 443.336,44.433 443.336,66.988 " />
<polygon stroke="black" stroke-width="1" fill="grey" fill-opacity="0.25" points="689.210,124.986 689.210,57.321 689.210,57.321 689.210,124.986 " />
<polygon stroke="black" stroke-width="1" fill="grey" fill-opacity="0.25" points="0.000,363.137 0.000,299.982 0.000,299.982 0.000,363.137 " />
<polygon stroke="black" stroke-width="1" fill="grey" fill-opacity="0.25" points="507.604,44.433 507.604,66.988 507.604,66.988 507.604,44.433 " />
<polygon stroke="black" stroke-width="1" fill="grey" fill-opacity="0.25" points="720.308,124.986 689.210,124.986 689.210,124.986 720.308,124.986 " />
<polygon stroke="black" stroke-width="1" fill="grey" fill-opacity="0.25" points="174.145,739.806 286.095,739.806 286.095,739.806 174.145,739.806 " />
<polygon stroke="black" stroke-width="1" fill="grey" fill-opacity="0.25" points="636.139,274.494 571.872,274.494 571.872,274.494 636.139,274.494 " />
<polygon stroke="black" stroke-width="1" fill="grey" fill-opacity="0.25" points="689.210,57.321 720.308,57.321 720.308,57.321 689.210,57.321 " />
<polygon stroke="black" stroke-width="1" fill="grey" fill-opacity="0.25" points="174.145,717.251 174.145,739.806 174.145,739.806 174.145,717.251 " />
<polygon stroke="black" stroke-width="1" fill="grey" fill-opacity="0.25" points="507.604,274.494 443.336,274.494 443.336,274.494 507.604,274.494 " />
<polygon stroke="black" stroke-width="1" fill="grey" fill-opacity="0.25" points="720.308,260.317 689.210,260.317 689.210,260.317 720.308,260.317 " />
<polygon stroke="black" stroke-width="1" fill="grey" fill-opacity="0.25" points="0.000,717.251 0.000,739.806 0.000,739.806 0.000,717.251 " />
<polygon stroke="black" stroke-width="1" fill="grey" fill-opacity="0.25" points="571.872,274.494 507.604,274.494 507.604,274.494 571.872,274.494 " />
<polygon stroke="black" stroke-width="1" fill="grey" fill-opacity="0.25" points="689.210,192.652 720.308,192.652 720.308,192.652 689.210,192.652 " />
<polygon stroke="black" stroke-width="1" fill="grey" fill-opacity="0.25" points="0.000,739.806 0.000,830.026 0.000,830.026 0.000,739.806 " />
<polygon stroke="black" stroke-width="1" fill="grey" fill-opacity="0.25" points="412.239,274.494 412.239,247.428 412.239,247.428 412.239,274.494 " />
<polygon stroke="black" stroke-width="1" fill="grey" fill-opacity="0.25" points="969.086,34.766 1006.403,34.766 1006.403,34.766 969.086,34.766 " />
<polygon stroke="black" stroke-width="1" fill="grey" fill-opacity="0.25" points="37.317,1010.467 286.095,1010.467 286.095,1010.467 37.317,1010.467 " />
<polygon stroke="black" stroke-width="1" fill="grey" fill-opacity="0.25" points="412.239,247.428 443.336,247.428 443.336,247.428 412.239,247.428 " />
<polygon stroke="black" stroke-width="1" fill="grey" fill-opacity="0.25" points="969.086,57.321 969.086,34.766 969.086,34.766 969.086,57.321 " />
<polygon stroke="black" stroke-width="1" fill="grey" fill-opacity="0.25" points="37.317,920.247 37.317,830.026 37.317,830.026 37.317,920.247 " />
<polygon stroke="black" stroke-width="1" fill="grey" fill-opacity="0.25" points="443.336,274.494 412.239,274.494 412.239,274.494 443.336,274.494 " />
<polygon stroke="black" stroke-width="1" fill="grey" fill-opacity="0.25" points="1006.403,34.766 1006.403,57.321 1006.403,57.321 1006.403,34.766 " />
<polygon stroke="black" stroke-width="1" fill="grey" fill-opacity="0.25" points="0.000,920.247 0.000,1010.467 0.000,1010.467 0.000,920.247 " />
<polygon stroke="black" stroke-width="1" fill="grey" fill-opacity="0.25" points="654.798,247.428 654.798,274.494 654.798,274.494 654.798,247.428 " />
<polygon stroke="black" stroke-width="1" fill="grey" fill-opacity="0.25" points="514.006,934.409 501.567,934.409 501.567,934.409 514.006,934.409 " />
<polygon stroke="black" stroke-width="1" fill="grey" fill-opacity="0.25" points="0.000,830.026 0.000,920.247 0.000,920.247 0.000,830.026 " />
<polygon stroke="black" stroke-width="1" fill="grey" fill-opacity="0.25" points="654.798,274.494 636.139,274.494 636.139,274.494 654.798,274.494 " />
<polygon stroke="black" stroke-width="1" fill="grey" fill-opacity="0.25" points="377.178,907.343 501.567,907.343 501.567,907.343 377.178,907.343 " />
<polygon stroke="black" stroke-width="1" fill="grey" fill-opacity="0.25" points="37.317,830.026 286.095,830.026 286.095,830.026 37.317,830.026 " />
<polygon stroke="black" stroke-width="1" fill="grey" fill-opacity="0.25" points="636.139,247.428 654.798,247.428 654.798,247.428 636.139,247.428 " />
<polygon stroke="black" stroke-width="1" fill="grey" fill-opacity="0.25" points="501.567,934.409 377.178,934.409 377.178,934.409 501.567,934.409 " />
<polygon stroke="black" stroke-width="1" fill="grey" fill-opacity="0.25" points="37.317,920.247 286.095,920.247 286.095,920.247 37.317,920.247 " />
<polygon stroke="black" stroke-width="1" fill="grey" fill-opacity="0.25" points="976.340,746.983 1013.657,746.983 1013.657,746.983 976.340,746.983 " />
<polygon stroke="black" stroke-width="1" fill="grey" fill-opacity="0.25" points="377.178,934.409 364.739,934.409 364.739,934.409 377.178,934.409 " />
<polygon stroke="black" stroke-width="1" fill="grey" fill-opacity="0.25" points="286.095,147.360 286.095,84.958 286.095,84.958 286.095,147.360 " />
<polygon stroke="black" stroke-width="1" fill="grey" fill-opacity="0.25" points="976.340,372.569 1013.657,372.569 1013.657,372.569 976.340,372.569 " />
<polygon stroke="black" stroke-width="1" fill="grey" fill-opacity="0.25" points="377.178,907.343 377.178,726.902 377.178,726.902 377.178,907.343 " />
<polygon stroke="black" stroke-width="1" fill="grey" fill-opacity="0.25" points="0.000,84.958 0.000,22.555 0.000,22.555 0.000,84.958 " />
<polygon stroke="black" stroke-width="1" fill="grey" fill-opacity="0.25" points="1013.657,746.983 1013.657,632.704 1013.657,632.704 1013.657,746.983 " />
<polygon stroke="black" stroke-width="1" fill="grey" fill-opacity="0.25" points="364.739,726.902 364.739,907.343 364.739,907.343 364.739,726.902 " />
<polygon stroke="black" stroke-width="1" fill="grey" fill-opacity="0.25" points="0.000,147.360 0.000,84.958 0.000,84.958 0.000,147.360 " />
<polygon stroke="black" stroke-width="1" fill="grey" fill-opacity="0.25" points="1013.657,495.870 1013.657,372.569 1013.657,372.569 1013.657,495.870 " />
<polygon stroke="black" stroke-width="1" fill="grey" fill-opacity="0.25" points="514.006,907.343 514.006,726.902 514.006,726.902 514.006,907.343 " />
<polygon stroke="black" stroke-width="1" fill="grey" fill-opacity="0.25" points="317.192,439.824 317.192,376.670 317.192,376.670 317.192,439.824 " />
<polygon stroke="black" stroke-width="1" fill="grey" fill-opacity="0.25" points="1013.657,632.704 1013.657,495.870 1013.657,495.870 1013.657,632.704 " />
<polygon stroke="black" stroke-width="1" fill="grey" fill-opacity="0.25" points="501.567,726.902 501.567,907.343 501.567,907.343 501.567,726.902 " />
<polygon stroke="black" stroke-width="1" fill="grey" fill-opacity="0.25" points="317.192,530.044 317.192,717.251 317.192,717.251 317.192,530.044 " />
<polygon stroke="black" stroke-width="1" fill="grey" fill-opacity="0.25" points="727.562,495.870 727.562,632.704 727.562,632.704 727.562,495.870 " />
<polygon stroke="black" stroke-width="1" fill="grey" fill-opacity="0.25" points="532.664,907.343 532.664,934.409 532.664,934.409 532.664,907.343 " />
<polygon stroke="black" stroke-width="1" fill="grey" fill-opacity="0.25" points="317.192,209.762 317.192,147.360 317.192,147.360 317.192,209.762 " />
<polygon stroke="black" stroke-width="1" fill="grey" fill-opacity="0.25" points="696.464,372.569 696.464,495.870 696.464,495.870 696.464,372.569 " />
<polygon stroke="black" stroke-width="1" fill="grey" fill-opacity="0.25" points="386.214,682.826 634.992,682.826 634.992,682.826 386.214,682.826 " />
<polygon stroke="black" stroke-width="1" fill="grey" fill-opacity="0.25" points="514.006,934.409 532.664,934.409 532.664,934.409 514.006,934.409 " />
<polygon stroke="black" stroke-width="1" fill="grey" fill-opacity="0.25" points="317.192,299.982 317.192,363.137 317.192,363.137 317.192,299.982 " />
<polygon stroke="black" stroke-width="1" fill="grey" fill-opacity="0.25" points="696.464,632.704 696.464,746.983 696.464,746.983 696.464,632.704 " />
<polygon stroke="black" stroke-width="1" fill="grey" fill-opacity="0.25" points="386.214,308.412 634.992,308.412 634.992,308.412 386.214,308.412 " />
<polygon stroke="black" stroke-width="1" fill="grey" fill-opacity="0.25" points="532.664,907.343 514.006,907.343 514.006,907.343 532.664,907.343 " />
<polygon stroke="black" stroke-width="1" fill="grey" fill-opacity="0.25" points="317.192,739.806 317.192,830.026 317.192,830.026 317.192,739.806 " />
<polygon stroke="black" stroke-width="1" fill="grey" fill-opacity="0.25" points="696.464,632.704 727.562,632.704 727.562,632.704 696.464,632.704 " />
<polygon stroke="black" stroke-width="1" fill="grey" fill-opacity="0.25" points="672.308,682.826 672.308,558.021 672.308,558.021 672.308,682.826 " />
<polygon stroke="black" stroke-width="1" fill="grey" fill-opacity="0.25" points="346.080,907.343 346.080,934.409 346.080,934.409 346.080,907.343 " />
<polygon stroke="black" stroke-width="1" fill="grey" fill-opacity="0.25" points="317.192,920.247 317.192,1010.467 317.192,1010.467 317.192,920.247 " />
<polygon stroke="black" stroke-width="1" fill="grey" fill-opacity="0.25" points="727.562,495.870 696.464,495.870 696.464,495.870 727.562,495.870 " />
<polygon stroke="black" stroke-width="1" fill="grey" fill-opacity="0.25" points="634.992,294.879 672.308,294.879 672.308,294.879 634.992,294.879 " />
<polygon stroke="black" stroke-width="1" fill="grey" fill-opacity="0.25" points="364.739,907.343 346.080,907.343 346.080,907.343 364.739,907.343 " />
<polygon stroke="black" stroke-width="1" fill="grey" fill-opacity="0.25" points="317.192,84.958 317.192,22.555 317.192,22.555 317.192,84.958 " />
<polygon stroke="black" stroke-width="1" fill="grey" fill-opacity="0.25" points="727.562,769.538 976.340,769.538 976.340,769.538 727.562,769.538 " />
<polygon stroke="black" stroke-width="1" fill="grey" fill-opacity="0.25" points="672.308,308.412 672.308,294.879 672.308,294.879 672.308,308.412 " />
<polygon stroke="black" stroke-width="1" fill="grey" fill-opacity="0.25" points="346.080,934.409 364.739,934.409 364.739,934.409 346.080,934.409 " />
<polygon stroke="black" stroke-width="1" fill="grey" fill-opacity="0.25" points="286.095,209.762 317.192,209.762 317.192,209.762 286.095,209.762 " />
<polygon stroke="black" stroke-width="1" fill="grey" fill-opacity="0.25" points="727.562,769.538 696.464,769.538 696.464,769.538 727.562,769.538 " />
<polygon stroke="black" stroke-width="1" fill="grey" fill-opacity="0.25" points="634.992,294.879 634.992,308.412 634.992,308.412 634.992,294.879 " />
<polygon stroke="black" stroke-width="1" fill="grey" fill-opacity="0.25" points="501.567,704.347 514.006,704.347 514.006,704.347 501.567,704.347 " />
<polygon stroke="black" stroke-width="1" fill="grey" fill-opacity="0.25" points="317.192,147.360 286.095,147.360 286.095,147.360 317.192,147.360 " />
<polygon stroke="black" stroke-width="1" fill="grey" fill-opacity="0.25" points="696.464,769.538 696.464,746.983 696.464,746.983 696.464,769.538 " />
<polygon stroke="black" stroke-width="1" fill="grey" fill-opacity="0.25" points="672.308,433.217 672.308,308.412 672.308,308.412 672.308,433.217 " />
<polygon stroke="black" stroke-width="1" fill="grey" fill-opacity="0.25" points="514.006,726.902 514.006,704.347 514.006,704.347 514.006,726.902 " />
<polygon stroke="black" stroke-width="1" fill="grey" fill-opacity="0.25" points="286.095,363.137 317.192,363.137 317.192,363.137 286.095,363.137 " />
<polygon stroke="black" stroke-width="1" fill="grey" fill-opacity="0.25" points="976.340,746.983 976.340,769.538 976.340,769.538 976.340,746.983 " />
<polygon stroke="black" stroke-width="1" fill="grey" fill-opacity="0.25" points="672.308,558.021 672.308,433.217 672.308,433.217 672.308,558.021 " />
<polygon stroke="black" stroke-width="1" fill="grey" fill-opacity="0.25" points="501.567,704.347 501.567,726.902 501.567,726.902 501.567,704.347 " />
<polygon stroke="black" stroke-width="1" fill="grey" fill-opacity="0.25" points="317.192,299.982 286.095,299.982 286.095,299.982 317.192,299.982 " />
<polygon stroke="black" stroke-width="1" fill="grey" fill-opacity="0.25" points="727.562,359.036 976.340,359.036 976.340,359.036 727.562,359.036 " />
<polygon stroke="black" stroke-width="1" fill="grey" fill-opacity="0.25" points="386.214,433.217 386.214,558.021 386.214,558.021 386.214,433.217 " />
<polygon stroke="black" stroke-width="1" fill="grey" fill-opacity="0.25" points="364.739,704.347 377.178,704.347 377.178,704.347 364.739,704.347 " />
<polygon stroke="black" stroke-width="1" fill="grey" fill-opacity="0.25" points="286.095,830.026 317.192,830.026 317.192,830.026 286.095,830.026 " />
<polygon stroke="black" stroke-width="1" fill="grey" fill-opacity="0.25" points="696.464,359.036 727.562,359.036 727.562,359.036 696.464,359.036 " />
<polygon stroke="black" stroke-width="1" fill="grey" fill-opacity="0.25" points="355.116,308.412 355.116,433.217 355.116,433.217 355.116,308.412 " />
<polygon stroke="black" stroke-width="1" fill="grey" fill-opacity="0.25" points="377.178,726.902 377.178,704.347 377.178,704.347 377.178,726.902 " />
<polygon stroke="black" stroke-width="1" fill="grey" fill-opacity="0.25" points="317.192,739.806 286.095,739.806 286.095,739.806 317.192,739.806 " />
<polygon stroke="black" stroke-width="1" fill="grey" fill-opacity="0.25" points="696.464,372.569 696.464,359.036 696.464,359.036 696.464,372.569 " />
<polygon stroke="black" stroke-width="1" fill="grey" fill-opacity="0.25" points="355.116,558.021 355.116,682.826 355.116,682.826 355.116,558.021 " />
<polygon stroke="black" stroke-width="1" fill="grey" fill-opacity="0.25" points="364.739,704.347 364.739,726.902 364.739,726.902 364.739,704.347 " />
<polygon stroke="black" stroke-width="1" fill="grey" fill-opacity="0.25" points="286.095,1010.467 317.192,1010.467 317.192,1010.467 286.095,1010.467 " />
<polygon stroke="black" stroke-width="1" fill="grey" fill-opacity="0.25" points="976.340,359.036 976.340,372.569 976.340,372.569 976.340,359.036 " />
<polygon stroke="black" stroke-width="1" fill="grey" fill-opacity="0.25" points="386.214,558.021 355.116,558.021 355.116,558.021 386.214,558.021 " />
<polygon stroke="black" stroke-width="1" fill="grey" fill-opacity="0.25" points="737.905,284.764 986.683,284.764 986.683,284.764 737.905,284.764 " />
<polygon stroke="black" stroke-width="1" fill="grey" fill-opacity="0.25" points="317.192,920.247 286.095,920.247 286.095,920.247 317.192,920.247 " />
<polygon stroke="black" stroke-width="1" fill="grey" fill-opacity="0.25" points="355.116,682.826 386.214,682.826 386.214,682.826 355.116,682.826 " />
<polygon stroke="black" stroke-width="1" fill="grey" fill-opacity="0.25" points="1024.000,329.874 1024.000,307.319 1024.000,307.319 1024.000,329.874 " />
<polygon stroke="black" stroke-width="1" fill="grey" fill-opacity="0.25" points="286.095,84.958 317.192,84.958 317.192,84.958 286.095,84.958 " />
<polygon stroke="black" stroke-width="1" fill="grey" fill-opacity="0.25" points="386.214,308.412 355.116,308.412 355.116,308.412 386.214,308.412 " />
<polygon stroke="black" stroke-width="1" fill="grey" fill-opacity="0.25" points="986.683,329.874 1024.000,329.874 1024.000,329.874 986.683,329.874 " />
<polygon stroke="black" stroke-width="1" fill="grey" fill-opacity="0.25" points="317.192,22.555 286.095,22.555 286.095,22.555 317.192,22.555 " />
<polygon stroke="black" stroke-width="1" fill="grey" fill-opacity="0.25" points="355.116,433.217 386.214,433.217 386.214,433.217 355.116,433.217 " />
<polygon stroke="black" stroke-width="1" fill="grey" fill-opacity="0.25" points="737.905,343.407 986.683,343.407 986.683,343.407 737.905,343.407 " />
<polygon stroke="black" stroke-width="1" fill="grey" fill-opacity="0.25" points="286.095,717.251 317.192,717.251 317.192,717.251 286.095,717.251 " />
<polygon stroke="black" stroke-width="1" fill="grey" fill-opacity="0.25" points="634.992,705.381 672.308,705.381 672.308,705.381 634.992,705.381 " />
<polygon stroke="black" stroke-width="1" fill="grey" fill-opacity="0.25" points="986.683,343.407 986.683,329.874 986.683,329.874 986.683,343.407 " />
<polygon stroke="black" stroke-width="1" fill="grey" fill-opacity="0.25" points="317.192,530.044 286.095,530.044 286.095,530.044 317.192,530.044 " />
<polygon stroke="black" stroke-width="1" fill="grey" fill-opacity="0.25" points="672.308,705.381 672.308,682.826 672.308,682.826 672.308,705.381 " />
<polygon stroke="black" stroke-width="1" fill="grey" fill-opacity="0.25" points="737.905,307.319 737.905,329.874 737.905,329.874 737.905,307.319 " />
<polygon stroke="black" stroke-width="1" fill="grey" fill-opacity="0.25" points="286.095,439.824 317.192,439.824 317.192,439.824 286.095,439.824 " />
<polygon stroke="black" stroke-width="1" fill="grey" fill-opacity="0.25" points="634.992,682.826 634.992,705.381 634.992,705.381 634.992,682.826 " />
<polygon stroke="black" stroke-width="1" fill="grey" fill-opacity="0.25" points="1024.000,307.319 1024.000,298.297 1024.000,298.297 1024.000,307.319 " />

</svg>
