  0
SECTION
  2
HEADER
  9
$ACADVER
  1
AC1009
  9
$EXTMIN
 10
0.0
 20
0.0
 30
0.0
  9
$EXTMAX
 10
1000.0
 20
1000.0
 30
0.0
  9
$FILLMODE
 70
 0
  9
$SPLFRAME
 70
 1
  0
ENDSEC
  0
SECTION
  2
TABLES
  0
TABLE
  2
LAYER
 70
1
  0
LAYER
  2
0
 70
     0
 62
     7
  6
CONTINUOUS
  0
ENDTAB
  0
ENDSEC
  0
SECTION
  2
ENTITIES
  0
POLYLINE
  8
0
 62
     0
 66
     1
 10
0
 20
0
 30
0.0
 70
     1
 40
0.273893
 41
0.273893
  0
VERTEX
  8
0
 10
3.01742
 20
5.75168
 30
0.0
 40
0.00380407
 41
0.00380407
  0
VERTEX
  8
0
 10
3.07021
 20
5.75168
 30
0.0
 40
0.00380407
 41
0.00380407
  0
VERTEX
  8
0
 10
3.01742
 20
5.75168
 30
0.0
 40
0.00380407
 41
0.00380407
  0
SEQEND
 8
0
  0
POLYLINE
  8
0
 62
     0
 66
     1
 10
0
 20
0
 30
0.0
 70
     1
 40
0.273893
 41
0.273893
  0
VERTEX
  8
0
 10
1.76421
 20
7.03982
 30
0.0
 40
0.00380407
 41
0.00380407
  0
VERTEX
  8
0
 10
1.76421
 20
6.13781
 30
0.0
 40
0.00380407
 41
0.00380407
  0
VERTEX
  8
0
 10
1.76421
 20
7.03982
 30
0.0
 40
0.00380407
 41
0.00380407
  0
SEQEND
 8
0
  0
POLYLINE
  8
0
 62
     0
 66
     1
 10
0
 20
0
 30
0.0
 70
     1
 40
0.273893
 41
0.273893
  0
VERTEX
  8
0
 10
3.54563
 20
5.75168
 30
0.0
 40
0.00380407
 41
0.00380407
  0
VERTEX
  8
0
 10
3.54563
 20
5.88699
 30
0.0
 40
0.00380407
 41
0.00380407
  0
VERTEX
  8
0
 10
3.54563
 20
5.75168
 30
0.0
 40
0.00380407
 41
0.00380407
  0
SEQEND
 8
0
  0
POLYLINE
  8
0
 62
     0
 66
     1
 10
0
 20
0
 30
0.0
 70
     1
 40
0.273893
 41
0.273893
  0
VERTEX
  8
0
 10
4.78097
 20
6.13781
 30
0.0
 40
0.00380407
 41
0.00380407
  0
VERTEX
  8
0
 10
5.02458
 20
6.13781
 30
0.0
 40
0.00380407
 41
0.00380407
  0
VERTEX
  8
0
 10
4.78097
 20
6.13781
 30
0.0
 40
0.00380407
 41
0.00380407
  0
SEQEND
 8
0
  0
POLYLINE
  8
0
 62
     0
 66
     1
 10
0
 20
0
 30
0.0
 70
     1
 40
0.273893
 41
0.273893
  0
VERTEX
  8
0
 10
3.49278
 20
5.75168
 30
0.0
 40
0.00380407
 41
0.00380407
  0
VERTEX
  8
0
 10
3.54563
 20
5.75168
 30
0.0
 40
0.00380407
 41
0.00380407
  0
VERTEX
  8
0
 10
3.49278
 20
5.75168
 30
0.0
 40
0.00380407
 41
0.00380407
  0
SEQEND
 8
0
  0
POLYLINE
  8
0
 62
     0
 66
     1
 10
0
 20
0
 30
0.0
 70
     1
 40
0.273893
 41
0.273893
  0
VERTEX
  8
0
 10
5.02458
 20
7.17507
 30
0.0
 40
0.00380407
 41
0.00380407
  0
VERTEX
  8
0
 10
5.26812
 20
7.17507
 30
0.0
 40
0.00380407
 41
0.00380407
  0
VERTEX
  8
0
 10
5.02458
 20
7.17507
 30
0.0
 40
0.00380407
 41
0.00380407
  0
SEQEND
 8
0
  0
POLYLINE
  8
0
 62
     0
 66
     1
 10
0
 20
0
 30
0.0
 70
     1
 40
0.273893
 41
0.273893
  0
VERTEX
  8
0
 10
3.54563
 20
5.88699
 30
0.0
 40
0.00380407
 41
0.00380407
  0
VERTEX
  8
0
 10
3.49278
 20
5.88699
 30
0.0
 40
0.00380407
 41
0.00380407
  0
VERTEX
  8
0
 10
3.54563
 20
5.88699
 30
0.0
 40
0.00380407
 41
0.00380407
  0
SEQEND
 8
0
  0
POLYLINE
  8
0
 62
     0
 66
     1
 10
0
 20
0
 30
0.0
 70
     1
 40
0.273893
 41
0.273893
  0
VERTEX
  8
0
 10
4.78097
 20
7.17507
 30
0.0
 40
0.00380407
 41
0.00380407
  0
VERTEX
  8
0
 10
5.02458
 20
7.17507
 30
0.0
 40
0.00380407
 41
0.00380407
  0
VERTEX
  8
0
 10
4.78097
 20
7.17507
 30
0.0
 40
0.00380407
 41
0.00380407
  0
SEQEND
 8
0
  0
POLYLINE
  8
0
 62
     0
 66
     1
 10
0
 20
0
 30
0.0
 70
     1
 40
0.273893
 41
0.273893
  0
VERTEX
  8
0
 10
3.10547
 20
4.73693
 30
0.0
 40
0.00380407
 41
0.00380407
  0
VERTEX
  8
0
 10
3.07021
 20
4.73693
 30
0.0
 40
0.00380407
 41
0.00380407
  0
VERTEX
  8
0
 10
3.10547
 20
4.73693
 30
0.0
 40
0.00380407
 41
0.00380407
  0
SEQEND
 8
0
  0
POLYLINE
  8
0
 62
     0
 66
     1
 10
0
 20
0
 30
0.0
 70
     1
 40
0.273893
 41
0.273893
  0
VERTEX
  8
0
 10
3.63943
 20
6.02507
 30
0.0
 40
0.00380407
 41
0.00380407
  0
VERTEX
  8
0
 10
3.88596
 20
6.02507
 30
0.0
 40
0.00380407
 41
0.00380407
  0
VERTEX
  8
0
 10
3.63943
 20
6.02507
 30
0.0
 40
0.00380407
 41
0.00380407
  0
SEQEND
 8
0
  0
POLYLINE
  8
0
 62
     0
 66
     1
 10
0
 20
0
 30
0.0
 70
     1
 40
0.273893
 41
0.273893
  0
VERTEX
  8
0
 10
3.07021
 20
4.84972
 30
0.0
 40
0.00380407
 41
0.00380407
  0
VERTEX
  8
0
 10
3.07021
 20
4.73693
 30
0.0
 40
0.00380407
 41
0.00380407
  0
VERTEX
  8
0
 10
3.07021
 20
4.84972
 30
0.0
 40
0.00380407
 41
0.00380407
  0
SEQEND
 8
0
  0
POLYLINE
  8
0
 62
     0
 66
     1
 10
0
 20
0
 30
0.0
 70
     1
 40
0.273893
 41
0.273893
  0
VERTEX
  8
0
 10
3.28728
 20
6.02507
 30
0.0
 40
0.00380407
 41
0.00380407
  0
VERTEX
  8
0
 10
2.55658
 20
6.02507
 30
0.0
 40
0.00380407
 41
0.00380407
  0
VERTEX
  8
0
 10
3.28728
 20
6.02507
 30
0.0
 40
0.00380407
 41
0.00380407
  0
SEQEND
 8
0
  0
POLYLINE
  8
0
 62
     0
 66
     1
 10
0
 20
0
 30
0.0
 70
     1
 40
0.273893
 41
0.273893
  0
VERTEX
  8
0
 10
3.10547
 20
4.73693
 30
0.0
 40
0.00380407
 41
0.00380407
  0
VERTEX
  8
0
 10
3.10547
 20
4.84972
 30
0.0
 40
0.00380407
 41
0.00380407
  0
VERTEX
  8
0
 10
3.10547
 20
4.73693
 30
0.0
 40
0.00380407
 41
0.00380407
  0
SEQEND
 8
0
  0
POLYLINE
  8
0
 62
     0
 66
     1
 10
0
 20
0
 30
0.0
 70
     1
 40
0.273893
 41
0.273893
  0
VERTEX
  8
0
 10
4.53743
 20
6.02507
 30
0.0
 40
0.00380407
 41
0.00380407
  0
VERTEX
  8
0
 10
4.78097
 20
6.02507
 30
0.0
 40
0.00380407
 41
0.00380407
  0
VERTEX
  8
0
 10
4.53743
 20
6.02507
 30
0.0
 40
0.00380407
 41
0.00380407
  0
SEQEND
 8
0
  0
POLYLINE
  8
0
 62
     0
 66
     1
 10
0
 20
0
 30
0.0
 70
     1
 40
0.273893
 41
0.273893
  0
VERTEX
  8
0
 10
2.91553
 20
3.62289
 30
0.0
 40
0.00380407
 41
0.00380407
  0
VERTEX
  8
0
 10
2.91553
 20
4.52485
 30
0.0
 40
0.00380407
 41
0.00380407
  0
VERTEX
  8
0
 10
2.91553
 20
3.62289
 30
0.0
 40
0.00380407
 41
0.00380407
  0
SEQEND
 8
0
  0
POLYLINE
  8
0
 62
     0
 66
     1
 10
0
 20
0
 30
0.0
 70
     1
 40
0.273893
 41
0.273893
  0
VERTEX
  8
0
 10
3.49278
 20
4.73693
 30
0.0
 40
0.00380407
 41
0.00380407
  0
VERTEX
  8
0
 10
3.45757
 20
4.73693
 30
0.0
 40
0.00380407
 41
0.00380407
  0
VERTEX
  8
0
 10
3.49278
 20
4.73693
 30
0.0
 40
0.00380407
 41
0.00380407
  0
SEQEND
 8
0
  0
POLYLINE
  8
0
 62
     0
 66
     1
 10
0
 20
0
 30
0.0
 70
     1
 40
0.273893
 41
0.273893
  0
VERTEX
  8
0
 10
4.18528
 20
6.02507
 30
0.0
 40
0.00380407
 41
0.00380407
  0
VERTEX
  8
0
 10
3.93875
 20
6.02507
 30
0.0
 40
0.00380407
 41
0.00380407
  0
VERTEX
  8
0
 10
4.18528
 20
6.02507
 30
0.0
 40
0.00380407
 41
0.00380407
  0
SEQEND
 8
0
  0
POLYLINE
  8
0
 62
     0
 66
     1
 10
0
 20
0
 30
0.0
 70
     1
 40
0.273893
 41
0.273893
  0
VERTEX
  8
0
 10
2.91553
 20
4.52485
 30
0.0
 40
0.00380407
 41
0.00380407
  0
VERTEX
  8
0
 10
2.91553
 20
4.66015
 30
0.0
 40
0.00380407
 41
0.00380407
  0
VERTEX
  8
0
 10
2.91553
 20
4.52485
 30
0.0
 40
0.00380407
 41
0.00380407
  0
SEQEND
 8
0
  0
POLYLINE
  8
0
 62
     0
 66
     1
 10
0
 20
0
 30
0.0
 70
     1
 40
0.273893
 41
0.273893
  0
VERTEX
  8
0
 10
3.45757
 20
4.84972
 30
0.0
 40
0.00380407
 41
0.00380407
  0
VERTEX
  8
0
 10
3.45757
 20
4.73693
 30
0.0
 40
0.00380407
 41
0.00380407
  0
VERTEX
  8
0
 10
3.45757
 20
4.84972
 30
0.0
 40
0.00380407
 41
0.00380407
  0
SEQEND
 8
0
  0
POLYLINE
  8
0
 62
     0
 66
     1
 10
0
 20
0
 30
0.0
 70
     1
 40
0.273893
 41
0.273893
  0
VERTEX
  8
0
 10
2.46853
 20
6.02507
 30
0.0
 40
0.00380407
 41
0.00380407
  0
VERTEX
  8
0
 10
2.11637
 20
6.02507
 30
0.0
 40
0.00380407
 41
0.00380407
  0
VERTEX
  8
0
 10
2.46853
 20
6.02507
 30
0.0
 40
0.00380407
 41
0.00380407
  0
SEQEND
 8
0
  0
POLYLINE
  8
0
 62
     0
 66
     1
 10
0
 20
0
 30
0.0
 70
     1
 40
0.273893
 41
0.273893
  0
VERTEX
  8
0
 10
1.4541
 20
3.62289
 30
0.0
 40
0.00380407
 41
0.00380407
  0
VERTEX
  8
0
 10
1.4541
 20
4.52485
 30
0.0
 40
0.00380407
 41
0.00380407
  0
VERTEX
  8
0
 10
1.4541
 20
3.62289
 30
0.0
 40
0.00380407
 41
0.00380407
  0
SEQEND
 8
0
  0
POLYLINE
  8
0
 62
     0
 66
     1
 10
0
 20
0
 30
0.0
 70
     1
 40
0.273893
 41
0.273893
  0
VERTEX
  8
0
 10
3.49278
 20
4.73693
 30
0.0
 40
0.00380407
 41
0.00380407
  0
VERTEX
  8
0
 10
3.49278
 20
4.84972
 30
0.0
 40
0.00380407
 41
0.00380407
  0
VERTEX
  8
0
 10
3.49278
 20
4.73693
 30
0.0
 40
0.00380407
 41
0.00380407
  0
SEQEND
 8
0
  0
POLYLINE
  8
0
 62
     0
 66
     1
 10
0
 20
0
 30
0.0
 70
     1
 40
0.273893
 41
0.273893
  0
VERTEX
  8
0
 10
1.76421
 20
6.02507
 30
0.0
 40
0.00380407
 41
0.00380407
  0
VERTEX
  8
0
 10
1.41206
 20
6.02507
 30
0.0
 40
0.00380407
 41
0.00380407
  0
VERTEX
  8
0
 10
1.76421
 20
6.02507
 30
0.0
 40
0.00380407
 41
0.00380407
  0
SEQEND
 8
0
  0
POLYLINE
  8
0
 62
     0
 66
     1
 10
0
 20
0
 30
0.0
 70
     1
 40
0.273893
 41
0.273893
  0
VERTEX
  8
0
 10
2.91553
 20
4.66015
 30
0.0
 40
0.00380407
 41
0.00380407
  0
VERTEX
  8
0
 10
2.42839
 20
4.66015
 30
0.0
 40
0.00380407
 41
0.00380407
  0
VERTEX
  8
0
 10
2.91553
 20
4.66015
 30
0.0
 40
0.00380407
 41
0.00380407
  0
SEQEND
 8
0
  0
POLYLINE
  8
0
 62
     0
 66
     1
 10
0
 20
0
 30
0.0
 70
     1
 40
0.273893
 41
0.273893
  0
VERTEX
  8
0
 10
3.18799
 20
4.63792
 30
0.0
 40
0.00380407
 41
0.00380407
  0
VERTEX
  8
0
 10
3.18799
 20
5.53988
 30
0.0
 40
0.00380407
 41
0.00380407
  0
VERTEX
  8
0
 10
3.18799
 20
4.63792
 30
0.0
 40
0.00380407
 41
0.00380407
  0
SEQEND
 8
0
  0
POLYLINE
  8
0
 62
     0
 66
     1
 10
0
 20
0
 30
0.0
 70
     1
 40
0.273893
 41
0.273893
  0
VERTEX
  8
0
 10
5.02458
 20
6.02507
 30
0.0
 40
0.00380407
 41
0.00380407
  0
VERTEX
  8
0
 10
5.26812
 20
6.02507
 30
0.0
 40
0.00380407
 41
0.00380407
  0
VERTEX
  8
0
 10
5.02458
 20
6.02507
 30
0.0
 40
0.00380407
 41
0.00380407
  0
SEQEND
 8
0
  0
POLYLINE
  8
0
 62
     0
 66
     1
 10
0
 20
0
 30
0.0
 70
     1
 40
0.273893
 41
0.273893
  0
VERTEX
  8
0
 10
1.40126
 20
4.52485
 30
0.0
 40
0.00380407
 41
0.00380407
  0
VERTEX
  8
0
 10
1.40126
 20
4.66015
 30
0.0
 40
0.00380407
 41
0.00380407
  0
VERTEX
  8
0
 10
1.40126
 20
4.52485
 30
0.0
 40
0.00380407
 41
0.00380407
  0
SEQEND
 8
0
  0
POLYLINE
  8
0
 62
     0
 66
     1
 10
0
 20
0
 30
0.0
 70
     1
 40
0.273893
 41
0.273893
  0
VERTEX
  8
0
 10
3.3641
 20
5.67518
 30
0.0
 40
0.00380407
 41
0.00380407
  0
VERTEX
  8
0
 10
3.27604
 20
5.67518
 30
0.0
 40
0.00380407
 41
0.00380407
  0
VERTEX
  8
0
 10
3.3641
 20
5.67518
 30
0.0
 40
0.00380407
 41
0.00380407
  0
SEQEND
 8
0
  0
POLYLINE
  8
0
 62
     0
 66
     1
 10
0
 20
0
 30
0.0
 70
     1
 40
0.273893
 41
0.273893
  0
VERTEX
  8
0
 10
4.53743
 20
6.13781
 30
0.0
 40
0.00380407
 41
0.00380407
  0
VERTEX
  8
0
 10
4.53743
 20
6.02507
 30
0.0
 40
0.00380407
 41
0.00380407
  0
VERTEX
  8
0
 10
4.53743
 20
6.13781
 30
0.0
 40
0.00380407
 41
0.00380407
  0
SEQEND
 8
0
  0
POLYLINE
  8
0
 62
     0
 66
     1
 10
0
 20
0
 30
0.0
 70
     1
 40
0.273893
 41
0.273893
  0
VERTEX
  8
0
 10
1.4541
 20
4.66015
 30
0.0
 40
0.00380407
 41
0.00380407
  0
VERTEX
  8
0
 10
1.40126
 20
4.66015
 30
0.0
 40
0.00380407
 41
0.00380407
  0
VERTEX
  8
0
 10
1.4541
 20
4.66015
 30
0.0
 40
0.00380407
 41
0.00380407
  0
SEQEND
 8
0
  0
POLYLINE
  8
0
 62
     0
 66
     1
 10
0
 20
0
 30
0.0
 70
     1
 40
0.273893
 41
0.273893
  0
VERTEX
  8
0
 10
3.3641
 20
5.53988
 30
0.0
 40
0.00380407
 41
0.00380407
  0
VERTEX
  8
0
 10
3.3641
 20
5.67518
 30
0.0
 40
0.00380407
 41
0.00380407
  0
VERTEX
  8
0
 10
3.3641
 20
5.53988
 30
0.0
 40
0.00380407
 41
0.00380407
  0
SEQEND
 8
0
  0
POLYLINE
  8
0
 62
     0
 66
     1
 10
0
 20
0
 30
0.0
 70
     1
 40
0.273893
 41
0.273893
  0
VERTEX
  8
0
 10
4.78097
 20
6.02507
 30
0.0
 40
0.00380407
 41
0.00380407
  0
VERTEX
  8
0
 10
4.78097
 20
6.13781
 30
0.0
 40
0.00380407
 41
0.00380407
  0
VERTEX
  8
0
 10
4.78097
 20
6.02507
 30
0.0
 40
0.00380407
 41
0.00380407
  0
SEQEND
 8
0
  0
POLYLINE
  8
0
 62
     0
 66
     1
 10
0
 20
0
 30
0.0
 70
     1
 40
0.273893
 41
0.273893
  0
VERTEX
  8
0
 10
1.40126
 20
4.52485
 30
0.0
 40
0.00380407
 41
0.00380407
  0
VERTEX
  8
0
 10
1.4541
 20
4.52485
 30
0.0
 40
0.00380407
 41
0.00380407
  0
VERTEX
  8
0
 10
1.40126
 20
4.52485
 30
0.0
 40
0.00380407
 41
0.00380407
  0
SEQEND
 8
0
  0
POLYLINE
  8
0
 62
     0
 66
     1
 10
0
 20
0
 30
0.0
 70
     1
 40
0.273893
 41
0.273893
  0
VERTEX
  8
0
 10
3.18799
 20
5.67518
 30
0.0
 40
0.00380407
 41
0.00380407
  0
VERTEX
  8
0
 10
3.18799
 20
5.53988
 30
0.0
 40
0.00380407
 41
0.00380407
  0
VERTEX
  8
0
 10
3.18799
 20
5.67518
 30
0.0
 40
0.00380407
 41
0.00380407
  0
SEQEND
 8
0
  0
POLYLINE
  8
0
 62
     0
 66
     1
 10
0
 20
0
 30
0.0
 70
     1
 40
0.273893
 41
0.273893
  0
VERTEX
  8
0
 10
3.93875
 20
6.13781
 30
0.0
 40
0.00380407
 41
0.00380407
  0
VERTEX
  8
0
 10
3.93875
 20
6.02507
 30
0.0
 40
0.00380407
 41
0.00380407
  0
VERTEX
  8
0
 10
3.93875
 20
6.13781
 30
0.0
 40
0.00380407
 41
0.00380407
  0
SEQEND
 8
0
  0
POLYLINE
  8
0
 62
     0
 66
     1
 10
0
 20
0
 30
0.0
 70
     1
 40
0.273893
 41
0.273893
  0
VERTEX
  8
0
 10
1.94125
 20
4.66015
 30
0.0
 40
0.00380407
 41
0.00380407
  0
VERTEX
  8
0
 10
1.4541
 20
4.66015
 30
0.0
 40
0.00380407
 41
0.00380407
  0
VERTEX
  8
0
 10
1.94125
 20
4.66015
 30
0.0
 40
0.00380407
 41
0.00380407
  0
SEQEND
 8
0
  0
POLYLINE
  8
0
 62
     0
 66
     1
 10
0
 20
0
 30
0.0
 70
     1
 40
0.273893
 41
0.273893
  0
VERTEX
  8
0
 10
3.41694
 20
4.63792
 30
0.0
 40
0.00380407
 41
0.00380407
  0
VERTEX
  8
0
 10
3.41694
 20
5.53988
 30
0.0
 40
0.00380407
 41
0.00380407
  0
VERTEX
  8
0
 10
3.41694
 20
4.63792
 30
0.0
 40
0.00380407
 41
0.00380407
  0
SEQEND
 8
0
  0
POLYLINE
  8
0
 62
     0
 66
     1
 10
0
 20
0
 30
0.0
 70
     1
 40
0.273893
 41
0.273893
  0
VERTEX
  8
0
 10
4.18528
 20
6.02507
 30
0.0
 40
0.00380407
 41
0.00380407
  0
VERTEX
  8
0
 10
4.18528
 20
6.13781
 30
0.0
 40
0.00380407
 41
0.00380407
  0
VERTEX
  8
0
 10
4.18528
 20
6.02507
 30
0.0
 40
0.00380407
 41
0.00380407
  0
SEQEND
 8
0
  0
POLYLINE
  8
0
 62
     0
 66
     1
 10
0
 20
0
 30
0.0
 70
     1
 40
0.273893
 41
0.273893
  0
VERTEX
  8
0
 10
2.42839
 20
4.66015
 30
0.0
 40
0.00380407
 41
0.00380407
  0
VERTEX
  8
0
 10
1.94125
 20
4.66015
 30
0.0
 40
0.00380407
 41
0.00380407
  0
VERTEX
  8
0
 10
2.42839
 20
4.66015
 30
0.0
 40
0.00380407
 41
0.00380407
  0
SEQEND
 8
0
  0
POLYLINE
  8
0
 62
     0
 66
     1
 10
0
 20
0
 30
0.0
 70
     1
 40
0.273893
 41
0.273893
  0
VERTEX
  8
0
 10
3.41694
 20
5.53988
 30
0.0
 40
0.00380407
 41
0.00380407
  0
VERTEX
  8
0
 10
3.3641
 20
5.53988
 30
0.0
 40
0.00380407
 41
0.00380407
  0
VERTEX
  8
0
 10
3.41694
 20
5.53988
 30
0.0
 40
0.00380407
 41
0.00380407
  0
SEQEND
 8
0
  0
POLYLINE
  8
0
 62
     0
 66
     1
 10
0
 20
0
 30
0.0
 70
     1
 40
0.273893
 41
0.273893
  0
VERTEX
  8
0
 10
2.11637
 20
6.13781
 30
0.0
 40
0.00380407
 41
0.00380407
  0
VERTEX
  8
0
 10
2.11637
 20
6.02507
 30
0.0
 40
0.00380407
 41
0.00380407
  0
VERTEX
  8
0
 10
2.11637
 20
6.13781
 30
0.0
 40
0.00380407
 41
0.00380407
  0
SEQEND
 8
0
  0
POLYLINE
  8
0
 62
     0
 66
     1
 10
0
 20
0
 30
0.0
 70
     1
 40
0.273893
 41
0.273893
  0
VERTEX
  8
0
 10
1.94125
 20
3.62289
 30
0.0
 40
0.00380407
 41
0.00380407
  0
VERTEX
  8
0
 10
2.42839
 20
3.62289
 30
0.0
 40
0.00380407
 41
0.00380407
  0
VERTEX
  8
0
 10
1.94125
 20
3.62289
 30
0.0
 40
0.00380407
 41
0.00380407
  0
SEQEND
 8
0
  0
POLYLINE
  8
0
 62
     0
 66
     1
 10
0
 20
0
 30
0.0
 70
     1
 40
0.273893
 41
0.273893
  0
VERTEX
  8
0
 10
3.27604
 20
4.63792
 30
0.0
 40
0.00380407
 41
0.00380407
  0
VERTEX
  8
0
 10
3.3641
 20
4.63792
 30
0.0
 40
0.00380407
 41
0.00380407
  0
VERTEX
  8
0
 10
3.27604
 20
4.63792
 30
0.0
 40
0.00380407
 41
0.00380407
  0
SEQEND
 8
0
  0
POLYLINE
  8
0
 62
     0
 66
     1
 10
0
 20
0
 30
0.0
 70
     1
 40
0.273893
 41
0.273893
  0
VERTEX
  8
0
 10
2.46853
 20
6.02507
 30
0.0
 40
0.00380407
 41
0.00380407
  0
VERTEX
  8
0
 10
2.46853
 20
6.13781
 30
0.0
 40
0.00380407
 41
0.00380407
  0
VERTEX
  8
0
 10
2.46853
 20
6.02507
 30
0.0
 40
0.00380407
 41
0.00380407
  0
SEQEND
 8
0
  0
POLYLINE
  8
0
 62
     0
 66
     1
 10
0
 20
0
 30
0.0
 70
     1
 40
0.273893
 41
0.273893
  0
VERTEX
  8
0
 10
1.4541
 20
3.51014
 30
0.0
 40
0.00380407
 41
0.00380407
  0
VERTEX
  8
0
 10
1.94125
 20
3.51014
 30
0.0
 40
0.00380407
 41
0.00380407
  0
VERTEX
  8
0
 10
1.4541
 20
3.51014
 30
0.0
 40
0.00380407
 41
0.00380407
  0
SEQEND
 8
0
  0
POLYLINE
  8
0
 62
     0
 66
     1
 10
0
 20
0
 30
0.0
 70
     1
 40
0.273893
 41
0.273893
  0
VERTEX
  8
0
 10
3.27604
 20
5.67518
 30
0.0
 40
0.00380407
 41
0.00380407
  0
VERTEX
  8
0
 10
3.18799
 20
5.67518
 30
0.0
 40
0.00380407
 41
0.00380407
  0
VERTEX
  8
0
 10
3.27604
 20
5.67518
 30
0.0
 40
0.00380407
 41
0.00380407
  0
SEQEND
 8
0
  0
POLYLINE
  8
0
 62
     0
 66
     1
 10
0
 20
0
 30
0.0
 70
     1
 40
0.273893
 41
0.273893
  0
VERTEX
  8
0
 10
1.41206
 20
6.13781
 30
0.0
 40
0.00380407
 41
0.00380407
  0
VERTEX
  8
0
 10
1.41206
 20
6.02507
 30
0.0
 40
0.00380407
 41
0.00380407
  0
VERTEX
  8
0
 10
1.41206
 20
6.13781
 30
0.0
 40
0.00380407
 41
0.00380407
  0
SEQEND
 8
0
  0
POLYLINE
  8
0
 62
     0
 66
     1
 10
0
 20
0
 30
0.0
 70
     1
 40
0.273893
 41
0.273893
  0
VERTEX
  8
0
 10
2.42839
 20
3.51014
 30
0.0
 40
0.00380407
 41
0.00380407
  0
VERTEX
  8
0
 10
2.91553
 20
3.51014
 30
0.0
 40
0.00380407
 41
0.00380407
  0
VERTEX
  8
0
 10
2.42839
 20
3.51014
 30
0.0
 40
0.00380407
 41
0.00380407
  0
SEQEND
 8
0
  0
POLYLINE
  8
0
 62
     0
 66
     1
 10
0
 20
0
 30
0.0
 70
     1
 40
0.273893
 41
0.273893
  0
VERTEX
  8
0
 10
3.18799
 20
4.52518
 30
0.0
 40
0.00380407
 41
0.00380407
  0
VERTEX
  8
0
 10
3.27604
 20
4.52518
 30
0.0
 40
0.00380407
 41
0.00380407
  0
VERTEX
  8
0
 10
3.18799
 20
4.52518
 30
0.0
 40
0.00380407
 41
0.00380407
  0
SEQEND
 8
0
  0
POLYLINE
  8
0
 62
     0
 66
     1
 10
0
 20
0
 30
0.0
 70
     1
 40
0.273893
 41
0.273893
  0
VERTEX
  8
0
 10
1.76421
 20
6.02507
 30
0.0
 40
0.00380407
 41
0.00380407
  0
VERTEX
  8
0
 10
1.76421
 20
6.13781
 30
0.0
 40
0.00380407
 41
0.00380407
  0
VERTEX
  8
0
 10
1.76421
 20
6.02507
 30
0.0
 40
0.00380407
 41
0.00380407
  0
SEQEND
 8
0
  0
POLYLINE
  8
0
 62
     0
 66
     1
 10
0
 20
0
 30
0.0
 70
     1
 40
0.273893
 41
0.273893
  0
VERTEX
  8
0
 10
2.42839
 20
3.62289
 30
0.0
 40
0.00380407
 41
0.00380407
  0
VERTEX
  8
0
 10
2.42839
 20
3.51014
 30
0.0
 40
0.00380407
 41
0.00380407
  0
VERTEX
  8
0
 10
2.42839
 20
3.62289
 30
0.0
 40
0.00380407
 41
0.00380407
  0
SEQEND
 8
0
  0
POLYLINE
  8
0
 62
     0
 66
     1
 10
0
 20
0
 30
0.0
 70
     1
 40
0.273893
 41
0.273893
  0
VERTEX
  8
0
 10
3.3641
 20
4.52518
 30
0.0
 40
0.00380407
 41
0.00380407
  0
VERTEX
  8
0
 10
3.41694
 20
4.52518
 30
0.0
 40
0.00380407
 41
0.00380407
  0
VERTEX
  8
0
 10
3.3641
 20
4.52518
 30
0.0
 40
0.00380407
 41
0.00380407
  0
SEQEND
 8
0
  0
POLYLINE
  8
0
 62
     0
 66
     1
 10
0
 20
0
 30
0.0
 70
     1
 40
0.273893
 41
0.273893
  0
VERTEX
  8
0
 10
5.02458
 20
6.13781
 30
0.0
 40
0.00380407
 41
0.00380407
  0
VERTEX
  8
0
 10
5.02458
 20
6.02507
 30
0.0
 40
0.00380407
 41
0.00380407
  0
VERTEX
  8
0
 10
5.02458
 20
6.13781
 30
0.0
 40
0.00380407
 41
0.00380407
  0
SEQEND
 8
0
  0
POLYLINE
  8
0
 62
     0
 66
     1
 10
0
 20
0
 30
0.0
 70
     1
 40
0.273893
 41
0.273893
  0
VERTEX
  8
0
 10
2.91553
 20
3.51014
 30
0.0
 40
0.00380407
 41
0.00380407
  0
VERTEX
  8
0
 10
2.91553
 20
3.62289
 30
0.0
 40
0.00380407
 41
0.00380407
  0
VERTEX
  8
0
 10
2.91553
 20
3.51014
 30
0.0
 40
0.00380407
 41
0.00380407
  0
SEQEND
 8
0
  0
POLYLINE
  8
0
 62
     0
 66
     1
 10
0
 20
0
 30
0.0
 70
     1
 40
0.273893
 41
0.273893
  0
VERTEX
  8
0
 10
3.3641
 20
4.63792
 30
0.0
 40
0.00380407
 41
0.00380407
  0
VERTEX
  8
0
 10
3.3641
 20
4.52518
 30
0.0
 40
0.00380407
 41
0.00380407
  0
VERTEX
  8
0
 10
3.3641
 20
4.63792
 30
0.0
 40
0.00380407
 41
0.00380407
  0
SEQEND
 8
0
  0
POLYLINE
  8
0
 62
     0
 66
     1
 10
0
 20
0
 30
0.0
 70
     1
 40
0.273893
 41
0.273893
  0
VERTEX
  8
0
 10
5.26812
 20
6.02507
 30
0.0
 40
0.00380407
 41
0.00380407
  0
VERTEX
  8
0
 10
5.26812
 20
6.13781
 30
0.0
 40
0.00380407
 41
0.00380407
  0
VERTEX
  8
0
 10
5.26812
 20
6.02507
 30
0.0
 40
0.00380407
 41
0.00380407
  0
SEQEND
 8
0
  0
POLYLINE
  8
0
 62
     0
 66
     1
 10
0
 20
0
 30
0.0
 70
     1
 40
0.273893
 41
0.273893
  0
VERTEX
  8
0
 10
1.4541
 20
3.62289
 30
0.0
 40
0.00380407
 41
0.00380407
  0
VERTEX
  8
0
 10
1.4541
 20
3.51014
 30
0.0
 40
0.00380407
 41
0.00380407
  0
VERTEX
  8
0
 10
1.4541
 20
3.62289
 30
0.0
 40
0.00380407
 41
0.00380407
  0
SEQEND
 8
0
  0
POLYLINE
  8
0
 62
     0
 66
     1
 10
0
 20
0
 30
0.0
 70
     1
 40
0.273893
 41
0.273893
  0
VERTEX
  8
0
 10
3.41694
 20
4.52518
 30
0.0
 40
0.00380407
 41
0.00380407
  0
VERTEX
  8
0
 10
3.41694
 20
4.63792
 30
0.0
 40
0.00380407
 41
0.00380407
  0
VERTEX
  8
0
 10
3.41694
 20
4.52518
 30
0.0
 40
0.00380407
 41
0.00380407
  0
SEQEND
 8
0
  0
POLYLINE
  8
0
 62
     0
 66
     1
 10
0
 20
0
 30
0.0
 70
     1
 40
0.273893
 41
0.273893
  0
VERTEX
  8
0
 10
2.55658
 20
6.13781
 30
0.0
 40
0.00380407
 41
0.00380407
  0
VERTEX
  8
0
 10
2.55658
 20
6.02507
 30
0.0
 40
0.00380407
 41
0.00380407
  0
VERTEX
  8
0
 10
2.55658
 20
6.13781
 30
0.0
 40
0.00380407
 41
0.00380407
  0
SEQEND
 8
0
  0
POLYLINE
  8
0
 62
     0
 66
     1
 10
0
 20
0
 30
0.0
 70
     1
 40
0.273893
 41
0.273893
  0
VERTEX
  8
0
 10
1.94125
 20
3.51014
 30
0.0
 40
0.00380407
 41
0.00380407
  0
VERTEX
  8
0
 10
1.94125
 20
3.62289
 30
0.0
 40
0.00380407
 41
0.00380407
  0
VERTEX
  8
0
 10
1.94125
 20
3.51014
 30
0.0
 40
0.00380407
 41
0.00380407
  0
SEQEND
 8
0
  0
POLYLINE
  8
0
 62
     0
 66
     1
 10
0
 20
0
 30
0.0
 70
     1
 40
0.273893
 41
0.273893
  0
VERTEX
  8
0
 10
3.18799
 20
4.63792
 30
0.0
 40
0.00380407
 41
0.00380407
  0
VERTEX
  8
0
 10
3.18799
 20
4.52518
 30
0.0
 40
0.00380407
 41
0.00380407
  0
VERTEX
  8
0
 10
3.18799
 20
4.63792
 30
0.0
 40
0.00380407
 41
0.00380407
  0
SEQEND
 8
0
  0
POLYLINE
  8
0
 62
     0
 66
     1
 10
0
 20
0
 30
0.0
 70
     1
 40
0.273893
 41
0.273893
  0
VERTEX
  8
0
 10
3.28728
 20
6.02507
 30
0.0
 40
0.00380407
 41
0.00380407
  0
VERTEX
  8
0
 10
3.28728
 20
6.13781
 30
0.0
 40
0.00380407
 41
0.00380407
  0
VERTEX
  8
0
 10
3.28728
 20
6.02507
 30
0.0
 40
0.00380407
 41
0.00380407
  0
SEQEND
 8
0
  0
POLYLINE
  8
0
 62
     0
 66
     1
 10
0
 20
0
 30
0.0
 70
     1
 40
0.273893
 41
0.273893
  0
VERTEX
  8
0
 10
3.88596
 20
7.03982
 30
0.0
 40
0.00380407
 41
0.00380407
  0
VERTEX
  8
0
 10
3.88596
 20
7.17507
 30
0.0
 40
0.00380407
 41
0.00380407
  0
VERTEX
  8
0
 10
3.88596
 20
7.03982
 30
0.0
 40
0.00380407
 41
0.00380407
  0
SEQEND
 8
0
  0
POLYLINE
  8
0
 62
     0
 66
     1
 10
0
 20
0
 30
0.0
 70
     1
 40
0.273893
 41
0.273893
  0
VERTEX
  8
0
 10
3.27604
 20
4.52518
 30
0.0
 40
0.00380407
 41
0.00380407
  0
VERTEX
  8
0
 10
3.27604
 20
4.63792
 30
0.0
 40
0.00380407
 41
0.00380407
  0
VERTEX
  8
0
 10
3.27604
 20
4.52518
 30
0.0
 40
0.00380407
 41
0.00380407
  0
SEQEND
 8
0
  0
POLYLINE
  8
0
 62
     0
 66
     1
 10
0
 20
0
 30
0.0
 70
     1
 40
0.273893
 41
0.273893
  0
VERTEX
  8
0
 10
3.63943
 20
6.13781
 30
0.0
 40
0.00380407
 41
0.00380407
  0
VERTEX
  8
0
 10
3.63943
 20
6.02507
 30
0.0
 40
0.00380407
 41
0.00380407
  0
VERTEX
  8
0
 10
3.63943
 20
6.13781
 30
0.0
 40
0.00380407
 41
0.00380407
  0
SEQEND
 8
0
  0
POLYLINE
  8
0
 62
     0
 66
     1
 10
0
 20
0
 30
0.0
 70
     1
 40
0.273893
 41
0.273893
  0
VERTEX
  8
0
 10
3.93875
 20
7.03982
 30
0.0
 40
0.00380407
 41
0.00380407
  0
VERTEX
  8
0
 10
3.93875
 20
7.17507
 30
0.0
 40
0.00380407
 41
0.00380407
  0
VERTEX
  8
0
 10
3.93875
 20
7.03982
 30
0.0
 40
0.00380407
 41
0.00380407
  0
SEQEND
 8
0
  0
POLYLINE
  8
0
 62
     0
 66
     1
 10
0
 20
0
 30
0.0
 70
     1
 40
0.273893
 41
0.273893
  0
VERTEX
  8
0
 10
3.60992
 20
4.86143
 30
0.0
 40
0.00380407
 41
0.00380407
  0
VERTEX
  8
0
 10
3.60992
 20
5.89876
 30
0.0
 40
0.00380407
 41
0.00380407
  0
VERTEX
  8
0
 10
3.60992
 20
4.86143
 30
0.0
 40
0.00380407
 41
0.00380407
  0
SEQEND
 8
0
  0
POLYLINE
  8
0
 62
     0
 66
     1
 10
0
 20
0
 30
0.0
 70
     1
 40
0.273893
 41
0.273893
  0
VERTEX
  8
0
 10
3.88596
 20
6.02507
 30
0.0
 40
0.00380407
 41
0.00380407
  0
VERTEX
  8
0
 10
3.88596
 20
6.13781
 30
0.0
 40
0.00380407
 41
0.00380407
  0
VERTEX
  8
0
 10
3.88596
 20
6.02507
 30
0.0
 40
0.00380407
 41
0.00380407
  0
SEQEND
 8
0
  0
POLYLINE
  8
0
 62
     0
 66
     1
 10
0
 20
0
 30
0.0
 70
     1
 40
0.273893
 41
0.273893
  0
VERTEX
  8
0
 10
3.93875
 20
7.03982
 30
0.0
 40
0.00380407
 41
0.00380407
  0
VERTEX
  8
0
 10
3.88596
 20
7.03982
 30
0.0
 40
0.00380407
 41
0.00380407
  0
VERTEX
  8
0
 10
3.93875
 20
7.03982
 30
0.0
 40
0.00380407
 41
0.00380407
  0
SEQEND
 8
0
  0
POLYLINE
  8
0
 62
     0
 66
     1
 10
0
 20
0
 30
0.0
 70
     1
 40
0.273893
 41
0.273893
  0
VERTEX
  8
0
 10
4.15576
 20
4.86143
 30
0.0
 40
0.00380407
 41
0.00380407
  0
VERTEX
  8
0
 10
4.15576
 20
5.89876
 30
0.0
 40
0.00380407
 41
0.00380407
  0
VERTEX
  8
0
 10
4.15576
 20
4.86143
 30
0.0
 40
0.00380407
 41
0.00380407
  0
SEQEND
 8
0
  0
POLYLINE
  8
0
 62
     0
 66
     1
 10
0
 20
0
 30
0.0
 70
     1
 40
0.273893
 41
0.273893
  0
VERTEX
  8
0
 10
4.23465
 20
4.86143
 30
0.0
 40
0.00380407
 41
0.00380407
  0
VERTEX
  8
0
 10
4.23465
 20
5.76346
 30
0.0
 40
0.00380407
 41
0.00380407
  0
VERTEX
  8
0
 10
4.23465
 20
4.86143
 30
0.0
 40
0.00380407
 41
0.00380407
  0
SEQEND
 8
0
  0
POLYLINE
  8
0
 62
     0
 66
     1
 10
0
 20
0
 30
0.0
 70
     1
 40
0.273893
 41
0.273893
  0
VERTEX
  8
0
 10
3.93875
 20
6.13781
 30
0.0
 40
0.00380407
 41
0.00380407
  0
VERTEX
  8
0
 10
3.88596
 20
6.13781
 30
0.0
 40
0.00380407
 41
0.00380407
  0
VERTEX
  8
0
 10
3.93875
 20
6.13781
 30
0.0
 40
0.00380407
 41
0.00380407
  0
SEQEND
 8
0
  0
POLYLINE
  8
0
 62
     0
 66
     1
 10
0
 20
0
 30
0.0
 70
     1
 40
0.273893
 41
0.273893
  0
VERTEX
  8
0
 10
3.60992
 20
5.89876
 30
0.0
 40
0.00380407
 41
0.00380407
  0
VERTEX
  8
0
 10
3.79189
 20
5.89876
 30
0.0
 40
0.00380407
 41
0.00380407
  0
VERTEX
  8
0
 10
3.60992
 20
5.89876
 30
0.0
 40
0.00380407
 41
0.00380407
  0
SEQEND
 8
0
  0
POLYLINE
  8
0
 62
     0
 66
     1
 10
0
 20
0
 30
0.0
 70
     1
 40
0.273893
 41
0.273893
  0
VERTEX
  8
0
 10
4.23465
 20
5.89876
 30
0.0
 40
0.00380407
 41
0.00380407
  0
VERTEX
  8
0
 10
4.49875
 20
5.89876
 30
0.0
 40
0.00380407
 41
0.00380407
  0
VERTEX
  8
0
 10
4.23465
 20
5.89876
 30
0.0
 40
0.00380407
 41
0.00380407
  0
SEQEND
 8
0
  0
POLYLINE
  8
0
 62
     0
 66
     1
 10
0
 20
0
 30
0.0
 70
     1
 40
0.273893
 41
0.273893
  0
VERTEX
  8
0
 10
3.63943
 20
6.13781
 30
0.0
 40
0.00380407
 41
0.00380407
  0
VERTEX
  8
0
 10
3.63943
 20
7.03982
 30
0.0
 40
0.00380407
 41
0.00380407
  0
VERTEX
  8
0
 10
3.63943
 20
6.13781
 30
0.0
 40
0.00380407
 41
0.00380407
  0
SEQEND
 8
0
  0
POLYLINE
  8
0
 62
     0
 66
     1
 10
0
 20
0
 30
0.0
 70
     1
 40
0.273893
 41
0.273893
  0
VERTEX
  8
0
 10
3.97385
 20
4.86143
 30
0.0
 40
0.00380407
 41
0.00380407
  0
VERTEX
  8
0
 10
3.79189
 20
4.86143
 30
0.0
 40
0.00380407
 41
0.00380407
  0
VERTEX
  8
0
 10
3.97385
 20
4.86143
 30
0.0
 40
0.00380407
 41
0.00380407
  0
SEQEND
 8
0
  0
POLYLINE
  8
0
 62
     0
 66
     1
 10
0
 20
0
 30
0.0
 70
     1
 40
0.273893
 41
0.273893
  0
VERTEX
  8
0
 10
4.23465
 20
5.76346
 30
0.0
 40
0.00380407
 41
0.00380407
  0
VERTEX
  8
0
 10
4.23465
 20
5.89876
 30
0.0
 40
0.00380407
 41
0.00380407
  0
VERTEX
  8
0
 10
4.23465
 20
5.76346
 30
0.0
 40
0.00380407
 41
0.00380407
  0
SEQEND
 8
0
  0
POLYLINE
  8
0
 62
     0
 66
     1
 10
0
 20
0
 30
0.0
 70
     1
 40
0.273893
 41
0.273893
  0
VERTEX
  8
0
 10
3.88596
 20
7.17507
 30
0.0
 40
0.00380407
 41
0.00380407
  0
VERTEX
  8
0
 10
3.63943
 20
7.17507
 30
0.0
 40
0.00380407
 41
0.00380407
  0
VERTEX
  8
0
 10
3.88596
 20
7.17507
 30
0.0
 40
0.00380407
 41
0.00380407
  0
SEQEND
 8
0
  0
POLYLINE
  8
0
 62
     0
 66
     1
 10
0
 20
0
 30
0.0
 70
     1
 40
0.273893
 41
0.273893
  0
VERTEX
  8
0
 10
3.97385
 20
5.89876
 30
0.0
 40
0.00380407
 41
0.00380407
  0
VERTEX
  8
0
 10
4.15576
 20
5.89876
 30
0.0
 40
0.00380407
 41
0.00380407
  0
VERTEX
  8
0
 10
3.97385
 20
5.89876
 30
0.0
 40
0.00380407
 41
0.00380407
  0
SEQEND
 8
0
  0
POLYLINE
  8
0
 62
     0
 66
     1
 10
0
 20
0
 30
0.0
 70
     1
 40
0.273893
 41
0.273893
  0
VERTEX
  8
0
 10
5.02696
 20
5.89876
 30
0.0
 40
0.00380407
 41
0.00380407
  0
VERTEX
  8
0
 10
5.02696
 20
5.76346
 30
0.0
 40
0.00380407
 41
0.00380407
  0
VERTEX
  8
0
 10
5.02696
 20
5.89876
 30
0.0
 40
0.00380407
 41
0.00380407
  0
SEQEND
 8
0
  0
POLYLINE
  8
0
 62
     0
 66
     1
 10
0
 20
0
 30
0.0
 70
     1
 40
0.273893
 41
0.273893
  0
VERTEX
  8
0
 10
3.28728
 20
6.13781
 30
0.0
 40
0.00380407
 41
0.00380407
  0
VERTEX
  8
0
 10
3.28728
 20
7.03982
 30
0.0
 40
0.00380407
 41
0.00380407
  0
VERTEX
  8
0
 10
3.28728
 20
6.13781
 30
0.0
 40
0.00380407
 41
0.00380407
  0
SEQEND
 8
0
  0
POLYLINE
  8
0
 62
     0
 66
     1
 10
0
 20
0
 30
0.0
 70
     1
 40
0.273893
 41
0.273893
  0
VERTEX
  8
0
 10
3.79189
 20
5.89876
 30
0.0
 40
0.00380407
 41
0.00380407
  0
VERTEX
  8
0
 10
3.97385
 20
5.89876
 30
0.0
 40
0.00380407
 41
0.00380407
  0
VERTEX
  8
0
 10
3.79189
 20
5.89876
 30
0.0
 40
0.00380407
 41
0.00380407
  0
SEQEND
 8
0
  0
POLYLINE
  8
0
 62
     0
 66
     1
 10
0
 20
0
 30
0.0
 70
     1
 40
0.273893
 41
0.273893
  0
VERTEX
  8
0
 10
5.07981
 20
4.86143
 30
0.0
 40
0.00380407
 41
0.00380407
  0
VERTEX
  8
0
 10
5.07981
 20
5.76346
 30
0.0
 40
0.00380407
 41
0.00380407
  0
VERTEX
  8
0
 10
5.07981
 20
4.86143
 30
0.0
 40
0.00380407
 41
0.00380407
  0
SEQEND
 8
0
  0
POLYLINE
  8
0
 62
     0
 66
     1
 10
0
 20
0
 30
0.0
 70
     1
 40
0.273893
 41
0.273893
  0
VERTEX
  8
0
 10
3.28728
 20
7.03982
 30
0.0
 40
0.00380407
 41
0.00380407
  0
VERTEX
  8
0
 10
3.63943
 20
7.03982
 30
0.0
 40
0.00380407
 41
0.00380407
  0
VERTEX
  8
0
 10
3.28728
 20
7.03982
 30
0.0
 40
0.00380407
 41
0.00380407
  0
SEQEND
 8
0
  0
POLYLINE
  8
0
 62
     0
 66
     1
 10
0
 20
0
 30
0.0
 70
     1
 40
0.273893
 41
0.273893
  0
VERTEX
  8
0
 10
4.15576
 20
4.74869
 30
0.0
 40
0.00380407
 41
0.00380407
  0
VERTEX
  8
0
 10
3.97385
 20
4.74869
 30
0.0
 40
0.00380407
 41
0.00380407
  0
VERTEX
  8
0
 10
4.15576
 20
4.74869
 30
0.0
 40
0.00380407
 41
0.00380407
  0
SEQEND
 8
0
  0
POLYLINE
  8
0
 62
     0
 66
     1
 10
0
 20
0
 30
0.0
 70
     1
 40
0.273893
 41
0.273893
  0
VERTEX
  8
0
 10
5.02696
 20
5.76346
 30
0.0
 40
0.00380407
 41
0.00380407
  0
VERTEX
  8
0
 10
5.07981
 20
5.76346
 30
0.0
 40
0.00380407
 41
0.00380407
  0
VERTEX
  8
0
 10
5.02696
 20
5.76346
 30
0.0
 40
0.00380407
 41
0.00380407
  0
SEQEND
 8
0
  0
POLYLINE
  8
0
 62
     0
 66
     1
 10
0
 20
0
 30
0.0
 70
     1
 40
0.273893
 41
0.273893
  0
VERTEX
  8
0
 10
3.63943
 20
7.17507
 30
0.0
 40
0.00380407
 41
0.00380407
  0
VERTEX
  8
0
 10
3.28728
 20
7.17507
 30
0.0
 40
0.00380407
 41
0.00380407
  0
VERTEX
  8
0
 10
3.63943
 20
7.17507
 30
0.0
 40
0.00380407
 41
0.00380407
  0
SEQEND
 8
0
  0
POLYLINE
  8
0
 62
     0
 66
     1
 10
0
 20
0
 30
0.0
 70
     1
 40
0.273893
 41
0.273893
  0
VERTEX
  8
0
 10
3.79189
 20
4.74869
 30
0.0
 40
0.00380407
 41
0.00380407
  0
VERTEX
  8
0
 10
3.60992
 20
4.74869
 30
0.0
 40
0.00380407
 41
0.00380407
  0
VERTEX
  8
0
 10
3.79189
 20
4.74869
 30
0.0
 40
0.00380407
 41
0.00380407
  0
SEQEND
 8
0
  0
POLYLINE
  8
0
 62
     0
 66
     1
 10
0
 20
0
 30
0.0
 70
     1
 40
0.273893
 41
0.273893
  0
VERTEX
  8
0
 10
5.07981
 20
4.86143
 30
0.0
 40
0.00380407
 41
0.00380407
  0
VERTEX
  8
0
 10
5.02696
 20
4.86143
 30
0.0
 40
0.00380407
 41
0.00380407
  0
VERTEX
  8
0
 10
5.07981
 20
4.86143
 30
0.0
 40
0.00380407
 41
0.00380407
  0
SEQEND
 8
0
  0
POLYLINE
  8
0
 62
     0
 66
     1
 10
0
 20
0
 30
0.0
 70
     1
 40
0.273893
 41
0.273893
  0
VERTEX
  8
0
 10
3.28728
 20
7.17507
 30
0.0
 40
0.00380407
 41
0.00380407
  0
VERTEX
  8
0
 10
2.55658
 20
7.17507
 30
0.0
 40
0.00380407
 41
0.00380407
  0
VERTEX
  8
0
 10
3.28728
 20
7.17507
 30
0.0
 40
0.00380407
 41
0.00380407
  0
SEQEND
 8
0
  0
POLYLINE
  8
0
 62
     0
 66
     1
 10
0
 20
0
 30
0.0
 70
     1
 40
0.273893
 41
0.273893
  0
VERTEX
  8
0
 10
3.79189
 20
4.86143
 30
0.0
 40
0.00380407
 41
0.00380407
  0
VERTEX
  8
0
 10
3.79189
 20
4.74869
 30
0.0
 40
0.00380407
 41
0.00380407
  0
VERTEX
  8
0
 10
3.79189
 20
4.86143
 30
0.0
 40
0.00380407
 41
0.00380407
  0
SEQEND
 8
0
  0
POLYLINE
  8
0
 62
     0
 66
     1
 10
0
 20
0
 30
0.0
 70
     1
 40
0.273893
 41
0.273893
  0
VERTEX
  8
0
 10
4.76286
 20
4.86143
 30
0.0
 40
0.00380407
 41
0.00380407
  0
VERTEX
  8
0
 10
4.49875
 20
4.86143
 30
0.0
 40
0.00380407
 41
0.00380407
  0
VERTEX
  8
0
 10
4.76286
 20
4.86143
 30
0.0
 40
0.00380407
 41
0.00380407
  0
SEQEND
 8
0
  0
POLYLINE
  8
0
 62
     0
 66
     1
 10
0
 20
0
 30
0.0
 70
     1
 40
0.273893
 41
0.273893
  0
VERTEX
  8
0
 10
2.55658
 20
6.54372
 30
0.0
 40
0.00380407
 41
0.00380407
  0
VERTEX
  8
0
 10
2.55658
 20
6.13781
 30
0.0
 40
0.00380407
 41
0.00380407
  0
VERTEX
  8
0
 10
2.55658
 20
6.54372
 30
0.0
 40
0.00380407
 41
0.00380407
  0
SEQEND
 8
0
  0
POLYLINE
  8
0
 62
     0
 66
     1
 10
0
 20
0
 30
0.0
 70
     1
 40
0.273893
 41
0.273893
  0
VERTEX
  8
0
 10
3.60992
 20
4.74869
 30
0.0
 40
0.00380407
 41
0.00380407
  0
VERTEX
  8
0
 10
3.60992
 20
4.86143
 30
0.0
 40
0.00380407
 41
0.00380407
  0
VERTEX
  8
0
 10
3.60992
 20
4.74869
 30
0.0
 40
0.00380407
 41
0.00380407
  0
SEQEND
 8
0
  0
POLYLINE
  8
0
 62
     0
 66
     1
 10
0
 20
0
 30
0.0
 70
     1
 40
0.273893
 41
0.273893
  0
VERTEX
  8
0
 10
4.76286
 20
5.89876
 30
0.0
 40
0.00380407
 41
0.00380407
  0
VERTEX
  8
0
 10
5.02696
 20
5.89876
 30
0.0
 40
0.00380407
 41
0.00380407
  0
VERTEX
  8
0
 10
4.76286
 20
5.89876
 30
0.0
 40
0.00380407
 41
0.00380407
  0
SEQEND
 8
0
  0
POLYLINE
  8
0
 62
     0
 66
     1
 10
0
 20
0
 30
0.0
 70
     1
 40
0.273893
 41
0.273893
  0
VERTEX
  8
0
 10
4.53743
 20
7.03982
 30
0.0
 40
0.00380407
 41
0.00380407
  0
VERTEX
  8
0
 10
4.18528
 20
7.03982
 30
0.0
 40
0.00380407
 41
0.00380407
  0
VERTEX
  8
0
 10
4.53743
 20
7.03982
 30
0.0
 40
0.00380407
 41
0.00380407
  0
SEQEND
 8
0
  0
POLYLINE
  8
0
 62
     0
 66
     1
 10
0
 20
0
 30
0.0
 70
     1
 40
0.273893
 41
0.273893
  0
VERTEX
  8
0
 10
4.15576
 20
4.86143
 30
0.0
 40
0.00380407
 41
0.00380407
  0
VERTEX
  8
0
 10
4.15576
 20
4.74869
 30
0.0
 40
0.00380407
 41
0.00380407
  0
VERTEX
  8
0
 10
4.15576
 20
4.86143
 30
0.0
 40
0.00380407
 41
0.00380407
  0
SEQEND
 8
0
  0
POLYLINE
  8
0
 62
     0
 66
     1
 10
0
 20
0
 30
0.0
 70
     1
 40
0.273893
 41
0.273893
  0
VERTEX
  8
0
 10
4.49875
 20
5.89876
 30
0.0
 40
0.00380407
 41
0.00380407
  0
VERTEX
  8
0
 10
4.76286
 20
5.89876
 30
0.0
 40
0.00380407
 41
0.00380407
  0
VERTEX
  8
0
 10
4.49875
 20
5.89876
 30
0.0
 40
0.00380407
 41
0.00380407
  0
SEQEND
 8
0
  0
POLYLINE
  8
0
 62
     0
 66
     1
 10
0
 20
0
 30
0.0
 70
     1
 40
0.273893
 41
0.273893
  0
VERTEX
  8
0
 10
4.18528
 20
6.13781
 30
0.0
 40
0.00380407
 41
0.00380407
  0
VERTEX
  8
0
 10
4.18528
 20
7.03982
 30
0.0
 40
0.00380407
 41
0.00380407
  0
VERTEX
  8
0
 10
4.18528
 20
6.13781
 30
0.0
 40
0.00380407
 41
0.00380407
  0
SEQEND
 8
0
  0
POLYLINE
  8
0
 62
     0
 66
     1
 10
0
 20
0
 30
0.0
 70
     1
 40
0.273893
 41
0.273893
  0
VERTEX
  8
0
 10
3.97385
 20
4.74869
 30
0.0
 40
0.00380407
 41
0.00380407
  0
VERTEX
  8
0
 10
3.97385
 20
4.86143
 30
0.0
 40
0.00380407
 41
0.00380407
  0
VERTEX
  8
0
 10
3.97385
 20
4.74869
 30
0.0
 40
0.00380407
 41
0.00380407
  0
SEQEND
 8
0
  0
POLYLINE
  8
0
 62
     0
 66
     1
 10
0
 20
0
 30
0.0
 70
     1
 40
0.273893
 41
0.273893
  0
VERTEX
  8
0
 10
5.02696
 20
4.74869
 30
0.0
 40
0.00380407
 41
0.00380407
  0
VERTEX
  8
0
 10
4.76286
 20
4.74869
 30
0.0
 40
0.00380407
 41
0.00380407
  0
VERTEX
  8
0
 10
5.02696
 20
4.74869
 30
0.0
 40
0.00380407
 41
0.00380407
  0
SEQEND
 8
0
  0
POLYLINE
  8
0
 62
     0
 66
     1
 10
0
 20
0
 30
0.0
 70
     1
 40
0.273893
 41
0.273893
  0
VERTEX
  8
0
 10
4.53743
 20
6.13781
 30
0.0
 40
0.00380407
 41
0.00380407
  0
VERTEX
  8
0
 10
4.53743
 20
7.03982
 30
0.0
 40
0.00380407
 41
0.00380407
  0
VERTEX
  8
0
 10
4.53743
 20
6.13781
 30
0.0
 40
0.00380407
 41
0.00380407
  0
SEQEND
 8
0
  0
POLYLINE
  8
0
 62
     0
 66
     1
 10
0
 20
0
 30
0.0
 70
     1
 40
0.273893
 41
0.273893
  0
VERTEX
  8
0
 10
2.97504
 20
4.86046
 30
0.0
 40
0.00380407
 41
0.00380407
  0
VERTEX
  8
0
 10
2.97504
 20
5.76247
 30
0.0
 40
0.00380407
 41
0.00380407
  0
VERTEX
  8
0
 10
2.97504
 20
4.86046
 30
0.0
 40
0.00380407
 41
0.00380407
  0
SEQEND
 8
0
  0
POLYLINE
  8
0
 62
     0
 66
     1
 10
0
 20
0
 30
0.0
 70
     1
 40
0.273893
 41
0.273893
  0
VERTEX
  8
0
 10
4.49875
 20
4.74869
 30
0.0
 40
0.00380407
 41
0.00380407
  0
VERTEX
  8
0
 10
4.23465
 20
4.74869
 30
0.0
 40
0.00380407
 41
0.00380407
  0
VERTEX
  8
0
 10
4.49875
 20
4.74869
 30
0.0
 40
0.00380407
 41
0.00380407
  0
SEQEND
 8
0
  0
POLYLINE
  8
0
 62
     0
 66
     1
 10
0
 20
0
 30
0.0
 70
     1
 40
0.273893
 41
0.273893
  0
VERTEX
  8
0
 10
5.26812
 20
7.17507
 30
0.0
 40
0.00380407
 41
0.00380407
  0
VERTEX
  8
0
 10
5.26812
 20
7.03982
 30
0.0
 40
0.00380407
 41
0.00380407
  0
VERTEX
  8
0
 10
5.26812
 20
7.17507
 30
0.0
 40
0.00380407
 41
0.00380407
  0
SEQEND
 8
0
  0
POLYLINE
  8
0
 62
     0
 66
     1
 10
0
 20
0
 30
0.0
 70
     1
 40
0.273893
 41
0.273893
  0
VERTEX
  8
0
 10
2.97504
 20
5.76247
 30
0.0
 40
0.00380407
 41
0.00380407
  0
VERTEX
  8
0
 10
2.97504
 20
5.89779
 30
0.0
 40
0.00380407
 41
0.00380407
  0
VERTEX
  8
0
 10
2.97504
 20
5.76247
 30
0.0
 40
0.00380407
 41
0.00380407
  0
SEQEND
 8
0
  0
POLYLINE
  8
0
 62
     0
 66
     1
 10
0
 20
0
 30
0.0
 70
     1
 40
0.273893
 41
0.273893
  0
VERTEX
  8
0
 10
4.49875
 20
4.86143
 30
0.0
 40
0.00380407
 41
0.00380407
  0
VERTEX
  8
0
 10
4.49875
 20
4.74869
 30
0.0
 40
0.00380407
 41
0.00380407
  0
VERTEX
  8
0
 10
4.49875
 20
4.86143
 30
0.0
 40
0.00380407
 41
0.00380407
  0
SEQEND
 8
0
  0
POLYLINE
  8
0
 62
     0
 66
     1
 10
0
 20
0
 30
0.0
 70
     1
 40
0.273893
 41
0.273893
  0
VERTEX
  8
0
 10
4.18528
 20
7.17507
 30
0.0
 40
0.00380407
 41
0.00380407
  0
VERTEX
  8
0
 10
4.53743
 20
7.17507
 30
0.0
 40
0.00380407
 41
0.00380407
  0
VERTEX
  8
0
 10
4.18528
 20
7.17507
 30
0.0
 40
0.00380407
 41
0.00380407
  0
SEQEND
 8
0
  0
POLYLINE
  8
0
 62
     0
 66
     1
 10
0
 20
0
 30
0.0
 70
     1
 40
0.273893
 41
0.273893
  0
VERTEX
  8
0
 10
1.37277
 20
4.86046
 30
0.0
 40
0.00380407
 41
0.00380407
  0
VERTEX
  8
0
 10
1.37277
 20
5.76247
 30
0.0
 40
0.00380407
 41
0.00380407
  0
VERTEX
  8
0
 10
1.37277
 20
4.86046
 30
0.0
 40
0.00380407
 41
0.00380407
  0
SEQEND
 8
0
  0
POLYLINE
  8
0
 62
     0
 66
     1
 10
0
 20
0
 30
0.0
 70
     1
 40
0.273893
 41
0.273893
  0
VERTEX
  8
0
 10
4.23465
 20
4.74869
 30
0.0
 40
0.00380407
 41
0.00380407
  0
VERTEX
  8
0
 10
4.23465
 20
4.86143
 30
0.0
 40
0.00380407
 41
0.00380407
  0
VERTEX
  8
0
 10
4.23465
 20
4.74869
 30
0.0
 40
0.00380407
 41
0.00380407
  0
SEQEND
 8
0
  0
POLYLINE
  8
0
 62
     0
 66
     1
 10
0
 20
0
 30
0.0
 70
     1
 40
0.273893
 41
0.273893
  0
VERTEX
  8
0
 10
5.26812
 20
7.03982
 30
0.0
 40
0.00380407
 41
0.00380407
  0
VERTEX
  8
0
 10
5.26812
 20
6.13781
 30
0.0
 40
0.00380407
 41
0.00380407
  0
VERTEX
  8
0
 10
5.26812
 20
7.03982
 30
0.0
 40
0.00380407
 41
0.00380407
  0
SEQEND
 8
0
  0
POLYLINE
  8
0
 62
     0
 66
     1
 10
0
 20
0
 30
0.0
 70
     1
 40
0.273893
 41
0.273893
  0
VERTEX
  8
0
 10
1.37277
 20
5.76247
 30
0.0
 40
0.00380407
 41
0.00380407
  0
VERTEX
  8
0
 10
1.37277
 20
5.89779
 30
0.0
 40
0.00380407
 41
0.00380407
  0
VERTEX
  8
0
 10
1.37277
 20
5.76247
 30
0.0
 40
0.00380407
 41
0.00380407
  0
SEQEND
 8
0
  0
POLYLINE
  8
0
 62
     0
 66
     1
 10
0
 20
0
 30
0.0
 70
     1
 40
0.273893
 41
0.273893
  0
VERTEX
  8
0
 10
5.02696
 20
4.86143
 30
0.0
 40
0.00380407
 41
0.00380407
  0
VERTEX
  8
0
 10
5.02696
 20
4.74869
 30
0.0
 40
0.00380407
 41
0.00380407
  0
VERTEX
  8
0
 10
5.02696
 20
4.86143
 30
0.0
 40
0.00380407
 41
0.00380407
  0
SEQEND
 8
0
  0
POLYLINE
  8
0
 62
     0
 66
     1
 10
0
 20
0
 30
0.0
 70
     1
 40
0.273893
 41
0.273893
  0
VERTEX
  8
0
 10
4.53743
 20
7.17507
 30
0.0
 40
0.00380407
 41
0.00380407
  0
VERTEX
  8
0
 10
4.78097
 20
7.17507
 30
0.0
 40
0.00380407
 41
0.00380407
  0
VERTEX
  8
0
 10
4.53743
 20
7.17507
 30
0.0
 40
0.00380407
 41
0.00380407
  0
SEQEND
 8
0
  0
POLYLINE
  8
0
 62
     0
 66
     1
 10
0
 20
0
 30
0.0
 70
     1
 40
0.273893
 41
0.273893
  0
VERTEX
  8
0
 10
2.97504
 20
5.89779
 30
0.0
 40
0.00380407
 41
0.00380407
  0
VERTEX
  8
0
 10
2.44097
 20
5.89779
 30
0.0
 40
0.00380407
 41
0.00380407
  0
VERTEX
  8
0
 10
2.97504
 20
5.89779
 30
0.0
 40
0.00380407
 41
0.00380407
  0
SEQEND
 8
0
  0
POLYLINE
  8
0
 62
     0
 66
     1
 10
0
 20
0
 30
0.0
 70
     1
 40
0.273893
 41
0.273893
  0
VERTEX
  8
0
 10
4.76286
 20
4.74869
 30
0.0
 40
0.00380407
 41
0.00380407
  0
VERTEX
  8
0
 10
4.76286
 20
4.86143
 30
0.0
 40
0.00380407
 41
0.00380407
  0
VERTEX
  8
0
 10
4.76286
 20
4.74869
 30
0.0
 40
0.00380407
 41
0.00380407
  0
SEQEND
 8
0
  0
POLYLINE
  8
0
 62
     0
 66
     1
 10
0
 20
0
 30
0.0
 70
     1
 40
0.273893
 41
0.273893
  0
VERTEX
  8
0
 10
3.93875
 20
7.17507
 30
0.0
 40
0.00380407
 41
0.00380407
  0
VERTEX
  8
0
 10
4.18528
 20
7.17507
 30
0.0
 40
0.00380407
 41
0.00380407
  0
VERTEX
  8
0
 10
3.93875
 20
7.17507
 30
0.0
 40
0.00380407
 41
0.00380407
  0
SEQEND
 8
0
  0
POLYLINE
  8
0
 62
     0
 66
     1
 10
0
 20
0
 30
0.0
 70
     1
 40
0.273893
 41
0.273893
  0
VERTEX
  8
0
 10
1.90685
 20
5.89779
 30
0.0
 40
0.00380407
 41
0.00380407
  0
VERTEX
  8
0
 10
1.37277
 20
5.89779
 30
0.0
 40
0.00380407
 41
0.00380407
  0
VERTEX
  8
0
 10
1.90685
 20
5.89779
 30
0.0
 40
0.00380407
 41
0.00380407
  0
SEQEND
 8
0
  0
POLYLINE
  8
0
 62
     0
 66
     1
 10
0
 20
0
 30
0.0
 70
     1
 40
0.273893
 41
0.273893
  0
VERTEX
  8
0
 10
3.07021
 20
5.88699
 30
0.0
 40
0.00380407
 41
0.00380407
  0
VERTEX
  8
0
 10
3.10547
 20
5.88699
 30
0.0
 40
0.00380407
 41
0.00380407
  0
VERTEX
  8
0
 10
3.07021
 20
5.88699
 30
0.0
 40
0.00380407
 41
0.00380407
  0
SEQEND
 8
0
  0
POLYLINE
  8
0
 62
     0
 66
     1
 10
0
 20
0
 30
0.0
 70
     1
 40
0.273893
 41
0.273893
  0
VERTEX
  8
0
 10
2.46853
 20
6.54372
 30
0.0
 40
0.00380407
 41
0.00380407
  0
VERTEX
  8
0
 10
2.46853
 20
6.13781
 30
0.0
 40
0.00380407
 41
0.00380407
  0
VERTEX
  8
0
 10
2.46853
 20
6.54372
 30
0.0
 40
0.00380407
 41
0.00380407
  0
SEQEND
 8
0
  0
POLYLINE
  8
0
 62
     0
 66
     1
 10
0
 20
0
 30
0.0
 70
     1
 40
0.273893
 41
0.273893
  0
VERTEX
  8
0
 10
2.44097
 20
5.89779
 30
0.0
 40
0.00380407
 41
0.00380407
  0
VERTEX
  8
0
 10
1.90685
 20
5.89779
 30
0.0
 40
0.00380407
 41
0.00380407
  0
VERTEX
  8
0
 10
2.44097
 20
5.89779
 30
0.0
 40
0.00380407
 41
0.00380407
  0
SEQEND
 8
0
  0
POLYLINE
  8
0
 62
     0
 66
     1
 10
0
 20
0
 30
0.0
 70
     1
 40
0.273893
 41
0.273893
  0
VERTEX
  8
0
 10
3.45757
 20
5.75168
 30
0.0
 40
0.00380407
 41
0.00380407
  0
VERTEX
  8
0
 10
3.10547
 20
5.75168
 30
0.0
 40
0.00380407
 41
0.00380407
  0
VERTEX
  8
0
 10
3.45757
 20
5.75168
 30
0.0
 40
0.00380407
 41
0.00380407
  0
SEQEND
 8
0
  0
POLYLINE
  8
0
 62
     0
 66
     1
 10
0
 20
0
 30
0.0
 70
     1
 40
0.273893
 41
0.273893
  0
VERTEX
  8
0
 10
2.55658
 20
6.54372
 30
0.0
 40
0.00380407
 41
0.00380407
  0
VERTEX
  8
0
 10
2.46853
 20
6.54372
 30
0.0
 40
0.00380407
 41
0.00380407
  0
VERTEX
  8
0
 10
2.55658
 20
6.54372
 30
0.0
 40
0.00380407
 41
0.00380407
  0
SEQEND
 8
0
  0
POLYLINE
  8
0
 62
     0
 66
     1
 10
0
 20
0
 30
0.0
 70
     1
 40
0.273893
 41
0.273893
  0
VERTEX
  8
0
 10
1.90685
 20
4.86046
 30
0.0
 40
0.00380407
 41
0.00380407
  0
VERTEX
  8
0
 10
2.44097
 20
4.86046
 30
0.0
 40
0.00380407
 41
0.00380407
  0
VERTEX
  8
0
 10
1.90685
 20
4.86046
 30
0.0
 40
0.00380407
 41
0.00380407
  0
SEQEND
 8
0
  0
POLYLINE
  8
0
 62
     0
 66
     1
 10
0
 20
0
 30
0.0
 70
     1
 40
0.273893
 41
0.273893
  0
VERTEX
  8
0
 10
3.10547
 20
5.88699
 30
0.0
 40
0.00380407
 41
0.00380407
  0
VERTEX
  8
0
 10
3.45757
 20
5.88699
 30
0.0
 40
0.00380407
 41
0.00380407
  0
VERTEX
  8
0
 10
3.10547
 20
5.88699
 30
0.0
 40
0.00380407
 41
0.00380407
  0
SEQEND
 8
0
  0
POLYLINE
  8
0
 62
     0
 66
     1
 10
0
 20
0
 30
0.0
 70
     1
 40
0.273893
 41
0.273893
  0
VERTEX
  8
0
 10
2.55658
 20
7.17507
 30
0.0
 40
0.00380407
 41
0.00380407
  0
VERTEX
  8
0
 10
2.46853
 20
7.17507
 30
0.0
 40
0.00380407
 41
0.00380407
  0
VERTEX
  8
0
 10
2.55658
 20
7.17507
 30
0.0
 40
0.00380407
 41
0.00380407
  0
SEQEND
 8
0
  0
POLYLINE
  8
0
 62
     0
 66
     1
 10
0
 20
0
 30
0.0
 70
     1
 40
0.273893
 41
0.273893
  0
VERTEX
  8
0
 10
1.37277
 20
4.74772
 30
0.0
 40
0.00380407
 41
0.00380407
  0
VERTEX
  8
0
 10
1.90685
 20
4.74772
 30
0.0
 40
0.00380407
 41
0.00380407
  0
VERTEX
  8
0
 10
1.37277
 20
4.74772
 30
0.0
 40
0.00380407
 41
0.00380407
  0
SEQEND
 8
0
  0
POLYLINE
  8
0
 62
     0
 66
     1
 10
0
 20
0
 30
0.0
 70
     1
 40
0.273893
 41
0.273893
  0
VERTEX
  8
0
 10
3.45757
 20
5.88699
 30
0.0
 40
0.00380407
 41
0.00380407
  0
VERTEX
  8
0
 10
3.49278
 20
5.88699
 30
0.0
 40
0.00380407
 41
0.00380407
  0
VERTEX
  8
0
 10
3.45757
 20
5.88699
 30
0.0
 40
0.00380407
 41
0.00380407
  0
SEQEND
 8
0
  0
POLYLINE
  8
0
 62
     0
 66
     1
 10
0
 20
0
 30
0.0
 70
     1
 40
0.273893
 41
0.273893
  0
VERTEX
  8
0
 10
2.46853
 20
7.17507
 30
0.0
 40
0.00380407
 41
0.00380407
  0
VERTEX
  8
0
 10
2.11637
 20
7.17507
 30
0.0
 40
0.00380407
 41
0.00380407
  0
VERTEX
  8
0
 10
2.46853
 20
7.17507
 30
0.0
 40
0.00380407
 41
0.00380407
  0
SEQEND
 8
0
  0
POLYLINE
  8
0
 62
     0
 66
     1
 10
0
 20
0
 30
0.0
 70
     1
 40
0.273893
 41
0.273893
  0
VERTEX
  8
0
 10
2.44097
 20
4.74772
 30
0.0
 40
0.00380407
 41
0.00380407
  0
VERTEX
  8
0
 10
2.97504
 20
4.74772
 30
0.0
 40
0.00380407
 41
0.00380407
  0
VERTEX
  8
0
 10
2.44097
 20
4.74772
 30
0.0
 40
0.00380407
 41
0.00380407
  0
SEQEND
 8
0
  0
POLYLINE
  8
0
 62
     0
 66
     1
 10
0
 20
0
 30
0.0
 70
     1
 40
0.273893
 41
0.273893
  0
VERTEX
  8
0
 10
3.45757
 20
5.75168
 30
0.0
 40
0.00380407
 41
0.00380407
  0
VERTEX
  8
0
 10
3.45757
 20
4.84972
 30
0.0
 40
0.00380407
 41
0.00380407
  0
VERTEX
  8
0
 10
3.45757
 20
5.75168
 30
0.0
 40
0.00380407
 41
0.00380407
  0
SEQEND
 8
0
  0
POLYLINE
  8
0
 62
     0
 66
     1
 10
0
 20
0
 30
0.0
 70
     1
 40
0.273893
 41
0.273893
  0
VERTEX
  8
0
 10
1.41206
 20
7.03982
 30
0.0
 40
0.00380407
 41
0.00380407
  0
VERTEX
  8
0
 10
1.41206
 20
6.13781
 30
0.0
 40
0.00380407
 41
0.00380407
  0
VERTEX
  8
0
 10
1.41206
 20
7.03982
 30
0.0
 40
0.00380407
 41
0.00380407
  0
SEQEND
 8
0
  0
POLYLINE
  8
0
 62
     0
 66
     1
 10
0
 20
0
 30
0.0
 70
     1
 40
0.273893
 41
0.273893
  0
VERTEX
  8
0
 10
2.97504
 20
4.86046
 30
0.0
 40
0.00380407
 41
0.00380407
  0
VERTEX
  8
0
 10
2.97504
 20
4.74772
 30
0.0
 40
0.00380407
 41
0.00380407
  0
VERTEX
  8
0
 10
2.97504
 20
4.86046
 30
0.0
 40
0.00380407
 41
0.00380407
  0
SEQEND
 8
0
  0
POLYLINE
  8
0
 62
     0
 66
     1
 10
0
 20
0
 30
0.0
 70
     1
 40
0.273893
 41
0.273893
  0
VERTEX
  8
0
 10
3.49278
 20
4.84972
 30
0.0
 40
0.00380407
 41
0.00380407
  0
VERTEX
  8
0
 10
3.49278
 20
5.75168
 30
0.0
 40
0.00380407
 41
0.00380407
  0
VERTEX
  8
0
 10
3.49278
 20
4.84972
 30
0.0
 40
0.00380407
 41
0.00380407
  0
SEQEND
 8
0
  0
POLYLINE
  8
0
 62
     0
 66
     1
 10
0
 20
0
 30
0.0
 70
     1
 40
0.273893
 41
0.273893
  0
VERTEX
  8
0
 10
1.41206
 20
7.17507
 30
0.0
 40
0.00380407
 41
0.00380407
  0
VERTEX
  8
0
 10
1.41206
 20
7.03982
 30
0.0
 40
0.00380407
 41
0.00380407
  0
VERTEX
  8
0
 10
1.41206
 20
7.17507
 30
0.0
 40
0.00380407
 41
0.00380407
  0
SEQEND
 8
0
  0
POLYLINE
  8
0
 62
     0
 66
     1
 10
0
 20
0
 30
0.0
 70
     1
 40
0.273893
 41
0.273893
  0
VERTEX
  8
0
 10
2.44097
 20
4.74772
 30
0.0
 40
0.00380407
 41
0.00380407
  0
VERTEX
  8
0
 10
2.44097
 20
4.86046
 30
0.0
 40
0.00380407
 41
0.00380407
  0
VERTEX
  8
0
 10
2.44097
 20
4.74772
 30
0.0
 40
0.00380407
 41
0.00380407
  0
SEQEND
 8
0
  0
POLYLINE
  8
0
 62
     0
 66
     1
 10
0
 20
0
 30
0.0
 70
     1
 40
0.273893
 41
0.273893
  0
VERTEX
  8
0
 10
3.07021
 20
5.75168
 30
0.0
 40
0.00380407
 41
0.00380407
  0
VERTEX
  8
0
 10
3.07021
 20
4.84972
 30
0.0
 40
0.00380407
 41
0.00380407
  0
VERTEX
  8
0
 10
3.07021
 20
5.75168
 30
0.0
 40
0.00380407
 41
0.00380407
  0
SEQEND
 8
0
  0
POLYLINE
  8
0
 62
     0
 66
     1
 10
0
 20
0
 30
0.0
 70
     1
 40
0.273893
 41
0.273893
  0
VERTEX
  8
0
 10
1.76421
 20
7.03982
 30
0.0
 40
0.00380407
 41
0.00380407
  0
VERTEX
  8
0
 10
2.11637
 20
7.03982
 30
0.0
 40
0.00380407
 41
0.00380407
  0
VERTEX
  8
0
 10
1.76421
 20
7.03982
 30
0.0
 40
0.00380407
 41
0.00380407
  0
SEQEND
 8
0
  0
POLYLINE
  8
0
 62
     0
 66
     1
 10
0
 20
0
 30
0.0
 70
     1
 40
0.273893
 41
0.273893
  0
VERTEX
  8
0
 10
1.90685
 20
4.86046
 30
0.0
 40
0.00380407
 41
0.00380407
  0
VERTEX
  8
0
 10
1.90685
 20
4.74772
 30
0.0
 40
0.00380407
 41
0.00380407
  0
VERTEX
  8
0
 10
1.90685
 20
4.86046
 30
0.0
 40
0.00380407
 41
0.00380407
  0
SEQEND
 8
0
  0
POLYLINE
  8
0
 62
     0
 66
     1
 10
0
 20
0
 30
0.0
 70
     1
 40
0.273893
 41
0.273893
  0
VERTEX
  8
0
 10
3.10547
 20
4.84972
 30
0.0
 40
0.00380407
 41
0.00380407
  0
VERTEX
  8
0
 10
3.10547
 20
5.75168
 30
0.0
 40
0.00380407
 41
0.00380407
  0
VERTEX
  8
0
 10
3.10547
 20
4.84972
 30
0.0
 40
0.00380407
 41
0.00380407
  0
SEQEND
 8
0
  0
POLYLINE
  8
0
 62
     0
 66
     1
 10
0
 20
0
 30
0.0
 70
     1
 40
0.273893
 41
0.273893
  0
VERTEX
  8
0
 10
1.76421
 20
7.17507
 30
0.0
 40
0.00380407
 41
0.00380407
  0
VERTEX
  8
0
 10
1.41206
 20
7.17507
 30
0.0
 40
0.00380407
 41
0.00380407
  0
VERTEX
  8
0
 10
1.76421
 20
7.17507
 30
0.0
 40
0.00380407
 41
0.00380407
  0
SEQEND
 8
0
  0
POLYLINE
  8
0
 62
     0
 66
     1
 10
0
 20
0
 30
0.0
 70
     1
 40
0.273893
 41
0.273893
  0
VERTEX
  8
0
 10
1.37277
 20
4.74772
 30
0.0
 40
0.00380407
 41
0.00380407
  0
VERTEX
  8
0
 10
1.37277
 20
4.86046
 30
0.0
 40
0.00380407
 41
0.00380407
  0
VERTEX
  8
0
 10
1.37277
 20
4.74772
 30
0.0
 40
0.00380407
 41
0.00380407
  0
SEQEND
 8
0
  0
POLYLINE
  8
0
 62
     0
 66
     1
 10
0
 20
0
 30
0.0
 70
     1
 40
0.273893
 41
0.273893
  0
VERTEX
  8
0
 10
3.01742
 20
5.75168
 30
0.0
 40
0.00380407
 41
0.00380407
  0
VERTEX
  8
0
 10
3.01742
 20
5.88699
 30
0.0
 40
0.00380407
 41
0.00380407
  0
VERTEX
  8
0
 10
3.01742
 20
5.75168
 30
0.0
 40
0.00380407
 41
0.00380407
  0
SEQEND
 8
0
  0
POLYLINE
  8
0
 62
     0
 66
     1
 10
0
 20
0
 30
0.0
 70
     1
 40
0.273893
 41
0.273893
  0
VERTEX
  8
0
 10
2.11637
 20
7.17507
 30
0.0
 40
0.00380407
 41
0.00380407
  0
VERTEX
  8
0
 10
1.76421
 20
7.17507
 30
0.0
 40
0.00380407
 41
0.00380407
  0
VERTEX
  8
0
 10
2.11637
 20
7.17507
 30
0.0
 40
0.00380407
 41
0.00380407
  0
SEQEND
 8
0
  0
POLYLINE
  8
0
 62
     0
 66
     1
 10
0
 20
0
 30
0.0
 70
     1
 40
0.273893
 41
0.273893
  0
VERTEX
  8
0
 10
3.07021
 20
5.88699
 30
0.0
 40
0.00380407
 41
0.00380407
  0
VERTEX
  8
0
 10
3.01742
 20
5.88699
 30
0.0
 40
0.00380407
 41
0.00380407
  0
VERTEX
  8
0
 10
3.07021
 20
5.88699
 30
0.0
 40
0.00380407
 41
0.00380407
  0
SEQEND
 8
0
  0
POLYLINE
  8
0
 62
     0
 66
     1
 10
0
 20
0
 30
0.0
 70
     1
 40
0.273893
 41
0.273893
  0
VERTEX
  8
0
 10
2.11637
 20
7.03982
 30
0.0
 40
0.00380407
 41
0.00380407
  0
VERTEX
  8
0
 10
2.11637
 20
6.13781
 30
0.0
 40
0.00380407
 41
0.00380407
  0
VERTEX
  8
0
 10
2.11637
 20
7.03982
 30
0.0
 40
0.00380407
 41
0.00380407
  0
SEQEND
 8
0
  0
ENDSEC
  0
EOF
