<?xml version="1.0" standalone="no"?>
<!DOCTYPE svg PUBLIC "-//W3C//DTD SVG 1.1//EN" 
  "http://www.w3.org/Graphics/SVG/1.1/DTD/svg11.dtd">
<svg width="3264" height="2448" viewBox="0 0 3264 2448"
     xmlns="http://www.w3.org/2000/svg" version="1.1">
<desc>'haus.blend', Plane.017, (Blender 2.78 (sub 0))</desc>
<polygon stroke="black" stroke-width="1" fill="grey" fill-opacity="0.25" points="2142.982,1035.659 2024.035,1035.659 2024.035,737.298 2142.982,737.298 " />
<polygon stroke="black" stroke-width="1" fill="grey" fill-opacity="0.25" points="2024.035,1035.659 1231.055,1035.659 1231.055,737.298 2024.035,737.298 " />
<polygon stroke="black" stroke-width="1" fill="grey" fill-opacity="0.25" points="2142.982,737.298 2024.035,737.298 2024.035,704.945 2142.982,704.945 " />
<polygon stroke="black" stroke-width="1" fill="grey" fill-opacity="0.25" points="2024.035,1632.381 1231.055,1632.381 1231.055,1334.020 2024.035,1334.020 " />
<polygon stroke="black" stroke-width="1" fill="grey" fill-opacity="0.25" points="2024.035,1334.020 1231.055,1334.020 1231.055,1035.659 2024.035,1035.659 " />
<polygon stroke="black" stroke-width="1" fill="grey" fill-opacity="0.25" points="2142.982,1632.381 2024.035,1632.381 2024.035,1334.020 2142.982,1334.020 " />
<polygon stroke="black" stroke-width="1" fill="grey" fill-opacity="0.25" points="2142.982,1334.020 2024.035,1334.020 2024.035,1035.659 2142.982,1035.659 " />
<polygon stroke="black" stroke-width="1" fill="grey" fill-opacity="0.25" points="1231.055,1334.020 1231.055,1632.381 1131.932,1632.381 1131.932,1334.020 " />
<polygon stroke="black" stroke-width="1" fill="grey" fill-opacity="0.25" points="1231.055,737.298 1231.055,1035.659 1131.932,1035.659 1131.932,737.298 " />
<polygon stroke="black" stroke-width="1" fill="grey" fill-opacity="0.25" points="2024.035,1632.381 2142.982,1632.381 2142.982,1686.302 2024.035,1686.302 " />
<polygon stroke="black" stroke-width="1" fill="grey" fill-opacity="0.25" points="118.947,900.476 118.947,868.123 911.928,868.123 911.928,900.476 " />
<polygon stroke="black" stroke-width="1" fill="grey" fill-opacity="0.25" points="0.000,900.476 118.947,900.476 118.947,1051.454 0.001,1051.454 " />
<polygon stroke="black" stroke-width="1" fill="grey" fill-opacity="0.25" points="118.947,900.476 911.928,900.476 911.928,1051.454 118.947,1051.454 " />
<polygon stroke="black" stroke-width="1" fill="grey" fill-opacity="0.25" points="0.001,1051.454 118.947,1051.454 118.947,1267.137 0.001,1267.137 " />
<polygon stroke="black" stroke-width="1" fill="grey" fill-opacity="0.25" points="0.001,1714.679 0.001,1267.137 118.947,1267.137 555.087,1714.679 " />
<polygon stroke="black" stroke-width="1" fill="grey" fill-opacity="0.25" points="911.928,1714.679 555.087,1714.679 118.947,1267.137 911.928,1267.137 " />
<polygon stroke="black" stroke-width="1" fill="grey" fill-opacity="0.25" points="118.947,868.123 118.947,717.145 911.928,717.145 911.928,868.123 " />
<polygon stroke="black" stroke-width="1" fill="grey" fill-opacity="0.25" points="0.000,717.145 0.000,501.462 118.947,501.462 118.947,717.145 " />
<polygon stroke="black" stroke-width="1" fill="grey" fill-opacity="0.25" points="0.000,868.123 0.000,717.145 118.947,717.145 118.947,868.123 " />
<polygon stroke="black" stroke-width="1" fill="grey" fill-opacity="0.25" points="911.927,352.282 911.927,501.462 118.947,501.462 118.947,352.282 " />
<polygon stroke="black" stroke-width="1" fill="grey" fill-opacity="0.25" points="0.000,352.282 118.947,352.282 118.947,501.462 0.000,501.462 " />
<polygon stroke="black" stroke-width="1" fill="grey" fill-opacity="0.25" points="0.001,1714.679 555.087,1714.679 555.087,1768.599 0.001,1768.599 " />
<polygon stroke="black" stroke-width="1" fill="grey" fill-opacity="0.25" points="0.001,2199.965 118.947,2199.965 118.947,2415.648 0.001,2415.648 " />
<polygon stroke="black" stroke-width="1" fill="grey" fill-opacity="0.25" points="911.928,2199.965 911.928,2415.648 118.947,2415.648 118.947,2199.965 " />
<polygon stroke="black" stroke-width="1" fill="grey" fill-opacity="0.25" points="911.928,1768.599 911.928,1984.282 118.947,1984.282 555.087,1768.599 " />
<polygon stroke="black" stroke-width="1" fill="grey" fill-opacity="0.25" points="0.001,1768.599 555.087,1768.599 118.947,1984.282 0.001,1984.282 " />
<polygon stroke="black" stroke-width="1" fill="grey" fill-opacity="0.25" points="0.001,1984.282 118.947,1984.282 118.947,2199.965 0.001,2199.965 " />
<polygon stroke="black" stroke-width="1" fill="grey" fill-opacity="0.25" points="0.000,53.921 118.947,53.921 118.947,203.102 0.000,203.102 " />
<polygon stroke="black" stroke-width="1" fill="grey" fill-opacity="0.25" points="0.000,203.102 118.947,203.102 118.947,352.282 0.000,352.282 " />
<polygon stroke="black" stroke-width="1" fill="grey" fill-opacity="0.25" points="911.927,53.921 911.927,203.102 118.947,203.102 118.947,53.921 " />
<polygon stroke="black" stroke-width="1" fill="grey" fill-opacity="0.25" points="911.927,203.102 911.927,352.282 118.947,352.282 118.947,203.102 " />
<polygon stroke="black" stroke-width="1" fill="grey" fill-opacity="0.25" points="911.927,501.462 911.927,352.282 1011.049,352.282 1011.049,501.462 " />
<polygon stroke="black" stroke-width="1" fill="grey" fill-opacity="0.25" points="911.928,868.123 911.928,717.145 1011.049,717.145 1011.049,868.123 " />
<polygon stroke="black" stroke-width="1" fill="grey" fill-opacity="0.25" points="911.928,1984.282 911.928,1768.599 1011.049,1768.599 1011.050,1984.282 " />
<polygon stroke="black" stroke-width="1" fill="grey" fill-opacity="0.25" points="911.928,2415.648 911.928,2199.965 1011.050,2199.965 1011.050,2415.648 " />
<polygon stroke="black" stroke-width="1" fill="grey" fill-opacity="0.25" points="911.927,203.102 911.927,53.921 1011.049,53.921 1011.049,203.102 " />
<polygon stroke="black" stroke-width="1" fill="grey" fill-opacity="0.25" points="911.928,1714.679 911.928,1267.137 1011.049,1267.137 1011.049,1714.679 " />
<polygon stroke="black" stroke-width="1" fill="grey" fill-opacity="0.25" points="911.928,1051.454 911.928,900.476 1011.049,900.476 1011.049,1051.454 " />
<polygon stroke="black" stroke-width="1" fill="grey" fill-opacity="0.25" points="0.001,2415.648 118.947,2415.648 118.947,2448.000 0.001,2448.000 " />
<polygon stroke="black" stroke-width="1" fill="grey" fill-opacity="0.25" points="118.947,53.921 0.000,53.921 0.000,0.000 118.947,0.000 " />
<polygon stroke="black" stroke-width="1" fill="grey" fill-opacity="0.25" points="3088.960,460.558 2295.981,460.558 2295.981,622.320 3088.960,622.320 " />
<polygon stroke="black" stroke-width="1" fill="grey" fill-opacity="0.25" points="3088.960,460.558 3088.960,622.320 3207.908,622.320 3207.908,460.558 " />
<polygon stroke="black" stroke-width="1" fill="grey" fill-opacity="0.25" points="3088.960,622.320 2295.981,622.320 2295.981,654.672 3088.960,654.672 " />
<polygon stroke="black" stroke-width="1" fill="grey" fill-opacity="0.25" points="3088.960,137.034 3088.960,298.795 3207.908,298.795 3207.908,137.034 " />
<polygon stroke="black" stroke-width="1" fill="grey" fill-opacity="0.25" points="3088.960,298.795 3088.960,460.558 3207.908,460.558 3207.908,298.795 " />
<polygon stroke="black" stroke-width="1" fill="grey" fill-opacity="0.25" points="3088.960,137.034 2295.981,137.034 2295.981,298.795 3088.960,298.795 " />
<polygon stroke="black" stroke-width="1" fill="grey" fill-opacity="0.25" points="3088.960,298.795 2295.981,298.795 2295.981,460.558 3088.960,460.558 " />
<polygon stroke="black" stroke-width="1" fill="grey" fill-opacity="0.25" points="2295.981,298.795 2295.981,137.034 2196.857,137.034 2196.857,298.795 " />
<polygon stroke="black" stroke-width="1" fill="grey" fill-opacity="0.25" points="2295.981,622.320 2295.981,460.558 2196.857,460.558 2196.857,622.320 " />
<polygon stroke="black" stroke-width="1" fill="grey" fill-opacity="0.25" points="3088.960,137.034 3207.908,137.034 3207.908,83.112 3088.960,83.112 " />
<polygon stroke="black" stroke-width="1" fill="grey" fill-opacity="0.25" points="1638.393,2233.822 1598.743,2233.822 1598.743,2169.117 1638.393,2169.117 " />
<polygon stroke="black" stroke-width="1" fill="grey" fill-opacity="0.25" points="1598.743,2233.822 1202.253,2233.822 1202.253,2169.117 1598.743,2169.117 " />
<polygon stroke="black" stroke-width="1" fill="grey" fill-opacity="0.25" points="1202.253,2233.822 1162.604,2233.822 1162.604,2169.117 1202.253,2169.117 " />
<polygon stroke="black" stroke-width="1" fill="grey" fill-opacity="0.25" points="1202.253,2169.117 1162.604,2169.117 1162.604,1737.751 1202.253,1737.751 " />
<polygon stroke="black" stroke-width="1" fill="grey" fill-opacity="0.25" points="1638.393,2169.117 1598.743,2169.117 1598.743,1737.751 1638.393,1737.751 " />
<polygon stroke="black" stroke-width="1" fill="grey" fill-opacity="0.25" points="1638.393,2233.822 1638.393,2169.117 1697.866,2169.117 1697.866,2233.822 " />
<polygon stroke="black" stroke-width="1" fill="grey" fill-opacity="0.25" points="1162.604,2169.117 1162.604,2233.822 1103.131,2233.822 1103.131,2169.117 " />
<polygon stroke="black" stroke-width="1" fill="grey" fill-opacity="0.25" points="1638.393,1737.751 1598.743,1737.751 1598.743,1683.831 1638.393,1683.831 " />
<polygon stroke="black" stroke-width="1" fill="grey" fill-opacity="0.25" points="1202.253,1737.751 1162.604,1737.751 1162.604,1683.831 1202.253,1683.831 " />
<polygon stroke="black" stroke-width="1" fill="grey" fill-opacity="0.25" points="3145.052,713.116 2352.073,713.116 2352.073,680.763 3145.052,680.763 " />
<polygon stroke="black" stroke-width="1" fill="grey" fill-opacity="0.25" points="2352.073,788.605 3145.052,788.605 3145.052,820.958 2352.073,820.958 " />
<polygon stroke="black" stroke-width="1" fill="grey" fill-opacity="0.25" points="3145.052,788.605 3145.052,734.684 3264.000,734.684 3264.000,788.605 " />
<polygon stroke="black" stroke-width="1" fill="grey" fill-opacity="0.25" points="3145.052,788.605 2352.073,788.605 2352.073,734.684 3145.052,734.684 " />
<polygon stroke="black" stroke-width="1" fill="grey" fill-opacity="0.25" points="2352.073,788.605 2352.073,820.958 2252.950,820.958 2252.950,788.605 " />
<polygon stroke="black" stroke-width="1" fill="grey" fill-opacity="0.25" points="2352.073,713.116 2352.073,734.684 2252.950,734.684 2252.950,713.116 " />
<polygon stroke="black" stroke-width="1" fill="grey" fill-opacity="0.25" points="2352.073,680.763 2352.073,713.116 2252.950,713.116 2252.950,680.763 " />
<polygon stroke="black" stroke-width="1" fill="grey" fill-opacity="0.25" points="3145.052,734.684 3145.052,713.116 3264.000,713.116 3264.000,734.684 " />
<polygon stroke="black" stroke-width="1" fill="grey" fill-opacity="0.25" points="3145.052,734.684 2352.073,734.684 2352.073,713.116 3145.052,713.116 " />
<polygon stroke="black" stroke-width="1" fill="grey" fill-opacity="0.25" points="1617.988,591.509 1617.988,160.143 1413.134,160.143 1413.134,591.509 " />
<polygon stroke="black" stroke-width="1" fill="grey" fill-opacity="0.25" points="2027.694,591.509 2027.694,160.143 1822.841,160.143 1822.841,591.509 " />
<polygon stroke="black" stroke-width="1" fill="grey" fill-opacity="0.25" points="1822.841,591.509 1822.841,160.143 1617.988,160.143 1617.988,591.509 " />
<polygon stroke="black" stroke-width="1" fill="grey" fill-opacity="0.25" points="1822.841,160.143 2027.694,160.143 2027.694,106.222 1822.841,106.222 " />
<polygon stroke="black" stroke-width="1" fill="grey" fill-opacity="0.25" points="1413.134,160.143 1617.988,160.143 1617.988,106.222 1413.134,106.222 " />
<polygon stroke="black" stroke-width="1" fill="grey" fill-opacity="0.25" points="1822.841,591.509 1617.988,591.509 1617.988,656.214 1822.841,656.214 " />
<polygon stroke="black" stroke-width="1" fill="grey" fill-opacity="0.25" points="1617.988,591.509 1413.134,591.509 1413.134,656.214 1617.988,656.214 " />
<polygon stroke="black" stroke-width="1" fill="grey" fill-opacity="0.25" points="2027.694,591.509 1822.841,591.509 1822.841,656.214 2027.694,656.214 " />
<polygon stroke="black" stroke-width="1" fill="grey" fill-opacity="0.25" points="1413.134,656.214 1413.134,591.509 1314.012,591.509 1314.012,656.214 " />
<polygon stroke="black" stroke-width="1" fill="grey" fill-opacity="0.25" points="2027.694,591.509 2027.694,656.214 2087.167,656.214 2087.167,591.509 " />
<polygon stroke="black" stroke-width="1" fill="grey" fill-opacity="0.25" points="3231.030,1185.439 3231.030,890.673 3112.082,890.673 3112.082,1185.439 " />
<polygon stroke="black" stroke-width="1" fill="grey" fill-opacity="0.25" points="3112.082,1185.439 3112.082,890.673 2319.102,890.673 2319.102,1185.439 " />
<polygon stroke="black" stroke-width="1" fill="grey" fill-opacity="0.25" points="3112.082,1785.757 3112.082,1512.558 2319.102,1512.558 2319.102,1785.757 " />
<polygon stroke="black" stroke-width="1" fill="grey" fill-opacity="0.25" points="3112.082,1512.558 3112.082,1185.439 2319.102,1185.439 2319.102,1512.558 " />
<polygon stroke="black" stroke-width="1" fill="grey" fill-opacity="0.25" points="3231.030,1785.757 3231.030,1512.558 3112.082,1512.558 3112.082,1785.757 " />
<polygon stroke="black" stroke-width="1" fill="grey" fill-opacity="0.25" points="3231.030,1512.558 3231.030,1185.439 3112.082,1185.439 3112.082,1512.558 " />
<polygon stroke="black" stroke-width="1" fill="grey" fill-opacity="0.25" points="2319.102,1785.757 2319.102,1512.558 2219.980,1512.558 2219.980,1785.757 " />
<polygon stroke="black" stroke-width="1" fill="grey" fill-opacity="0.25" points="2319.102,1185.439 2319.102,890.673 2219.980,890.673 2219.980,1185.439 " />
<polygon stroke="black" stroke-width="1" fill="grey" fill-opacity="0.25" points="2319.102,1785.757 2219.980,1785.757 2219.980,1839.677 2319.102,1839.677 " />
<polygon stroke="black" stroke-width="1" fill="grey" fill-opacity="0.25" points="3112.082,1785.757 2319.102,1785.757 2319.102,1839.677 3112.082,1839.677 " />
<polygon stroke="black" stroke-width="1" fill="grey" fill-opacity="0.25" points="2219.980,890.673 2319.102,890.673 2319.102,858.320 2219.980,858.320 " />
<polygon stroke="black" stroke-width="1" fill="grey" fill-opacity="0.25" points="2319.102,890.673 3112.082,890.673 3112.082,858.320 2319.102,858.320 " />

</svg>
