  0
SECTION
  2
BLOCKS
  0
ENDSEC
  0
SECTION
  2
ENTITIES
  0
LINE
  8
0
 10
5.69875
 20
14.7895
 11
5.84875
 21
14.7895
  0
LINE
  8
0
 10
5.84875
 20
14.7895
 11
5.84875
 21
14.4895
  0
LINE
  8
0
 10
5.84875
 20
14.4895
 11
10.4987
 21
14.4895
  0
LINE
  8
0
 10
10.4987
 20
14.4895
 11
10.4987
 21
14.7895
  0
LINE
  8
0
 10
10.4987
 20
14.7895
 11
10.7487
 21
14.7895
  0
LINE
  8
0
 10
10.7487
 20
14.7895
 11
10.7487
 21
16.7895
  0
LINE
  8
0
 10
10.7487
 20
16.7895
 11
10.4987
 21
16.7895
  0
LINE
  8
0
 10
10.4987
 20
16.7895
 11
10.4987
 21
17.0395
  0
LINE
  8
0
 10
10.4987
 20
17.0395
 11
9.94876
 21
17.0395
  0
LINE
  8
0
 10
9.94876
 20
17.0395
 11
9.94876
 21
16.7895
  0
LINE
  8
0
 10
9.94876
 20
16.7895
 11
8.44876
 21
16.7895
  0
LINE
  8
0
 10
8.44876
 20
16.7895
 11
8.44876
 21
17.0395
  0
LINE
  8
0
 10
8.44876
 20
17.0395
 11
7.54875
 21
17.0395
  0
LINE
  8
0
 10
7.54875
 20
17.0395
 11
7.54875
 21
16.7895
  0
LINE
  8
0
 10
7.54875
 20
16.7895
 11
6.54875
 21
16.7895
  0
LINE
  8
0
 10
6.54875
 20
16.7895
 11
6.54875
 21
17.0395
  0
LINE
  8
0
 10
6.54875
 20
17.0395
 11
5.84875
 21
17.0395
  0
LINE
  8
0
 10
5.84875
 20
17.0395
 11
5.84875
 21
16.7895
  0
LINE
  8
0
 10
5.84875
 20
16.7895
 11
5.69875
 21
16.7895
  0
LINE
  8
0
 10
5.69875
 20
16.7895
 11
5.69875
 21
17.0395
  0
LINE
  8
0
 10
5.69875
 20
17.0395
 11
4.59875
 21
17.0395
  0
LINE
  8
0
 10
4.59875
 20
17.0395
 11
4.59875
 21
16.7895
  0
LINE
  8
0
 10
4.59875
 20
16.7895
 11
3.59875
 21
16.7895
  0
LINE
  8
0
 10
3.59875
 20
16.7895
 11
3.59875
 21
17.0395
  0
LINE
  8
0
 10
3.59875
 20
17.0395
 11
2.79875
 21
17.0395
  0
LINE
  8
0
 10
2.79875
 20
17.0395
 11
2.79875
 21
16.7895
  0
LINE
  8
0
 10
2.79875
 20
16.7895
 11
2.54875
 21
16.7895
  0
LINE
  8
0
 10
2.54875
 20
16.7895
 11
2.54875
 21
14.7895
  0
LINE
  8
0
 10
2.54875
 20
14.7895
 11
2.79875
 21
14.7895
  0
LINE
  8
0
 10
2.79875
 20
14.7895
 11
2.79875
 21
14.4895
  0
LINE
  8
0
 10
2.79875
 20
14.4895
 11
5.69875
 21
14.4895
  0
LINE
  8
0
 10
5.69875
 20
14.4895
 11
5.69875
 21
14.7895
  0
LINE
  8
0
 10
3.59875
 20
14.7895
 11
3.59875
 21
15.8895
  0
LINE
  8
0
 10
3.59875
 20
15.8895
 11
4.59875
 21
15.8895
  0
LINE
  8
0
 10
4.59875
 20
15.8895
 11
4.59875
 21
14.7895
  0
LINE
  8
0
 10
4.59875
 20
14.7895
 11
3.59875
 21
14.7895
  0
LINE
  8
0
 10
6.54875
 20
14.7895
 11
6.54875
 21
15.8895
  0
LINE
  8
0
 10
6.54875
 20
15.8895
 11
7.54875
 21
15.8895
  0
LINE
  8
0
 10
7.54875
 20
15.8895
 11
7.54875
 21
14.7895
  0
LINE
  8
0
 10
7.54875
 20
14.7895
 11
6.54875
 21
14.7895
  0
LINE
  8
0
 10
8.44876
 20
14.7895
 11
8.44876
 21
15.8895
  0
LINE
  8
0
 10
8.44876
 20
15.8895
 11
9.94876
 21
15.8895
  0
LINE
  8
0
 10
9.94876
 20
15.8895
 11
9.94876
 21
14.7895
  0
LINE
  8
0
 10
9.94876
 20
14.7895
 11
8.44876
 21
14.7895
  0
LINE
  8
0
 10
2.31972
 20
13.195
 11
2.01971
 21
13.195
  0
LINE
  8
0
 10
2.01971
 20
13.195
 11
2.01971
 21
13.345
  0
LINE
  8
0
 10
2.01971
 20
13.345
 11
2.31972
 21
13.345
  0
LINE
  8
0
 10
2.31972
 20
13.345
 11
2.31972
 21
14.845
  0
LINE
  8
0
 10
2.31972
 20
14.845
 11
2.01971
 21
14.845
  0
LINE
  8
0
 10
2.01971
 20
14.845
 11
2.01971
 21
14.995
  0
LINE
  8
0
 10
2.01971
 20
14.995
 11
2.31972
 21
14.995
  0
LINE
  8
0
 10
2.31972
 20
14.995
 11
2.31972
 21
16.995
  0
LINE
  8
0
 10
2.31972
 20
16.995
 11
2.01971
 21
16.995
  0
LINE
  8
0
 10
2.01971
 20
16.995
 11
2.01971
 21
16.745
  0
LINE
  8
0
 10
2.01971
 20
16.745
 11
-0.23027
 21
16.745
  0
LINE
  8
0
 10
-0.23027
 20
16.745
 11
-0.23027
 21
15.205
  0
LINE
  8
0
 10
-0.23027
 20
15.205
 11
0.0197144
 21
15.205
  0
LINE
  8
0
 10
0.0197144
 20
15.205
 11
0.0197144
 21
13.665
  0
LINE
  8
0
 10
0.0197144
 20
13.665
 11
-0.23027
 21
13.665
  0
LINE
  8
0
 10
-0.23027
 20
13.665
 11
-0.23027
 21
12.125
  0
LINE
  8
0
 10
-0.23027
 20
12.125
 11
0.0197144
 21
12.125
  0
LINE
  8
0
 10
0.0197144
 20
12.125
 11
0.0197144
 21
10.585
  0
LINE
  8
0
 10
0.0197144
 20
10.585
 11
-0.23027
 21
10.585
  0
LINE
  8
0
 10
-0.23027
 20
10.585
 11
-0.23027
 21
9.04498
  0
LINE
  8
0
 10
-0.23027
 20
9.04498
 11
2.01971
 21
9.04498
  0
LINE
  8
0
 10
2.01971
 20
9.04498
 11
2.01971
 21
8.79498
  0
LINE
  8
0
 10
2.01971
 20
8.79498
 11
2.31972
 21
8.79498
  0
LINE
  8
0
 10
2.31972
 20
8.79498
 11
2.31972
 21
13.195
  0
LINE
  8
0
 10
6.6091
 20
11.9983
 11
6.75909
 21
11.9983
  0
LINE
  8
0
 10
6.75909
 20
11.9983
 11
6.75909
 21
11.6983
  0
LINE
  8
0
 10
6.75909
 20
11.6983
 11
10.5341
 21
11.6983
  0
LINE
  8
0
 10
10.5341
 20
11.6983
 11
10.5341
 21
11.9983
  0
LINE
  8
0
 10
10.5341
 20
11.9983
 11
10.7841
 21
11.9983
  0
LINE
  8
0
 10
10.7841
 20
11.9983
 11
10.7841
 21
11.6983
  0
LINE
  8
0
 10
10.7841
 20
11.6983
 11
13.9341
 21
11.6983
  0
LINE
  8
0
 10
13.9341
 20
11.6983
 11
13.9341
 21
11.9983
  0
LINE
  8
0
 10
13.9341
 20
11.9983
 11
13.7841
 21
11.9983
  0
LINE
  8
0
 10
13.7841
 20
11.9983
 11
13.7841
 21
14.2483
  0
LINE
  8
0
 10
13.7841
 20
14.2483
 11
12.2841
 21
14.2483
  0
LINE
  8
0
 10
12.2841
 20
14.2483
 11
12.2841
 21
13.9983
  0
LINE
  8
0
 10
12.2841
 20
13.9983
 11
10.5341
 21
13.9983
  0
LINE
  8
0
 10
10.5341
 20
13.9983
 11
10.5341
 21
14.2483
  0
LINE
  8
0
 10
10.5341
 20
14.2483
 11
9.7341
 21
14.2483
  0
LINE
  8
0
 10
9.7341
 20
14.2483
 11
9.7341
 21
11.9983
  0
LINE
  8
0
 10
9.7341
 20
11.9983
 11
7.7341
 21
11.9983
  0
LINE
  8
0
 10
7.7341
 20
11.9983
 11
7.7341
 21
14.2483
  0
LINE
  8
0
 10
7.7341
 20
14.2483
 11
6.75909
 21
14.2483
  0
LINE
  8
0
 10
6.75909
 20
14.2483
 11
6.75909
 21
13.9983
  0
LINE
  8
0
 10
6.75909
 20
13.9983
 11
6.6091
 21
13.9983
  0
LINE
  8
0
 10
6.6091
 20
13.9983
 11
6.6091
 21
14.2483
  0
LINE
  8
0
 10
6.6091
 20
14.2483
 11
5.63409
 21
14.2483
  0
LINE
  8
0
 10
5.63409
 20
14.2483
 11
5.63409
 21
11.9983
  0
LINE
  8
0
 10
5.63409
 20
11.9983
 11
3.63409
 21
11.9983
  0
LINE
  8
0
 10
3.63409
 20
11.9983
 11
3.63409
 21
14.2483
  0
LINE
  8
0
 10
3.63409
 20
14.2483
 11
2.83411
 21
14.2483
  0
LINE
  8
0
 10
2.83411
 20
14.2483
 11
2.83411
 21
13.9983
  0
LINE
  8
0
 10
2.83411
 20
13.9983
 11
2.58411
 21
13.9983
  0
LINE
  8
0
 10
2.58411
 20
13.9983
 11
2.58411
 21
11.9983
  0
LINE
  8
0
 10
2.58411
 20
11.9983
 11
2.83411
 21
11.9983
  0
LINE
  8
0
 10
2.83411
 20
11.9983
 11
2.83411
 21
11.6983
  0
LINE
  8
0
 10
2.83411
 20
11.6983
 11
6.6091
 21
11.6983
  0
LINE
  8
0
 10
6.6091
 20
11.6983
 11
6.6091
 21
11.9983
  0
LINE
  8
0
 10
6.15425
 20
10.2149
 11
6.30426
 21
10.2149
  0
LINE
  8
0
 10
6.30426
 20
10.2149
 11
6.30426
 21
8.8149
  0
LINE
  8
0
 10
6.30426
 20
8.8149
 11
10.7043
 21
8.8149
  0
LINE
  8
0
 10
10.7043
 20
8.8149
 11
10.7043
 21
9.1149
  0
LINE
  8
0
 10
10.7043
 20
9.1149
 11
10.4543
 21
9.1149
  0
LINE
  8
0
 10
10.4543
 20
9.1149
 11
10.4543
 21
11.3649
  0
LINE
  8
0
 10
10.4543
 20
11.3649
 11
8.37926
 21
11.3649
  0
LINE
  8
0
 10
8.37926
 20
11.3649
 11
8.37926
 21
11.1149
  0
LINE
  8
0
 10
8.37926
 20
11.1149
 11
6.15425
 21
11.1149
  0
LINE
  8
0
 10
6.15425
 20
11.1149
 11
6.15425
 21
11.3649
  0
LINE
  8
0
 10
6.15425
 20
11.3649
 11
5.55426
 21
11.3649
  0
LINE
  8
0
 10
5.55426
 20
11.3649
 11
5.55426
 21
9.1149
  0
LINE
  8
0
 10
5.55426
 20
9.1149
 11
4.55426
 21
9.1149
  0
LINE
  8
0
 10
4.55426
 20
9.1149
 11
4.55426
 21
11.3649
  0
LINE
  8
0
 10
4.55426
 20
11.3649
 11
4.15425
 21
11.3649
  0
LINE
  8
0
 10
4.15425
 20
11.3649
 11
4.15425
 21
11.1149
  0
LINE
  8
0
 10
4.15425
 20
11.1149
 11
3.15425
 21
11.1149
  0
LINE
  8
0
 10
3.15425
 20
11.1149
 11
3.15425
 21
11.3649
  0
LINE
  8
0
 10
3.15425
 20
11.3649
 11
2.75426
 21
11.3649
  0
LINE
  8
0
 10
2.75426
 20
11.3649
 11
2.75426
 21
9.1149
  0
LINE
  8
0
 10
2.75426
 20
9.1149
 11
2.50426
 21
9.1149
  0
LINE
  8
0
 10
2.50426
 20
9.1149
 11
2.50426
 21
8.8149
  0
LINE
  8
0
 10
2.50426
 20
8.8149
 11
6.15425
 21
8.8149
  0
LINE
  8
0
 10
6.15425
 20
8.8149
 11
6.15425
 21
10.2149
  0
LINE
  8
0
 10
3.15425
 20
9.1149
 11
3.15425
 21
10.2149
  0
LINE
  8
0
 10
3.15425
 20
10.2149
 11
4.15425
 21
10.2149
  0
LINE
  8
0
 10
4.15425
 20
10.2149
 11
4.15425
 21
9.1149
  0
LINE
  8
0
 10
4.15425
 20
9.1149
 11
3.15425
 21
9.1149
  0
ENDSEC
  0
SECTION
  2
OBJECTS
  0
DICTIONARY
  0
ENDSEC
  0
EOF
