  0
SECTION
  2
BLOCKS
  0
ENDSEC
  0
SECTION
  2
ENTITIES
  0
LINE
  8
0
 10
21.9958
 20
9.61119
 11
-13.0042
 21
9.61119
  0
LINE
  8
0
 10
-13.0042
 20
9.61119
 11
-13.0042
 21
-10.3888
  0
LINE
  8
0
 10
-13.0042
 20
-10.3888
 11
21.9958
 21
-10.3888
  0
LINE
  8
0
 10
21.9958
 20
-10.3888
 11
21.9958
 21
9.61119
  0
LINE
  8
0
 10
-12.8629
 20
-10.2396
 11
-12.8629
 21
9.46202
  0
LINE
  8
0
 10
-12.8629
 20
9.46202
 11
21.8546
 21
9.46202
  0
LINE
  8
0
 10
21.8546
 20
9.46202
 11
21.8546
 21
-10.2396
  0
LINE
  8
0
 10
21.8546
 20
-10.2396
 11
-12.8629
 21
-10.2396
  0
LINE
  8
0
 10
3.875
 20
3.04999
 11
3.17499
 21
3.04999
  0
LINE
  8
0
 10
3.17499
 20
3.04999
 11
3.17499
 21
7.2
  0
LINE
  8
0
 10
3.17499
 20
7.2
 11
4.14999
 21
7.2
  0
LINE
  8
0
 10
4.14999
 20
7.2
 11
4.14999
 21
7.45
  0
LINE
  8
0
 10
4.14999
 20
7.45
 11
2.04999
 21
7.45
  0
LINE
  8
0
 10
2.04999
 20
7.45
 11
2.04999
 21
7.2
  0
LINE
  8
0
 10
2.04999
 20
7.2
 11
3.02499
 21
7.2
  0
LINE
  8
0
 10
3.02499
 20
7.2
 11
3.02499
 21
3.04999
  0
LINE
  8
0
 10
3.02499
 20
3.04999
 11
2.325
 21
3.04999
  0
LINE
  8
0
 10
2.325
 20
3.04999
 11
2.325
 21
2.89999
  0
LINE
  8
0
 10
2.325
 20
2.89999
 11
3.875
 21
2.89999
  0
LINE
  8
0
 10
3.875
 20
2.89999
 11
3.875
 21
3.04999
  0
LINE
  8
0
 10
-1
 20
-0.75
 11
7.2
 21
-0.75
  0
LINE
  8
0
 10
7.2
 20
-0.75
 11
7.2
 21
-0.0999908
  0
LINE
  8
0
 10
7.2
 20
-0.0999908
 11
6.95
 21
-0.0999908
  0
LINE
  8
0
 10
6.95
 20
-0.0999908
 11
6.95
 21
-0.5
  0
LINE
  8
0
 10
6.95
 20
-0.5
 11
2.29999
 21
-0.5
  0
LINE
  8
0
 10
2.29999
 20
-0.5
 11
2.29999
 21
1.89999
  0
LINE
  8
0
 10
2.29999
 20
1.89999
 11
2.04999
 21
1.89999
  0
LINE
  8
0
 10
2.04999
 20
1.89999
 11
2.04999
 21
1.74998
  0
LINE
  8
0
 10
2.04999
 20
1.74998
 11
2.14999
 21
1.74998
  0
LINE
  8
0
 10
2.14999
 20
1.74998
 11
2.14999
 21
-0.5
  0
LINE
  8
0
 10
2.14999
 20
-0.5
 11
-0.75
 21
-0.5
  0
LINE
  8
0
 10
-0.75
 20
-0.5
 11
-0.75
 21
1.24998
  0
LINE
  8
0
 10
-0.75
 20
1.24998
 11
0.949997
 21
1.24998
  0
LINE
  8
0
 10
0.949997
 20
1.24998
 11
0.949997
 21
1.74998
  0
LINE
  8
0
 10
0.949997
 20
1.74998
 11
1.04999
 21
1.74998
  0
LINE
  8
0
 10
1.04999
 20
1.74998
 11
1.04999
 21
1.89999
  0
LINE
  8
0
 10
1.04999
 20
1.89999
 11
0.799988
 21
1.89999
  0
LINE
  8
0
 10
0.799988
 20
1.89999
 11
0.799988
 21
1.39999
  0
LINE
  8
0
 10
0.799988
 20
1.39999
 11
-0.75
 21
1.39999
  0
LINE
  8
0
 10
-0.75
 20
1.39999
 11
-0.75
 21
2.89999
  0
LINE
  8
0
 10
-0.75
 20
2.89999
 11
1.325
 21
2.89999
  0
LINE
  8
0
 10
1.325
 20
2.89999
 11
1.325
 21
3.04999
  0
LINE
  8
0
 10
1.325
 20
3.04999
 11
-0.75
 21
3.04999
  0
LINE
  8
0
 10
-0.75
 20
3.04999
 11
-0.75
 21
7.2
  0
LINE
  8
0
 10
-0.75
 20
7.2
 11
0.0499878
 21
7.2
  0
LINE
  8
0
 10
0.0499878
 20
7.2
 11
0.0499878
 21
7.45
  0
LINE
  8
0
 10
0.0499878
 20
7.45
 11
-2.04999
 21
7.45
  0
LINE
  8
0
 10
-2.04999
 20
7.45
 11
-2.04999
 21
7.2
  0
LINE
  8
0
 10
-2.04999
 20
7.2
 11
-1.25
 21
7.2
  0
LINE
  8
0
 10
-1.25
 20
7.2
 11
-1.25
 21
3.04999
  0
LINE
  8
0
 10
-1.25
 20
3.04999
 11
-3.325
 21
3.04999
  0
LINE
  8
0
 10
-3.325
 20
3.04999
 11
-3.325
 21
2.89999
  0
LINE
  8
0
 10
-3.325
 20
2.89999
 11
-1.25
 21
2.89999
  0
LINE
  8
0
 10
-1.25
 20
2.89999
 11
-1.25
 21
1.39999
  0
LINE
  8
0
 10
-1.25
 20
1.39999
 11
-2.79999
 21
1.39999
  0
LINE
  8
0
 10
-2.79999
 20
1.39999
 11
-2.79999
 21
1.89999
  0
LINE
  8
0
 10
-2.79999
 20
1.89999
 11
-3.04999
 21
1.89999
  0
LINE
  8
0
 10
-3.04999
 20
1.89999
 11
-3.04999
 21
1.74998
  0
LINE
  8
0
 10
-3.04999
 20
1.74998
 11
-2.95
 21
1.74998
  0
LINE
  8
0
 10
-2.95
 20
1.74998
 11
-2.95
 21
1.24998
  0
LINE
  8
0
 10
-2.95
 20
1.24998
 11
-1.25
 21
1.24998
  0
LINE
  8
0
 10
-1.25
 20
1.24998
 11
-1.25
 21
-0.5
  0
LINE
  8
0
 10
-1.25
 20
-0.5
 11
-4.14999
 21
-0.5
  0
LINE
  8
0
 10
-4.14999
 20
-0.5
 11
-4.14999
 21
1.74998
  0
LINE
  8
0
 10
-4.14999
 20
1.74998
 11
-4.04999
 21
1.74998
  0
LINE
  8
0
 10
-4.04999
 20
1.74998
 11
-4.04999
 21
1.89999
  0
LINE
  8
0
 10
-4.04999
 20
1.89999
 11
-4.29999
 21
1.89999
  0
LINE
  8
0
 10
-4.29999
 20
1.89999
 11
-4.29999
 21
-0.5
  0
LINE
  8
0
 10
-4.29999
 20
-0.5
 11
-8.95
 21
-0.5
  0
LINE
  8
0
 10
-8.95
 20
-0.5
 11
-8.95
 21
-0.0999908
  0
LINE
  8
0
 10
-8.95
 20
-0.0999908
 11
-9.2
 21
-0.0999908
  0
LINE
  8
0
 10
-9.2
 20
-0.0999908
 11
-9.2
 21
-1.39999
  0
LINE
  8
0
 10
-9.2
 20
-1.39999
 11
-8.95
 21
-1.39999
  0
LINE
  8
0
 10
-8.95
 20
-1.39999
 11
-8.95
 21
-1
  0
LINE
  8
0
 10
-8.95
 20
-1
 11
-4.29999
 21
-1
  0
LINE
  8
0
 10
-4.29999
 20
-1
 11
-4.29999
 21
-3.39999
  0
LINE
  8
0
 10
-4.29999
 20
-3.39999
 11
-4.04999
 21
-3.39999
  0
LINE
  8
0
 10
-4.04999
 20
-3.39999
 11
-4.04999
 21
-3.25
  0
LINE
  8
0
 10
-4.04999
 20
-3.25
 11
-4.14999
 21
-3.25
  0
LINE
  8
0
 10
-4.14999
 20
-3.25
 11
-4.14999
 21
-1
  0
LINE
  8
0
 10
-4.14999
 20
-1
 11
-1.25
 21
-1
  0
LINE
  8
0
 10
-1.25
 20
-1
 11
-1.25
 21
-2.75
  0
LINE
  8
0
 10
-1.25
 20
-2.75
 11
-2.95
 21
-2.75
  0
LINE
  8
0
 10
-2.95
 20
-2.75
 11
-2.95
 21
-3.25
  0
LINE
  8
0
 10
-2.95
 20
-3.25
 11
-3.04999
 21
-3.25
  0
LINE
  8
0
 10
-3.04999
 20
-3.25
 11
-3.04999
 21
-3.39999
  0
LINE
  8
0
 10
-3.04999
 20
-3.39999
 11
-2.79999
 21
-3.39999
  0
LINE
  8
0
 10
-2.79999
 20
-3.39999
 11
-2.79999
 21
-2.89999
  0
LINE
  8
0
 10
-2.79999
 20
-2.89999
 11
-1.25
 21
-2.89999
  0
LINE
  8
0
 10
-1.25
 20
-2.89999
 11
-1.25
 21
-4.39999
  0
LINE
  8
0
 10
-1.25
 20
-4.39999
 11
-3.325
 21
-4.39999
  0
LINE
  8
0
 10
-3.325
 20
-4.39999
 11
-3.325
 21
-4.54999
  0
LINE
  8
0
 10
-3.325
 20
-4.54999
 11
-1.25
 21
-4.54999
  0
LINE
  8
0
 10
-1.25
 20
-4.54999
 11
-1.25
 21
-8.7
  0
LINE
  8
0
 10
-1.25
 20
-8.7
 11
-2.04999
 21
-8.7
  0
LINE
  8
0
 10
-2.04999
 20
-8.7
 11
-2.04999
 21
-8.95
  0
LINE
  8
0
 10
-2.04999
 20
-8.95
 11
-1
 21
-8.95
  0
LINE
  8
0
 10
-1
 20
-8.95
 11
-1
 21
-0.75
  0
LINE
  8
0
 10
7.2
 20
2.89999
 11
8.2
 21
2.89999
  0
LINE
  8
0
 10
8.2
 20
2.89999
 11
8.2
 21
3.04999
  0
LINE
  8
0
 10
8.2
 20
3.04999
 11
7.2
 21
3.04999
  0
LINE
  8
0
 10
7.2
 20
3.04999
 11
7.2
 21
7.2
  0
LINE
  8
0
 10
7.2
 20
7.2
 11
10.2
 21
7.2
  0
LINE
  8
0
 10
10.2
 20
7.2
 11
10.2
 21
3.04999
  0
LINE
  8
0
 10
10.2
 20
3.04999
 11
9.2
 21
3.04999
  0
LINE
  8
0
 10
9.2
 20
3.04999
 11
9.2
 21
2.89999
  0
LINE
  8
0
 10
9.2
 20
2.89999
 11
10.35
 21
2.89999
  0
LINE
  8
0
 10
10.35
 20
2.89999
 11
10.35
 21
7.45
  0
LINE
  8
0
 10
10.35
 20
7.45
 11
6.14999
 21
7.45
  0
LINE
  8
0
 10
6.14999
 20
7.45
 11
6.14999
 21
7.2
  0
LINE
  8
0
 10
6.14999
 20
7.2
 11
6.95
 21
7.2
  0
LINE
  8
0
 10
6.95
 20
7.2
 11
6.95
 21
3.04999
  0
LINE
  8
0
 10
6.95
 20
3.04999
 11
4.875
 21
3.04999
  0
LINE
  8
0
 10
4.875
 20
3.04999
 11
4.875
 21
2.89999
  0
LINE
  8
0
 10
4.875
 20
2.89999
 11
6.95
 21
2.89999
  0
LINE
  8
0
 10
6.95
 20
2.89999
 11
6.95
 21
2.29999
  0
LINE
  8
0
 10
6.95
 20
2.29999
 11
7.2
 21
2.29999
  0
LINE
  8
0
 10
7.2
 20
2.29999
 11
7.2
 21
2.89999
  0
LINE
  8
0
 10
-4.325
 20
3.04999
 11
-5.02499
 21
3.04999
  0
LINE
  8
0
 10
-5.02499
 20
3.04999
 11
-5.02499
 21
7.2
  0
LINE
  8
0
 10
-5.02499
 20
7.2
 11
-4.04999
 21
7.2
  0
LINE
  8
0
 10
-4.04999
 20
7.2
 11
-4.04999
 21
7.45
  0
LINE
  8
0
 10
-4.04999
 20
7.45
 11
-6.14999
 21
7.45
  0
LINE
  8
0
 10
-6.14999
 20
7.45
 11
-6.14999
 21
7.2
  0
LINE
  8
0
 10
-6.14999
 20
7.2
 11
-5.17499
 21
7.2
  0
LINE
  8
0
 10
-5.17499
 20
7.2
 11
-5.17499
 21
3.04999
  0
LINE
  8
0
 10
-5.17499
 20
3.04999
 11
-5.875
 21
3.04999
  0
LINE
  8
0
 10
-5.875
 20
3.04999
 11
-5.875
 21
2.89999
  0
LINE
  8
0
 10
-5.875
 20
2.89999
 11
-4.325
 21
2.89999
  0
LINE
  8
0
 10
-4.325
 20
2.89999
 11
-4.325
 21
3.04999
  0
LINE
  8
0
 10
-8.95
 20
2.89999
 11
-6.875
 21
2.89999
  0
LINE
  8
0
 10
-6.875
 20
2.89999
 11
-6.875
 21
3.04999
  0
LINE
  8
0
 10
-6.875
 20
3.04999
 11
-8.95
 21
3.04999
  0
LINE
  8
0
 10
-8.95
 20
3.04999
 11
-8.95
 21
7.2
  0
LINE
  8
0
 10
-8.95
 20
7.2
 11
-8.14999
 21
7.2
  0
LINE
  8
0
 10
-8.14999
 20
7.2
 11
-8.14999
 21
7.45
  0
LINE
  8
0
 10
-8.14999
 20
7.45
 11
-12.35
 21
7.45
  0
LINE
  8
0
 10
-12.35
 20
7.45
 11
-12.35
 21
2.89999
  0
LINE
  8
0
 10
-12.35
 20
2.89999
 11
-11.2
 21
2.89999
  0
LINE
  8
0
 10
-11.2
 20
2.89999
 11
-11.2
 21
3.04999
  0
LINE
  8
0
 10
-11.2
 20
3.04999
 11
-12.2
 21
3.04999
  0
LINE
  8
0
 10
-12.2
 20
3.04999
 11
-12.2
 21
7.2
  0
LINE
  8
0
 10
-12.2
 20
7.2
 11
-9.2
 21
7.2
  0
LINE
  8
0
 10
-9.2
 20
7.2
 11
-9.2
 21
3.04999
  0
LINE
  8
0
 10
-9.2
 20
3.04999
 11
-10.2
 21
3.04999
  0
LINE
  8
0
 10
-10.2
 20
3.04999
 11
-10.2
 21
2.89999
  0
LINE
  8
0
 10
-10.2
 20
2.89999
 11
-9.2
 21
2.89999
  0
LINE
  8
0
 10
-9.2
 20
2.89999
 11
-9.2
 21
2.29999
  0
LINE
  8
0
 10
-9.2
 20
2.29999
 11
-8.95
 21
2.29999
  0
LINE
  8
0
 10
-8.95
 20
2.29999
 11
-8.95
 21
2.89999
  0
LINE
  8
0
 10
7.2
 20
1.29999
 11
6.95
 21
1.29999
  0
LINE
  8
0
 10
6.95
 20
1.29999
 11
6.95
 21
0.899994
  0
LINE
  8
0
 10
6.95
 20
0.899994
 11
7.2
 21
0.899994
  0
LINE
  8
0
 10
7.2
 20
0.899994
 11
7.2
 21
1.29999
  0
LINE
  8
0
 10
-8.95
 20
1.29999
 11
-9.2
 21
1.29999
  0
LINE
  8
0
 10
-9.2
 20
1.29999
 11
-9.2
 21
0.899994
  0
LINE
  8
0
 10
-9.2
 20
0.899994
 11
-8.95
 21
0.899994
  0
LINE
  8
0
 10
-8.95
 20
0.899994
 11
-8.95
 21
1.29999
  0
LINE
  8
0
 10
-8.95
 20
-2.39999
 11
-9.2
 21
-2.39999
  0
LINE
  8
0
 10
-9.2
 20
-2.39999
 11
-9.2
 21
-2.79999
  0
LINE
  8
0
 10
-9.2
 20
-2.79999
 11
-8.95
 21
-2.79999
  0
LINE
  8
0
 10
-8.95
 20
-2.79999
 11
-8.95
 21
-2.39999
  0
LINE
  8
0
 10
-8.14999
 20
-8.7
 11
-8.95
 21
-8.7
  0
LINE
  8
0
 10
-8.95
 20
-8.7
 11
-8.95
 21
-4.54999
  0
LINE
  8
0
 10
-8.95
 20
-4.54999
 11
-6.875
 21
-4.54999
  0
LINE
  8
0
 10
-6.875
 20
-4.54999
 11
-6.875
 21
-4.39999
  0
LINE
  8
0
 10
-6.875
 20
-4.39999
 11
-8.95
 21
-4.39999
  0
LINE
  8
0
 10
-8.95
 20
-4.39999
 11
-8.95
 21
-3.79999
  0
LINE
  8
0
 10
-8.95
 20
-3.79999
 11
-9.2
 21
-3.79999
  0
LINE
  8
0
 10
-9.2
 20
-3.79999
 11
-9.2
 21
-4.39999
  0
LINE
  8
0
 10
-9.2
 20
-4.39999
 11
-10.2
 21
-4.39999
  0
LINE
  8
0
 10
-10.2
 20
-4.39999
 11
-10.2
 21
-4.54999
  0
LINE
  8
0
 10
-10.2
 20
-4.54999
 11
-9.2
 21
-4.54999
  0
LINE
  8
0
 10
-9.2
 20
-4.54999
 11
-9.2
 21
-8.7
  0
LINE
  8
0
 10
-9.2
 20
-8.7
 11
-12.2
 21
-8.7
  0
LINE
  8
0
 10
-12.2
 20
-8.7
 11
-12.2
 21
-4.54999
  0
LINE
  8
0
 10
-12.2
 20
-4.54999
 11
-11.2
 21
-4.54999
  0
LINE
  8
0
 10
-11.2
 20
-4.54999
 11
-11.2
 21
-4.39999
  0
LINE
  8
0
 10
-11.2
 20
-4.39999
 11
-12.35
 21
-4.39999
  0
LINE
  8
0
 10
-12.35
 20
-4.39999
 11
-12.35
 21
-8.95
  0
LINE
  8
0
 10
-12.35
 20
-8.95
 11
-8.14999
 21
-8.95
  0
LINE
  8
0
 10
-8.14999
 20
-8.95
 11
-8.14999
 21
-8.7
  0
LINE
  8
0
 10
-4.04999
 20
-8.7
 11
-5.02499
 21
-8.7
  0
LINE
  8
0
 10
-5.02499
 20
-8.7
 11
-5.02499
 21
-4.54999
  0
LINE
  8
0
 10
-5.02499
 20
-4.54999
 11
-4.325
 21
-4.54999
  0
LINE
  8
0
 10
-4.325
 20
-4.54999
 11
-4.325
 21
-4.39999
  0
LINE
  8
0
 10
-4.325
 20
-4.39999
 11
-5.875
 21
-4.39999
  0
LINE
  8
0
 10
-5.875
 20
-4.39999
 11
-5.875
 21
-4.54999
  0
LINE
  8
0
 10
-5.875
 20
-4.54999
 11
-5.17499
 21
-4.54999
  0
LINE
  8
0
 10
-5.17499
 20
-4.54999
 11
-5.17499
 21
-8.7
  0
LINE
  8
0
 10
-5.17499
 20
-8.7
 11
-6.14999
 21
-8.7
  0
LINE
  8
0
 10
-6.14999
 20
-8.7
 11
-6.14999
 21
-8.95
  0
LINE
  8
0
 10
-6.14999
 20
-8.95
 11
-4.04999
 21
-8.95
  0
LINE
  8
0
 10
-4.04999
 20
-8.95
 11
-4.04999
 21
-8.7
  0
ENDSEC
  0
SECTION
  2
OBJECTS
  0
DICTIONARY
  0
ENDSEC
  0
EOF
