  0
SECTION
  2
BLOCKS
  0
ENDSEC
  0
SECTION
  2
ENTITIES
  0
LINE
  8
0
 10
21.9958
 20
9.61119
 11
-13.0042
 21
9.61119
  0
LINE
  8
0
 10
-13.0042
 20
9.61119
 11
-13.0042
 21
-10.3888
  0
LINE
  8
0
 10
-13.0042
 20
-10.3888
 11
21.9958
 21
-10.3888
  0
LINE
  8
0
 10
21.9958
 20
-10.3888
 11
21.9958
 21
9.61119
  0
LINE
  8
0
 10
-12.8629
 20
-10.2396
 11
-12.8629
 21
9.46202
  0
LINE
  8
0
 10
-12.8629
 20
9.46202
 11
21.8546
 21
9.46202
  0
LINE
  8
0
 10
21.8546
 20
9.46202
 11
21.8546
 21
-10.2396
  0
LINE
  8
0
 10
21.8546
 20
-10.2396
 11
-12.8629
 21
-10.2396
  0
LINE
  8
0
 10
14.3
 20
-0.75
 11
13.75
 21
-0.75
  0
LINE
  8
0
 10
13.75
 20
-0.75
 11
13.75
 21
-1
  0
LINE
  8
0
 10
13.75
 20
-1
 11
14.3
 21
-1
  0
LINE
  8
0
 10
14.3
 20
-1
 11
14.3
 21
-0.75
  0
LINE
  8
0
 10
4.89999
 20
-0.75
 11
4
 21
-0.75
  0
LINE
  8
0
 10
4
 20
-0.75
 11
4
 21
-1
  0
LINE
  8
0
 10
4
 20
-1
 11
4.89999
 21
-1
  0
LINE
  8
0
 10
4.89999
 20
-1
 11
4.89999
 21
-0.75
  0
LINE
  8
0
 10
3
 20
-0.75
 11
2.29999
 21
-0.75
  0
LINE
  8
0
 10
2.29999
 20
-0.75
 11
2.29999
 21
-1
  0
LINE
  8
0
 10
2.29999
 20
-1
 11
3
 21
-1
  0
LINE
  8
0
 10
3
 20
-1
 11
3
 21
-0.75
  0
LINE
  8
0
 10
2.14999
 20
-0.75
 11
1.04999
 21
-0.75
  0
LINE
  8
0
 10
1.04999
 20
-0.75
 11
1.04999
 21
-1
  0
LINE
  8
0
 10
1.04999
 20
-1
 11
2.14999
 21
-1
  0
LINE
  8
0
 10
2.14999
 20
-1
 11
2.14999
 21
-0.75
  0
LINE
  8
0
 10
0.0499878
 20
-0.75
 11
-0.75
 21
-0.75
  0
LINE
  8
0
 10
-0.75
 20
-0.75
 11
-0.75
 21
-1
  0
LINE
  8
0
 10
-0.75
 20
-1
 11
0.0499878
 21
-1
  0
LINE
  8
0
 10
0.0499878
 20
-1
 11
0.0499878
 21
-0.75
  0
LINE
  8
0
 10
21.45
 20
-0.75
 11
20.65
 21
-0.75
  0
LINE
  8
0
 10
20.65
 20
-0.75
 11
20.65
 21
-1
  0
LINE
  8
0
 10
20.65
 20
-1
 11
21.45
 21
-1
  0
LINE
  8
0
 10
21.45
 20
-1
 11
21.45
 21
-0.75
  0
LINE
  8
0
 10
16.7
 20
-0.75
 11
15.8
 21
-0.75
  0
LINE
  8
0
 10
15.8
 20
-0.75
 11
15.8
 21
-1
  0
LINE
  8
0
 10
15.8
 20
-1
 11
16.7
 21
-1
  0
LINE
  8
0
 10
16.7
 20
-1
 11
16.7
 21
-0.75
  0
LINE
  8
0
 10
18.4
 20
-0.75
 11
17.7
 21
-0.75
  0
LINE
  8
0
 10
17.7
 20
-0.75
 11
17.7
 21
-1
  0
LINE
  8
0
 10
17.7
 20
-1
 11
18.4
 21
-1
  0
LINE
  8
0
 10
18.4
 20
-1
 11
18.4
 21
-0.75
  0
LINE
  8
0
 10
19.65
 20
-0.75
 11
18.55
 21
-0.75
  0
LINE
  8
0
 10
18.55
 20
-0.75
 11
18.55
 21
-1
  0
LINE
  8
0
 10
18.55
 20
-1
 11
19.65
 21
-1
  0
LINE
  8
0
 10
19.65
 20
-1
 11
19.65
 21
-0.75
  0
LINE
  8
0
 10
6.95
 20
-0.75
 11
6.39999
 21
-0.75
  0
LINE
  8
0
 10
6.39999
 20
-0.75
 11
6.39999
 21
-1
  0
LINE
  8
0
 10
6.39999
 20
-1
 11
6.95
 21
-1
  0
LINE
  8
0
 10
6.95
 20
-1
 11
6.95
 21
-0.75
  0
LINE
  8
0
 10
21.7
 20
-1
 11
21.45
 21
-1
  0
LINE
  8
0
 10
21.45
 20
-1
 11
21.45
 21
-2.53999
  0
LINE
  8
0
 10
21.45
 20
-2.53999
 11
21.7
 21
-2.53999
  0
LINE
  8
0
 10
21.7
 20
-2.53999
 11
21.7
 21
-1
  0
LINE
  8
0
 10
-0.75
 20
-1
 11
-1
 21
-1
  0
LINE
  8
0
 10
-1
 20
-1
 11
-1
 21
-2.53999
  0
LINE
  8
0
 10
-1
 20
-2.53999
 11
-0.75
 21
-2.53999
  0
LINE
  8
0
 10
-0.75
 20
-2.53999
 11
-0.75
 21
-1
  0
LINE
  8
0
 10
7.2
 20
-1
 11
6.95
 21
-1
  0
LINE
  8
0
 10
6.95
 20
-1
 11
6.95
 21
-1.39999
  0
LINE
  8
0
 10
6.95
 20
-1.39999
 11
7.2
 21
-1.39999
  0
LINE
  8
0
 10
7.2
 20
-1.39999
 11
7.2
 21
-1
  0
LINE
  8
0
 10
2.29999
 20
-1
 11
2.14999
 21
-1
  0
LINE
  8
0
 10
2.14999
 20
-1
 11
2.14999
 21
-1.75
  0
LINE
  8
0
 10
2.14999
 20
-1.75
 11
2.29999
 21
-1.75
  0
LINE
  8
0
 10
2.29999
 20
-1.75
 11
2.29999
 21
-1
  0
LINE
  8
0
 10
13.75
 20
-1
 11
13.5
 21
-1
  0
LINE
  8
0
 10
13.5
 20
-1
 11
13.5
 21
-1.39999
  0
LINE
  8
0
 10
13.5
 20
-1.39999
 11
13.75
 21
-1.39999
  0
LINE
  8
0
 10
13.75
 20
-1.39999
 11
13.75
 21
-1
  0
LINE
  8
0
 10
18.55
 20
-1
 11
18.4
 21
-1
  0
LINE
  8
0
 10
18.4
 20
-1
 11
18.4
 21
-1.75
  0
LINE
  8
0
 10
18.4
 20
-1.75
 11
18.55
 21
-1.75
  0
LINE
  8
0
 10
18.55
 20
-1.75
 11
18.55
 21
-1
  0
LINE
  8
0
 10
7.2
 20
-2.39999
 11
6.95
 21
-2.39999
  0
LINE
  8
0
 10
6.95
 20
-2.39999
 11
6.95
 21
-2.79999
  0
LINE
  8
0
 10
6.95
 20
-2.79999
 11
7.2
 21
-2.79999
  0
LINE
  8
0
 10
7.2
 20
-2.79999
 11
7.2
 21
-2.39999
  0
LINE
  8
0
 10
13.75
 20
-2.39999
 11
13.5
 21
-2.39999
  0
LINE
  8
0
 10
13.5
 20
-2.39999
 11
13.5
 21
-2.79999
  0
LINE
  8
0
 10
13.5
 20
-2.79999
 11
13.75
 21
-2.79999
  0
LINE
  8
0
 10
13.75
 20
-2.79999
 11
13.75
 21
-2.39999
  0
LINE
  8
0
 10
2.29999
 20
-2.5
 11
2.14999
 21
-2.5
  0
LINE
  8
0
 10
2.14999
 20
-2.5
 11
2.14999
 21
-3.25
  0
LINE
  8
0
 10
2.14999
 20
-3.25
 11
2.29999
 21
-3.25
  0
LINE
  8
0
 10
2.29999
 20
-3.25
 11
2.29999
 21
-2.5
  0
LINE
  8
0
 10
18.55
 20
-2.5
 11
18.4
 21
-2.5
  0
LINE
  8
0
 10
18.4
 20
-2.5
 11
18.4
 21
-3.25
  0
LINE
  8
0
 10
18.4
 20
-3.25
 11
18.55
 21
-3.25
  0
LINE
  8
0
 10
18.55
 20
-3.25
 11
18.55
 21
-2.5
  0
LINE
  8
0
 10
0.949997
 20
-2.75
 11
0.283325
 21
-2.75
  0
LINE
  8
0
 10
0.283325
 20
-2.75
 11
0.283325
 21
-2.89999
  0
LINE
  8
0
 10
0.283325
 20
-2.89999
 11
0.799988
 21
-2.89999
  0
LINE
  8
0
 10
0.799988
 20
-2.89999
 11
0.799988
 21
-3
  0
LINE
  8
0
 10
0.799988
 20
-3
 11
0.949997
 21
-3
  0
LINE
  8
0
 10
0.949997
 20
-3
 11
0.949997
 21
-2.75
  0
LINE
  8
0
 10
21.45
 20
-2.75
 11
20.9333
 21
-2.75
  0
LINE
  8
0
 10
20.9333
 20
-2.75
 11
20.9333
 21
-2.89999
  0
LINE
  8
0
 10
20.9333
 20
-2.89999
 11
21.45
 21
-2.89999
  0
LINE
  8
0
 10
21.45
 20
-2.89999
 11
21.45
 21
-2.75
  0
LINE
  8
0
 10
-0.233322
 20
-2.75
 11
-0.75
 21
-2.75
  0
LINE
  8
0
 10
-0.75
 20
-2.75
 11
-0.75
 21
-2.89999
  0
LINE
  8
0
 10
-0.75
 20
-2.89999
 11
-0.233322
 21
-2.89999
  0
LINE
  8
0
 10
-0.233322
 20
-2.89999
 11
-0.233322
 21
-2.75
  0
LINE
  8
0
 10
19.9
 20
-2.89999
 11
20.4167
 21
-2.89999
  0
LINE
  8
0
 10
20.4167
 20
-2.89999
 11
20.4167
 21
-2.75
  0
LINE
  8
0
 10
20.4167
 20
-2.75
 11
19.75
 21
-2.75
  0
LINE
  8
0
 10
19.75
 20
-2.75
 11
19.75
 21
-3
  0
LINE
  8
0
 10
19.75
 20
-3
 11
19.9
 21
-3
  0
LINE
  8
0
 10
19.9
 20
-3
 11
19.9
 21
-2.89999
  0
LINE
  8
0
 10
19.9
 20
-3.25
 11
19.65
 21
-3.25
  0
LINE
  8
0
 10
19.65
 20
-3.25
 11
19.65
 21
-3.39999
  0
LINE
  8
0
 10
19.65
 20
-3.39999
 11
19.9
 21
-3.39999
  0
LINE
  8
0
 10
19.9
 20
-3.39999
 11
19.9
 21
-3.25
  0
LINE
  8
0
 10
1.04999
 20
-3.25
 11
0.799988
 21
-3.25
  0
LINE
  8
0
 10
0.799988
 20
-3.25
 11
0.799988
 21
-3.39999
  0
LINE
  8
0
 10
0.799988
 20
-3.39999
 11
1.04999
 21
-3.39999
  0
LINE
  8
0
 10
1.04999
 20
-3.39999
 11
1.04999
 21
-3.25
  0
LINE
  8
0
 10
18.65
 20
-3.25
 11
18.55
 21
-3.25
  0
LINE
  8
0
 10
18.55
 20
-3.25
 11
18.55
 21
-3.39999
  0
LINE
  8
0
 10
18.55
 20
-3.39999
 11
18.65
 21
-3.39999
  0
LINE
  8
0
 10
18.65
 20
-3.39999
 11
18.65
 21
-3.25
  0
LINE
  8
0
 10
2.14999
 20
-3.25
 11
2.04999
 21
-3.25
  0
LINE
  8
0
 10
2.04999
 20
-3.25
 11
2.04999
 21
-3.39999
  0
LINE
  8
0
 10
2.04999
 20
-3.39999
 11
2.14999
 21
-3.39999
  0
LINE
  8
0
 10
2.14999
 20
-3.39999
 11
2.14999
 21
-3.25
  0
LINE
  8
0
 10
13.75
 20
-3.79999
 11
13.5
 21
-3.79999
  0
LINE
  8
0
 10
13.5
 20
-3.79999
 11
13.5
 21
-4.39999
  0
LINE
  8
0
 10
13.5
 20
-4.39999
 11
13.75
 21
-4.39999
  0
LINE
  8
0
 10
13.75
 20
-4.39999
 11
13.75
 21
-3.79999
  0
LINE
  8
0
 10
7.2
 20
-3.79999
 11
6.95
 21
-3.79999
  0
LINE
  8
0
 10
6.95
 20
-3.79999
 11
6.95
 21
-4.39999
  0
LINE
  8
0
 10
6.95
 20
-4.39999
 11
7.2
 21
-4.39999
  0
LINE
  8
0
 10
7.2
 20
-4.39999
 11
7.2
 21
-3.79999
  0
LINE
  8
0
 10
21.7
 20
-4.07999
 11
21.45
 21
-4.07999
  0
LINE
  8
0
 10
21.45
 20
-4.07999
 11
21.45
 21
-4.39999
  0
LINE
  8
0
 10
21.45
 20
-4.39999
 11
20.7583
 21
-4.39999
  0
LINE
  8
0
 10
20.7583
 20
-4.39999
 11
20.7583
 21
-4.54999
  0
LINE
  8
0
 10
20.7583
 20
-4.54999
 11
21.45
 21
-4.54999
  0
LINE
  8
0
 10
21.45
 20
-4.54999
 11
21.45
 21
-5.62
  0
LINE
  8
0
 10
21.45
 20
-5.62
 11
21.7
 21
-5.62
  0
LINE
  8
0
 10
21.7
 20
-5.62
 11
21.7
 21
-4.07999
  0
LINE
  8
0
 10
-0.75
 20
-4.54999
 11
-0.0583191
 21
-4.54999
  0
LINE
  8
0
 10
-0.0583191
 20
-4.54999
 11
-0.0583191
 21
-4.39999
  0
LINE
  8
0
 10
-0.0583191
 20
-4.39999
 11
-0.75
 21
-4.39999
  0
LINE
  8
0
 10
-0.75
 20
-4.39999
 11
-0.75
 21
-4.07999
  0
LINE
  8
0
 10
-0.75
 20
-4.07999
 11
-1
 21
-4.07999
  0
LINE
  8
0
 10
-1
 20
-4.07999
 11
-1
 21
-5.62
  0
LINE
  8
0
 10
-1
 20
-5.62
 11
-0.75
 21
-5.62
  0
LINE
  8
0
 10
-0.75
 20
-5.62
 11
-0.75
 21
-4.54999
  0
LINE
  8
0
 10
10.5
 20
-4.54999
 11
11.5
 21
-4.54999
  0
LINE
  8
0
 10
11.5
 20
-4.54999
 11
11.5
 21
-4.39999
  0
LINE
  8
0
 10
11.5
 20
-4.39999
 11
9.2
 21
-4.39999
  0
LINE
  8
0
 10
9.2
 20
-4.39999
 11
9.2
 21
-4.54999
  0
LINE
  8
0
 10
9.2
 20
-4.54999
 11
10.2
 21
-4.54999
  0
LINE
  8
0
 10
10.2
 20
-4.54999
 11
10.2
 21
-5.91666
  0
LINE
  8
0
 10
10.2
 20
-5.91666
 11
10.5
 21
-5.91666
  0
LINE
  8
0
 10
10.5
 20
-5.91666
 11
10.5
 21
-4.54999
  0
LINE
  8
0
 10
3.875
 20
-4.39999
 11
3.17499
 21
-4.39999
  0
LINE
  8
0
 10
3.17499
 20
-4.39999
 11
3.17499
 21
-4.54999
  0
LINE
  8
0
 10
3.17499
 20
-4.54999
 11
3.875
 21
-4.54999
  0
LINE
  8
0
 10
3.875
 20
-4.54999
 11
3.875
 21
-4.39999
  0
LINE
  8
0
 10
8.2
 20
-4.39999
 11
7.2
 21
-4.39999
  0
LINE
  8
0
 10
7.2
 20
-4.39999
 11
7.2
 21
-4.54999
  0
LINE
  8
0
 10
7.2
 20
-4.54999
 11
8.2
 21
-4.54999
  0
LINE
  8
0
 10
8.2
 20
-4.54999
 11
8.2
 21
-4.39999
  0
LINE
  8
0
 10
3.02499
 20
-4.39999
 11
2.325
 21
-4.39999
  0
LINE
  8
0
 10
2.325
 20
-4.39999
 11
2.325
 21
-4.54999
  0
LINE
  8
0
 10
2.325
 20
-4.54999
 11
3.02499
 21
-4.54999
  0
LINE
  8
0
 10
3.02499
 20
-4.54999
 11
3.02499
 21
-4.39999
  0
LINE
  8
0
 10
1.325
 20
-4.39999
 11
0.633331
 21
-4.39999
  0
LINE
  8
0
 10
0.633331
 20
-4.39999
 11
0.633331
 21
-4.54999
  0
LINE
  8
0
 10
0.633331
 20
-4.54999
 11
1.325
 21
-4.54999
  0
LINE
  8
0
 10
1.325
 20
-4.54999
 11
1.325
 21
-4.39999
  0
LINE
  8
0
 10
20.0667
 20
-4.39999
 11
19.375
 21
-4.39999
  0
LINE
  8
0
 10
19.375
 20
-4.39999
 11
19.375
 21
-4.54999
  0
LINE
  8
0
 10
19.375
 20
-4.54999
 11
20.0667
 21
-4.54999
  0
LINE
  8
0
 10
20.0667
 20
-4.54999
 11
20.0667
 21
-4.39999
  0
LINE
  8
0
 10
18.375
 20
-4.39999
 11
17.675
 21
-4.39999
  0
LINE
  8
0
 10
17.675
 20
-4.39999
 11
17.675
 21
-4.54999
  0
LINE
  8
0
 10
17.675
 20
-4.54999
 11
18.375
 21
-4.54999
  0
LINE
  8
0
 10
18.375
 20
-4.54999
 11
18.375
 21
-4.39999
  0
LINE
  8
0
 10
17.525
 20
-4.39999
 11
16.825
 21
-4.39999
  0
LINE
  8
0
 10
16.825
 20
-4.39999
 11
16.825
 21
-4.54999
  0
LINE
  8
0
 10
16.825
 20
-4.54999
 11
17.525
 21
-4.54999
  0
LINE
  8
0
 10
17.525
 20
-4.54999
 11
17.525
 21
-4.39999
  0
LINE
  8
0
 10
13.5
 20
-4.39999
 11
12.5
 21
-4.39999
  0
LINE
  8
0
 10
12.5
 20
-4.39999
 11
12.5
 21
-4.54999
  0
LINE
  8
0
 10
12.5
 20
-4.54999
 11
13.5
 21
-4.54999
  0
LINE
  8
0
 10
13.5
 20
-4.54999
 11
13.5
 21
-4.39999
  0
LINE
  8
0
 10
6.95
 20
-4.39999
 11
4.875
 21
-4.39999
  0
LINE
  8
0
 10
4.875
 20
-4.39999
 11
4.875
 21
-4.54999
  0
LINE
  8
0
 10
4.875
 20
-4.54999
 11
6.95
 21
-4.54999
  0
LINE
  8
0
 10
6.95
 20
-4.54999
 11
6.95
 21
-4.39999
  0
LINE
  8
0
 10
15.825
 20
-4.39999
 11
13.75
 21
-4.39999
  0
LINE
  8
0
 10
13.75
 20
-4.39999
 11
13.75
 21
-4.54999
  0
LINE
  8
0
 10
13.75
 20
-4.54999
 11
15.825
 21
-4.54999
  0
LINE
  8
0
 10
15.825
 20
-4.54999
 11
15.825
 21
-4.39999
  0
LINE
  8
0
 10
17.675
 20
-4.54999
 11
17.525
 21
-4.54999
  0
LINE
  8
0
 10
17.525
 20
-4.54999
 11
17.525
 21
-5.93332
  0
LINE
  8
0
 10
17.525
 20
-5.93332
 11
17.675
 21
-5.93332
  0
LINE
  8
0
 10
17.675
 20
-5.93332
 11
17.675
 21
-4.54999
  0
LINE
  8
0
 10
3.17499
 20
-4.54999
 11
3.02499
 21
-4.54999
  0
LINE
  8
0
 10
3.02499
 20
-4.54999
 11
3.02499
 21
-5.93332
  0
LINE
  8
0
 10
3.02499
 20
-5.93332
 11
3.17499
 21
-5.93332
  0
LINE
  8
0
 10
3.17499
 20
-5.93332
 11
3.17499
 21
-4.54999
  0
LINE
  8
0
 10
13.75
 20
-6.625
 11
13.5
 21
-6.625
  0
LINE
  8
0
 10
13.5
 20
-6.625
 11
13.5
 21
-8.7
  0
LINE
  8
0
 10
13.5
 20
-8.7
 11
13.75
 21
-8.7
  0
LINE
  8
0
 10
13.75
 20
-8.7
 11
13.75
 21
-6.625
  0
LINE
  8
0
 10
7.2
 20
-6.625
 11
6.95
 21
-6.625
  0
LINE
  8
0
 10
6.95
 20
-6.625
 11
6.95
 21
-8.7
  0
LINE
  8
0
 10
6.95
 20
-8.7
 11
7.2
 21
-8.7
  0
LINE
  8
0
 10
7.2
 20
-8.7
 11
7.2
 21
-6.625
  0
LINE
  8
0
 10
-0.75
 20
-7.15999
 11
-1
 21
-7.15999
  0
LINE
  8
0
 10
-1
 20
-7.15999
 11
-1
 21
-8.7
  0
LINE
  8
0
 10
-1
 20
-8.7
 11
-0.75
 21
-8.7
  0
LINE
  8
0
 10
-0.75
 20
-8.7
 11
-0.75
 21
-7.15999
  0
LINE
  8
0
 10
21.7
 20
-7.15999
 11
21.45
 21
-7.15999
  0
LINE
  8
0
 10
21.45
 20
-7.15999
 11
21.45
 21
-8.7
  0
LINE
  8
0
 10
21.45
 20
-8.7
 11
21.7
 21
-8.7
  0
LINE
  8
0
 10
21.7
 20
-8.7
 11
21.7
 21
-7.15999
  0
LINE
  8
0
 10
3.17499
 20
-7.31667
 11
3.02499
 21
-7.31667
  0
LINE
  8
0
 10
3.02499
 20
-7.31667
 11
3.02499
 21
-8.7
  0
LINE
  8
0
 10
3.02499
 20
-8.7
 11
3.17499
 21
-8.7
  0
LINE
  8
0
 10
3.17499
 20
-8.7
 11
3.17499
 21
-7.31667
  0
LINE
  8
0
 10
17.675
 20
-7.31667
 11
17.525
 21
-7.31667
  0
LINE
  8
0
 10
17.525
 20
-7.31667
 11
17.525
 21
-8.7
  0
LINE
  8
0
 10
17.525
 20
-8.7
 11
17.675
 21
-8.7
  0
LINE
  8
0
 10
17.675
 20
-8.7
 11
17.675
 21
-7.31667
  0
LINE
  8
0
 10
12
 20
-8.7
 11
10.5
 21
-8.7
  0
LINE
  8
0
 10
10.5
 20
-8.7
 11
10.5
 21
-7.43332
  0
LINE
  8
0
 10
10.5
 20
-7.43332
 11
10.2
 21
-7.43332
  0
LINE
  8
0
 10
10.2
 20
-7.43332
 11
10.2
 21
-8.7
  0
LINE
  8
0
 10
10.2
 20
-8.7
 11
8.7
 21
-8.7
  0
LINE
  8
0
 10
8.7
 20
-8.7
 11
8.7
 21
-8.95
  0
LINE
  8
0
 10
8.7
 20
-8.95
 11
12
 21
-8.95
  0
LINE
  8
0
 10
12
 20
-8.95
 11
12
 21
-8.7
  0
LINE
  8
0
 10
4.14999
 20
-8.7
 11
3.17499
 21
-8.7
  0
LINE
  8
0
 10
3.17499
 20
-8.7
 11
3.17499
 21
-8.95
  0
LINE
  8
0
 10
3.17499
 20
-8.95
 11
4.14999
 21
-8.95
  0
LINE
  8
0
 10
4.14999
 20
-8.95
 11
4.14999
 21
-8.7
  0
LINE
  8
0
 10
3.02499
 20
-8.7
 11
2.04999
 21
-8.7
  0
LINE
  8
0
 10
2.04999
 20
-8.7
 11
2.04999
 21
-8.95
  0
LINE
  8
0
 10
2.04999
 20
-8.95
 11
3.02499
 21
-8.95
  0
LINE
  8
0
 10
3.02499
 20
-8.95
 11
3.02499
 21
-8.7
  0
LINE
  8
0
 10
0.0499878
 20
-8.7
 11
-0.75
 21
-8.7
  0
LINE
  8
0
 10
-0.75
 20
-8.7
 11
-0.75
 21
-8.95
  0
LINE
  8
0
 10
-0.75
 20
-8.95
 11
0.0499878
 21
-8.95
  0
LINE
  8
0
 10
0.0499878
 20
-8.95
 11
0.0499878
 21
-8.7
  0
LINE
  8
0
 10
6.95
 20
-8.7
 11
6.14999
 21
-8.7
  0
LINE
  8
0
 10
6.14999
 20
-8.7
 11
6.14999
 21
-8.95
  0
LINE
  8
0
 10
6.14999
 20
-8.95
 11
6.95
 21
-8.95
  0
LINE
  8
0
 10
6.95
 20
-8.95
 11
6.95
 21
-8.7
  0
LINE
  8
0
 10
18.65
 20
-8.7
 11
17.675
 21
-8.7
  0
LINE
  8
0
 10
17.675
 20
-8.7
 11
17.675
 21
-8.95
  0
LINE
  8
0
 10
17.675
 20
-8.95
 11
18.65
 21
-8.95
  0
LINE
  8
0
 10
18.65
 20
-8.95
 11
18.65
 21
-8.7
  0
LINE
  8
0
 10
17.525
 20
-8.7
 11
16.55
 21
-8.7
  0
LINE
  8
0
 10
16.55
 20
-8.7
 11
16.55
 21
-8.95
  0
LINE
  8
0
 10
16.55
 20
-8.95
 11
17.525
 21
-8.95
  0
LINE
  8
0
 10
17.525
 20
-8.95
 11
17.525
 21
-8.7
  0
LINE
  8
0
 10
21.45
 20
-8.7
 11
20.65
 21
-8.7
  0
LINE
  8
0
 10
20.65
 20
-8.7
 11
20.65
 21
-8.95
  0
LINE
  8
0
 10
20.65
 20
-8.95
 11
21.45
 21
-8.95
  0
LINE
  8
0
 10
21.45
 20
-8.95
 11
21.45
 21
-8.7
  0
LINE
  8
0
 10
14.55
 20
-8.7
 11
13.75
 21
-8.7
  0
LINE
  8
0
 10
13.75
 20
-8.7
 11
13.75
 21
-8.95
  0
LINE
  8
0
 10
13.75
 20
-8.95
 11
14.55
 21
-8.95
  0
LINE
  8
0
 10
14.55
 20
-8.95
 11
14.55
 21
-8.7
  0
ENDSEC
  0
SECTION
  2
OBJECTS
  0
DICTIONARY
  0
ENDSEC
  0
EOF
