  0
SECTION
  2
HEADER
  9
$ACADVER
  1
AC1009
  9
$EXTMIN
 10
0.0
 20
0.0
 30
0.0
  9
$EXTMAX
 10
1000.0
 20
1000.0
 30
0.0
  9
$FILLMODE
 70
 0
  9
$SPLFRAME
 70
 1
  0
ENDSEC
  0
SECTION
  2
TABLES
  0
TABLE
  2
LAYER
 70
1
  0
LAYER
  2
0
 70
     0
 62
     7
  6
CONTINUOUS
  0
ENDTAB
  0
ENDSEC
  0
SECTION
  2
ENTITIES
  0
POLYLINE
  8
0
 62
     7
 66
     1
 10
0
 20
0
 30
0.0
 70
     1
 40
0
 41
0
  0
VERTEX
  8
0
 10
0.234972
 20
10.6667
 30
0.0
 40
0
 41
0
  0
VERTEX
  8
0
 10
0.986762
 20
10.6667
 30
0.0
 40
0
 41
0
  0
VERTEX
  8
0
 10
0.986762
 20
10.3415
 30
0.0
 40
0
 41
0
  0
VERTEX
  8
0
 10
0.234972
 20
10.3415
 30
0.0
 40
0
 41
0
  0
VERTEX
  8
0
 10
0.234972
 20
10.6667
 30
0.0
 40
0
 41
0
  0
SEQEND
 8
0
  0
POLYLINE
  8
0
 62
     0
 66
     1
 10
0
 20
0
 30
0.0
 70
     1
 40
0.75
 41
0.75
  0
VERTEX
  8
0
 10
0.234972
 20
10.6667
 30
0.0
 40
0.0104167
 41
0.0104167
  0
VERTEX
  8
0
 10
0.986762
 20
10.6667
 30
0.0
 40
0.0104167
 41
0.0104167
  0
VERTEX
  8
0
 10
0.986762
 20
10.3415
 30
0.0
 40
0.0104167
 41
0.0104167
  0
VERTEX
  8
0
 10
0.234972
 20
10.3415
 30
0.0
 40
0.0104167
 41
0.0104167
  0
VERTEX
  8
0
 10
0.234972
 20
10.6667
 30
0.0
 40
0.0104167
 41
0.0104167
  0
SEQEND
 8
0
  0
POLYLINE
  8
0
 62
     7
 66
     1
 10
0
 20
0
 30
0.0
 70
     1
 40
0
 41
0
  0
VERTEX
  8
0
 10
1.9266
 20
10.6667
 30
0.0
 40
0
 41
0
  0
VERTEX
  8
0
 10
2.96035
 20
10.6667
 30
0.0
 40
0
 41
0
  0
VERTEX
  8
0
 10
2.96035
 20
10.3415
 30
0.0
 40
0
 41
0
  0
VERTEX
  8
0
 10
1.9266
 20
10.3415
 30
0.0
 40
0
 41
0
  0
VERTEX
  8
0
 10
1.9266
 20
10.6667
 30
0.0
 40
0
 41
0
  0
SEQEND
 8
0
  0
POLYLINE
  8
0
 62
     0
 66
     1
 10
0
 20
0
 30
0.0
 70
     1
 40
0.75
 41
0.75
  0
VERTEX
  8
0
 10
1.9266
 20
10.6667
 30
0.0
 40
0.0104167
 41
0.0104167
  0
VERTEX
  8
0
 10
2.96035
 20
10.6667
 30
0.0
 40
0.0104167
 41
0.0104167
  0
VERTEX
  8
0
 10
2.96035
 20
10.3415
 30
0.0
 40
0.0104167
 41
0.0104167
  0
VERTEX
  8
0
 10
1.9266
 20
10.3415
 30
0.0
 40
0.0104167
 41
0.0104167
  0
VERTEX
  8
0
 10
1.9266
 20
10.6667
 30
0.0
 40
0.0104167
 41
0.0104167
  0
SEQEND
 8
0
  0
POLYLINE
  8
0
 62
     7
 66
     1
 10
0
 20
0
 30
0.0
 70
     1
 40
0
 41
0
  0
VERTEX
  8
0
 10
3.10135
 20
10.6667
 30
0.0
 40
0
 41
0
  0
VERTEX
  8
0
 10
3.75917
 20
10.6667
 30
0.0
 40
0
 41
0
  0
VERTEX
  8
0
 10
3.75917
 20
10.3415
 30
0.0
 40
0
 41
0
  0
VERTEX
  8
0
 10
3.10135
 20
10.3415
 30
0.0
 40
0
 41
0
  0
VERTEX
  8
0
 10
3.10135
 20
10.6667
 30
0.0
 40
0
 41
0
  0
SEQEND
 8
0
  0
POLYLINE
  8
0
 62
     0
 66
     1
 10
0
 20
0
 30
0.0
 70
     1
 40
0.75
 41
0.75
  0
VERTEX
  8
0
 10
3.10135
 20
10.6667
 30
0.0
 40
0.0104167
 41
0.0104167
  0
VERTEX
  8
0
 10
3.75917
 20
10.6667
 30
0.0
 40
0.0104167
 41
0.0104167
  0
VERTEX
  8
0
 10
3.75917
 20
10.3415
 30
0.0
 40
0.0104167
 41
0.0104167
  0
VERTEX
  8
0
 10
3.10135
 20
10.3415
 30
0.0
 40
0.0104167
 41
0.0104167
  0
VERTEX
  8
0
 10
3.10135
 20
10.6667
 30
0.0
 40
0.0104167
 41
0.0104167
  0
SEQEND
 8
0
  0
POLYLINE
  8
0
 62
     7
 66
     1
 10
0
 20
0
 30
0.0
 70
     1
 40
0
 41
0
  0
VERTEX
  8
0
 10
4.69894
 20
10.6667
 30
0.0
 40
0
 41
0
  0
VERTEX
  8
0
 10
5.54482
 20
10.6667
 30
0.0
 40
0
 41
0
  0
VERTEX
  8
0
 10
5.54482
 20
10.3415
 30
0.0
 40
0
 41
0
  0
VERTEX
  8
0
 10
4.69894
 20
10.3415
 30
0.0
 40
0
 41
0
  0
VERTEX
  8
0
 10
4.69894
 20
10.6667
 30
0.0
 40
0
 41
0
  0
SEQEND
 8
0
  0
POLYLINE
  8
0
 62
     0
 66
     1
 10
0
 20
0
 30
0.0
 70
     1
 40
0.75
 41
0.75
  0
VERTEX
  8
0
 10
4.69894
 20
10.6667
 30
0.0
 40
0.0104167
 41
0.0104167
  0
VERTEX
  8
0
 10
5.54482
 20
10.6667
 30
0.0
 40
0.0104167
 41
0.0104167
  0
VERTEX
  8
0
 10
5.54482
 20
10.3415
 30
0.0
 40
0.0104167
 41
0.0104167
  0
VERTEX
  8
0
 10
4.69894
 20
10.3415
 30
0.0
 40
0.0104167
 41
0.0104167
  0
VERTEX
  8
0
 10
4.69894
 20
10.6667
 30
0.0
 40
0.0104167
 41
0.0104167
  0
SEQEND
 8
0
  0
POLYLINE
  8
0
 62
     7
 66
     1
 10
0
 20
0
 30
0.0
 70
     1
 40
0
 41
0
  0
VERTEX
  8
0
 10
6.95449
 20
10.6667
 30
0.0
 40
0
 41
0
  0
VERTEX
  8
0
 10
7.47136
 20
10.6667
 30
0.0
 40
0
 41
0
  0
VERTEX
  8
0
 10
7.47136
 20
10.3415
 30
0.0
 40
0
 41
0
  0
VERTEX
  8
0
 10
6.95449
 20
10.3415
 30
0.0
 40
0
 41
0
  0
VERTEX
  8
0
 10
6.95449
 20
10.6667
 30
0.0
 40
0
 41
0
  0
SEQEND
 8
0
  0
POLYLINE
  8
0
 62
     0
 66
     1
 10
0
 20
0
 30
0.0
 70
     1
 40
0.75
 41
0.75
  0
VERTEX
  8
0
 10
6.95449
 20
10.6667
 30
0.0
 40
0.0104167
 41
0.0104167
  0
VERTEX
  8
0
 10
7.47136
 20
10.6667
 30
0.0
 40
0.0104167
 41
0.0104167
  0
VERTEX
  8
0
 10
7.47136
 20
10.3415
 30
0.0
 40
0.0104167
 41
0.0104167
  0
VERTEX
  8
0
 10
6.95449
 20
10.3415
 30
0.0
 40
0.0104167
 41
0.0104167
  0
VERTEX
  8
0
 10
6.95449
 20
10.6667
 30
0.0
 40
0.0104167
 41
0.0104167
  0
SEQEND
 8
0
  0
POLYLINE
  8
0
 62
     7
 66
     1
 10
0
 20
0
 30
0.0
 70
     1
 40
0
 41
0
  0
VERTEX
  8
0
 10
3.92367
 20
0.325196
 30
0.0
 40
0
 41
0
  0
VERTEX
  8
0
 10
4.83996
 20
0.325196
 30
0.0
 40
0
 41
0
  0
VERTEX
  8
0
 10
4.83996
 20
0
 30
0.0
 40
0
 41
0
  0
VERTEX
  8
0
 10
3.92367
 20
0
 30
0.0
 40
0
 41
0
  0
VERTEX
  8
0
 10
3.92367
 20
0.325196
 30
0.0
 40
0
 41
0
  0
SEQEND
 8
0
  0
POLYLINE
  8
0
 62
     0
 66
     1
 10
0
 20
0
 30
0.0
 70
     1
 40
0.75
 41
0.75
  0
VERTEX
  8
0
 10
3.92367
 20
0.325196
 30
0.0
 40
0.0104167
 41
0.0104167
  0
VERTEX
  8
0
 10
4.83996
 20
0.325196
 30
0.0
 40
0.0104167
 41
0.0104167
  0
VERTEX
  8
0
 10
4.83996
 20
0
 30
0.0
 40
0.0104167
 41
0.0104167
  0
VERTEX
  8
0
 10
3.92367
 20
0
 30
0.0
 40
0.0104167
 41
0.0104167
  0
VERTEX
  8
0
 10
3.92367
 20
0.325196
 30
0.0
 40
0.0104167
 41
0.0104167
  0
SEQEND
 8
0
  0
POLYLINE
  8
0
 62
     7
 66
     1
 10
0
 20
0
 30
0.0
 70
     1
 40
0
 41
0
  0
VERTEX
  8
0
 10
2.86637
 20
0.325196
 30
0.0
 40
0
 41
0
  0
VERTEX
  8
0
 10
3.78267
 20
0.325196
 30
0.0
 40
0
 41
0
  0
VERTEX
  8
0
 10
3.78267
 20
0
 30
0.0
 40
0
 41
0
  0
VERTEX
  8
0
 10
2.86637
 20
0
 30
0.0
 40
0
 41
0
  0
VERTEX
  8
0
 10
2.86637
 20
0.325196
 30
0.0
 40
0
 41
0
  0
SEQEND
 8
0
  0
POLYLINE
  8
0
 62
     0
 66
     1
 10
0
 20
0
 30
0.0
 70
     1
 40
0.75
 41
0.75
  0
VERTEX
  8
0
 10
2.86637
 20
0.325196
 30
0.0
 40
0.0104167
 41
0.0104167
  0
VERTEX
  8
0
 10
3.78267
 20
0.325196
 30
0.0
 40
0.0104167
 41
0.0104167
  0
VERTEX
  8
0
 10
3.78267
 20
0
 30
0.0
 40
0.0104167
 41
0.0104167
  0
VERTEX
  8
0
 10
2.86637
 20
0
 30
0.0
 40
0.0104167
 41
0.0104167
  0
VERTEX
  8
0
 10
2.86637
 20
0.325196
 30
0.0
 40
0.0104167
 41
0.0104167
  0
SEQEND
 8
0
  0
POLYLINE
  8
0
 62
     7
 66
     1
 10
0
 20
0
 30
0.0
 70
     1
 40
0
 41
0
  0
VERTEX
  8
0
 10
0.234972
 20
0.325196
 30
0.0
 40
0
 41
0
  0
VERTEX
  8
0
 10
0.986762
 20
0.325196
 30
0.0
 40
0
 41
0
  0
VERTEX
  8
0
 10
0.986762
 20
0
 30
0.0
 40
0
 41
0
  0
VERTEX
  8
0
 10
0.234972
 20
0
 30
0.0
 40
0
 41
0
  0
VERTEX
  8
0
 10
0.234972
 20
0.325196
 30
0.0
 40
0
 41
0
  0
SEQEND
 8
0
  0
POLYLINE
  8
0
 62
     0
 66
     1
 10
0
 20
0
 30
0.0
 70
     1
 40
0.75
 41
0.75
  0
VERTEX
  8
0
 10
0.234972
 20
0.325196
 30
0.0
 40
0.0104167
 41
0.0104167
  0
VERTEX
  8
0
 10
0.986762
 20
0.325196
 30
0.0
 40
0.0104167
 41
0.0104167
  0
VERTEX
  8
0
 10
0.986762
 20
0
 30
0.0
 40
0.0104167
 41
0.0104167
  0
VERTEX
  8
0
 10
0.234972
 20
0
 30
0.0
 40
0.0104167
 41
0.0104167
  0
VERTEX
  8
0
 10
0.234972
 20
0.325196
 30
0.0
 40
0.0104167
 41
0.0104167
  0
SEQEND
 8
0
  0
POLYLINE
  8
0
 62
     7
 66
     1
 10
0
 20
0
 30
0.0
 70
     1
 40
0
 41
0
  0
VERTEX
  8
0
 10
6.71951
 20
0.325196
 30
0.0
 40
0
 41
0
  0
VERTEX
  8
0
 10
7.47136
 20
0.325196
 30
0.0
 40
0
 41
0
  0
VERTEX
  8
0
 10
7.47136
 20
0
 30
0.0
 40
0
 41
0
  0
VERTEX
  8
0
 10
6.71951
 20
0
 30
0.0
 40
0
 41
0
  0
VERTEX
  8
0
 10
6.71951
 20
0.325196
 30
0.0
 40
0
 41
0
  0
SEQEND
 8
0
  0
POLYLINE
  8
0
 62
     0
 66
     1
 10
0
 20
0
 30
0.0
 70
     1
 40
0.75
 41
0.75
  0
VERTEX
  8
0
 10
6.71951
 20
0.325196
 30
0.0
 40
0.0104167
 41
0.0104167
  0
VERTEX
  8
0
 10
7.47136
 20
0.325196
 30
0.0
 40
0.0104167
 41
0.0104167
  0
VERTEX
  8
0
 10
7.47136
 20
0
 30
0.0
 40
0.0104167
 41
0.0104167
  0
VERTEX
  8
0
 10
6.71951
 20
0
 30
0.0
 40
0.0104167
 41
0.0104167
  0
VERTEX
  8
0
 10
6.71951
 20
0.325196
 30
0.0
 40
0.0104167
 41
0.0104167
  0
SEQEND
 8
0
  0
POLYLINE
  8
0
 62
     7
 66
     1
 10
0
 20
0
 30
0.0
 70
     1
 40
0
 41
0
  0
VERTEX
  8
0
 10
9.116
 20
0.325196
 30
0.0
 40
0
 41
0
  0
VERTEX
  8
0
 10
10.5257
 20
0.325196
 30
0.0
 40
0
 41
0
  0
VERTEX
  8
0
 10
10.5257
 20
0
 30
0.0
 40
0
 41
0
  0
VERTEX
  8
0
 10
9.116
 20
0
 30
0.0
 40
0
 41
0
  0
VERTEX
  8
0
 10
9.116
 20
0.325196
 30
0.0
 40
0
 41
0
  0
SEQEND
 8
0
  0
POLYLINE
  8
0
 62
     0
 66
     1
 10
0
 20
0
 30
0.0
 70
     1
 40
0.75
 41
0.75
  0
VERTEX
  8
0
 10
9.116
 20
0.325196
 30
0.0
 40
0.0104167
 41
0.0104167
  0
VERTEX
  8
0
 10
10.5257
 20
0.325196
 30
0.0
 40
0.0104167
 41
0.0104167
  0
VERTEX
  8
0
 10
10.5257
 20
0
 30
0.0
 40
0.0104167
 41
0.0104167
  0
VERTEX
  8
0
 10
9.116
 20
0
 30
0.0
 40
0.0104167
 41
0.0104167
  0
VERTEX
  8
0
 10
9.116
 20
0.325196
 30
0.0
 40
0.0104167
 41
0.0104167
  0
SEQEND
 8
0
  0
POLYLINE
  8
0
 62
     0
 66
     1
 10
0
 20
0
 30
0.0
 70
     1
 40
0.75
 41
0.75
  0
VERTEX
  8
0
 10
0
 20
10.3415
 30
0.0
 40
0.0104167
 41
0.0104167
  0
VERTEX
  8
0
 10
0.234972
 20
10.3415
 30
0.0
 40
0.0104167
 41
0.0104167
  0
VERTEX
  8
0
 10
0.234972
 20
8.33822
 30
0.0
 40
0.0104167
 41
0.0104167
  0
VERTEX
  8
0
 10
0
 20
8.33822
 30
0.0
 40
0.0104167
 41
0.0104167
  0
VERTEX
  8
0
 10
0
 20
10.3415
 30
0.0
 40
0.0104167
 41
0.0104167
  0
SEQEND
 8
0
  0
POLYLINE
  8
0
 62
     0
 66
     1
 10
0
 20
0
 30
0.0
 70
     1
 40
0.75
 41
0.75
  0
VERTEX
  8
0
 10
0
 20
2.32844
 30
0.0
 40
0.0104167
 41
0.0104167
  0
VERTEX
  8
0
 10
0.234972
 20
2.32844
 30
0.0
 40
0.0104167
 41
0.0104167
  0
VERTEX
  8
0
 10
0.234972
 20
0.325196
 30
0.0
 40
0.0104167
 41
0.0104167
  0
VERTEX
  8
0
 10
0
 20
0.325196
 30
0.0
 40
0.0104167
 41
0.0104167
  0
VERTEX
  8
0
 10
0
 20
2.32844
 30
0.0
 40
0.0104167
 41
0.0104167
  0
SEQEND
 8
0
  0
POLYLINE
  8
0
 62
     7
 66
     1
 10
0
 20
0
 30
0.0
 70
     1
 40
0
 41
0
  0
VERTEX
  8
0
 10
0
 20
6.33496
 30
0.0
 40
0
 41
0
  0
VERTEX
  8
0
 10
0.234972
 20
6.33496
 30
0.0
 40
0
 41
0
  0
VERTEX
  8
0
 10
0.234972
 20
4.33171
 30
0.0
 40
0
 41
0
  0
VERTEX
  8
0
 10
0
 20
4.33171
 30
0.0
 40
0
 41
0
  0
VERTEX
  8
0
 10
0
 20
6.33496
 30
0.0
 40
0
 41
0
  0
SEQEND
 8
0
  0
POLYLINE
  8
0
 62
     0
 66
     1
 10
0
 20
0
 30
0.0
 70
     1
 40
0.75
 41
0.75
  0
VERTEX
  8
0
 10
0
 20
6.33496
 30
0.0
 40
0.0104167
 41
0.0104167
  0
VERTEX
  8
0
 10
0.234972
 20
6.33496
 30
0.0
 40
0.0104167
 41
0.0104167
  0
VERTEX
  8
0
 10
0.234972
 20
4.33171
 30
0.0
 40
0.0104167
 41
0.0104167
  0
VERTEX
  8
0
 10
0
 20
4.33171
 30
0.0
 40
0.0104167
 41
0.0104167
  0
VERTEX
  8
0
 10
0
 20
6.33496
 30
0.0
 40
0.0104167
 41
0.0104167
  0
SEQEND
 8
0
  0
POLYLINE
  8
0
 62
     0
 66
     1
 10
0
 20
0
 30
0.0
 70
     1
 40
0.75
 41
0.75
  0
VERTEX
  8
0
 10
7.47136
 20
10.3415
 30
0.0
 40
0.0104167
 41
0.0104167
  0
VERTEX
  8
0
 10
7.70632
 20
10.3415
 30
0.0
 40
0.0104167
 41
0.0104167
  0
VERTEX
  8
0
 10
7.70632
 20
9.82112
 30
0.0
 40
0.0104167
 41
0.0104167
  0
VERTEX
  8
0
 10
7.47136
 20
9.82112
 30
0.0
 40
0.0104167
 41
0.0104167
  0
VERTEX
  8
0
 10
7.47136
 20
10.3415
 30
0.0
 40
0.0104167
 41
0.0104167
  0
SEQEND
 8
0
  0
POLYLINE
  8
0
 62
     7
 66
     1
 10
0
 20
0
 30
0.0
 70
     1
 40
0
 41
0
  0
VERTEX
  8
0
 10
7.47136
 20
8.52035
 30
0.0
 40
0
 41
0
  0
VERTEX
  8
0
 10
7.70632
 20
8.52035
 30
0.0
 40
0
 41
0
  0
VERTEX
  8
0
 10
7.70632
 20
8
 30
0.0
 40
0
 41
0
  0
VERTEX
  8
0
 10
7.47136
 20
8
 30
0.0
 40
0
 41
0
  0
VERTEX
  8
0
 10
7.47136
 20
8.52035
 30
0.0
 40
0
 41
0
  0
SEQEND
 8
0
  0
POLYLINE
  8
0
 62
     0
 66
     1
 10
0
 20
0
 30
0.0
 70
     1
 40
0.75
 41
0.75
  0
VERTEX
  8
0
 10
7.47136
 20
8.52035
 30
0.0
 40
0.0104167
 41
0.0104167
  0
VERTEX
  8
0
 10
7.70632
 20
8.52035
 30
0.0
 40
0.0104167
 41
0.0104167
  0
VERTEX
  8
0
 10
7.70632
 20
8
 30
0.0
 40
0.0104167
 41
0.0104167
  0
VERTEX
  8
0
 10
7.47136
 20
8
 30
0.0
 40
0.0104167
 41
0.0104167
  0
VERTEX
  8
0
 10
7.47136
 20
8.52035
 30
0.0
 40
0.0104167
 41
0.0104167
  0
SEQEND
 8
0
  0
POLYLINE
  8
0
 62
     7
 66
     1
 10
0
 20
0
 30
0.0
 70
     1
 40
0
 41
0
  0
VERTEX
  8
0
 10
7.47136
 20
6.69917
 30
0.0
 40
0
 41
0
  0
VERTEX
  8
0
 10
7.70632
 20
6.69917
 30
0.0
 40
0
 41
0
  0
VERTEX
  8
0
 10
7.70632
 20
5.91868
 30
0.0
 40
0
 41
0
  0
VERTEX
  8
0
 10
7.47136
 20
5.91868
 30
0.0
 40
0
 41
0
  0
VERTEX
  8
0
 10
7.47136
 20
6.69917
 30
0.0
 40
0
 41
0
  0
SEQEND
 8
0
  0
POLYLINE
  8
0
 62
     0
 66
     1
 10
0
 20
0
 30
0.0
 70
     1
 40
0.75
 41
0.75
  0
VERTEX
  8
0
 10
7.47136
 20
6.69917
 30
0.0
 40
0.0104167
 41
0.0104167
  0
VERTEX
  8
0
 10
7.70632
 20
6.69917
 30
0.0
 40
0.0104167
 41
0.0104167
  0
VERTEX
  8
0
 10
7.70632
 20
5.91868
 30
0.0
 40
0.0104167
 41
0.0104167
  0
VERTEX
  8
0
 10
7.47136
 20
5.91868
 30
0.0
 40
0.0104167
 41
0.0104167
  0
VERTEX
  8
0
 10
7.47136
 20
6.69917
 30
0.0
 40
0.0104167
 41
0.0104167
  0
SEQEND
 8
0
  0
POLYLINE
  8
0
 62
     0
 66
     1
 10
0
 20
0
 30
0.0
 70
     1
 40
0.75
 41
0.75
  0
VERTEX
  8
0
 10
7.47136
 20
3.02436
 30
0.0
 40
0.0104167
 41
0.0104167
  0
VERTEX
  8
0
 10
7.70632
 20
3.02436
 30
0.0
 40
0.0104167
 41
0.0104167
  0
VERTEX
  8
0
 10
7.70632
 20
0.325196
 30
0.0
 40
0.0104167
 41
0.0104167
  0
VERTEX
  8
0
 10
7.47136
 20
0.325196
 30
0.0
 40
0.0104167
 41
0.0104167
  0
VERTEX
  8
0
 10
7.47136
 20
3.02436
 30
0.0
 40
0.0104167
 41
0.0104167
  0
SEQEND
 8
0
  0
POLYLINE
  8
0
 62
     7
 66
     1
 10
0
 20
0
 30
0.0
 70
     1
 40
0
 41
0
  0
VERTEX
  8
0
 10
3.78267
 20
5.72358
 30
0.0
 40
0
 41
0
  0
VERTEX
  8
0
 10
3.92367
 20
5.72358
 30
0.0
 40
0
 41
0
  0
VERTEX
  8
0
 10
3.92367
 20
3.9241
 30
0.0
 40
0
 41
0
  0
VERTEX
  8
0
 10
3.78267
 20
3.9241
 30
0.0
 40
0
 41
0
  0
VERTEX
  8
0
 10
3.78267
 20
5.72358
 30
0.0
 40
0
 41
0
  0
SEQEND
 8
0
  0
POLYLINE
  8
0
 62
     0
 66
     1
 10
0
 20
0
 30
0.0
 70
     1
 40
0.75
 41
0.75
  0
VERTEX
  8
0
 10
3.78267
 20
5.72358
 30
0.0
 40
0.0104167
 41
0.0104167
  0
VERTEX
  8
0
 10
3.92367
 20
5.72358
 30
0.0
 40
0.0104167
 41
0.0104167
  0
VERTEX
  8
0
 10
3.92367
 20
3.9241
 30
0.0
 40
0.0104167
 41
0.0104167
  0
VERTEX
  8
0
 10
3.78267
 20
3.9241
 30
0.0
 40
0.0104167
 41
0.0104167
  0
VERTEX
  8
0
 10
3.78267
 20
5.72358
 30
0.0
 40
0.0104167
 41
0.0104167
  0
SEQEND
 8
0
  0
POLYLINE
  8
0
 62
     0
 66
     1
 10
0
 20
0
 30
0.0
 70
     1
 40
0.75
 41
0.75
  0
VERTEX
  8
0
 10
3.78267
 20
2.12468
 30
0.0
 40
0.0104167
 41
0.0104167
  0
VERTEX
  8
0
 10
3.92367
 20
2.12468
 30
0.0
 40
0.0104167
 41
0.0104167
  0
VERTEX
  8
0
 10
3.92367
 20
0.325196
 30
0.0
 40
0.0104167
 41
0.0104167
  0
VERTEX
  8
0
 10
3.78267
 20
0.325196
 30
0.0
 40
0.0104167
 41
0.0104167
  0
VERTEX
  8
0
 10
3.78267
 20
2.12468
 30
0.0
 40
0.0104167
 41
0.0104167
  0
SEQEND
 8
0
  0
POLYLINE
  8
0
 62
     0
 66
     1
 10
0
 20
0
 30
0.0
 70
     1
 40
0.75
 41
0.75
  0
VERTEX
  8
0
 10
3.92367
 20
5.91868
 30
0.0
 40
0.0104167
 41
0.0104167
  0
VERTEX
  8
0
 10
4.58149
 20
5.91868
 30
0.0
 40
0.0104167
 41
0.0104167
  0
VERTEX
  8
0
 10
4.58149
 20
5.72358
 30
0.0
 40
0.0104167
 41
0.0104167
  0
VERTEX
  8
0
 10
3.92367
 20
5.72358
 30
0.0
 40
0.0104167
 41
0.0104167
  0
VERTEX
  8
0
 10
3.92367
 20
5.91868
 30
0.0
 40
0.0104167
 41
0.0104167
  0
SEQEND
 8
0
  0
POLYLINE
  8
0
 62
     0
 66
     1
 10
0
 20
0
 30
0.0
 70
     1
 40
0.75
 41
0.75
  0
VERTEX
  8
0
 10
5.52126
 20
5.91868
 30
0.0
 40
0.0104167
 41
0.0104167
  0
VERTEX
  8
0
 10
7.47136
 20
5.91868
 30
0.0
 40
0.0104167
 41
0.0104167
  0
VERTEX
  8
0
 10
7.47136
 20
5.72358
 30
0.0
 40
0.0104167
 41
0.0104167
  0
VERTEX
  8
0
 10
5.52126
 20
5.72358
 30
0.0
 40
0.0104167
 41
0.0104167
  0
VERTEX
  8
0
 10
5.52126
 20
5.91868
 30
0.0
 40
0.0104167
 41
0.0104167
  0
SEQEND
 8
0
  0
POLYLINE
  8
0
 62
     7
 66
     1
 10
0
 20
0
 30
0.0
 70
     1
 40
0
 41
0
  0
VERTEX
  8
0
 10
1.535
 20
5.91868
 30
0.0
 40
0
 41
0
  0
VERTEX
  8
0
 10
2.185
 20
5.91868
 30
0.0
 40
0
 41
0
  0
VERTEX
  8
0
 10
2.185
 20
5.72358
 30
0.0
 40
0
 41
0
  0
VERTEX
  8
0
 10
1.535
 20
5.72358
 30
0.0
 40
0
 41
0
  0
VERTEX
  8
0
 10
1.535
 20
5.91868
 30
0.0
 40
0
 41
0
  0
SEQEND
 8
0
  0
POLYLINE
  8
0
 62
     0
 66
     1
 10
0
 20
0
 30
0.0
 70
     1
 40
0.75
 41
0.75
  0
VERTEX
  8
0
 10
1.535
 20
5.91868
 30
0.0
 40
0.0104167
 41
0.0104167
  0
VERTEX
  8
0
 10
2.185
 20
5.91868
 30
0.0
 40
0.0104167
 41
0.0104167
  0
VERTEX
  8
0
 10
2.185
 20
5.72358
 30
0.0
 40
0.0104167
 41
0.0104167
  0
VERTEX
  8
0
 10
1.535
 20
5.72358
 30
0.0
 40
0.0104167
 41
0.0104167
  0
VERTEX
  8
0
 10
1.535
 20
5.91868
 30
0.0
 40
0.0104167
 41
0.0104167
  0
SEQEND
 8
0
  0
POLYLINE
  8
0
 62
     0
 66
     1
 10
0
 20
0
 30
0.0
 70
     1
 40
0.75
 41
0.75
  0
VERTEX
  8
0
 10
3.12483
 20
5.91868
 30
0.0
 40
0.0104167
 41
0.0104167
  0
VERTEX
  8
0
 10
3.78267
 20
5.91868
 30
0.0
 40
0.0104167
 41
0.0104167
  0
VERTEX
  8
0
 10
3.78267
 20
5.72358
 30
0.0
 40
0.0104167
 41
0.0104167
  0
VERTEX
  8
0
 10
3.12483
 20
5.72358
 30
0.0
 40
0.0104167
 41
0.0104167
  0
VERTEX
  8
0
 10
3.12483
 20
5.91868
 30
0.0
 40
0.0104167
 41
0.0104167
  0
SEQEND
 8
0
  0
POLYLINE
  8
0
 62
     0
 66
     1
 10
0
 20
0
 30
0.0
 70
     1
 40
0.75
 41
0.75
  0
VERTEX
  8
0
 10
7.70632
 20
5.91868
 30
0.0
 40
0.0104167
 41
0.0104167
  0
VERTEX
  8
0
 10
8.64611
 20
5.91868
 30
0.0
 40
0.0104167
 41
0.0104167
  0
VERTEX
  8
0
 10
8.64611
 20
5.72358
 30
0.0
 40
0.0104167
 41
0.0104167
  0
VERTEX
  8
0
 10
7.70632
 20
5.72358
 30
0.0
 40
0.0104167
 41
0.0104167
  0
VERTEX
  8
0
 10
7.70632
 20
5.91868
 30
0.0
 40
0.0104167
 41
0.0104167
  0
SEQEND
 8
0
  0
POLYLINE
  8
0
 62
     7
 66
     1
 10
0
 20
0
 30
0.0
 70
     1
 40
0
 41
0
  0
VERTEX
  8
0
 10
9.58589
 20
5.91868
 30
0.0
 40
0
 41
0
  0
VERTEX
  8
0
 10
10.5257
 20
5.91868
 30
0.0
 40
0
 41
0
  0
VERTEX
  8
0
 10
10.5257
 20
5.72358
 30
0.0
 40
0
 41
0
  0
VERTEX
  8
0
 10
9.58589
 20
5.72358
 30
0.0
 40
0
 41
0
  0
VERTEX
  8
0
 10
9.58589
 20
5.91868
 30
0.0
 40
0
 41
0
  0
SEQEND
 8
0
  0
POLYLINE
  8
0
 62
     0
 66
     1
 10
0
 20
0
 30
0.0
 70
     1
 40
0.75
 41
0.75
  0
VERTEX
  8
0
 10
9.58589
 20
5.91868
 30
0.0
 40
0.0104167
 41
0.0104167
  0
VERTEX
  8
0
 10
10.5257
 20
5.91868
 30
0.0
 40
0.0104167
 41
0.0104167
  0
VERTEX
  8
0
 10
10.5257
 20
5.72358
 30
0.0
 40
0.0104167
 41
0.0104167
  0
VERTEX
  8
0
 10
9.58589
 20
5.72358
 30
0.0
 40
0.0104167
 41
0.0104167
  0
VERTEX
  8
0
 10
9.58589
 20
5.91868
 30
0.0
 40
0.0104167
 41
0.0104167
  0
SEQEND
 8
0
  0
POLYLINE
  8
0
 62
     0
 66
     1
 10
0
 20
0
 30
0.0
 70
     1
 40
0.75
 41
0.75
  0
VERTEX
  8
0
 10
0.234972
 20
5.91868
 30
0.0
 40
0.0104167
 41
0.0104167
  0
VERTEX
  8
0
 10
0.884983
 20
5.91868
 30
0.0
 40
0.0104167
 41
0.0104167
  0
VERTEX
  8
0
 10
0.884983
 20
5.72358
 30
0.0
 40
0.0104167
 41
0.0104167
  0
VERTEX
  8
0
 10
0.234972
 20
5.72358
 30
0.0
 40
0.0104167
 41
0.0104167
  0
VERTEX
  8
0
 10
0.234972
 20
5.91868
 30
0.0
 40
0.0104167
 41
0.0104167
  0
SEQEND
 8
0
  0
POLYLINE
  8
0
 62
     7
 66
     1
 10
0
 20
0
 30
0.0
 70
     1
 40
0
 41
0
  0
VERTEX
  8
0
 10
2.96035
 20
8.39025
 30
0.0
 40
0
 41
0
  0
VERTEX
  8
0
 10
3.10135
 20
8.39025
 30
0.0
 40
0
 41
0
  0
VERTEX
  8
0
 10
3.10135
 20
7.41465
 30
0.0
 40
0
 41
0
  0
VERTEX
  8
0
 10
2.96035
 20
7.41465
 30
0.0
 40
0
 41
0
  0
VERTEX
  8
0
 10
2.96035
 20
8.39025
 30
0.0
 40
0
 41
0
  0
SEQEND
 8
0
  0
POLYLINE
  8
0
 62
     0
 66
     1
 10
0
 20
0
 30
0.0
 70
     1
 40
0.75
 41
0.75
  0
VERTEX
  8
0
 10
2.96035
 20
8.39025
 30
0.0
 40
0.0104167
 41
0.0104167
  0
VERTEX
  8
0
 10
3.10135
 20
8.39025
 30
0.0
 40
0.0104167
 41
0.0104167
  0
VERTEX
  8
0
 10
3.10135
 20
7.41465
 30
0.0
 40
0.0104167
 41
0.0104167
  0
VERTEX
  8
0
 10
2.96035
 20
7.41465
 30
0.0
 40
0.0104167
 41
0.0104167
  0
VERTEX
  8
0
 10
2.96035
 20
8.39025
 30
0.0
 40
0.0104167
 41
0.0104167
  0
SEQEND
 8
0
  0
POLYLINE
  8
0
 62
     0
 66
     1
 10
0
 20
0
 30
0.0
 70
     1
 40
0.75
 41
0.75
  0
VERTEX
  8
0
 10
2.96035
 20
10.3415
 30
0.0
 40
0.0104167
 41
0.0104167
  0
VERTEX
  8
0
 10
3.10135
 20
10.3415
 30
0.0
 40
0.0104167
 41
0.0104167
  0
VERTEX
  8
0
 10
3.10135
 20
9.36583
 30
0.0
 40
0.0104167
 41
0.0104167
  0
VERTEX
  8
0
 10
2.96035
 20
9.36583
 30
0.0
 40
0.0104167
 41
0.0104167
  0
VERTEX
  8
0
 10
2.96035
 20
10.3415
 30
0.0
 40
0.0104167
 41
0.0104167
  0
SEQEND
 8
0
  0
POLYLINE
  8
0
 62
     0
 66
     1
 10
0
 20
0
 30
0.0
 70
     1
 40
0.75
 41
0.75
  0
VERTEX
  8
0
 10
2.86637
 20
7.41465
 30
0.0
 40
0.0104167
 41
0.0104167
  0
VERTEX
  8
0
 10
2.96035
 20
7.41465
 30
0.0
 40
0.0104167
 41
0.0104167
  0
VERTEX
  8
0
 10
2.96035
 20
7.21951
 30
0.0
 40
0.0104167
 41
0.0104167
  0
VERTEX
  8
0
 10
2.86637
 20
7.21951
 30
0.0
 40
0.0104167
 41
0.0104167
  0
VERTEX
  8
0
 10
2.86637
 20
7.41465
 30
0.0
 40
0.0104167
 41
0.0104167
  0
SEQEND
 8
0
  0
POLYLINE
  8
0
 62
     7
 66
     1
 10
0
 20
0
 30
0.0
 70
     1
 40
0
 41
0
  0
VERTEX
  8
0
 10
1.83257
 20
7.41465
 30
0.0
 40
0
 41
0
  0
VERTEX
  8
0
 10
1.9266
 20
7.41465
 30
0.0
 40
0
 41
0
  0
VERTEX
  8
0
 10
1.9266
 20
7.21951
 30
0.0
 40
0
 41
0
  0
VERTEX
  8
0
 10
1.83257
 20
7.21951
 30
0.0
 40
0
 41
0
  0
VERTEX
  8
0
 10
1.83257
 20
7.41465
 30
0.0
 40
0
 41
0
  0
SEQEND
 8
0
  0
POLYLINE
  8
0
 62
     0
 66
     1
 10
0
 20
0
 30
0.0
 70
     1
 40
0.75
 41
0.75
  0
VERTEX
  8
0
 10
1.83257
 20
7.41465
 30
0.0
 40
0.0104167
 41
0.0104167
  0
VERTEX
  8
0
 10
1.9266
 20
7.41465
 30
0.0
 40
0.0104167
 41
0.0104167
  0
VERTEX
  8
0
 10
1.9266
 20
7.21951
 30
0.0
 40
0.0104167
 41
0.0104167
  0
VERTEX
  8
0
 10
1.83257
 20
7.21951
 30
0.0
 40
0.0104167
 41
0.0104167
  0
VERTEX
  8
0
 10
1.83257
 20
7.41465
 30
0.0
 40
0.0104167
 41
0.0104167
  0
SEQEND
 8
0
  0
POLYLINE
  8
0
 62
     7
 66
     1
 10
0
 20
0
 30
0.0
 70
     1
 40
0
 41
0
  0
VERTEX
  8
0
 10
1.69162
 20
8.06506
 30
0.0
 40
0
 41
0
  0
VERTEX
  8
0
 10
1.83257
 20
8.06506
 30
0.0
 40
0
 41
0
  0
VERTEX
  8
0
 10
1.83257
 20
7.73986
 30
0.0
 40
0
 41
0
  0
VERTEX
  8
0
 10
1.69162
 20
7.73986
 30
0.0
 40
0
 41
0
  0
VERTEX
  8
0
 10
1.69162
 20
8.06506
 30
0.0
 40
0
 41
0
  0
SEQEND
 8
0
  0
POLYLINE
  8
0
 62
     0
 66
     1
 10
0
 20
0
 30
0.0
 70
     1
 40
0.75
 41
0.75
  0
VERTEX
  8
0
 10
1.69162
 20
8.06506
 30
0.0
 40
0.0104167
 41
0.0104167
  0
VERTEX
  8
0
 10
1.83257
 20
8.06506
 30
0.0
 40
0.0104167
 41
0.0104167
  0
VERTEX
  8
0
 10
1.83257
 20
7.73986
 30
0.0
 40
0.0104167
 41
0.0104167
  0
VERTEX
  8
0
 10
1.69162
 20
7.73986
 30
0.0
 40
0.0104167
 41
0.0104167
  0
VERTEX
  8
0
 10
1.69162
 20
8.06506
 30
0.0
 40
0.0104167
 41
0.0104167
  0
SEQEND
 8
0
  0
POLYLINE
  8
0
 62
     0
 66
     1
 10
0
 20
0
 30
0.0
 70
     1
 40
0.75
 41
0.75
  0
VERTEX
  8
0
 10
1.69162
 20
7.41465
 30
0.0
 40
0.0104167
 41
0.0104167
  0
VERTEX
  8
0
 10
1.83257
 20
7.41465
 30
0.0
 40
0.0104167
 41
0.0104167
  0
VERTEX
  8
0
 10
1.83257
 20
7.21951
 30
0.0
 40
0.0104167
 41
0.0104167
  0
VERTEX
  8
0
 10
1.69162
 20
7.21951
 30
0.0
 40
0.0104167
 41
0.0104167
  0
VERTEX
  8
0
 10
1.69162
 20
7.41465
 30
0.0
 40
0.0104167
 41
0.0104167
  0
SEQEND
 8
0
  0
POLYLINE
  8
0
 62
     7
 66
     1
 10
0
 20
0
 30
0.0
 70
     1
 40
0
 41
0
  0
VERTEX
  8
0
 10
0.234972
 20
8.06506
 30
0.0
 40
0
 41
0
  0
VERTEX
  8
0
 10
0.720486
 20
8.06506
 30
0.0
 40
0
 41
0
  0
VERTEX
  8
0
 10
0.720486
 20
7.8699
 30
0.0
 40
0
 41
0
  0
VERTEX
  8
0
 10
0.234972
 20
7.8699
 30
0.0
 40
0
 41
0
  0
VERTEX
  8
0
 10
0.234972
 20
8.06506
 30
0.0
 40
0
 41
0
  0
SEQEND
 8
0
  0
POLYLINE
  8
0
 62
     0
 66
     1
 10
0
 20
0
 30
0.0
 70
     1
 40
0.75
 41
0.75
  0
VERTEX
  8
0
 10
0.234972
 20
8.06506
 30
0.0
 40
0.0104167
 41
0.0104167
  0
VERTEX
  8
0
 10
0.720486
 20
8.06506
 30
0.0
 40
0.0104167
 41
0.0104167
  0
VERTEX
  8
0
 10
0.720486
 20
7.8699
 30
0.0
 40
0.0104167
 41
0.0104167
  0
VERTEX
  8
0
 10
0.234972
 20
7.8699
 30
0.0
 40
0.0104167
 41
0.0104167
  0
VERTEX
  8
0
 10
0.234972
 20
8.06506
 30
0.0
 40
0.0104167
 41
0.0104167
  0
SEQEND
 8
0
  0
POLYLINE
  8
0
 62
     0
 66
     1
 10
0
 20
0
 30
0.0
 70
     1
 40
0.75
 41
0.75
  0
VERTEX
  8
0
 10
1.20605
 20
8.06506
 30
0.0
 40
0.0104167
 41
0.0104167
  0
VERTEX
  8
0
 10
1.69162
 20
8.06506
 30
0.0
 40
0.0104167
 41
0.0104167
  0
VERTEX
  8
0
 10
1.69162
 20
7.8699
 30
0.0
 40
0.0104167
 41
0.0104167
  0
VERTEX
  8
0
 10
1.20605
 20
7.8699
 30
0.0
 40
0.0104167
 41
0.0104167
  0
VERTEX
  8
0
 10
1.20605
 20
8.06506
 30
0.0
 40
0.0104167
 41
0.0104167
  0
SEQEND
 8
0
  0
POLYLINE
  8
0
 62
     0
 66
     1
 10
0
 20
0
 30
0.0
 70
     1
 40
0.75
 41
0.75
  0
VERTEX
  8
0
 10
10.5257
 20
5.91868
 30
0.0
 40
0.0104167
 41
0.0104167
  0
VERTEX
  8
0
 10
10.6667
 20
5.91868
 30
0.0
 40
0.0104167
 41
0.0104167
  0
VERTEX
  8
0
 10
10.6667
 20
3.94581
 30
0.0
 40
0.0104167
 41
0.0104167
  0
VERTEX
  8
0
 10
10.5257
 20
3.94581
 30
0.0
 40
0.0104167
 41
0.0104167
  0
VERTEX
  8
0
 10
10.5257
 20
5.91868
 30
0.0
 40
0.0104167
 41
0.0104167
  0
SEQEND
 8
0
  0
ENDSEC
  0
EOF
